<svg width="484" height="289" viewBox="0 0 484 289" fill="none" xmlns="http://www.w3.org/2000/svg">
<path d="M321.154 205.165C317.329 211.877 280.277 244.104 249.077 241.892C243.317 241.483 235.254 242.52 228.759 241.027" stroke="url(#paint0_linear_2306_265863)" stroke-miterlimit="10" stroke-linecap="round"/>
<path d="M322.922 202.681C319.952 205.584 312.626 211.465 302.311 219.819C295.518 225.322 289.361 229.465 280.776 233.928C270.724 239.148 260.838 241.302 250.465 240.937C246.089 240.783 241.799 240.552 237.216 240.602C233.411 240.656 229.676 240.87 226.601 240.881" stroke="url(#paint1_linear_2306_265863)" stroke-miterlimit="10" stroke-linecap="round"/>
<path d="M324.693 199.788C320.375 202.75 313.358 207.133 303.306 216.315C296.248 222.766 291.581 226.415 282.511 231.827C272.174 237.992 262.776 239.697 251.851 239.578C246.323 239.515 241.69 238.8 236.516 238.93C232.459 239.046 228.419 239.513 224.441 240.323" stroke="url(#paint2_linear_2306_265863)" stroke-miterlimit="10" stroke-linecap="round"/>
<path d="M326.462 196.858C320.797 199.872 314.117 202.795 304.303 212.772C296.999 220.195 293.801 223.31 284.249 229.685C273.616 236.782 264.716 238.094 253.237 238.176C246.556 238.226 241.583 237.018 235.817 237.219C230.673 237.4 225.793 238.388 222.281 239.731" stroke="url(#paint3_linear_2306_265863)" stroke-miterlimit="10" stroke-linecap="round"/>
<path d="M328.231 193.927C321.218 196.997 314.904 198.494 305.299 209.227C297.762 217.652 296.015 220.195 285.984 227.545C275.046 235.557 266.652 236.515 254.63 236.776C246.793 236.947 241.482 235.236 235.124 235.508C229.309 235.758 223.857 237.126 220.127 239.137" stroke="url(#paint4_linear_2306_265863)" stroke-miterlimit="10" stroke-linecap="round"/>
<path d="M330 190.995C321.639 194.121 315.713 194.216 306.294 205.686C298.545 215.12 298.22 217.075 287.72 225.406C276.471 234.328 268.591 234.953 256.02 235.378C247.037 235.683 241.378 233.471 234.418 233.799C227.933 234.132 221.908 235.866 217.96 238.552" stroke="url(#paint5_linear_2306_265863)" stroke-miterlimit="10" stroke-linecap="round"/>
<path d="M331.771 188.063C322.061 191.246 316.545 189.952 307.29 202.141C299.347 212.601 300.421 213.945 289.457 223.26C277.891 233.09 270.529 233.395 257.408 233.976C247.264 234.425 241.271 231.686 233.73 232.086C226.575 232.488 219.977 234.603 215.809 237.949" stroke="url(#paint6_linear_2306_265863)" stroke-miterlimit="10" stroke-linecap="round"/>
<path d="M333.54 185.132C322.484 188.372 317.394 185.698 308.285 198.595C300.158 210.095 302.617 210.812 291.194 221.12C279.305 231.848 272.471 231.844 258.796 232.57C247.501 233.175 241.166 229.902 233.032 230.37C225.209 230.841 218.037 233.339 213.651 237.351" stroke="url(#paint7_linear_2306_265863)" stroke-miterlimit="10" stroke-linecap="round"/>
<path d="M335.308 182.2C322.904 185.495 318.258 181.448 309.282 195.052C301.005 207.596 304.807 207.675 292.929 218.979C280.714 230.602 274.413 230.299 260.184 231.174C247.739 231.939 241.061 228.124 232.335 228.664C223.842 229.204 216.098 232.081 211.493 236.761" stroke="url(#paint8_linear_2306_265863)" stroke-miterlimit="10" stroke-linecap="round"/>
<path d="M337.088 179.271C323.338 182.619 319.148 177.203 310.287 191.509C301.869 205.102 307.004 204.536 294.674 216.838C282.128 229.355 276.364 228.759 261.581 229.774C247.985 230.707 240.965 226.343 231.638 226.95C222.476 227.562 214.158 230.82 209.335 236.167" stroke="url(#paint9_linear_2306_265863)" stroke-miterlimit="10" stroke-linecap="round"/>
<path d="M338.848 176.339C323.748 179.741 320.026 172.958 311.272 187.966C302.717 202.613 309.153 201.373 296.402 214.697C283.498 228.091 278.297 227.227 262.96 228.374C248.215 229.482 240.849 224.561 230.94 225.239C221.102 225.918 212.215 229.56 207.177 235.572" stroke="url(#paint10_linear_2306_265863)" stroke-miterlimit="10" stroke-linecap="round"/>
<path d="M340.616 173.407C324.169 176.864 320.927 168.715 312.267 184.425C303.607 200.136 311.356 198.252 298.138 212.56C284.921 226.868 280.241 225.689 264.346 226.976C248.45 228.264 240.742 222.785 230.241 223.533C219.74 224.28 210.273 228.301 205.016 234.983" stroke="url(#paint11_linear_2306_265863)" stroke-miterlimit="10" stroke-linecap="round"/>
<path d="M341.107 170.303C325.243 173.69 321.595 166.758 313.11 181.556C304.555 196.418 311.085 195.393 298.402 208.76C285.272 222.597 278.99 222.528 263.313 223.893C248.194 225.172 239.558 220.681 228.468 221.854C217.642 223.001 207.819 227.104 202.491 233.52" stroke="url(#paint12_linear_2306_265863)" stroke-miterlimit="10" stroke-linecap="round"/>
<path d="M341.596 167.198C326.317 170.512 322.259 164.798 313.952 178.691C305.507 192.704 310.804 192.518 298.667 204.966C285.62 218.337 277.741 219.413 262.278 220.815C247.937 222.111 238.371 218.574 226.693 220.182C215.546 221.716 205.361 225.909 199.958 232.064" stroke="url(#paint13_linear_2306_265863)" stroke-miterlimit="10" stroke-linecap="round"/>
<path d="M342.084 164.094C327.39 167.334 322.961 162.865 314.797 175.827C306.49 189.016 310.52 189.653 298.932 201.17C285.956 214.072 276.492 216.274 261.243 217.736C247.679 219.032 237.184 216.459 224.918 218.507C213.448 220.422 202.901 224.714 197.437 230.619" stroke="url(#paint14_linear_2306_265863)" stroke-miterlimit="10" stroke-linecap="round"/>
<path d="M342.573 160.985C328.457 164.154 323.632 160.907 315.64 172.958C307.446 185.304 310.216 186.767 299.197 197.37C286.287 209.794 275.243 213.126 260.207 214.653C247.419 215.949 235.996 214.336 223.142 216.829C211.349 219.119 200.444 223.526 194.911 229.16" stroke="url(#paint15_linear_2306_265863)" stroke-miterlimit="10" stroke-linecap="round"/>
<path d="M343.063 157.883C329.535 160.981 324.304 158.963 316.483 170.098C308.402 181.604 309.904 183.879 299.46 193.581C286.608 205.524 273.992 209.987 259.172 211.579C247.159 212.876 234.809 212.212 221.367 215.161C209.251 217.818 197.986 222.327 192.381 227.711" stroke="url(#paint16_linear_2306_265863)" stroke-miterlimit="10" stroke-linecap="round"/>
<path d="M343.553 154.778C330.609 157.802 324.971 157.005 317.325 167.23C309.354 177.894 309.583 180.977 299.725 189.787C286.918 201.237 272.74 206.837 258.137 208.5C246.898 209.779 233.62 210.079 219.592 213.486C207.151 216.511 195.529 221.134 189.853 226.259" stroke="url(#paint17_linear_2306_265863)" stroke-miterlimit="10" stroke-linecap="round"/>
<path d="M344.041 151.674C331.683 154.627 325.637 155.051 318.162 164.366C310.295 174.185 309.245 178.063 299.982 185.994C287.207 196.932 271.481 203.683 257.093 205.422C246.631 206.686 232.421 207.943 217.811 211.813C205.04 215.196 193.061 219.94 187.316 224.805" stroke="url(#paint18_linear_2306_265863)" stroke-miterlimit="10" stroke-linecap="round"/>
<path d="M344.53 148.569C332.757 151.449 326.295 153.091 319.013 161.501C311.245 170.471 308.907 175.136 300.256 182.198C287.498 192.613 270.236 200.522 256.069 202.341C246.376 203.588 231.238 205.798 216.044 210.14C202.946 213.878 190.612 218.745 184.797 223.351" stroke="url(#paint19_linear_2306_265863)" stroke-miterlimit="10" stroke-linecap="round"/>
<path d="M345.02 145.465C333.83 148.273 326.952 151.127 319.856 158.643C312.186 166.76 308.552 172.202 300.519 178.411C287.761 188.273 268.985 197.362 255.034 199.269C246.115 200.49 230.042 203.664 214.269 208.473C200.842 212.564 188.155 217.559 182.271 221.904" stroke="url(#paint20_linear_2306_265863)" stroke-miterlimit="10" stroke-linecap="round"/>
<path d="M345.51 142.36C334.901 145.095 327.604 149.159 320.7 155.772C313.122 163.029 308.19 169.236 300.786 174.608C288.005 183.898 267.731 194.175 254 196.184C245.854 197.377 228.842 201.488 212.496 206.792C198.733 211.218 185.697 216.358 179.745 220.445" stroke="url(#paint21_linear_2306_265863)" stroke-miterlimit="10" stroke-linecap="round"/>
<path d="M346 139.256C324.79 144.89 313.882 162.173 301.049 170.815C288.217 179.456 266.472 190.984 252.963 193.106C239.455 195.227 190.475 210.566 177.215 218.991" stroke="url(#paint22_linear_2306_265863)" stroke-miterlimit="10" stroke-linecap="round"/>
<path d="M346 137.512C335.975 139.599 328.483 143.602 322.249 148.746C318.57 151.771 315.308 155.279 312.301 158.187C308.283 162.076 304.486 165.638 300.538 168.341C291.711 174.39 280.491 179.056 270.275 184.172C263.963 187.335 257.282 189.874 252.433 191.252C247.191 192.745 236.779 195.357 226.396 198.357C207.88 203.711 182.936 211.927 175.324 216.764" stroke="url(#paint23_linear_2306_265863)" stroke-miterlimit="10" stroke-linecap="round"/>
<path d="M346 135.769C335.33 137.454 327.711 140.688 321.652 145.687C317.89 148.788 314.667 152.648 311.833 155.47C307.769 159.52 303.956 163.148 300.038 165.881C290.261 172.699 279.052 175.602 269.239 181.219C263.304 184.613 256.373 187.601 251.915 189.416C246.344 191.684 235.381 194.251 225.668 196.899C207.566 201.838 180.295 210.199 173.444 214.552" stroke="url(#paint24_linear_2306_265863)" stroke-miterlimit="10" stroke-linecap="round"/>
<path d="M346 134.025C334.686 135.307 326.939 137.774 321.053 142.626C317.203 145.789 314.03 150.019 311.363 152.747C307.243 156.964 303.428 160.656 299.531 163.413C288.811 170.998 277.608 172.13 268.206 178.249C262.646 181.867 255.474 185.417 251.387 187.564C245.458 190.682 233.971 193.123 224.933 195.428C207.239 199.941 177.647 208.457 171.558 212.326" stroke="url(#paint25_linear_2306_265863)" stroke-miterlimit="10" stroke-linecap="round"/>
<path d="M346 132.28C334.042 133.159 326.167 134.859 320.457 139.562C316.532 142.79 313.399 147.392 310.894 150.025C306.726 154.415 302.902 158.168 299.024 160.948C287.364 169.302 276.161 168.643 267.169 175.282C261.981 179.115 254.593 183.312 250.863 185.717C244.588 189.763 232.558 191.982 224.199 193.961C206.905 198.038 175.008 206.718 169.661 210.103" stroke="url(#paint26_linear_2306_265863)" stroke-miterlimit="10" stroke-linecap="round"/>
<path d="M346 130.537C333.398 131.012 325.395 131.945 319.857 136.501C315.854 139.792 312.763 144.769 310.423 147.303C306.214 151.868 302.375 155.684 298.517 158.481C285.922 167.613 274.706 165.14 266.134 172.308C261.313 176.345 253.742 181.252 250.337 183.861C243.754 188.91 231.141 190.837 223.465 192.486C206.569 196.113 172.349 204.973 167.785 207.874" stroke="url(#paint27_linear_2306_265863)" stroke-miterlimit="10" stroke-linecap="round"/>
<path d="M346 128.795C332.752 128.868 324.623 129.033 319.265 133.442C315.18 136.797 312.141 142.153 309.962 144.585C305.712 149.338 301.858 153.201 298.019 156.016C284.489 165.932 273.25 161.633 265.103 169.354C260.644 173.584 252.923 179.244 249.82 182.027C242.988 188.147 229.726 189.69 222.738 191.027C206.225 194.188 169.712 203.244 165.905 205.662" stroke="url(#paint28_linear_2306_265863)" stroke-miterlimit="10" stroke-linecap="round"/>
<path d="M346 127.166C332.109 126.836 323.851 126.233 318.662 130.496C314.496 133.913 311.508 139.649 309.485 141.978C305.207 146.906 301.33 150.836 297.508 153.664C283.05 164.368 271.768 158.2 264.062 166.503C259.96 170.921 252.123 177.354 249.289 180.295C242.291 187.554 228.299 188.634 222.001 189.675C205.866 192.343 167.06 201.62 164.014 203.556" stroke="url(#paint29_linear_2306_265863)" stroke-miterlimit="10" stroke-linecap="round"/>
<path d="M346 125.717C331.456 124.982 323.079 123.613 318.063 127.728C313.816 131.209 310.886 137.329 309.016 139.55C304.709 144.67 300.808 148.643 296.999 151.49C281.617 162.99 270.264 154.947 263.024 163.83C259.266 168.432 251.351 175.652 248.763 178.737C241.688 187.186 226.868 187.737 221.265 188.498C205.504 190.634 164.41 200.164 162.126 201.624" stroke="url(#paint30_linear_2306_265863)" stroke-miterlimit="10" stroke-linecap="round"/>
<path d="M346 124.364C330.815 123.228 322.307 121.089 317.466 125.058C313.138 128.603 310.265 135.108 308.546 137.221C304.223 142.537 300.286 146.553 296.492 149.416C280.19 161.715 268.758 151.792 261.987 161.257C258.565 166.036 250.602 174.042 248.237 177.285C241.179 186.963 225.442 186.931 220.531 187.426C205.132 188.979 161.762 198.83 160.241 199.796" stroke="url(#paint31_linear_2306_265863)" stroke-miterlimit="10" stroke-linecap="round"/>
<path d="M346 123.076C330.173 121.536 321.534 118.63 316.868 122.45C312.457 126.06 309.647 132.952 308.077 134.954C303.746 140.476 299.768 144.533 295.987 147.402C278.789 160.535 267.225 148.688 260.95 158.747C257.857 163.703 249.877 172.485 247.713 175.894C240.772 186.825 224.013 186.164 219.798 186.413C204.771 187.303 159.116 197.547 158.355 198.029" stroke="url(#paint32_linear_2306_265863)" stroke-miterlimit="10" stroke-linecap="round"/>
<path d="M346 121.832C329.531 119.888 320.762 116.215 316.271 119.888C311.779 123.561 309.033 130.841 307.609 132.732C282.455 166.099 266.865 143.415 259.914 156.28C257.134 161.415 249.167 170.97 247.189 174.546C240.451 186.741 222.593 185.421 219.064 185.445C204.413 185.542 156.469 196.307 156.469 196.307" stroke="url(#paint33_linear_2306_265863)" stroke-miterlimit="10" stroke-linecap="round"/>
<path d="M154.971 192.833C155.814 193.086 175.176 189.891 192.383 186.542C203.305 184.416 213.313 182.47 219.457 182.034C223.797 181.727 240.216 182.781 247.381 171.785C249.52 168.503 257.463 159.827 260.562 155.009C266.217 146.225 276.131 155.117 290.077 147.448C295.181 144.639 300.842 139.686 307.523 131.729C309.119 129.826 311.97 123.048 316.468 119.667C321.329 116.01 330.179 119.283 345.677 121.031" stroke="url(#paint34_linear_2306_265863)" stroke-miterlimit="10" stroke-linecap="round"/>
<path d="M153.474 189.342C155.162 189.848 175.29 187.614 192.128 184.112C203.333 181.777 213.088 179.409 219.853 178.607C225.005 177.998 240.011 178.795 247.576 169.009C249.883 166.025 257.773 158.228 261.212 153.724C267.342 145.696 277.272 153.439 290.156 145.916C295.125 143.015 300.647 138.018 307.455 130.692C309.232 128.78 312.198 122.519 316.681 119.415C321.928 115.779 330.846 118.646 345.371 120.197" stroke="url(#paint35_linear_2306_265863)" stroke-miterlimit="10" stroke-linecap="round"/>
<path d="M151.977 185.816C154.507 186.577 175.388 185.304 191.874 181.645C203.361 179.095 212.863 176.291 220.249 175.146C226.212 174.222 239.842 174.777 247.77 166.198C250.256 163.51 258.073 156.593 261.863 152.404C268.441 145.13 278.408 151.697 290.225 144.361C295.063 141.358 300.491 136.354 307.378 129.629C309.345 127.708 312.43 121.979 316.885 119.134C322.531 115.53 331.505 117.982 345.056 119.337" stroke="url(#paint36_linear_2306_265863)" stroke-miterlimit="10" stroke-linecap="round"/>
<path d="M150.48 182.226C153.855 183.239 175.491 182.913 191.619 179.115C203.382 176.345 212.639 173.098 220.644 171.62C227.418 170.372 239.711 170.705 247.965 163.325C250.638 160.935 258.357 154.899 262.509 151.01C269.515 144.482 279.527 149.855 290.293 142.73C294.999 139.619 300.378 134.648 307.299 128.495C309.465 126.57 312.673 121.381 317.088 118.773C323.143 115.213 332.16 117.237 344.74 118.397" stroke="url(#paint37_linear_2306_265863)" stroke-miterlimit="10" stroke-linecap="round"/>
<path d="M148.983 178.556C153.201 179.822 175.591 180.431 191.363 176.505C203.415 173.505 212.41 169.808 221.04 168.015C228.624 166.432 239.62 166.572 248.16 160.369C251.032 158.283 258.64 153.098 263.161 149.552C270.57 143.754 280.639 147.917 290.366 141.036C294.93 137.809 300.299 132.909 307.226 127.296C309.596 125.376 312.928 120.731 317.295 118.367C323.767 114.863 332.821 116.447 344.428 117.408" stroke="url(#paint38_linear_2306_265863)" stroke-miterlimit="10" stroke-linecap="round"/>
<path d="M147.486 174.811C152.548 176.324 175.69 177.866 191.116 173.822C203.446 170.581 212.188 166.457 221.444 164.336C229.835 162.413 239.57 162.391 248.363 157.34C251.447 155.565 258.903 151.222 263.817 148.014C271.615 142.926 281.738 145.867 290.443 139.26C294.866 135.905 300.249 131.115 307.157 126.015C309.741 124.107 313.197 120.011 317.509 117.868C324.411 114.439 333.488 115.565 344.122 116.33" stroke="url(#paint39_linear_2306_265863)" stroke-miterlimit="10" stroke-linecap="round"/>
<path d="M145.989 171.041C151.894 172.815 175.786 175.265 190.853 171.111C203.459 167.635 211.948 163.065 221.831 160.631C231.028 158.364 239.525 158.241 248.549 154.285C251.851 152.838 259.151 149.317 264.459 146.45C272.634 142.051 282.803 143.762 290.505 137.46C294.783 133.963 300.2 129.322 307.072 124.714C309.878 122.83 313.454 119.285 317.706 117.351C325.044 114.018 334.136 114.664 343.799 115.232" stroke="url(#paint40_linear_2306_265863)" stroke-miterlimit="10" stroke-linecap="round"/>
<path d="M144.491 167.267C151.241 169.294 175.88 172.653 190.599 168.395C203.481 164.67 211.715 159.667 222.225 156.919C232.226 154.305 239.496 154.121 248.746 151.224C252.268 150.122 259.407 147.37 265.112 144.881C273.667 141.15 283.858 141.626 290.576 135.652C295.674 131.077 301.169 126.975 306.995 123.394C310.03 121.549 313.721 118.546 317.903 116.813C325.686 113.597 334.786 113.741 343.476 114.115" stroke="url(#paint41_linear_2306_265863)" stroke-miterlimit="10" stroke-linecap="round"/>
<path d="M142.994 163.523C150.587 165.804 175.972 170.065 190.342 165.711C203.498 161.728 211.48 156.297 222.621 153.24C233.424 150.276 239.457 150.072 248.938 148.195C252.681 147.456 259.658 145.449 265.758 143.341C274.681 140.258 284.88 139.497 290.644 133.878C294.571 130.048 300.145 125.833 306.918 122.117C310.186 120.324 313.991 117.861 318.117 116.319C326.351 113.242 335.454 112.862 343.17 113.039" stroke="url(#paint42_linear_2306_265863)" stroke-miterlimit="10" stroke-linecap="round"/>
<path d="M141.497 159.82C149.935 162.354 176.06 167.511 190.088 163.061C203.511 158.811 211.238 152.935 223.025 149.593C234.623 146.253 239.408 146.091 249.141 145.201C253.096 144.838 259.921 143.548 266.416 141.835C275.72 139.383 285.879 137.38 290.721 132.135C294.438 128.108 300.132 124.172 306.852 120.869C310.357 119.14 314.267 117.213 318.33 115.854C327.02 112.946 336.118 112.013 342.864 111.994" stroke="url(#paint43_linear_2306_265863)" stroke-miterlimit="10" stroke-linecap="round"/>
<path d="M140 156.124C149.28 158.913 176.145 164.958 189.833 160.432C203.521 155.906 211.007 149.643 223.412 145.97C235.817 142.297 239.309 142.157 249.327 142.228C259.345 142.299 284.022 138.728 290.783 130.415C300.621 118.317 329.745 111.451 342.541 110.972" stroke="url(#paint44_linear_2306_265863)" stroke-miterlimit="10" stroke-linecap="round"/>
<path d="M140 152.694C150.193 156.405 176.145 162.497 189.981 158.421C203.643 154.338 211.529 148.14 223.91 144.097C235.691 140.25 239.553 140.338 249.503 140.44C259.493 140.541 283.116 137.34 290.533 128.875C296.166 122.45 308.347 117.901 319.203 114.753C327.824 112.251 336.886 110.648 342.366 110.331" stroke="url(#paint45_linear_2306_265863)" stroke-miterlimit="10" stroke-linecap="round"/>
<path d="M140 149.241C151.109 153.879 176.158 160.065 190.131 156.388C203.778 152.795 212.047 146.629 224.411 142.2C235.567 138.206 239.799 138.5 249.678 138.631C259.643 138.765 282.187 135.922 290.285 127.315C296.008 121.229 308.819 117.287 319.158 114.279C327.499 111.855 336.844 110.075 342.182 109.667" stroke="url(#paint46_linear_2306_265863)" stroke-miterlimit="10" stroke-linecap="round"/>
<path d="M140 145.785C152.022 151.348 176.16 157.595 190.278 154.348C203.904 151.216 212.566 145.13 224.909 140.306C235.447 136.184 240.043 136.659 249.854 136.821C259.792 136.99 281.234 134.494 290.035 125.753C295.831 119.996 309.283 116.68 319.122 113.806C327.172 111.46 336.809 109.512 342.007 109.004" stroke="url(#paint47_linear_2306_265863)" stroke-miterlimit="10" stroke-linecap="round"/>
<path d="M140 142.319C152.935 148.801 176.162 155.111 190.426 152.3C204.026 149.621 213.086 143.641 225.407 138.392C235.331 134.166 240.287 134.801 250.029 134.993C259.942 135.194 280.263 133.034 289.784 124.172C295.636 118.73 309.763 116.036 319.085 113.314C326.853 111.046 336.78 108.928 341.836 108.321" stroke="url(#paint48_linear_2306_265863)" stroke-miterlimit="10" stroke-linecap="round"/>
<path d="M140 138.841C153.849 146.251 176.16 152.612 190.575 150.242C204.146 148.01 213.612 142.16 225.906 136.471C235.224 132.151 240.533 132.937 250.204 133.159C260.09 133.393 279.272 131.548 289.536 122.587C295.426 117.443 310.233 115.397 319.051 112.817C326.537 110.624 336.747 108.339 341.662 107.632" stroke="url(#paint49_linear_2306_265863)" stroke-miterlimit="10" stroke-linecap="round"/>
<path d="M140 135.352C154.757 143.687 176.158 150.094 190.723 148.169C204.268 146.381 214.147 140.692 226.406 134.54C235.122 130.165 240.777 131.059 250.382 131.314C260.239 131.578 278.263 130.029 289.286 120.987C295.208 116.131 310.704 114.744 319.015 112.307C326.214 110.192 336.715 107.736 341.487 106.934" stroke="url(#paint50_linear_2306_265863)" stroke-miterlimit="10" stroke-linecap="round"/>
<path d="M140 131.85C155.677 141.109 176.156 147.558 190.873 146.087C204.385 144.734 214.694 139.236 226.905 132.595C235.032 128.175 241.02 129.169 250.557 129.454C260.396 129.752 277.236 128.471 289.036 119.376C294.979 114.796 311.176 114.079 318.979 111.784C325.891 109.745 336.681 107.122 341.312 106.221" stroke="url(#paint51_linear_2306_265863)" stroke-miterlimit="10" stroke-linecap="round"/>
<path d="M140 128.335C156.59 138.517 176.145 145 191.02 143.987C204.505 143.069 215.259 137.795 227.403 130.636C234.948 126.188 241.264 127.266 250.733 127.581C260.539 127.911 276.184 126.872 288.788 117.751C294.744 113.43 311.647 113.4 318.944 111.246C325.574 109.285 336.651 106.493 341.138 105.493" stroke="url(#paint52_linear_2306_265863)" stroke-miterlimit="10" stroke-linecap="round"/>
<path d="M140 124.801C157.504 135.907 176.145 142.421 191.168 141.868C204.625 141.377 215.847 136.363 227.903 128.655C234.88 124.194 241.51 125.339 250.908 125.686C260.689 126.049 275.134 125.224 288.537 116.105C294.507 112.044 312.119 112.7 318.908 110.687C325.252 108.805 336.617 105.843 340.965 104.744" stroke="url(#paint53_linear_2306_265863)" stroke-miterlimit="10" stroke-linecap="round"/>
<path d="M140 121.247C158.419 133.278 176.145 139.787 191.318 139.738C204.747 139.643 216.465 134.957 228.402 126.663C234.818 122.2 241.754 123.403 251.083 123.781C260.838 124.177 274.06 123.531 288.287 114.446C294.265 110.629 312.59 111.988 318.872 110.125C324.931 108.321 336.585 105.191 340.79 103.994" stroke="url(#paint54_linear_2306_265863)" stroke-miterlimit="10" stroke-linecap="round"/>
<path d="M140 117.669C176.252 141.963 203.665 143.749 228.9 124.641C240.961 115.509 258.629 130.355 288.039 112.758C294.028 109.176 313.063 111.246 318.837 109.518C324.612 107.789 336.553 104.491 340.616 103.194" stroke="url(#paint55_linear_2306_265863)" stroke-miterlimit="10" stroke-linecap="round"/>
<path d="M140.798 115.289C158.749 127.041 176.023 134.654 190.116 135.508C203.65 136.327 216.564 131.835 228.25 123.714C241.444 114.535 257.162 127.849 285.948 110.819C291.57 107.494 305.128 108.525 313.304 107.468C314.761 107.28 316.053 107.103 317.054 106.82C322.914 105.141 334.78 102.115 339.177 100.522" stroke="url(#paint56_linear_2306_265863)" stroke-miterlimit="10" stroke-linecap="round"/>
<path d="M141.604 112.903C158.639 123.761 176.714 132.452 189.876 133.47C203.115 134.494 216.414 129.966 227.608 122.783C241.985 113.558 255.718 125.362 283.868 108.874C290.09 105.232 302.987 106.34 311.493 104.834C312.9 104.583 314.209 104.402 315.283 104.11C321.226 102.477 333.019 99.7269 337.75 97.8452" stroke="url(#paint57_linear_2306_265863)" stroke-miterlimit="10" stroke-linecap="round"/>
<path d="M142.392 110.514C158.507 120.476 177.386 130.262 189.618 131.429C202.559 132.662 216.307 128.152 226.948 121.845C242.55 112.595 254.264 122.887 281.769 106.926C288.593 102.964 300.821 104.173 309.662 102.195C311.018 101.89 312.347 101.7 313.491 101.397C319.518 99.8051 331.243 97.3358 336.301 95.1538" stroke="url(#paint58_linear_2306_265863)" stroke-miterlimit="10" stroke-linecap="round"/>
<path d="M143.189 108.114C158.385 117.187 178.068 128.08 189.367 129.378C202.018 130.832 216.258 126.397 226.295 120.899C243.17 111.654 252.829 120.419 279.677 104.968C287.107 100.693 298.662 102.026 307.842 99.5454C309.147 99.1933 310.492 98.988 311.709 98.6813C317.817 97.1279 329.461 94.9416 334.861 92.4658" stroke="url(#paint59_linear_2306_265863)" stroke-miterlimit="10" stroke-linecap="round"/>
<path d="M143.987 105.707C158.265 113.879 178.75 125.904 189.115 127.31C201.473 128.996 216.245 124.681 225.641 119.935C243.82 110.747 251.396 117.943 277.583 102.991C285.618 98.4045 296.507 99.8887 306.016 96.8793C307.271 96.4818 308.633 96.2549 309.923 95.9395C316.113 94.4272 327.688 92.5196 333.417 89.75" stroke="url(#paint60_linear_2306_265863)" stroke-miterlimit="10" stroke-linecap="round"/>
<path d="M144.782 103.287C158.143 110.568 179.431 123.735 188.869 125.248C200.936 127.192 216.269 123.025 224.993 118.983C244.537 109.909 249.978 115.487 275.498 101.025C284.138 96.1299 294.366 97.7848 304.2 94.2244C305.406 93.7924 306.784 93.5353 308.146 93.2112C314.415 91.7292 325.921 90.1132 331.985 87.0498" stroke="url(#paint61_linear_2306_265863)" stroke-miterlimit="10" stroke-linecap="round"/>
<path d="M145.58 100.853C158.023 107.239 180.108 121.571 188.621 123.163C200.384 125.364 216.307 121.387 224.338 117.997C245.283 109.159 248.553 113.005 273.404 99.0292C282.652 93.827 292.225 95.6893 302.375 91.537C303.535 91.0639 304.925 90.7809 306.36 90.4568C312.71 89.005 324.144 87.6807 330.541 84.3213" stroke="url(#paint62_linear_2306_265863)" stroke-miterlimit="10" stroke-linecap="round"/>
<path d="M146.378 98.4007C157.902 103.892 180.784 119.408 188.371 121.059C199.845 123.558 216.361 119.763 223.69 116.999C246.087 108.524 247.14 110.518 271.316 97.0181C281.176 91.5134 290.12 93.6068 300.558 88.8367C301.672 88.329 303.075 88.0135 304.583 87.6808C311.012 86.2593 322.375 85.2245 329.106 81.5713" stroke="url(#paint63_linear_2306_265863)" stroke-miterlimit="10" stroke-linecap="round"/>
<path d="M147.176 95.9267C157.78 100.524 181.454 117.243 188.123 118.933C199.287 121.763 216.418 118.172 223.04 115.977C246.939 108.057 245.726 108.01 269.227 94.9847C279.707 89.1798 288.026 91.5281 298.742 86.112C299.811 85.5719 301.223 85.2219 302.805 84.8828C309.314 83.4915 320.609 82.7505 327.671 78.8013" stroke="url(#paint64_linear_2306_265863)" stroke-miterlimit="10" stroke-linecap="round"/>
<path d="M147.971 93.4231C157.66 97.126 182.115 115.07 187.872 116.777C198.712 119.992 216.472 116.576 222.388 114.928C247.839 107.837 244.331 105.513 267.137 92.9218C278.233 86.8382 285.958 89.4652 296.917 83.36C297.944 82.7875 299.364 82.3986 301.017 82.0637C307.607 80.6919 318.831 80.2533 326.229 76.0146" stroke="url(#paint65_linear_2306_265863)" stroke-miterlimit="10" stroke-linecap="round"/>
<path d="M148.769 90.8802C157.538 93.6887 182.763 112.882 187.624 114.584C198.104 118.257 216.508 114.971 221.737 113.839C248.788 107.98 242.911 102.911 265.047 90.8197C276.749 84.4293 283.918 87.3782 295.097 80.5687C299.901 77.6414 315.058 78.8793 324.79 73.165" stroke="url(#paint66_linear_2306_265863)" stroke-miterlimit="10" stroke-linecap="round"/>
<path d="M149.391 89.9081C158.43 92.52 182.698 110.795 189.256 112.558C199.95 115.429 217.229 112.685 222.539 111.464C237.248 108.086 242.002 105.057 247.467 100.857C251.419 97.8324 255.834 94.0776 264.955 89.1606C276.218 83.0877 283.392 85.3799 294.257 79.024C299.43 75.9995 313.985 76.9133 323.228 71.6787" stroke="url(#paint67_linear_2306_265863)" stroke-miterlimit="10" stroke-linecap="round"/>
<path d="M150.014 88.8971C159.319 91.3124 182.594 108.717 190.89 110.501C201.695 112.81 217.947 110.376 223.344 109.064C237.246 105.683 242.056 102.704 247.653 98.6232C251.577 95.7607 256.062 92.142 264.863 87.4734C275.686 81.7138 282.883 83.3687 293.429 77.4514C298.977 74.3318 312.924 74.9173 321.678 70.1709" stroke="url(#paint68_linear_2306_265863)" stroke-miterlimit="10" stroke-linecap="round"/>
<path d="M150.636 87.8426C160.211 90.0613 182.465 106.651 192.522 108.381C203.406 110.254 218.668 108.003 224.148 106.597C237.248 103.235 242.113 100.282 247.839 96.3243C251.734 93.6303 256.291 90.1564 264.772 85.7211C275.155 80.2791 282.387 81.3355 292.595 75.8136C298.524 72.6054 311.857 72.856 320.123 68.5957" stroke="url(#paint69_linear_2306_265863)" stroke-miterlimit="10" stroke-linecap="round"/>
<path d="M151.259 86.7646C161.097 88.7888 182.326 104.618 194.156 106.249C205.102 107.761 219.393 105.625 224.954 104.119C237.254 100.792 242.167 97.8538 248.027 94.0127C251.89 91.485 256.524 88.1537 264.682 83.9582C274.625 78.8294 281.905 79.3004 291.763 74.163C298.074 70.8727 310.798 70.7842 318.57 67.0078" stroke="url(#paint70_linear_2306_265863)" stroke-miterlimit="10" stroke-linecap="round"/>
<path d="M151.881 85.6714C161.993 87.4969 182.181 102.626 195.788 104.1C206.792 105.29 220.11 103.235 225.756 101.622C237.261 98.3442 242.214 95.3888 248.213 91.6838C252.042 89.3073 256.753 86.1316 264.59 82.178C274.092 77.3669 281.433 77.2653 290.929 72.4974C297.63 69.1336 309.722 68.6951 317.022 65.4048" stroke="url(#paint71_linear_2306_265863)" stroke-miterlimit="10" stroke-linecap="round"/>
<path d="M152.512 84.561C162.895 86.19 182.044 100.675 197.426 101.933C208.488 102.838 220.837 100.829 226.564 99.1112C237.275 95.8987 242.265 92.9109 248.401 89.3398C252.191 87.1341 256.986 84.0944 264.5 80.3785C273.564 75.8828 280.968 75.226 290.097 70.8123C297.191 67.3838 308.657 66.5888 315.46 63.7803" stroke="url(#paint72_linear_2306_265863)" stroke-miterlimit="10" stroke-linecap="round"/>
<path d="M153.124 83.4273C163.777 84.8618 181.888 98.7661 199.054 99.7448C210.175 100.393 221.558 98.4118 227.365 96.5776C237.286 93.4429 242.304 90.4054 248.583 86.9725C252.335 84.9223 257.211 82.0339 264.41 78.56C273.034 74.3775 280.509 73.1785 289.265 69.1061C296.751 65.6236 307.592 64.4591 313.908 62.1367" stroke="url(#paint73_linear_2306_265863)" stroke-miterlimit="10" stroke-linecap="round"/>
<path d="M153.746 82.1805C164.667 83.4184 181.835 95.4625 200.688 97.4436C211.824 98.6146 222.289 95.8881 228.169 93.9287C237.306 90.8847 242.342 87.7781 248.769 84.4921C252.48 82.5931 257.442 79.8602 264.314 76.6261C272.495 72.7612 280.045 71.0286 288.424 67.2868C296.321 63.7632 306.518 62.2185 312.346 60.3735" stroke="url(#paint74_linear_2306_265863)" stroke-miterlimit="10" stroke-linecap="round"/>
<path d="M154.369 81.0872C165.559 82.1285 181.64 94.0322 202.322 95.296C213.565 95.9809 223.017 93.5289 228.971 91.4333C237.329 88.493 242.381 85.2978 248.956 82.1652C252.626 80.4153 257.671 77.8444 264.222 74.8458C271.964 71.2963 279.591 69.0408 287.59 65.621C295.895 62.0714 305.451 60.1293 310.792 58.7769" stroke="url(#paint75_linear_2306_265863)" stroke-miterlimit="10" stroke-linecap="round"/>
<path d="M154.99 79.9706C166.45 80.8153 181.473 92.7406 203.953 93.1252C215.289 93.3175 223.754 91.1614 229.775 88.9167C237.359 86.091 242.417 82.7877 249.141 79.815C252.777 78.2099 257.91 75.7967 264.13 73.0422C271.431 69.8016 279.14 67.0407 286.756 63.9319C295.475 60.3759 304.383 58.0167 309.234 57.1504" stroke="url(#paint76_linear_2306_265863)" stroke-miterlimit="10" stroke-linecap="round"/>
<path d="M155.613 78.7819C167.34 79.43 181.345 91.5282 205.588 90.8801C229.83 90.232 236.315 82.6987 249.327 77.3928C262.34 72.0868 296.889 56.3981 307.679 55.4497" stroke="url(#paint77_linear_2306_265863)" stroke-miterlimit="10" stroke-linecap="round"/>
<path d="M156.74 77.4231C168.275 78.7194 182.235 90.5626 206.146 89.5602C230.504 88.4649 237.004 81.314 249.841 75.9152C262.678 70.5164 295.333 55.2662 306.016 54.3848" stroke="url(#paint78_linear_2306_265863)" stroke-miterlimit="10" stroke-linecap="round"/>
<path d="M157.87 76.0515C169.205 77.9958 183.126 89.6619 206.728 88.2296C231.206 86.754 237.714 79.9164 250.376 74.429C262.994 68.9611 293.793 54.1214 304.375 53.3091" stroke="url(#paint79_linear_2306_265863)" stroke-miterlimit="10" stroke-linecap="round"/>
<path d="M158.997 74.6752C170.142 77.2676 184.02 88.6896 207.299 86.8922C231.894 84.991 238.413 78.5142 250.902 72.9339C263.33 67.3882 292.248 52.9741 302.722 52.2266" stroke="url(#paint80_linear_2306_265863)" stroke-miterlimit="10" stroke-linecap="round"/>
<path d="M160.124 73.2908C171.074 76.5184 184.908 87.7114 207.869 85.5467C232.585 83.2156 239.113 77.1039 251.425 71.4329C263.659 65.8158 290.702 51.8187 301.068 51.1382" stroke="url(#paint81_linear_2306_265863)" stroke-miterlimit="10" stroke-linecap="round"/>
<path d="M161.251 71.9014C172.009 75.7728 185.8 86.7216 208.439 84.1961C233.274 81.4265 239.812 75.6864 251.952 69.9376C263.991 64.232 289.166 50.6669 299.415 50.062" stroke="url(#paint82_linear_2306_265863)" stroke-miterlimit="10" stroke-linecap="round"/>
<path d="M162.38 70.5038C172.941 75.0211 186.689 85.7172 209.005 82.8374C233.958 79.6206 240.507 74.265 252.471 68.4125C264.316 62.6291 287.605 49.4875 297.76 48.9409" stroke="url(#paint83_linear_2306_265863)" stroke-miterlimit="10" stroke-linecap="round"/>
<path d="M163.507 69.1015C173.874 74.2649 187.577 84.6974 209.581 81.4762C234.649 77.8036 241.211 72.8347 252.998 66.8936C264.647 61.0303 286.059 48.3143 296.107 47.8325" stroke="url(#paint84_linear_2306_265863)" stroke-miterlimit="10" stroke-linecap="round"/>
<path d="M164.635 67.695C174.809 73.5021 188.465 83.6688 210.152 80.1064C235.336 75.9714 241.911 71.4022 253.526 65.3682C264.981 59.425 284.515 47.1345 294.458 46.7197" stroke="url(#paint85_linear_2306_265863)" stroke-miterlimit="10" stroke-linecap="round"/>
<path d="M165.772 66.2825C175.752 72.7335 189.363 82.628 210.731 78.735C236.031 74.1247 242.62 69.9638 254.063 63.8283C265.323 57.8073 282.979 45.9403 292.815 45.5903" stroke="url(#paint86_linear_2306_265863)" stroke-miterlimit="10" stroke-linecap="round"/>
<path d="M166.891 64.8715C176.676 71.9683 190.229 81.5454 211.292 77.3628C236.692 72.2298 243.311 68.5247 254.576 62.3114C265.642 56.2105 281.422 44.7669 291.149 44.4839" stroke="url(#paint87_linear_2306_265863)" stroke-miterlimit="10" stroke-linecap="round"/>
<path d="M168.018 63.4432C177.608 71.1838 191.117 80.5102 211.863 75.9734C237.378 70.3931 244.01 67.0705 255.102 60.7664C265.973 54.5856 279.875 43.5676 289.5 43.3516" stroke="url(#paint88_linear_2306_265863)" stroke-miterlimit="10" stroke-linecap="round"/>
<path d="M169.282 62.7307C178.894 69.0174 192.15 77.1491 212.117 72.7765C215.167 72.1089 217.96 71.4802 220.538 70.8645C238.093 66.6734 244.802 63.7353 254.606 58.7534C265.591 53.2012 279.302 43.3369 288.548 43.3066" stroke="url(#paint89_linear_2306_265863)" stroke-miterlimit="10" stroke-linecap="round"/>
<path d="M170.546 62.0092C180.17 66.842 193.183 73.7812 212.372 69.5706C215.332 68.9225 218.067 68.3046 220.61 67.7127C237.109 63.8045 244.229 61.1408 254.112 56.7314C265.21 51.8057 278.731 43.095 287.594 43.2506" stroke="url(#paint90_linear_2306_265863)" stroke-miterlimit="10" stroke-linecap="round"/>
<path d="M171.81 61.2788C181.46 64.6577 194.216 70.4021 212.628 66.3579C215.499 65.7271 218.174 65.1373 220.685 64.5561C236.136 60.9742 243.656 58.5524 253.622 54.7048C264.831 50.4056 278.162 42.8485 286.647 43.1899" stroke="url(#paint91_linear_2306_265863)" stroke-miterlimit="10" stroke-linecap="round"/>
<path d="M173.074 60.5267C182.745 62.4494 195.249 67.0078 212.883 63.1191C215.663 62.5077 218.281 61.9374 220.76 61.3714C235.154 58.0833 243.082 55.938 253.124 52.6499C264.444 48.9772 277.585 42.5738 285.689 43.1031" stroke="url(#paint92_linear_2306_265863)" stroke-miterlimit="10" stroke-linecap="round"/>
<path d="M174.338 59.7555C184.029 60.2222 196.282 63.5816 213.138 59.8657C215.83 59.2716 218.388 58.7229 220.837 58.172C234.174 55.1733 242.514 53.3111 252.634 50.5804C264.066 47.5364 277.016 42.2866 284.741 43.0017" stroke="url(#paint93_linear_2306_265863)" stroke-miterlimit="10" stroke-linecap="round"/>
<path d="M175.611 58.7727C185.323 57.7854 197.326 59.9501 213.403 56.3962C216.006 55.8216 218.506 55.2901 220.918 54.7565C233.197 52.0431 241.947 50.4638 252.144 48.2948C263.694 45.8795 276.451 41.7812 283.798 42.6778" stroke="url(#paint94_linear_2306_265863)" stroke-miterlimit="10" stroke-linecap="round"/>
<path d="M176.864 56.8928C186.598 54.4516 198.348 55.4237 213.651 52.0362C216.164 51.481 218.604 50.969 220.983 50.4527C232.205 48.0201 241.367 46.7303 251.642 45.1208C263.3 43.332 275.87 40.3896 282.834 41.4762" stroke="url(#paint95_linear_2306_265863)" stroke-miterlimit="10" stroke-linecap="round"/>
<path d="M178.128 55.0631C187.881 51.1744 199.381 50.9454 213.903 47.7177C216.327 47.1798 218.709 46.6872 221.055 46.1882C231.217 44.0278 240.792 43.0362 251.146 41.9863C262.909 40.8261 275.297 39.0352 281.878 40.3098" stroke="url(#paint96_linear_2306_265863)" stroke-miterlimit="10" stroke-linecap="round"/>
<path d="M179.392 53.3589C189.164 48.0098 200.414 46.5947 214.158 43.5356C216.493 43.0171 218.816 42.5397 221.128 42.0601C230.231 40.1784 240.219 39.4676 250.643 38.988C262.524 38.4544 274.715 37.8193 280.917 39.2775" stroke="url(#paint97_linear_2306_265863)" stroke-miterlimit="10" stroke-linecap="round"/>
<path d="M180.656 52.1013C190.449 45.2961 201.449 42.6885 214.412 39.7871C216.66 39.2859 218.92 38.8236 221.203 38.3677C229.244 36.7539 239.645 36.3543 250.155 36.4234C262.151 36.5163 274.15 37.0326 279.972 38.6788" stroke="url(#paint98_linear_2306_265863)" stroke-miterlimit="10" stroke-linecap="round"/>
<path d="M181.92 51.3454C193.469 41.6237 206.315 38.0763 221.273 35.1879C236.232 32.2994 268.816 35.1641 279.02 38.5991" stroke="url(#paint99_linear_2306_265863)" stroke-miterlimit="10" stroke-linecap="round"/>
<g clip-path="url(#clip0_2306_265863)">
<path d="M141 107.873C130.618 112.554 39.1315 154.804 20.6762 198.274C1.10373 244.376 143.425 238.23 217.957 224.98C300.528 210.303 463.069 119.275 470.282 83.0982C478.551 41.6261 375.76 60.5629 320.328 66.5531" stroke="url(#paint100_linear_2306_265863)" stroke-miterlimit="10" stroke-linecap="round"/>
<path d="M140.219 110C127.404 115.851 42.5055 155.885 25.2337 197.24C6.50311 242.54 146.183 236.005 219.226 222.928C300.412 208.383 458.544 119.936 465.613 84.4727C473.717 43.8341 374.555 61.7709 321 67.545" stroke="url(#paint101_linear_2306_265863)" stroke-miterlimit="10" stroke-linecap="round"/>
<path d="M140.001 111.876C127.111 117.779 46.0432 156.205 29.7982 196.203C11.7526 240.636 148.953 233.78 220.506 220.875C300.286 206.463 454.026 120.598 460.945 85.8494C468.889 46.0655 373.46 62.9572 321.762 68.527" stroke="url(#paint102_linear_2306_265863)" stroke-miterlimit="10" stroke-linecap="round"/>
<path d="M139.5 113.885C125.801 120.208 49.5577 156.82 34.3603 195.166C17.0805 238.772 151.716 231.557 221.779 218.822C300.166 204.546 449.494 121.257 456.279 87.2239C464.005 48.4681 373.172 64.0083 323.189 69.4376" stroke="url(#paint103_linear_2306_265863)" stroke-miterlimit="10" stroke-linecap="round"/>
<path d="M138.737 116C123.833 122.958 53.0079 157.615 38.9157 194.125C22.4039 236.904 154.473 229.325 223.048 216.763C300.037 202.619 444.962 121.91 451.604 88.5941C459.163 50.7181 372.134 65.1947 324.001 70.415" stroke="url(#paint104_linear_2306_265863)" stroke-miterlimit="10" stroke-linecap="round"/>
<path d="M138.5 117.899C123.723 124.843 56.6631 157.965 43.4848 193.095C27.7456 235.052 157.243 227.109 224.328 214.718C299.924 200.706 440.443 122.58 446.943 89.9755C454.301 53.0706 371.545 66.3089 325.191 71.351" stroke="url(#paint105_linear_2306_265863)" stroke-miterlimit="10" stroke-linecap="round"/>
<path d="M138.662 119.6C124.856 126.105 60.4382 157.99 48.0467 192.06C33.0848 233.195 160.008 224.884 225.601 212.665C299.804 198.786 435.918 123.242 442.275 91.3522C449.446 55.3832 370.759 67.4642 326.224 72.3048C326.046 72.3242 325.868 72.3434 325.691 72.3626" stroke="url(#paint106_linear_2306_265863)" stroke-miterlimit="10" stroke-linecap="round"/>
<path d="M138.5 121.462C125.002 127.868 64.1268 158.284 52.6089 191.033C38.4266 231.357 162.771 222.669 226.876 210.622C299.681 196.877 431.391 123.913 437.606 92.7365C444.648 57.4179 368.743 68.8096 326.217 73.3716" stroke="url(#paint107_linear_2306_265863)" stroke-miterlimit="10" stroke-linecap="round"/>
<path d="M138.678 123.147C126.184 129.097 67.917 158.287 57.1709 189.987C43.7752 229.495 165.534 220.442 228.149 208.56C299.561 194.949 426.865 124.563 432.94 94.1036C439.843 59.5242 367.068 70.0956 326.501 74.4031" stroke="url(#paint108_linear_2306_265863)" stroke-miterlimit="10" stroke-linecap="round"/>
<path d="M138.52 125C126.34 130.852 71.6208 158.585 61.7332 188.953C49.1308 227.652 168.302 218.212 229.423 206.507C299.442 193.03 422.34 125.224 428.272 95.4781C434.987 61.7924 366.062 71.2879 327.345 75.3778" stroke="url(#paint109_linear_2306_265863)" stroke-miterlimit="10" stroke-linecap="round"/>
<path d="M138.851 126.616C128.01 131.84 75.4655 158.461 66.2931 187.914C54.4864 225.812 171.061 215.99 230.698 204.455C299.319 191.11 417.815 125.887 423.604 96.8555C430.182 63.8622 364.237 72.5864 327.501 76.4251" stroke="url(#paint110_linear_2306_265863)" stroke-miterlimit="10" stroke-linecap="round"/>
<path d="M138.64 128.5C127.988 133.694 79.1696 158.823 70.8552 186.879C59.8627 223.976 173.826 213.765 231.971 202.405C299.199 189.191 413.29 126.548 418.936 98.23C425.371 65.954 362.552 73.8714 327.776 77.4593" stroke="url(#paint111_linear_2306_265863)" stroke-miterlimit="10" stroke-linecap="round"/>
<path d="M139 130.101C129.786 134.613 83.0367 158.668 75.4173 185.845C65.2436 222.147 176.589 211.535 233.247 200.352C299.077 187.271 408.764 127.209 414.268 99.6065C420.5 68.346 362.001 75.0138 329 78.3951" stroke="url(#paint112_linear_2306_265863)" stroke-miterlimit="10" stroke-linecap="round"/>
<path d="M138.775 132C129.648 136.541 86.7717 159.072 80.0001 184.808C70.6475 220.321 179.364 209.317 234.531 198.3C298.969 185.351 404.251 127.871 409.611 100.981C415.708 70.3508 359.992 76.3261 329.001 79.4571" stroke="url(#paint113_linear_2306_265863)" stroke-miterlimit="10" stroke-linecap="round"/>
<path d="M138.749 133.783C130.255 138.068 90.542 159.261 84.5416 183.771C76.0423 218.496 182.115 207.092 235.793 196.247C298.837 183.433 399.714 128.53 404.933 102.358C410.891 72.5087 358.574 77.5648 329.5 80.4669" stroke="url(#paint114_linear_2306_265863)" stroke-miterlimit="10" stroke-linecap="round"/>
<path d="M138.675 135.6C130.674 139.71 94.3284 159.52 89.1036 182.737C81.4647 216.679 184.881 204.87 237.068 194.195C298.715 181.514 395.191 129.192 400.265 103.733C406.048 74.7275 357.362 78.7866 330.17 81.4602" stroke="url(#paint115_linear_2306_265863)" stroke-miterlimit="10" stroke-linecap="round"/>
<path d="M138.704 137.365C131.41 141.184 98.1526 159.684 93.6657 181.7C86.9055 214.867 187.644 202.645 238.342 192.142C298.595 179.594 390.663 129.854 395.597 105.11C401.215 76.9249 356.074 80.0165 330.777 82.4602" stroke="url(#paint116_linear_2306_265863)" stroke-miterlimit="10" stroke-linecap="round"/>
<path d="M138.759 139.128C132.189 142.647 102.009 159.84 98.2464 180.666C92.3881 213.056 190.423 200.42 239.631 190.089C298.48 177.674 386.143 130.515 390.933 106.484C396.38 79.1644 354.924 81.2374 331.501 83.4488" stroke="url(#paint117_linear_2306_265863)" stroke-miterlimit="10" stroke-linecap="round"/>
<path d="M138.576 141C132.338 144.458 105.805 160.214 102.788 179.629C97.8658 211.248 193.17 198.197 240.89 188.037C298.353 175.755 381.613 131.177 386.261 107.861C391.532 81.4222 353.791 82.4671 332.24 84.4364" stroke="url(#paint118_linear_2306_265863)" stroke-miterlimit="10" stroke-linecap="round"/>
<path d="M138.5 143C133.536 145.822 109.727 160.072 107.35 178.597C103.394 209.445 195.933 195.977 242.164 185.989C298.233 173.842 377.088 131.839 381.595 109.24C386.702 83.6207 352.464 83.7119 332.816 85.4444" stroke="url(#paint119_linear_2306_265863)" stroke-miterlimit="10" stroke-linecap="round"/>
<path d="M138.7 144.5C134.015 147.31 113.583 160.486 111.912 177.558C108.974 207.633 198.694 193.75 243.439 183.932C298.111 171.917 372.562 132.498 376.926 110.612C381.868 85.859 351.264 84.9499 333.501 86.4341" stroke="url(#paint120_linear_2306_265863)" stroke-miterlimit="10" stroke-linecap="round"/>
<path d="M138.368 146.5C133.813 149.455 117.466 161.092 116.474 176.521C114.59 205.818 201.462 191.525 244.712 181.88C297.991 169.998 368.037 133.16 372.258 111.987C377.037 88.0119 349.851 86.1916 334 87.4446" stroke="url(#paint121_linear_2306_265863)" stroke-miterlimit="10" stroke-linecap="round"/>
</g>
<g clip-path="url(#clip1_2306_265863)">
<path d="M334.165 87.0417C388.928 95.6053 494.844 103.632 475.932 141.844C459.559 174.93 278.886 220.983 195.312 213.889C119.874 207.486 -19.1953 176.758 11.6978 137.27C42.5909 97.7815 152.468 80.7792 152.468 80.7792" stroke="url(#paint122_linear_2306_265863)" stroke-miterlimit="10" stroke-linecap="round"/>
<path d="M334.548 88.1718C387.443 96.4565 489.604 104.514 471.066 141.969C455.016 174.403 279.274 219.099 197.071 212.233C123.117 206.047 -13.5026 176.376 16.3689 137.445C46.0643 99.0266 151.877 82.5107 151.877 82.5107" stroke="url(#paint123_linear_2306_265863)" stroke-miterlimit="10" stroke-linecap="round"/>
<path d="M334.932 89.3012C385.958 97.3048 484.373 105.398 466.198 142.096C450.479 173.878 279.65 217.212 198.842 210.58C126.372 204.612 -7.93705 175.889 21.0474 137.619C48.5233 101.342 144.978 85.2657 151 84.2932" stroke="url(#paint124_linear_2306_265863)" stroke-miterlimit="10" stroke-linecap="round"/>
<path d="M335.315 90.4311C384.471 98.1553 479.122 106.274 461.334 142.222C445.93 173.347 280.033 215.329 200.605 208.925C129.618 203.177 -2.30617 175.462 25.7236 137.793C51.6361 102.973 142.209 87.3818 150.147 86.0744" stroke="url(#paint125_linear_2306_265863)" stroke-miterlimit="10" stroke-linecap="round"/>
<path d="M149.336 87.8309C140.257 89.3529 54.8646 104.457 30.3945 137.96C3.32165 175.028 132.861 201.731 202.366 207.263C280.409 213.434 441.383 172.81 456.462 142.341C473.823 107.277 383.61 99.0624 336.188 91.6375" stroke="url(#paint126_linear_2306_265863)" stroke-miterlimit="10" stroke-linecap="round"/>
<path d="M148 89.7048C136.041 91.7798 57.7794 106.432 35.0757 138.143C8.96301 174.615 136.113 200.304 204.134 205.617C280.798 211.558 436.844 172.294 451.6 142.475C468.557 108.211 382.376 99.9378 336.771 92.7989" stroke="url(#paint127_linear_2306_265863)" stroke-miterlimit="10" stroke-linecap="round"/>
<path d="M147 91.513C134.103 93.8037 61.0211 107.972 39.7513 138.319C14.6033 174.197 139.363 198.868 205.898 203.962C281.181 209.673 432.301 171.767 446.733 142.602C463.259 109.209 381.452 100.85 337.607 94" stroke="url(#paint128_linear_2306_265863)" stroke-miterlimit="10" stroke-linecap="round"/>
<path d="M146.5 93.2427C134.199 95.4513 64.5655 109.107 44.425 138.502C20.2408 173.798 142.607 197.439 207.661 202.317C281.559 207.796 427.753 171.249 441.864 142.736C457.98 110.17 380.312 101.745 338.273 95.1746" stroke="url(#paint129_linear_2306_265863)" stroke-miterlimit="10" stroke-linecap="round"/>
<path d="M146 94.9575C134.283 97.0871 68.115 110.234 49.1037 138.667C25.8912 173.378 145.856 196 209.427 200.654C281.944 205.904 423.213 170.711 437.001 142.855C452.701 111.151 379.238 102.651 339 96.3565" stroke="url(#paint130_linear_2306_265863)" stroke-miterlimit="10" stroke-linecap="round"/>
<path d="M145.333 96.7096C133.764 98.8536 71.5829 111.51 53.7793 138.843C31.5434 172.977 149.109 194.559 211.19 198.999C282.328 204.019 418.67 170.185 432.135 142.98C447.434 112.062 377.842 103.527 339.464 97.5" stroke="url(#paint131_linear_2306_265863)" stroke-miterlimit="10" stroke-linecap="round"/>
<path d="M144.844 98.4277C133.892 100.49 75.1498 112.648 58.4539 139.014C37.195 172.579 152.351 193.123 212.956 197.345C282.709 202.133 414.127 169.658 427.268 143.108C442.166 113.001 376.532 104.41 340 98.6547" stroke="url(#paint132_linear_2306_265863)" stroke-miterlimit="10" stroke-linecap="round"/>
<path d="M144.291 100.164C133.802 102.18 78.6915 113.848 63.1298 139.19C42.8657 172.191 155.601 191.686 214.719 195.693C283.092 200.248 409.584 169.131 422.401 143.232C436.904 113.927 375.173 105.302 340.5 99.8044" stroke="url(#paint133_linear_2306_265863)" stroke-miterlimit="10" stroke-linecap="round"/>
<path d="M144 101.847C134.652 103.669 82.373 114.841 67.8054 139.366C48.5388 171.811 158.85 190.245 216.485 194.039C283.473 198.362 405.041 168.605 417.534 143.36C431.638 114.861 373.812 106.196 341 100.955" stroke="url(#paint134_linear_2306_265863)" stroke-miterlimit="10" stroke-linecap="round"/>
<path d="M143.313 103.616C134.021 105.485 85.8759 116.184 72.5018 139.545C54.2337 171.438 162.107 188.817 218.259 192.387C283.868 196.48 400.509 168.081 412.678 143.488C426.371 115.799 372.446 107.093 341.5 102.106" stroke="url(#paint135_linear_2306_265863)" stroke-miterlimit="10" stroke-linecap="round"/>
<path d="M142.282 105.443C132.486 107.512 89.2283 117.765 77.1579 139.714C59.9188 171.066 165.343 187.377 220.012 190.73C284.24 194.594 395.955 167.549 407.802 143.613C421.125 116.706 370.939 107.971 341.882 103.239" stroke="url(#paint136_linear_2306_265863)" stroke-miterlimit="10" stroke-linecap="round"/>
<path d="M142.411 107.036C134.613 108.696 93.114 118.437 81.8336 139.89C65.6291 170.708 168.592 185.943 221.777 189.076C284.621 192.708 391.414 167.023 402.936 143.738C415.879 117.586 369.328 108.837 342.176 104.357" stroke="url(#paint137_linear_2306_265863)" stroke-miterlimit="10" stroke-linecap="round"/>
<path d="M141.5 108.852C133.377 110.684 96.5516 119.988 86.5099 140.064C71.3559 170.359 171.84 184.505 223.541 187.421C285.004 190.823 386.869 166.496 398.069 143.866C410.631 118.479 367.75 109.711 342.5 105.481" stroke="url(#paint138_linear_2306_265863)" stroke-miterlimit="10" stroke-linecap="round"/>
<path d="M140.874 110.621C133.102 112.471 100.148 121.319 91.2034 140.245C77.1222 170.022 175.103 183.072 225.32 185.77C285.392 188.938 382.33 165.97 393.206 143.991C405.399 119.354 366.108 110.573 342.768 106.596" stroke="url(#paint139_linear_2306_265863)" stroke-miterlimit="10" stroke-linecap="round"/>
<path d="M140.5 112.314C133.626 114.031 103.833 122.414 95.8594 140.414C82.8833 169.688 178.334 181.633 227.07 184.113C285.768 187.052 377.783 165.442 388.335 144.118C400.162 120.221 364.426 111.431 343 107.705" stroke="url(#paint140_linear_2306_265863)" stroke-miterlimit="10" stroke-linecap="round"/>
<path d="M139.835 114.095C133.318 115.854 107.449 123.792 100.534 140.592C88.6923 169.37 181.58 180.2 228.832 182.462C286.15 185.173 373.24 164.916 383.469 144.248C394.905 121.139 362.87 112.328 343.348 108.84" stroke="url(#paint141_linear_2306_265863)" stroke-miterlimit="10" stroke-linecap="round"/>
<path d="M139.499 115.786C133.909 117.408 111.197 124.884 105.211 140.764C94.5528 169.057 184.826 178.76 230.599 180.804C286.532 183.283 368.697 164.387 378.603 144.371C389.834 121.69 361.49 113.288 344 110.174" stroke="url(#paint142_linear_2306_265863)" stroke-miterlimit="10" stroke-linecap="round"/>
<path d="M344 111.5C359.513 114.19 384.807 122.123 373.737 144.496C364.154 163.86 286.916 181.398 232.363 179.149C188.078 177.324 100.45 168.75 109.888 140.937C114.86 126.282 133.693 119.253 138.85 117.577" stroke="url(#paint143_linear_2306_265863)" stroke-miterlimit="10" stroke-linecap="round"/>
</g>
<defs>
<linearGradient id="paint0_linear_2306_265863" x1="274.956" y1="205.165" x2="274.956" y2="242" gradientUnits="userSpaceOnUse">
<stop offset="0.270833" stop-color="#8732F8"/>
<stop offset="1" stop-color="#EC77FF"/>
</linearGradient>
<linearGradient id="paint1_linear_2306_265863" x1="274.762" y1="202.681" x2="274.762" y2="240.976" gradientUnits="userSpaceOnUse">
<stop offset="0.270833" stop-color="#8732F8"/>
<stop offset="1" stop-color="#EC77FF"/>
</linearGradient>
<linearGradient id="paint2_linear_2306_265863" x1="274.567" y1="199.788" x2="274.567" y2="240.323" gradientUnits="userSpaceOnUse">
<stop offset="0.270833" stop-color="#8732F8"/>
<stop offset="1" stop-color="#EC77FF"/>
</linearGradient>
<linearGradient id="paint3_linear_2306_265863" x1="274.372" y1="196.858" x2="274.372" y2="239.731" gradientUnits="userSpaceOnUse">
<stop offset="0.270833" stop-color="#8732F8"/>
<stop offset="1" stop-color="#EC77FF"/>
</linearGradient>
<linearGradient id="paint4_linear_2306_265863" x1="274.179" y1="193.927" x2="274.179" y2="239.137" gradientUnits="userSpaceOnUse">
<stop offset="0.270833" stop-color="#8732F8"/>
<stop offset="1" stop-color="#EC77FF"/>
</linearGradient>
<linearGradient id="paint5_linear_2306_265863" x1="273.98" y1="190.995" x2="273.98" y2="238.552" gradientUnits="userSpaceOnUse">
<stop offset="0.270833" stop-color="#8732F8"/>
<stop offset="1" stop-color="#EC77FF"/>
</linearGradient>
<linearGradient id="paint6_linear_2306_265863" x1="273.79" y1="188.063" x2="273.79" y2="237.949" gradientUnits="userSpaceOnUse">
<stop offset="0.270833" stop-color="#8732F8"/>
<stop offset="1" stop-color="#EC77FF"/>
</linearGradient>
<linearGradient id="paint7_linear_2306_265863" x1="273.595" y1="185.132" x2="273.595" y2="237.351" gradientUnits="userSpaceOnUse">
<stop offset="0.270833" stop-color="#8732F8"/>
<stop offset="1" stop-color="#EC77FF"/>
</linearGradient>
<linearGradient id="paint8_linear_2306_265863" x1="273.401" y1="182.2" x2="273.401" y2="236.761" gradientUnits="userSpaceOnUse">
<stop offset="0.270833" stop-color="#8732F8"/>
<stop offset="1" stop-color="#EC77FF"/>
</linearGradient>
<linearGradient id="paint9_linear_2306_265863" x1="273.211" y1="179.271" x2="273.211" y2="236.167" gradientUnits="userSpaceOnUse">
<stop offset="0.270833" stop-color="#8732F8"/>
<stop offset="1" stop-color="#EC77FF"/>
</linearGradient>
<linearGradient id="paint10_linear_2306_265863" x1="273.012" y1="176.339" x2="273.012" y2="235.572" gradientUnits="userSpaceOnUse">
<stop offset="0.270833" stop-color="#8732F8"/>
<stop offset="1" stop-color="#EC77FF"/>
</linearGradient>
<linearGradient id="paint11_linear_2306_265863" x1="272.816" y1="173.407" x2="272.816" y2="234.983" gradientUnits="userSpaceOnUse">
<stop offset="0.270833" stop-color="#8732F8"/>
<stop offset="1" stop-color="#EC77FF"/>
</linearGradient>
<linearGradient id="paint12_linear_2306_265863" x1="271.799" y1="170.303" x2="271.799" y2="233.52" gradientUnits="userSpaceOnUse">
<stop offset="0.270833" stop-color="#8732F8"/>
<stop offset="1" stop-color="#EC77FF"/>
</linearGradient>
<linearGradient id="paint13_linear_2306_265863" x1="270.777" y1="167.198" x2="270.777" y2="232.064" gradientUnits="userSpaceOnUse">
<stop offset="0.270833" stop-color="#8732F8"/>
<stop offset="1" stop-color="#EC77FF"/>
</linearGradient>
<linearGradient id="paint14_linear_2306_265863" x1="269.76" y1="164.094" x2="269.76" y2="230.619" gradientUnits="userSpaceOnUse">
<stop offset="0.270833" stop-color="#8732F8"/>
<stop offset="1" stop-color="#EC77FF"/>
</linearGradient>
<linearGradient id="paint15_linear_2306_265863" x1="268.742" y1="160.985" x2="268.742" y2="229.16" gradientUnits="userSpaceOnUse">
<stop offset="0.270833" stop-color="#8732F8"/>
<stop offset="1" stop-color="#EC77FF"/>
</linearGradient>
<linearGradient id="paint16_linear_2306_265863" x1="267.722" y1="157.883" x2="267.722" y2="227.711" gradientUnits="userSpaceOnUse">
<stop offset="0.270833" stop-color="#8732F8"/>
<stop offset="1" stop-color="#EC77FF"/>
</linearGradient>
<linearGradient id="paint17_linear_2306_265863" x1="266.703" y1="154.778" x2="266.703" y2="226.259" gradientUnits="userSpaceOnUse">
<stop offset="0.270833" stop-color="#8732F8"/>
<stop offset="1" stop-color="#EC77FF"/>
</linearGradient>
<linearGradient id="paint18_linear_2306_265863" x1="265.678" y1="151.674" x2="265.678" y2="224.805" gradientUnits="userSpaceOnUse">
<stop offset="0.270833" stop-color="#8732F8"/>
<stop offset="1" stop-color="#EC77FF"/>
</linearGradient>
<linearGradient id="paint19_linear_2306_265863" x1="264.664" y1="148.569" x2="264.664" y2="223.351" gradientUnits="userSpaceOnUse">
<stop offset="0.270833" stop-color="#8732F8"/>
<stop offset="1" stop-color="#EC77FF"/>
</linearGradient>
<linearGradient id="paint20_linear_2306_265863" x1="263.645" y1="145.465" x2="263.645" y2="221.904" gradientUnits="userSpaceOnUse">
<stop offset="0.270833" stop-color="#8732F8"/>
<stop offset="1" stop-color="#EC77FF"/>
</linearGradient>
<linearGradient id="paint21_linear_2306_265863" x1="262.627" y1="142.36" x2="262.627" y2="220.445" gradientUnits="userSpaceOnUse">
<stop offset="0.270833" stop-color="#8732F8"/>
<stop offset="1" stop-color="#EC77FF"/>
</linearGradient>
<linearGradient id="paint22_linear_2306_265863" x1="261.607" y1="139.256" x2="261.607" y2="218.991" gradientUnits="userSpaceOnUse">
<stop offset="0.270833" stop-color="#8732F8"/>
<stop offset="1" stop-color="#EC77FF"/>
</linearGradient>
<linearGradient id="paint23_linear_2306_265863" x1="260.662" y1="137.512" x2="260.662" y2="216.764" gradientUnits="userSpaceOnUse">
<stop offset="0.270833" stop-color="#8732F8"/>
<stop offset="1" stop-color="#EC77FF"/>
</linearGradient>
<linearGradient id="paint24_linear_2306_265863" x1="259.722" y1="135.769" x2="259.722" y2="214.552" gradientUnits="userSpaceOnUse">
<stop offset="0.270833" stop-color="#8732F8"/>
<stop offset="1" stop-color="#EC77FF"/>
</linearGradient>
<linearGradient id="paint25_linear_2306_265863" x1="258.779" y1="134.025" x2="258.779" y2="212.326" gradientUnits="userSpaceOnUse">
<stop offset="0.270833" stop-color="#8732F8"/>
<stop offset="1" stop-color="#EC77FF"/>
</linearGradient>
<linearGradient id="paint26_linear_2306_265863" x1="257.83" y1="132.28" x2="257.83" y2="210.103" gradientUnits="userSpaceOnUse">
<stop offset="0.270833" stop-color="#8732F8"/>
<stop offset="1" stop-color="#EC77FF"/>
</linearGradient>
<linearGradient id="paint27_linear_2306_265863" x1="256.892" y1="130.537" x2="256.892" y2="207.874" gradientUnits="userSpaceOnUse">
<stop offset="0.270833" stop-color="#8732F8"/>
<stop offset="1" stop-color="#EC77FF"/>
</linearGradient>
<linearGradient id="paint28_linear_2306_265863" x1="255.952" y1="128.795" x2="255.952" y2="205.662" gradientUnits="userSpaceOnUse">
<stop offset="0.270833" stop-color="#8732F8"/>
<stop offset="1" stop-color="#EC77FF"/>
</linearGradient>
<linearGradient id="paint29_linear_2306_265863" x1="255.007" y1="126.934" x2="255.007" y2="203.556" gradientUnits="userSpaceOnUse">
<stop offset="0.270833" stop-color="#8732F8"/>
<stop offset="1" stop-color="#EC77FF"/>
</linearGradient>
<linearGradient id="paint30_linear_2306_265863" x1="254.063" y1="124.896" x2="254.063" y2="201.624" gradientUnits="userSpaceOnUse">
<stop offset="0.270833" stop-color="#8732F8"/>
<stop offset="1" stop-color="#EC77FF"/>
</linearGradient>
<linearGradient id="paint31_linear_2306_265863" x1="253.121" y1="122.76" x2="253.121" y2="199.796" gradientUnits="userSpaceOnUse">
<stop offset="0.270833" stop-color="#8732F8"/>
<stop offset="1" stop-color="#EC77FF"/>
</linearGradient>
<linearGradient id="paint32_linear_2306_265863" x1="252.177" y1="120.562" x2="252.177" y2="198.029" gradientUnits="userSpaceOnUse">
<stop offset="0.270833" stop-color="#8732F8"/>
<stop offset="1" stop-color="#EC77FF"/>
</linearGradient>
<linearGradient id="paint33_linear_2306_265863" x1="251.234" y1="118.32" x2="251.234" y2="196.307" gradientUnits="userSpaceOnUse">
<stop offset="0.270833" stop-color="#8732F8"/>
<stop offset="1" stop-color="#EC77FF"/>
</linearGradient>
<linearGradient id="paint34_linear_2306_265863" x1="250.324" y1="118.007" x2="250.324" y2="192.847" gradientUnits="userSpaceOnUse">
<stop offset="0.270833" stop-color="#8732F8"/>
<stop offset="1" stop-color="#EC77FF"/>
</linearGradient>
<linearGradient id="paint35_linear_2306_265863" x1="249.422" y1="117.651" x2="249.422" y2="189.414" gradientUnits="userSpaceOnUse">
<stop offset="0.270833" stop-color="#8732F8"/>
<stop offset="1" stop-color="#EC77FF"/>
</linearGradient>
<linearGradient id="paint36_linear_2306_265863" x1="248.517" y1="117.256" x2="248.517" y2="186.027" gradientUnits="userSpaceOnUse">
<stop offset="0.270833" stop-color="#8732F8"/>
<stop offset="1" stop-color="#EC77FF"/>
</linearGradient>
<linearGradient id="paint37_linear_2306_265863" x1="247.61" y1="116.765" x2="247.61" y2="182.719" gradientUnits="userSpaceOnUse">
<stop offset="0.270833" stop-color="#8732F8"/>
<stop offset="1" stop-color="#EC77FF"/>
</linearGradient>
<linearGradient id="paint38_linear_2306_265863" x1="246.705" y1="116.205" x2="246.705" y2="179.516" gradientUnits="userSpaceOnUse">
<stop offset="0.270833" stop-color="#8732F8"/>
<stop offset="1" stop-color="#EC77FF"/>
</linearGradient>
<linearGradient id="paint39_linear_2306_265863" x1="245.804" y1="115.522" x2="245.804" y2="176.405" gradientUnits="userSpaceOnUse">
<stop offset="0.270833" stop-color="#8732F8"/>
<stop offset="1" stop-color="#EC77FF"/>
</linearGradient>
<linearGradient id="paint40_linear_2306_265863" x1="244.894" y1="114.772" x2="244.894" y2="173.392" gradientUnits="userSpaceOnUse">
<stop offset="0.270833" stop-color="#8732F8"/>
<stop offset="1" stop-color="#EC77FF"/>
</linearGradient>
<linearGradient id="paint41_linear_2306_265863" x1="243.984" y1="113.924" x2="243.984" y2="170.45" gradientUnits="userSpaceOnUse">
<stop offset="0.270833" stop-color="#8732F8"/>
<stop offset="1" stop-color="#EC77FF"/>
</linearGradient>
<linearGradient id="paint42_linear_2306_265863" x1="243.082" y1="113.003" x2="243.082" y2="167.592" gradientUnits="userSpaceOnUse">
<stop offset="0.270833" stop-color="#8732F8"/>
<stop offset="1" stop-color="#EC77FF"/>
</linearGradient>
<linearGradient id="paint43_linear_2306_265863" x1="242.181" y1="111.994" x2="242.181" y2="164.808" gradientUnits="userSpaceOnUse">
<stop offset="0.270833" stop-color="#8732F8"/>
<stop offset="1" stop-color="#EC77FF"/>
</linearGradient>
<linearGradient id="paint44_linear_2306_265863" x1="241.271" y1="110.972" x2="241.271" y2="162.061" gradientUnits="userSpaceOnUse">
<stop offset="0.270833" stop-color="#8732F8"/>
<stop offset="1" stop-color="#EC77FF"/>
</linearGradient>
<linearGradient id="paint45_linear_2306_265863" x1="241.183" y1="110.331" x2="241.183" y2="159.773" gradientUnits="userSpaceOnUse">
<stop offset="0.270833" stop-color="#8732F8"/>
<stop offset="1" stop-color="#EC77FF"/>
</linearGradient>
<linearGradient id="paint46_linear_2306_265863" x1="241.091" y1="109.667" x2="241.091" y2="157.505" gradientUnits="userSpaceOnUse">
<stop offset="0.270833" stop-color="#8732F8"/>
<stop offset="1" stop-color="#EC77FF"/>
</linearGradient>
<linearGradient id="paint47_linear_2306_265863" x1="241.003" y1="109.004" x2="241.003" y2="155.241" gradientUnits="userSpaceOnUse">
<stop offset="0.270833" stop-color="#8732F8"/>
<stop offset="1" stop-color="#EC77FF"/>
</linearGradient>
<linearGradient id="paint48_linear_2306_265863" x1="240.918" y1="108.321" x2="240.918" y2="152.987" gradientUnits="userSpaceOnUse">
<stop offset="0.270833" stop-color="#8732F8"/>
<stop offset="1" stop-color="#EC77FF"/>
</linearGradient>
<linearGradient id="paint49_linear_2306_265863" x1="240.831" y1="107.632" x2="240.831" y2="150.745" gradientUnits="userSpaceOnUse">
<stop offset="0.270833" stop-color="#8732F8"/>
<stop offset="1" stop-color="#EC77FF"/>
</linearGradient>
<linearGradient id="paint50_linear_2306_265863" x1="240.743" y1="106.934" x2="240.743" y2="148.513" gradientUnits="userSpaceOnUse">
<stop offset="0.270833" stop-color="#8732F8"/>
<stop offset="1" stop-color="#EC77FF"/>
</linearGradient>
<linearGradient id="paint51_linear_2306_265863" x1="240.656" y1="106.221" x2="240.656" y2="146.296" gradientUnits="userSpaceOnUse">
<stop offset="0.270833" stop-color="#8732F8"/>
<stop offset="1" stop-color="#EC77FF"/>
</linearGradient>
<linearGradient id="paint52_linear_2306_265863" x1="240.569" y1="105.493" x2="240.569" y2="144.091" gradientUnits="userSpaceOnUse">
<stop offset="0.270833" stop-color="#8732F8"/>
<stop offset="1" stop-color="#EC77FF"/>
</linearGradient>
<linearGradient id="paint53_linear_2306_265863" x1="240.483" y1="104.744" x2="240.483" y2="141.9" gradientUnits="userSpaceOnUse">
<stop offset="0.270833" stop-color="#8732F8"/>
<stop offset="1" stop-color="#EC77FF"/>
</linearGradient>
<linearGradient id="paint54_linear_2306_265863" x1="240.395" y1="103.994" x2="240.395" y2="139.738" gradientUnits="userSpaceOnUse">
<stop offset="0.270833" stop-color="#8732F8"/>
<stop offset="1" stop-color="#EC77FF"/>
</linearGradient>
<linearGradient id="paint55_linear_2306_265863" x1="240.308" y1="103.194" x2="240.308" y2="137.596" gradientUnits="userSpaceOnUse">
<stop offset="0.270833" stop-color="#8732F8"/>
<stop offset="1" stop-color="#EC77FF"/>
</linearGradient>
<linearGradient id="paint56_linear_2306_265863" x1="239.988" y1="100.522" x2="239.988" y2="135.603" gradientUnits="userSpaceOnUse">
<stop offset="0.270833" stop-color="#8732F8"/>
<stop offset="1" stop-color="#EC77FF"/>
</linearGradient>
<linearGradient id="paint57_linear_2306_265863" x1="239.677" y1="97.8452" x2="239.677" y2="133.614" gradientUnits="userSpaceOnUse">
<stop offset="0.270833" stop-color="#8732F8"/>
<stop offset="1" stop-color="#EC77FF"/>
</linearGradient>
<linearGradient id="paint58_linear_2306_265863" x1="239.346" y1="95.1538" x2="239.346" y2="131.633" gradientUnits="userSpaceOnUse">
<stop offset="0.270833" stop-color="#8732F8"/>
<stop offset="1" stop-color="#EC77FF"/>
</linearGradient>
<linearGradient id="paint59_linear_2306_265863" x1="239.025" y1="92.4658" x2="239.025" y2="129.657" gradientUnits="userSpaceOnUse">
<stop offset="0.270833" stop-color="#8732F8"/>
<stop offset="1" stop-color="#EC77FF"/>
</linearGradient>
<linearGradient id="paint60_linear_2306_265863" x1="238.702" y1="89.75" x2="238.702" y2="127.683" gradientUnits="userSpaceOnUse">
<stop offset="0.270833" stop-color="#8732F8"/>
<stop offset="1" stop-color="#EC77FF"/>
</linearGradient>
<linearGradient id="paint61_linear_2306_265863" x1="238.384" y1="87.0498" x2="238.384" y2="125.74" gradientUnits="userSpaceOnUse">
<stop offset="0.270833" stop-color="#8732F8"/>
<stop offset="1" stop-color="#EC77FF"/>
</linearGradient>
<linearGradient id="paint62_linear_2306_265863" x1="238.06" y1="84.3213" x2="238.06" y2="123.796" gradientUnits="userSpaceOnUse">
<stop offset="0.270833" stop-color="#8732F8"/>
<stop offset="1" stop-color="#EC77FF"/>
</linearGradient>
<linearGradient id="paint63_linear_2306_265863" x1="237.742" y1="81.5713" x2="237.742" y2="121.874" gradientUnits="userSpaceOnUse">
<stop offset="0.270833" stop-color="#8732F8"/>
<stop offset="1" stop-color="#EC77FF"/>
</linearGradient>
<linearGradient id="paint64_linear_2306_265863" x1="237.423" y1="78.8013" x2="237.423" y2="119.975" gradientUnits="userSpaceOnUse">
<stop offset="0.270833" stop-color="#8732F8"/>
<stop offset="1" stop-color="#EC77FF"/>
</linearGradient>
<linearGradient id="paint65_linear_2306_265863" x1="237.1" y1="76.0146" x2="237.1" y2="118.107" gradientUnits="userSpaceOnUse">
<stop offset="0.270833" stop-color="#8732F8"/>
<stop offset="1" stop-color="#EC77FF"/>
</linearGradient>
<linearGradient id="paint66_linear_2306_265863" x1="236.779" y1="73.165" x2="236.779" y2="116.275" gradientUnits="userSpaceOnUse">
<stop offset="0.270833" stop-color="#8732F8"/>
<stop offset="1" stop-color="#EC77FF"/>
</linearGradient>
<linearGradient id="paint67_linear_2306_265863" x1="236.31" y1="71.6787" x2="236.31" y2="113.823" gradientUnits="userSpaceOnUse">
<stop offset="0.270833" stop-color="#8732F8"/>
<stop offset="1" stop-color="#EC77FF"/>
</linearGradient>
<linearGradient id="paint68_linear_2306_265863" x1="235.846" y1="70.1709" x2="235.846" y2="111.457" gradientUnits="userSpaceOnUse">
<stop offset="0.270833" stop-color="#8732F8"/>
<stop offset="1" stop-color="#EC77FF"/>
</linearGradient>
<linearGradient id="paint69_linear_2306_265863" x1="235.38" y1="68.5957" x2="235.38" y2="109.094" gradientUnits="userSpaceOnUse">
<stop offset="0.270833" stop-color="#8732F8"/>
<stop offset="1" stop-color="#EC77FF"/>
</linearGradient>
<linearGradient id="paint70_linear_2306_265863" x1="234.914" y1="67.0078" x2="234.914" y2="106.767" gradientUnits="userSpaceOnUse">
<stop offset="0.270833" stop-color="#8732F8"/>
<stop offset="1" stop-color="#EC77FF"/>
</linearGradient>
<linearGradient id="paint71_linear_2306_265863" x1="234.451" y1="65.4048" x2="234.451" y2="104.454" gradientUnits="userSpaceOnUse">
<stop offset="0.270833" stop-color="#8732F8"/>
<stop offset="1" stop-color="#EC77FF"/>
</linearGradient>
<linearGradient id="paint72_linear_2306_265863" x1="233.986" y1="63.7803" x2="233.986" y2="102.157" gradientUnits="userSpaceOnUse">
<stop offset="0.270833" stop-color="#8732F8"/>
<stop offset="1" stop-color="#EC77FF"/>
</linearGradient>
<linearGradient id="paint73_linear_2306_265863" x1="233.516" y1="62.1367" x2="233.516" y2="99.8704" gradientUnits="userSpaceOnUse">
<stop offset="0.270833" stop-color="#8732F8"/>
<stop offset="1" stop-color="#EC77FF"/>
</linearGradient>
<linearGradient id="paint74_linear_2306_265863" x1="233.046" y1="60.3735" x2="233.046" y2="97.7259" gradientUnits="userSpaceOnUse">
<stop offset="0.270833" stop-color="#8732F8"/>
<stop offset="1" stop-color="#EC77FF"/>
</linearGradient>
<linearGradient id="paint75_linear_2306_265863" x1="232.58" y1="58.7769" x2="232.58" y2="95.4132" gradientUnits="userSpaceOnUse">
<stop offset="0.270833" stop-color="#8732F8"/>
<stop offset="1" stop-color="#EC77FF"/>
</linearGradient>
<linearGradient id="paint76_linear_2306_265863" x1="232.112" y1="57.1504" x2="232.112" y2="93.1371" gradientUnits="userSpaceOnUse">
<stop offset="0.270833" stop-color="#8732F8"/>
<stop offset="1" stop-color="#EC77FF"/>
</linearGradient>
<linearGradient id="paint77_linear_2306_265863" x1="231.646" y1="55.4497" x2="231.646" y2="90.9052" gradientUnits="userSpaceOnUse">
<stop offset="0.270833" stop-color="#8732F8"/>
<stop offset="1" stop-color="#EC77FF"/>
</linearGradient>
<linearGradient id="paint78_linear_2306_265863" x1="231.378" y1="54.3848" x2="231.378" y2="89.6204" gradientUnits="userSpaceOnUse">
<stop offset="0.270833" stop-color="#8732F8"/>
<stop offset="1" stop-color="#EC77FF"/>
</linearGradient>
<linearGradient id="paint79_linear_2306_265863" x1="231.122" y1="53.3091" x2="231.122" y2="88.3511" gradientUnits="userSpaceOnUse">
<stop offset="0.270833" stop-color="#8732F8"/>
<stop offset="1" stop-color="#EC77FF"/>
</linearGradient>
<linearGradient id="paint80_linear_2306_265863" x1="230.859" y1="52.2266" x2="230.859" y2="87.0831" gradientUnits="userSpaceOnUse">
<stop offset="0.270833" stop-color="#8732F8"/>
<stop offset="1" stop-color="#EC77FF"/>
</linearGradient>
<linearGradient id="paint81_linear_2306_265863" x1="230.596" y1="51.1382" x2="230.596" y2="85.8224" gradientUnits="userSpaceOnUse">
<stop offset="0.270833" stop-color="#8732F8"/>
<stop offset="1" stop-color="#EC77FF"/>
</linearGradient>
<linearGradient id="paint82_linear_2306_265863" x1="230.333" y1="50.062" x2="230.333" y2="84.5702" gradientUnits="userSpaceOnUse">
<stop offset="0.270833" stop-color="#8732F8"/>
<stop offset="1" stop-color="#EC77FF"/>
</linearGradient>
<linearGradient id="paint83_linear_2306_265863" x1="230.07" y1="48.9409" x2="230.07" y2="83.3224" gradientUnits="userSpaceOnUse">
<stop offset="0.270833" stop-color="#8732F8"/>
<stop offset="1" stop-color="#EC77FF"/>
</linearGradient>
<linearGradient id="paint84_linear_2306_265863" x1="229.807" y1="47.8325" x2="229.807" y2="82.0818" gradientUnits="userSpaceOnUse">
<stop offset="0.270833" stop-color="#8732F8"/>
<stop offset="1" stop-color="#EC77FF"/>
</linearGradient>
<linearGradient id="paint85_linear_2306_265863" x1="229.546" y1="46.7197" x2="229.546" y2="80.8453" gradientUnits="userSpaceOnUse">
<stop offset="0.270833" stop-color="#8732F8"/>
<stop offset="1" stop-color="#EC77FF"/>
</linearGradient>
<linearGradient id="paint86_linear_2306_265863" x1="229.294" y1="45.5903" x2="229.294" y2="79.6158" gradientUnits="userSpaceOnUse">
<stop offset="0.270833" stop-color="#8732F8"/>
<stop offset="1" stop-color="#EC77FF"/>
</linearGradient>
<linearGradient id="paint87_linear_2306_265863" x1="229.02" y1="44.4839" x2="229.02" y2="78.3828" gradientUnits="userSpaceOnUse">
<stop offset="0.270833" stop-color="#8732F8"/>
<stop offset="1" stop-color="#EC77FF"/>
</linearGradient>
<linearGradient id="paint88_linear_2306_265863" x1="228.759" y1="43.3516" x2="228.759" y2="77.166" gradientUnits="userSpaceOnUse">
<stop offset="0.270833" stop-color="#8732F8"/>
<stop offset="1" stop-color="#EC77FF"/>
</linearGradient>
<linearGradient id="paint89_linear_2306_265863" x1="228.915" y1="43.3066" x2="228.915" y2="74.0146" gradientUnits="userSpaceOnUse">
<stop offset="0.270833" stop-color="#8732F8"/>
<stop offset="1" stop-color="#EC77FF"/>
</linearGradient>
<linearGradient id="paint90_linear_2306_265863" x1="229.07" y1="43.2485" x2="229.07" y2="70.872" gradientUnits="userSpaceOnUse">
<stop offset="0.270833" stop-color="#8732F8"/>
<stop offset="1" stop-color="#EC77FF"/>
</linearGradient>
<linearGradient id="paint91_linear_2306_265863" x1="229.229" y1="43.1787" x2="229.229" y2="67.7465" gradientUnits="userSpaceOnUse">
<stop offset="0.270833" stop-color="#8732F8"/>
<stop offset="1" stop-color="#EC77FF"/>
</linearGradient>
<linearGradient id="paint92_linear_2306_265863" x1="229.381" y1="43.0723" x2="229.381" y2="64.6423" gradientUnits="userSpaceOnUse">
<stop offset="0.270833" stop-color="#8732F8"/>
<stop offset="1" stop-color="#EC77FF"/>
</linearGradient>
<linearGradient id="paint93_linear_2306_265863" x1="229.54" y1="42.9355" x2="229.54" y2="61.5946" gradientUnits="userSpaceOnUse">
<stop offset="0.270833" stop-color="#8732F8"/>
<stop offset="1" stop-color="#EC77FF"/>
</linearGradient>
<linearGradient id="paint94_linear_2306_265863" x1="229.704" y1="42.5518" x2="229.704" y2="58.7727" gradientUnits="userSpaceOnUse">
<stop offset="0.270833" stop-color="#8732F8"/>
<stop offset="1" stop-color="#EC77FF"/>
</linearGradient>
<linearGradient id="paint95_linear_2306_265863" x1="229.849" y1="41.2417" x2="229.849" y2="56.8928" gradientUnits="userSpaceOnUse">
<stop offset="0.270833" stop-color="#8732F8"/>
<stop offset="1" stop-color="#EC77FF"/>
</linearGradient>
<linearGradient id="paint96_linear_2306_265863" x1="230.003" y1="39.8706" x2="230.003" y2="55.0631" gradientUnits="userSpaceOnUse">
<stop offset="0.270833" stop-color="#8732F8"/>
<stop offset="1" stop-color="#EC77FF"/>
</linearGradient>
<linearGradient id="paint97_linear_2306_265863" x1="230.155" y1="38.3804" x2="230.155" y2="53.3589" gradientUnits="userSpaceOnUse">
<stop offset="0.270833" stop-color="#8732F8"/>
<stop offset="1" stop-color="#EC77FF"/>
</linearGradient>
<linearGradient id="paint98_linear_2306_265863" x1="230.314" y1="36.416" x2="230.314" y2="52.1013" gradientUnits="userSpaceOnUse">
<stop offset="0.270833" stop-color="#8732F8"/>
<stop offset="1" stop-color="#EC77FF"/>
</linearGradient>
<linearGradient id="paint99_linear_2306_265863" x1="230.47" y1="34" x2="230.47" y2="51.3454" gradientUnits="userSpaceOnUse">
<stop offset="0.270833" stop-color="#8732F8"/>
<stop offset="1" stop-color="#EC77FF"/>
</linearGradient>
<linearGradient id="paint100_linear_2306_265863" x1="244.8" y1="57.0161" x2="244.8" y2="234.584" gradientUnits="userSpaceOnUse">
<stop stop-color="#8732F8"/>
<stop offset="1" stop-color="#EC77FF"/>
</linearGradient>
<linearGradient id="paint101_linear_2306_265863" x1="244.802" y1="58.6021" x2="244.802" y2="232.592" gradientUnits="userSpaceOnUse">
<stop stop-color="#8732F8"/>
<stop offset="1" stop-color="#EC77FF"/>
</linearGradient>
<linearGradient id="paint102_linear_2306_265863" x1="244.795" y1="60.1802" x2="244.795" y2="230.583" gradientUnits="userSpaceOnUse">
<stop stop-color="#8732F8"/>
<stop offset="1" stop-color="#EC77FF"/>
</linearGradient>
<linearGradient id="paint103_linear_2306_265863" x1="244.793" y1="61.7505" x2="244.793" y2="228.591" gradientUnits="userSpaceOnUse">
<stop stop-color="#8732F8"/>
<stop offset="1" stop-color="#EC77FF"/>
</linearGradient>
<linearGradient id="paint104_linear_2306_265863" x1="244.783" y1="63.313" x2="244.783" y2="226.597" gradientUnits="userSpaceOnUse">
<stop stop-color="#8732F8"/>
<stop offset="1" stop-color="#EC77FF"/>
</linearGradient>
<linearGradient id="paint105_linear_2306_265863" x1="244.787" y1="64.8662" x2="244.787" y2="224.622" gradientUnits="userSpaceOnUse">
<stop stop-color="#8732F8"/>
<stop offset="1" stop-color="#EC77FF"/>
</linearGradient>
<linearGradient id="paint106_linear_2306_265863" x1="244.782" y1="66.4087" x2="244.782" y2="222.645" gradientUnits="userSpaceOnUse">
<stop stop-color="#8732F8"/>
<stop offset="1" stop-color="#EC77FF"/>
</linearGradient>
<linearGradient id="paint107_linear_2306_265863" x1="244.778" y1="67.9419" x2="244.778" y2="220.686" gradientUnits="userSpaceOnUse">
<stop stop-color="#8732F8"/>
<stop offset="1" stop-color="#EC77FF"/>
</linearGradient>
<linearGradient id="paint108_linear_2306_265863" x1="244.774" y1="69.458" x2="244.774" y2="218.715" gradientUnits="userSpaceOnUse">
<stop stop-color="#8732F8"/>
<stop offset="1" stop-color="#EC77FF"/>
</linearGradient>
<linearGradient id="paint109_linear_2306_265863" x1="244.768" y1="70.9634" x2="244.768" y2="216.757" gradientUnits="userSpaceOnUse">
<stop stop-color="#8732F8"/>
<stop offset="1" stop-color="#EC77FF"/>
</linearGradient>
<linearGradient id="paint110_linear_2306_265863" x1="244.761" y1="72.4517" x2="244.761" y2="214.809" gradientUnits="userSpaceOnUse">
<stop stop-color="#8732F8"/>
<stop offset="1" stop-color="#EC77FF"/>
</linearGradient>
<linearGradient id="paint111_linear_2306_265863" x1="244.754" y1="73.9248" x2="244.754" y2="212.869" gradientUnits="userSpaceOnUse">
<stop stop-color="#8732F8"/>
<stop offset="1" stop-color="#EC77FF"/>
</linearGradient>
<linearGradient id="paint112_linear_2306_265863" x1="244.747" y1="75.3779" x2="244.747" y2="210.936" gradientUnits="userSpaceOnUse">
<stop stop-color="#8732F8"/>
<stop offset="1" stop-color="#EC77FF"/>
</linearGradient>
<linearGradient id="paint113_linear_2306_265863" x1="244.753" y1="76.8101" x2="244.753" y2="209.015" gradientUnits="userSpaceOnUse">
<stop stop-color="#8732F8"/>
<stop offset="1" stop-color="#EC77FF"/>
</linearGradient>
<linearGradient id="paint114_linear_2306_265863" x1="244.731" y1="78.2158" x2="244.731" y2="207.1" gradientUnits="userSpaceOnUse">
<stop stop-color="#8732F8"/>
<stop offset="1" stop-color="#EC77FF"/>
</linearGradient>
<linearGradient id="paint115_linear_2306_265863" x1="244.72" y1="79.5967" x2="244.72" y2="205.197" gradientUnits="userSpaceOnUse">
<stop stop-color="#8732F8"/>
<stop offset="1" stop-color="#EC77FF"/>
</linearGradient>
<linearGradient id="paint116_linear_2306_265863" x1="244.709" y1="80.9478" x2="244.709" y2="203.304" gradientUnits="userSpaceOnUse">
<stop stop-color="#8732F8"/>
<stop offset="1" stop-color="#EC77FF"/>
</linearGradient>
<linearGradient id="paint117_linear_2306_265863" x1="244.708" y1="82.2637" x2="244.708" y2="201.42" gradientUnits="userSpaceOnUse">
<stop stop-color="#8732F8"/>
<stop offset="1" stop-color="#EC77FF"/>
</linearGradient>
<linearGradient id="paint118_linear_2306_265863" x1="244.682" y1="83.5454" x2="244.682" y2="199.548" gradientUnits="userSpaceOnUse">
<stop stop-color="#8732F8"/>
<stop offset="1" stop-color="#EC77FF"/>
</linearGradient>
<linearGradient id="paint119_linear_2306_265863" x1="244.667" y1="84.793" x2="244.667" y2="197.689" gradientUnits="userSpaceOnUse">
<stop stop-color="#8732F8"/>
<stop offset="1" stop-color="#EC77FF"/>
</linearGradient>
<linearGradient id="paint120_linear_2306_265863" x1="244.65" y1="85.9897" x2="244.65" y2="195.832" gradientUnits="userSpaceOnUse">
<stop stop-color="#8732F8"/>
<stop offset="1" stop-color="#EC77FF"/>
</linearGradient>
<linearGradient id="paint121_linear_2306_265863" x1="244.629" y1="87.1514" x2="244.629" y2="193.988" gradientUnits="userSpaceOnUse">
<stop stop-color="#8732F8"/>
<stop offset="1" stop-color="#EC77FF"/>
</linearGradient>
<linearGradient id="paint122_linear_2306_265863" x1="264.915" y1="58.5625" x2="219.142" y2="230.187" gradientUnits="userSpaceOnUse">
<stop stop-color="#8732F8"/>
<stop offset="1" stop-color="#EC77FF"/>
</linearGradient>
<linearGradient id="paint123_linear_2306_265863" x1="264.505" y1="60.0954" x2="219.655" y2="228.261" gradientUnits="userSpaceOnUse">
<stop stop-color="#8732F8"/>
<stop offset="1" stop-color="#EC77FF"/>
</linearGradient>
<linearGradient id="paint124_linear_2306_265863" x1="264.088" y1="61.6179" x2="220.162" y2="226.317" gradientUnits="userSpaceOnUse">
<stop stop-color="#8732F8"/>
<stop offset="1" stop-color="#EC77FF"/>
</linearGradient>
<linearGradient id="paint125_linear_2306_265863" x1="263.678" y1="63.1343" x2="220.67" y2="224.39" gradientUnits="userSpaceOnUse">
<stop stop-color="#8732F8"/>
<stop offset="1" stop-color="#EC77FF"/>
</linearGradient>
<linearGradient id="paint126_linear_2306_265863" x1="263.262" y1="64.6406" x2="221.171" y2="222.459" gradientUnits="userSpaceOnUse">
<stop stop-color="#8732F8"/>
<stop offset="1" stop-color="#EC77FF"/>
</linearGradient>
<linearGradient id="paint127_linear_2306_265863" x1="262.861" y1="66.142" x2="221.68" y2="220.55" gradientUnits="userSpaceOnUse">
<stop stop-color="#8732F8"/>
<stop offset="1" stop-color="#EC77FF"/>
</linearGradient>
<linearGradient id="paint128_linear_2306_265863" x1="262.456" y1="67.631" x2="222.182" y2="218.638" gradientUnits="userSpaceOnUse">
<stop stop-color="#8732F8"/>
<stop offset="1" stop-color="#EC77FF"/>
</linearGradient>
<linearGradient id="paint129_linear_2306_265863" x1="262.053" y1="69.1106" x2="222.679" y2="216.742" gradientUnits="userSpaceOnUse">
<stop stop-color="#8732F8"/>
<stop offset="1" stop-color="#EC77FF"/>
</linearGradient>
<linearGradient id="paint130_linear_2306_265863" x1="261.655" y1="70.5746" x2="223.181" y2="214.835" gradientUnits="userSpaceOnUse">
<stop stop-color="#8732F8"/>
<stop offset="1" stop-color="#EC77FF"/>
</linearGradient>
<linearGradient id="paint131_linear_2306_265863" x1="261.258" y1="72.0271" x2="223.676" y2="212.941" gradientUnits="userSpaceOnUse">
<stop stop-color="#8732F8"/>
<stop offset="1" stop-color="#EC77FF"/>
</linearGradient>
<linearGradient id="paint132_linear_2306_265863" x1="260.864" y1="73.4623" x2="224.167" y2="211.055" gradientUnits="userSpaceOnUse">
<stop stop-color="#8732F8"/>
<stop offset="1" stop-color="#EC77FF"/>
</linearGradient>
<linearGradient id="paint133_linear_2306_265863" x1="260.475" y1="74.8833" x2="224.658" y2="209.177" gradientUnits="userSpaceOnUse">
<stop stop-color="#8732F8"/>
<stop offset="1" stop-color="#EC77FF"/>
</linearGradient>
<linearGradient id="paint134_linear_2306_265863" x1="260.089" y1="76.2857" x2="225.146" y2="207.306" gradientUnits="userSpaceOnUse">
<stop stop-color="#8732F8"/>
<stop offset="1" stop-color="#EC77FF"/>
</linearGradient>
<linearGradient id="paint135_linear_2306_265863" x1="259.723" y1="77.6701" x2="225.644" y2="205.45" gradientUnits="userSpaceOnUse">
<stop stop-color="#8732F8"/>
<stop offset="1" stop-color="#EC77FF"/>
</linearGradient>
<linearGradient id="paint136_linear_2306_265863" x1="259.336" y1="79.0228" x2="226.113" y2="203.593" gradientUnits="userSpaceOnUse">
<stop stop-color="#8732F8"/>
<stop offset="1" stop-color="#EC77FF"/>
</linearGradient>
<linearGradient id="paint137_linear_2306_265863" x1="258.967" y1="80.3538" x2="226.59" y2="201.75" gradientUnits="userSpaceOnUse">
<stop stop-color="#8732F8"/>
<stop offset="1" stop-color="#EC77FF"/>
</linearGradient>
<linearGradient id="paint138_linear_2306_265863" x1="258.605" y1="81.6557" x2="227.064" y2="199.916" gradientUnits="userSpaceOnUse">
<stop stop-color="#8732F8"/>
<stop offset="1" stop-color="#EC77FF"/>
</linearGradient>
<linearGradient id="paint139_linear_2306_265863" x1="258.262" y1="82.9265" x2="227.546" y2="198.094" gradientUnits="userSpaceOnUse">
<stop stop-color="#8732F8"/>
<stop offset="1" stop-color="#EC77FF"/>
</linearGradient>
<linearGradient id="paint140_linear_2306_265863" x1="257.903" y1="84.1582" x2="228" y2="196.277" gradientUnits="userSpaceOnUse">
<stop stop-color="#8732F8"/>
<stop offset="1" stop-color="#EC77FF"/>
</linearGradient>
<linearGradient id="paint141_linear_2306_265863" x1="257.564" y1="85.3595" x2="228.463" y2="194.476" gradientUnits="userSpaceOnUse">
<stop stop-color="#8732F8"/>
<stop offset="1" stop-color="#EC77FF"/>
</linearGradient>
<linearGradient id="paint142_linear_2306_265863" x1="257.237" y1="86.5111" x2="228.922" y2="192.677" gradientUnits="userSpaceOnUse">
<stop stop-color="#8732F8"/>
<stop offset="1" stop-color="#EC77FF"/>
</linearGradient>
<linearGradient id="paint143_linear_2306_265863" x1="256.915" y1="87.627" x2="229.375" y2="190.887" gradientUnits="userSpaceOnUse">
<stop stop-color="#8732F8"/>
<stop offset="1" stop-color="#EC77FF"/>
</linearGradient>
<clipPath id="clip0_2306_265863">
<rect width="452.136" height="177.8" fill="white" transform="translate(18.7319 56.8999)"/>
</clipPath>
<clipPath id="clip1_2306_265863">
<rect width="451.995" height="177.856" fill="white" transform="matrix(0.966226 0.257696 -0.259946 0.965623 46.5808 0.211914)"/>
</clipPath>
</defs>
</svg>
