<svg width="744" height="276" viewBox="0 0 744 276" fill="none" xmlns="http://www.w3.org/2000/svg">
<g clip-path="url(#clip0_5217_271867)">
<path fill-rule="evenodd" clip-rule="evenodd" d="M744 0H0V276H744V0ZM536 247H208C203.582 247 200 243.418 200 239V173.771V62.5H544V173.771V239C544 243.418 540.418 247 536 247Z" fill="url(#paint0_linear_5217_271867)"/>
<path d="M544 62.5V34C544 29.5817 540.418 26 536 26H208C203.582 26 200 29.5817 200 34V62.5M544 62.5V173.771V239C544 243.418 540.418 247 536 247H208C203.582 247 200 243.418 200 239V173.771V62.5M544 62.5H200" stroke="black"/>
<rect x="234" y="41" width="276" height="10" rx="5" fill="white" stroke="black"/>
<circle cx="209.5" cy="33.5" r="2.5" stroke="black"/>
<circle cx="216.5" cy="33.5" r="2.5" stroke="black"/>
<circle cx="223.5" cy="33.5" r="2.5" stroke="black"/>
<rect width="16" height="16" transform="translate(516 38)" fill="white"/>
<path fill-rule="evenodd" clip-rule="evenodd" d="M528.003 42.698L524.496 38.24C524.245 37.92 523.756 37.92 523.504 38.24L519.997 42.698C519.74 43.0254 519.6 43.4282 519.6 43.8428V48.1572C519.6 48.5718 519.74 48.9746 519.997 49.3019L523.504 53.76C523.756 54.08 524.245 54.08 524.496 53.76L528.003 49.3019C528.26 48.9746 528.4 48.5718 528.4 48.1572L528.4 43.8428C528.4 43.4282 528.26 43.0254 528.003 42.698ZM524 44.4C523.116 44.4 522.4 45.1163 522.4 46C522.4 46.8837 523.116 47.6 524 47.6C524.884 47.6 525.6 46.8837 525.6 46C525.6 45.1163 524.884 44.4 524 44.4Z" fill="#C95FFD" stroke="black"/>
<path d="M207.6 46C207.6 45.65 207.735 45.3 208 45.035L211.26 41.775C211.405 41.63 211.645 41.63 211.79 41.775C211.935 41.92 211.935 42.16 211.79 42.305L208.53 45.565C208.29 45.805 208.29 46.195 208.53 46.435L211.79 49.695C211.935 49.84 211.935 50.08 211.79 50.225C211.645 50.37 211.405 50.37 211.26 50.225L208 46.965C207.735 46.7 207.6 46.35 207.6 46Z" fill="black"/>
<path d="M225.4 46C225.4 46.35 225.265 46.7 225 46.965L221.74 50.225C221.595 50.37 221.355 50.37 221.21 50.225C221.065 50.08 221.065 49.84 221.21 49.695L224.47 46.435C224.71 46.195 224.71 45.805 224.47 45.565L221.21 42.305C221.065 42.16 221.065 41.92 221.21 41.775C221.355 41.63 221.595 41.63 221.74 41.775L225 45.035C225.265 45.3 225.4 45.65 225.4 46Z" fill="black"/>
<path d="M361 69C361 64.5817 364.582 61 369 61H529C533.418 61 537 64.5817 537 69V113.621V126C537 130.418 533.418 134 529 134H369C364.582 134 361 130.418 361 126V113.621V69Z" fill="#ECEDEE" stroke="black"/>
<path d="M377 85C377 80.5817 380.582 77 385 77H513C517.418 77 521 80.5817 521 85V105.833V109C521 113.418 517.418 117 513 117H385C380.582 117 377 113.418 377 109V105.833V85Z" fill="white" stroke="black"/>
<path d="M397.766 95.6378C397.728 95.3016 397.571 95.0412 397.297 94.8565C397.022 94.6695 396.677 94.576 396.26 94.576C395.962 94.576 395.704 94.6233 395.486 94.718C395.268 94.8104 395.099 94.9382 394.978 95.1016C394.86 95.2625 394.8 95.446 394.8 95.652C394.8 95.8248 394.841 95.974 394.921 96.0994C395.004 96.2249 395.112 96.3303 395.244 96.4155C395.379 96.4983 395.524 96.5682 395.678 96.625C395.831 96.6795 395.979 96.7244 396.121 96.7599L396.832 96.9446C397.064 97.0014 397.302 97.0784 397.545 97.1754C397.789 97.2725 398.015 97.4003 398.224 97.5589C398.432 97.7176 398.6 97.9141 398.728 98.1484C398.858 98.3828 398.923 98.6634 398.923 98.9901C398.923 99.402 398.817 99.7678 398.604 100.087C398.393 100.407 398.086 100.659 397.684 100.844C397.284 101.028 396.8 101.121 396.232 101.121C395.687 101.121 395.216 101.034 394.818 100.862C394.42 100.689 394.109 100.444 393.884 100.126C393.659 99.8068 393.535 99.428 393.511 98.9901H394.612C394.634 99.2528 394.719 99.4718 394.868 99.647C395.019 99.8198 395.212 99.9489 395.447 100.034C395.683 100.117 395.943 100.158 396.224 100.158C396.535 100.158 396.81 100.11 397.052 100.013C397.296 99.9134 397.487 99.776 397.627 99.6009C397.767 99.4233 397.837 99.2161 397.837 98.9794C397.837 98.764 397.775 98.5876 397.652 98.4503C397.531 98.313 397.367 98.1993 397.158 98.1094C396.952 98.0194 396.719 97.9401 396.459 97.8714L395.599 97.6371C395.017 97.4785 394.555 97.2453 394.214 96.9375C393.876 96.6297 393.707 96.2225 393.707 95.7159C393.707 95.2969 393.82 94.9311 394.048 94.6186C394.275 94.3061 394.583 94.0634 394.971 93.8906C395.359 93.7154 395.797 93.6278 396.285 93.6278C396.777 93.6278 397.212 93.7143 397.588 93.8871C397.967 94.0599 398.265 94.2978 398.483 94.6009C398.701 94.9015 398.814 95.2472 398.824 95.6378H397.766ZM401.518 97.7614V101H400.456V93.7273H401.504V96.4332H401.571C401.699 96.1397 401.894 95.9065 402.157 95.7337C402.42 95.5608 402.763 95.4744 403.187 95.4744C403.561 95.4744 403.888 95.5514 404.167 95.7053C404.449 95.8591 404.666 96.0888 404.82 96.3942C404.977 96.6972 405.055 97.076 405.055 97.5305V101H403.993V97.6584C403.993 97.2583 403.89 96.9482 403.684 96.728C403.478 96.5054 403.192 96.3942 402.825 96.3942C402.574 96.3942 402.349 96.4474 402.15 96.554C401.953 96.6605 401.798 96.8168 401.685 97.0227C401.573 97.2263 401.518 97.4725 401.518 97.7614ZM408.366 101.121C408.02 101.121 407.707 101.057 407.428 100.929C407.149 100.799 406.927 100.611 406.764 100.364C406.603 100.118 406.523 99.8163 406.523 99.4588C406.523 99.151 406.582 98.8977 406.7 98.6989C406.819 98.5 406.978 98.3426 407.18 98.2266C407.381 98.1106 407.606 98.023 407.854 97.9638C408.103 97.9046 408.356 97.8596 408.614 97.8288C408.941 97.791 409.206 97.7602 409.41 97.7365C409.613 97.7105 409.761 97.669 409.854 97.6122C409.946 97.5554 409.992 97.4631 409.992 97.3352V97.3104C409.992 97.0002 409.904 96.7599 409.729 96.5895C409.556 96.419 409.298 96.3338 408.955 96.3338C408.598 96.3338 408.316 96.4131 408.11 96.5717C407.906 96.728 407.765 96.902 407.687 97.0938L406.69 96.8665C406.808 96.535 406.981 96.2675 407.208 96.0639C407.438 95.858 407.702 95.7088 408 95.6165C408.298 95.5218 408.612 95.4744 408.941 95.4744C409.159 95.4744 409.39 95.5005 409.633 95.5526C409.88 95.6023 410.109 95.6946 410.322 95.8295C410.538 95.9645 410.714 96.1574 410.851 96.4084C410.989 96.657 411.057 96.9801 411.057 97.3778V101H410.02V100.254H409.978C409.909 100.392 409.806 100.527 409.669 100.659C409.532 100.792 409.355 100.902 409.14 100.989C408.924 101.077 408.666 101.121 408.366 101.121ZM408.596 100.268C408.89 100.268 409.141 100.21 409.349 100.094C409.56 99.9785 409.72 99.8269 409.829 99.6399C409.94 99.4505 409.996 99.2481 409.996 99.0327V98.3295C409.958 98.3674 409.884 98.4029 409.775 98.4361C409.669 98.4669 409.547 98.4941 409.41 98.5178C409.272 98.5391 409.139 98.5592 409.008 98.5781C408.878 98.5947 408.769 98.6089 408.682 98.6207C408.476 98.6468 408.288 98.6906 408.117 98.7521C407.949 98.8137 407.814 98.9025 407.712 99.0185C407.613 99.1321 407.563 99.2836 407.563 99.473C407.563 99.7358 407.66 99.9347 407.854 100.07C408.048 100.202 408.296 100.268 408.596 100.268ZM412.778 101V95.5455H413.805V96.4119H413.861C413.961 96.1184 414.136 95.8875 414.387 95.7195C414.64 95.549 414.927 95.4638 415.246 95.4638C415.313 95.4638 415.391 95.4661 415.481 95.4709C415.573 95.4756 415.645 95.4815 415.697 95.4886V96.5043C415.655 96.4924 415.579 96.4794 415.47 96.4652C415.361 96.4486 415.252 96.4403 415.143 96.4403C414.892 96.4403 414.669 96.4936 414.472 96.6001C414.278 96.7043 414.124 96.8499 414.011 97.0369C413.897 97.2216 413.84 97.4323 413.84 97.669V101H412.778ZM419.078 101.11C418.541 101.11 418.078 100.995 417.69 100.766C417.304 100.534 417.006 100.208 416.795 99.7891C416.587 99.3677 416.483 98.8741 416.483 98.3082C416.483 97.7495 416.587 97.2571 416.795 96.831C417.006 96.4048 417.299 96.0722 417.676 95.8331C418.054 95.594 418.497 95.4744 419.004 95.4744C419.312 95.4744 419.61 95.5253 419.899 95.6271C420.188 95.7289 420.447 95.8887 420.676 96.1065C420.906 96.3243 421.087 96.6072 421.22 96.9553C421.352 97.3009 421.419 97.7211 421.419 98.2159V98.5923H417.083V97.7969H420.378C420.378 97.5175 420.321 97.2701 420.208 97.0547C420.094 96.8369 419.934 96.6652 419.728 96.5398C419.525 96.4143 419.286 96.3516 419.011 96.3516C418.713 96.3516 418.452 96.425 418.23 96.5717C418.01 96.7161 417.839 96.9055 417.718 97.1399C417.6 97.3719 417.541 97.6241 417.541 97.8963V98.5178C417.541 98.8823 417.605 99.1925 417.733 99.4482C417.863 99.7038 418.044 99.8991 418.276 100.034C418.508 100.167 418.779 100.233 419.089 100.233C419.29 100.233 419.474 100.205 419.639 100.148C419.805 100.089 419.948 100.001 420.069 99.8849C420.19 99.7689 420.282 99.6257 420.346 99.4553L421.351 99.6364C421.271 99.9323 421.126 100.192 420.918 100.414C420.712 100.634 420.453 100.806 420.14 100.929C419.83 101.05 419.476 101.11 419.078 101.11ZM426.918 93.7273V101H425.857V93.7273H426.918ZM430.951 101.11C430.44 101.11 429.993 100.993 429.612 100.759C429.231 100.524 428.935 100.196 428.724 99.7749C428.514 99.3535 428.408 98.861 428.408 98.2976C428.408 97.7318 428.514 97.237 428.724 96.8132C428.935 96.3894 429.231 96.0604 429.612 95.826C429.993 95.5916 430.44 95.4744 430.951 95.4744C431.462 95.4744 431.909 95.5916 432.29 95.826C432.671 96.0604 432.967 96.3894 433.178 96.8132C433.388 97.237 433.494 97.7318 433.494 98.2976C433.494 98.861 433.388 99.3535 433.178 99.7749C432.967 100.196 432.671 100.524 432.29 100.759C431.909 100.993 431.462 101.11 430.951 101.11ZM430.955 100.219C431.286 100.219 431.561 100.131 431.778 99.956C431.996 99.7808 432.157 99.5476 432.261 99.2564C432.368 98.9652 432.421 98.6444 432.421 98.294C432.421 97.946 432.368 97.6264 432.261 97.3352C432.157 97.0417 431.996 96.8061 431.778 96.6286C431.561 96.451 431.286 96.3622 430.955 96.3622C430.621 96.3622 430.344 96.451 430.124 96.6286C429.906 96.8061 429.744 97.0417 429.637 97.3352C429.533 97.6264 429.481 97.946 429.481 98.294C429.481 98.6444 429.533 98.9652 429.637 99.2564C429.744 99.5476 429.906 99.7808 430.124 99.956C430.344 100.131 430.621 100.219 430.955 100.219ZM437.283 101.11C436.755 101.11 436.301 100.991 435.919 100.751C435.541 100.51 435.249 100.177 435.046 99.7536C434.842 99.3298 434.74 98.8445 434.74 98.2976C434.74 97.7436 434.845 97.2547 435.053 96.831C435.261 96.4048 435.555 96.0722 435.934 95.8331C436.312 95.594 436.759 95.4744 437.272 95.4744C437.687 95.4744 438.056 95.5514 438.38 95.7053C438.705 95.8568 438.966 96.0698 439.165 96.3445C439.366 96.6191 439.486 96.9399 439.524 97.3068H438.49C438.434 97.0511 438.303 96.831 438.1 96.6463C437.899 96.4616 437.629 96.3693 437.29 96.3693C436.994 96.3693 436.735 96.4474 436.512 96.6037C436.292 96.7576 436.121 96.9777 435.998 97.2642C435.874 97.5483 435.813 97.8845 435.813 98.2727C435.813 98.6705 435.873 99.0137 435.994 99.3026C436.115 99.5914 436.285 99.8151 436.505 99.9737C436.728 100.132 436.989 100.212 437.29 100.212C437.491 100.212 437.674 100.175 437.837 100.102C438.003 100.026 438.141 99.9181 438.253 99.7784C438.366 99.6387 438.445 99.4706 438.49 99.2741H439.524C439.486 99.6269 439.371 99.9418 439.179 100.219C438.988 100.496 438.731 100.714 438.409 100.872C438.089 101.031 437.714 101.11 437.283 101.11ZM442.553 101.121C442.208 101.121 441.895 101.057 441.616 100.929C441.336 100.799 441.115 100.611 440.952 100.364C440.791 100.118 440.71 99.8163 440.71 99.4588C440.71 99.151 440.769 98.8977 440.888 98.6989C441.006 98.5 441.166 98.3426 441.367 98.2266C441.568 98.1106 441.793 98.023 442.042 97.9638C442.291 97.9046 442.544 97.8596 442.802 97.8288C443.129 97.791 443.394 97.7602 443.597 97.7365C443.801 97.7105 443.949 97.669 444.041 97.6122C444.134 97.5554 444.18 97.4631 444.18 97.3352V97.3104C444.18 97.0002 444.092 96.7599 443.917 96.5895C443.744 96.419 443.486 96.3338 443.143 96.3338C442.785 96.3338 442.504 96.4131 442.298 96.5717C442.094 96.728 441.953 96.902 441.875 97.0938L440.877 96.8665C440.996 96.535 441.168 96.2675 441.396 96.0639C441.625 95.858 441.889 95.7088 442.188 95.6165C442.486 95.5218 442.8 95.4744 443.129 95.4744C443.346 95.4744 443.577 95.5005 443.821 95.5526C444.067 95.6023 444.297 95.6946 444.51 95.8295C444.725 95.9645 444.902 96.1574 445.039 96.4084C445.176 96.657 445.245 96.9801 445.245 97.3778V101H444.208V100.254H444.166C444.097 100.392 443.994 100.527 443.857 100.659C443.719 100.792 443.543 100.902 443.327 100.989C443.112 101.077 442.854 101.121 442.553 101.121ZM442.784 100.268C443.078 100.268 443.329 100.21 443.537 100.094C443.748 99.9785 443.907 99.8269 444.016 99.6399C444.128 99.4505 444.183 99.2481 444.183 99.0327V98.3295C444.145 98.3674 444.072 98.4029 443.963 98.4361C443.857 98.4669 443.735 98.4941 443.597 98.5178C443.46 98.5391 443.326 98.5592 443.196 98.5781C443.066 98.5947 442.957 98.6089 442.869 98.6207C442.663 98.6468 442.475 98.6906 442.305 98.7521C442.137 98.8137 442.002 98.9025 441.9 99.0185C441.8 99.1321 441.751 99.2836 441.751 99.473C441.751 99.7358 441.848 99.9347 442.042 100.07C442.236 100.202 442.483 100.268 442.784 100.268ZM449.512 95.5455V96.3977H446.533V95.5455H449.512ZM447.332 94.2386H448.394V99.3984C448.394 99.6044 448.424 99.7595 448.486 99.8636C448.547 99.9654 448.627 100.035 448.724 100.073C448.823 100.109 448.931 100.126 449.047 100.126C449.132 100.126 449.207 100.121 449.271 100.109C449.335 100.097 449.384 100.087 449.42 100.08L449.612 100.957C449.55 100.981 449.462 101.005 449.349 101.028C449.235 101.054 449.093 101.069 448.923 101.071C448.643 101.076 448.383 101.026 448.141 100.922C447.9 100.818 447.705 100.657 447.555 100.439C447.406 100.221 447.332 99.9477 447.332 99.6186V94.2386ZM450.993 101V95.5455H452.055V101H450.993ZM451.53 94.7038C451.345 94.7038 451.186 94.6423 451.054 94.5192C450.924 94.3937 450.858 94.2446 450.858 94.0717C450.858 93.8965 450.924 93.7474 451.054 93.6243C451.186 93.4988 451.345 93.4361 451.53 93.4361C451.714 93.4361 451.872 93.4988 452.002 93.6243C452.134 93.7474 452.201 93.8965 452.201 94.0717C452.201 94.2446 452.134 94.3937 452.002 94.5192C451.872 94.6423 451.714 94.7038 451.53 94.7038ZM456.088 101.11C455.576 101.11 455.13 100.993 454.749 100.759C454.368 100.524 454.072 100.196 453.861 99.7749C453.651 99.3535 453.545 98.861 453.545 98.2976C453.545 97.7318 453.651 97.237 453.861 96.8132C454.072 96.3894 454.368 96.0604 454.749 95.826C455.13 95.5916 455.576 95.4744 456.088 95.4744C456.599 95.4744 457.045 95.5916 457.427 95.826C457.808 96.0604 458.104 96.3894 458.314 96.8132C458.525 97.237 458.63 97.7318 458.63 98.2976C458.63 98.861 458.525 99.3535 458.314 99.7749C458.104 100.196 457.808 100.524 457.427 100.759C457.045 100.993 456.599 101.11 456.088 101.11ZM456.091 100.219C456.423 100.219 456.697 100.131 456.915 99.956C457.133 99.7808 457.294 99.5476 457.398 99.2564C457.505 98.9652 457.558 98.6444 457.558 98.294C457.558 97.946 457.505 97.6264 457.398 97.3352C457.294 97.0417 457.133 96.8061 456.915 96.6286C456.697 96.451 456.423 96.3622 456.091 96.3622C455.758 96.3622 455.481 96.451 455.26 96.6286C455.043 96.8061 454.88 97.0417 454.774 97.3352C454.67 97.6264 454.618 97.946 454.618 98.294C454.618 98.6444 454.67 98.9652 454.774 99.2564C454.88 99.5476 455.043 99.7808 455.26 99.956C455.481 100.131 455.758 100.219 456.091 100.219ZM461.184 97.7614V101H460.122V95.5455H461.141V96.4332H461.209C461.334 96.1444 461.531 95.9124 461.798 95.7372C462.068 95.562 462.408 95.4744 462.818 95.4744C463.189 95.4744 463.515 95.5526 463.794 95.7088C464.074 95.8627 464.29 96.0923 464.444 96.3977C464.598 96.7031 464.675 97.0807 464.675 97.5305V101H463.613V97.6584C463.613 97.263 463.51 96.9541 463.304 96.7315C463.098 96.5066 462.815 96.3942 462.455 96.3942C462.209 96.3942 461.99 96.4474 461.798 96.554C461.609 96.6605 461.459 96.8168 461.347 97.0227C461.239 97.2263 461.184 97.4725 461.184 97.7614Z" fill="black"/>
<rect x="475" y="89" width="29" height="16" rx="8" fill="white" stroke="black"/>
<circle cx="496" cy="97" r="8" fill="#C95FFD" stroke="black"/>
<g filter="url(#filter0_d_5217_271867)">
<path d="M498.369 121.609C497.871 120.969 497.249 119.671 496.165 118.053C495.542 117.164 494.014 115.475 493.551 114.604C493.218 114.075 493.121 113.43 493.285 112.827C493.564 111.679 494.653 110.917 495.827 111.049C496.735 111.231 497.569 111.676 498.227 112.329C498.686 112.761 499.108 113.231 499.489 113.733C499.774 114.089 499.845 114.231 500.165 114.64C500.485 115.049 500.698 115.458 500.538 114.853C500.414 113.964 500.2 112.471 499.898 111.138C499.667 110.124 499.614 109.964 499.4 109.2C499.187 108.435 499.062 107.795 498.831 106.924C498.62 106.068 498.454 105.202 498.334 104.329C498.109 103.212 498.272 102.052 498.796 101.04C499.417 100.456 500.328 100.301 501.107 100.649C501.89 101.227 502.474 102.035 502.778 102.96C503.244 104.098 503.555 105.294 503.702 106.515C503.987 108.293 504.538 110.889 504.556 111.422C504.556 110.764 504.431 109.378 504.556 108.755C504.679 108.107 505.13 107.568 505.747 107.333C506.276 107.171 506.836 107.134 507.382 107.227C507.934 107.342 508.422 107.659 508.751 108.115C509.163 109.153 509.392 110.253 509.427 111.369C509.474 110.392 509.642 109.425 509.925 108.489C510.222 108.07 510.656 107.768 511.151 107.635C511.739 107.528 512.341 107.528 512.929 107.635C513.411 107.797 513.833 108.1 514.138 108.507C514.514 109.449 514.742 110.445 514.814 111.458C514.814 111.707 514.938 110.764 515.329 110.142C515.532 109.539 516.042 109.09 516.666 108.964C517.29 108.838 517.934 109.055 518.355 109.533C518.776 110.011 518.91 110.677 518.707 111.28C518.707 112.435 518.707 112.382 518.707 113.164C518.707 113.947 518.707 114.64 518.707 115.298C518.642 116.338 518.499 117.372 518.28 118.391C517.971 119.293 517.54 120.148 517 120.933C516.137 121.893 515.424 122.978 514.885 124.151C514.751 124.734 514.691 125.331 514.707 125.929C514.705 126.481 514.777 127.031 514.92 127.564C514.193 127.641 513.46 127.641 512.734 127.564C512.04 127.458 511.187 126.071 510.956 125.644C510.841 125.415 510.607 125.271 510.351 125.271C510.095 125.271 509.861 125.415 509.747 125.644C509.356 126.32 508.485 127.547 507.88 127.618C506.689 127.76 504.236 127.618 502.298 127.618C502.298 127.618 502.618 125.84 501.889 125.2C501.16 124.56 500.414 123.813 499.862 123.315L498.369 121.609Z" fill="white"/>
<path fill-rule="evenodd" clip-rule="evenodd" d="M498.369 121.609C497.871 120.969 497.249 119.671 496.165 118.053C495.542 117.164 494.014 115.475 493.551 114.604C493.218 114.075 493.121 113.43 493.285 112.827C493.564 111.679 494.653 110.917 495.827 111.049C496.735 111.231 497.569 111.676 498.227 112.329C498.686 112.761 499.108 113.231 499.489 113.733C499.774 114.089 499.845 114.231 500.165 114.64C500.485 115.049 500.698 115.458 500.538 114.853C500.414 113.964 500.2 112.471 499.898 111.138C499.667 110.124 499.614 109.964 499.4 109.2C499.187 108.435 499.062 107.795 498.831 106.924C498.62 106.068 498.454 105.202 498.334 104.329C498.109 103.212 498.272 102.052 498.796 101.04C499.417 100.456 500.328 100.301 501.107 100.649C501.89 101.227 502.474 102.035 502.778 102.96C503.244 104.098 503.555 105.294 503.702 106.515C503.987 108.293 504.538 110.889 504.556 111.422C504.556 110.764 504.431 109.378 504.556 108.755C504.679 108.107 505.13 107.568 505.747 107.333C506.276 107.171 506.836 107.134 507.382 107.227C507.934 107.342 508.422 107.659 508.751 108.115C509.163 109.153 509.392 110.253 509.427 111.369C509.474 110.392 509.642 109.425 509.925 108.489C510.222 108.07 510.656 107.768 511.151 107.635C511.739 107.528 512.341 107.528 512.929 107.635C513.411 107.797 513.833 108.1 514.138 108.507C514.514 109.449 514.742 110.445 514.814 111.458C514.814 111.707 514.938 110.764 515.329 110.142C515.532 109.539 516.042 109.09 516.666 108.964C517.29 108.838 517.934 109.055 518.355 109.533C518.776 110.011 518.91 110.677 518.707 111.28C518.707 112.435 518.707 112.382 518.707 113.164C518.707 113.947 518.707 114.64 518.707 115.298C518.642 116.338 518.499 117.372 518.28 118.391C517.971 119.293 517.54 120.148 517 120.933C516.137 121.893 515.424 122.978 514.885 124.151C514.751 124.734 514.691 125.331 514.707 125.929C514.705 126.481 514.777 127.031 514.92 127.564C514.193 127.641 513.46 127.641 512.734 127.564C512.04 127.458 511.187 126.071 510.956 125.644C510.841 125.415 510.607 125.271 510.351 125.271C510.095 125.271 509.861 125.415 509.747 125.644C509.356 126.32 508.485 127.547 507.88 127.618C506.689 127.76 504.236 127.618 502.298 127.618C502.298 127.618 502.618 125.84 501.889 125.2C501.16 124.56 500.414 123.813 499.862 123.315L498.369 121.609Z" stroke="black" stroke-width="1.33333" stroke-linecap="round" stroke-linejoin="round"/>
<path d="M513.444 122.579V116.443C513.444 116.076 513.146 115.778 512.778 115.778C512.41 115.778 512.111 116.076 512.111 116.443V122.579C512.111 122.947 512.41 123.244 512.778 123.244C513.146 123.244 513.444 122.947 513.444 122.579Z" fill="black"/>
<path d="M509.925 122.577L509.889 116.438C509.887 116.071 509.587 115.776 509.218 115.778C508.85 115.78 508.554 116.079 508.556 116.445L508.591 122.585C508.593 122.951 508.894 123.247 509.262 123.244C509.63 123.242 509.927 122.944 509.925 122.577Z" fill="black"/>
<path d="M505 116.452L505.036 122.579C505.038 122.948 505.338 123.247 505.706 123.244C506.074 123.242 506.371 122.941 506.369 122.571L506.333 116.444C506.331 116.074 506.031 115.776 505.663 115.778C505.295 115.78 504.998 116.082 505 116.452Z" fill="black"/>
</g>
</g>
<defs>
<filter id="filter0_d_5217_271867" x="480.8" y="91.5778" width="49.0667" height="49.0667" filterUnits="userSpaceOnUse" color-interpolation-filters="sRGB">
<feFlood flood-opacity="0" result="BackgroundImageFix"/>
<feColorMatrix in="SourceAlpha" type="matrix" values="0 0 0 0 0 0 0 0 0 0 0 0 0 0 0 0 0 0 127 0" result="hardAlpha"/>
<feOffset dy="1.77778"/>
<feGaussianBlur stdDeviation="1.6"/>
<feColorMatrix type="matrix" values="0 0 0 0 0 0 0 0 0 0 0 0 0 0 0 0 0 0 0.65 0"/>
<feBlend mode="normal" in2="BackgroundImageFix" result="effect1_dropShadow_5217_271867"/>
<feBlend mode="normal" in="SourceGraphic" in2="effect1_dropShadow_5217_271867" result="shape"/>
</filter>
<linearGradient id="paint0_linear_5217_271867" x1="372" y1="0" x2="372" y2="276" gradientUnits="userSpaceOnUse">
<stop stop-color="white"/>
<stop offset="1" stop-color="white"/>
</linearGradient>
<clipPath id="clip0_5217_271867">
<rect width="744" height="276" fill="white"/>
</clipPath>
</defs>
</svg>
