<svg width="744" height="276" viewBox="0 0 744 276" fill="none" xmlns="http://www.w3.org/2000/svg">
<path fill-rule="evenodd" clip-rule="evenodd" d="M0 0V276H744V0H0ZM239 22C234.582 22 231 25.5817 231 30V138C231 142.418 234.582 146 239 146H503C507.418 146 511 142.418 511 138V30C511 25.5817 507.418 22 503 22H239Z" fill="url(#paint0_linear_5217_271748)"/>
<rect x="419" y="156" width="92" height="27" rx="8" fill="#C95FFD"/>
<path d="M429.466 173.667V166.394H434.025V167.338H430.563V169.554H433.787V170.495H430.563V172.722H434.068V173.667H429.466ZM437.754 173.773C437.314 173.773 436.921 173.661 436.576 173.436C436.232 173.208 435.962 172.885 435.766 172.466C435.572 172.045 435.475 171.539 435.475 170.95C435.475 170.36 435.573 169.856 435.769 169.437C435.968 169.018 436.241 168.697 436.586 168.475C436.932 168.252 437.324 168.141 437.762 168.141C438.1 168.141 438.372 168.198 438.578 168.311C438.787 168.423 438.948 168.553 439.061 168.702C439.177 168.851 439.267 168.983 439.331 169.096H439.395V166.394H440.457V173.667H439.42V172.818H439.331C439.267 172.934 439.175 173.066 439.054 173.216C438.936 173.365 438.772 173.495 438.564 173.606C438.356 173.717 438.086 173.773 437.754 173.773ZM437.989 172.867C438.294 172.867 438.552 172.787 438.763 172.626C438.976 172.463 439.137 172.237 439.246 171.948C439.357 171.659 439.413 171.323 439.413 170.939C439.413 170.56 439.358 170.229 439.25 169.945C439.141 169.661 438.981 169.439 438.77 169.281C438.559 169.122 438.299 169.043 437.989 169.043C437.669 169.043 437.403 169.126 437.19 169.292C436.977 169.457 436.816 169.683 436.707 169.97C436.6 170.256 436.547 170.579 436.547 170.939C436.547 171.304 436.602 171.632 436.71 171.923C436.819 172.214 436.98 172.445 437.193 172.615C437.409 172.783 437.674 172.867 437.989 172.867ZM442.279 173.667V168.212H443.341V173.667H442.279ZM442.815 167.37C442.631 167.37 442.472 167.309 442.339 167.186C442.209 167.06 442.144 166.911 442.144 166.738C442.144 166.563 442.209 166.414 442.339 166.291C442.472 166.165 442.631 166.103 442.815 166.103C443 166.103 443.157 166.165 443.288 166.291C443.42 166.414 443.486 166.563 443.486 166.738C443.486 166.911 443.42 167.06 443.288 167.186C443.157 167.309 443 167.37 442.815 167.37ZM447.622 168.212V169.064H444.643V168.212H447.622ZM445.442 166.905H446.503V172.065C446.503 172.271 446.534 172.426 446.596 172.53C446.657 172.632 446.737 172.702 446.834 172.74C446.933 172.775 447.041 172.793 447.157 172.793C447.242 172.793 447.317 172.787 447.381 172.775C447.445 172.763 447.494 172.754 447.53 172.747L447.722 173.624C447.66 173.648 447.572 173.671 447.459 173.695C447.345 173.721 447.203 173.735 447.033 173.738C446.753 173.742 446.493 173.693 446.251 173.588C446.01 173.484 445.815 173.323 445.665 173.105C445.516 172.888 445.442 172.614 445.442 172.285V166.905ZM452.728 175.712C452.569 175.712 452.425 175.699 452.294 175.673C452.164 175.649 452.067 175.623 452.003 175.595L452.259 174.725C452.453 174.777 452.626 174.799 452.777 174.792C452.929 174.785 453.063 174.728 453.179 174.622C453.297 174.515 453.401 174.341 453.491 174.1L453.622 173.738L451.627 168.212H452.763L454.145 172.445H454.201L455.583 168.212H456.723L454.475 174.394C454.371 174.679 454.238 174.919 454.077 175.115C453.916 175.314 453.724 175.463 453.502 175.563C453.279 175.662 453.021 175.712 452.728 175.712ZM460.139 173.777C459.628 173.777 459.182 173.659 458.8 173.425C458.419 173.191 458.123 172.863 457.913 172.441C457.702 172.02 457.597 171.528 457.597 170.964C457.597 170.398 457.702 169.903 457.913 169.48C458.123 169.056 458.419 168.727 458.8 168.492C459.182 168.258 459.628 168.141 460.139 168.141C460.651 168.141 461.097 168.258 461.478 168.492C461.859 168.727 462.155 169.056 462.366 169.48C462.576 169.903 462.682 170.398 462.682 170.964C462.682 171.528 462.576 172.02 462.366 172.441C462.155 172.863 461.859 173.191 461.478 173.425C461.097 173.659 460.651 173.777 460.139 173.777ZM460.143 172.885C460.474 172.885 460.749 172.798 460.967 172.622C461.184 172.447 461.345 172.214 461.45 171.923C461.556 171.632 461.609 171.311 461.609 170.961C461.609 170.613 461.556 170.293 461.45 170.002C461.345 169.708 461.184 169.473 460.967 169.295C460.749 169.117 460.474 169.029 460.143 169.029C459.809 169.029 459.532 169.117 459.312 169.295C459.094 169.473 458.932 169.708 458.825 170.002C458.721 170.293 458.669 170.613 458.669 170.961C458.669 171.311 458.721 171.632 458.825 171.923C458.932 172.214 459.094 172.447 459.312 172.622C459.532 172.798 459.809 172.885 460.143 172.885ZM467.629 171.404V168.212H468.694V173.667H467.65V172.722H467.593C467.468 173.013 467.267 173.256 466.99 173.45C466.715 173.642 466.373 173.738 465.963 173.738C465.613 173.738 465.303 173.661 465.033 173.507C464.766 173.35 464.555 173.12 464.401 172.814C464.249 172.509 464.174 172.131 464.174 171.681V168.212H465.235V171.554C465.235 171.925 465.338 172.221 465.544 172.441C465.75 172.662 466.018 172.772 466.347 172.772C466.546 172.772 466.744 172.722 466.94 172.622C467.139 172.523 467.303 172.373 467.434 172.171C467.566 171.97 467.631 171.715 467.629 171.404ZM470.428 173.667V168.212H471.454V169.078H471.511C471.61 168.785 471.785 168.554 472.036 168.386C472.29 168.216 472.576 168.13 472.896 168.13C472.962 168.13 473.04 168.133 473.13 168.137C473.222 168.142 473.295 168.148 473.347 168.155V169.171C473.304 169.159 473.228 169.146 473.119 169.132C473.01 169.115 472.902 169.107 472.793 169.107C472.542 169.107 472.318 169.16 472.122 169.267C471.927 169.371 471.773 169.516 471.66 169.703C471.546 169.888 471.489 170.099 471.489 170.336V173.667H470.428ZM482.532 168.691C482.464 168.476 482.371 168.283 482.255 168.113C482.142 167.94 482.006 167.793 481.847 167.672C481.688 167.549 481.507 167.456 481.304 167.392C481.102 167.328 480.881 167.296 480.64 167.296C480.23 167.296 479.861 167.401 479.532 167.612C479.203 167.823 478.942 168.131 478.75 168.539C478.561 168.943 478.466 169.439 478.466 170.027C478.466 170.616 478.562 171.114 478.754 171.522C478.946 171.929 479.209 172.238 479.542 172.448C479.876 172.659 480.256 172.765 480.682 172.765C481.078 172.765 481.422 172.684 481.716 172.523C482.012 172.362 482.24 172.135 482.401 171.841C482.564 171.545 482.646 171.197 482.646 170.797L482.93 170.85H480.849V169.945H483.708V170.772C483.708 171.383 483.578 171.913 483.317 172.363C483.059 172.811 482.702 173.156 482.245 173.4C481.79 173.644 481.269 173.766 480.682 173.766C480.024 173.766 479.446 173.614 478.949 173.311C478.455 173.008 478.069 172.579 477.792 172.022C477.515 171.464 477.376 170.801 477.376 170.034C477.376 169.454 477.457 168.933 477.618 168.471C477.779 168.01 478.005 167.618 478.296 167.296C478.589 166.971 478.934 166.724 479.329 166.554C479.727 166.381 480.161 166.294 480.633 166.294C481.026 166.294 481.391 166.352 481.73 166.468C482.071 166.584 482.374 166.749 482.639 166.962C482.906 167.175 483.128 167.428 483.303 167.722C483.478 168.013 483.597 168.336 483.658 168.691H482.532ZM486.91 173.787C486.564 173.787 486.251 173.723 485.972 173.595C485.693 173.465 485.471 173.277 485.308 173.031C485.147 172.785 485.067 172.483 485.067 172.125C485.067 171.818 485.126 171.564 485.244 171.365C485.362 171.167 485.522 171.009 485.723 170.893C485.925 170.777 486.15 170.689 486.398 170.63C486.647 170.571 486.9 170.526 487.158 170.495C487.485 170.457 487.75 170.427 487.954 170.403C488.157 170.377 488.305 170.336 488.398 170.279C488.49 170.222 488.536 170.13 488.536 170.002V169.977C488.536 169.667 488.448 169.426 488.273 169.256C488.1 169.086 487.842 169 487.499 169C487.142 169 486.86 169.08 486.654 169.238C486.45 169.394 486.309 169.568 486.231 169.76L485.233 169.533C485.352 169.202 485.525 168.934 485.752 168.73C485.982 168.524 486.246 168.375 486.544 168.283C486.842 168.188 487.156 168.141 487.485 168.141C487.703 168.141 487.933 168.167 488.177 168.219C488.424 168.269 488.653 168.361 488.866 168.496C489.082 168.631 489.258 168.824 489.395 169.075C489.533 169.323 489.601 169.647 489.601 170.044V173.667H488.564V172.921H488.522C488.453 173.058 488.35 173.193 488.213 173.326C488.076 173.458 487.899 173.568 487.684 173.656C487.468 173.743 487.21 173.787 486.91 173.787ZM487.14 172.935C487.434 172.935 487.685 172.877 487.893 172.761C488.104 172.645 488.264 172.493 488.373 172.306C488.484 172.117 488.54 171.915 488.54 171.699V170.996C488.502 171.034 488.428 171.069 488.319 171.103C488.213 171.133 488.091 171.161 487.954 171.184C487.816 171.206 487.683 171.226 487.552 171.245C487.422 171.261 487.313 171.275 487.226 171.287C487.02 171.313 486.831 171.357 486.661 171.419C486.493 171.48 486.358 171.569 486.256 171.685C486.157 171.799 486.107 171.95 486.107 172.14C486.107 172.402 486.204 172.601 486.398 172.736C486.592 172.869 486.84 172.935 487.14 172.935ZM493.868 168.212V169.064H490.889V168.212H493.868ZM491.688 166.905H492.75V172.065C492.75 172.271 492.781 172.426 492.842 172.53C492.904 172.632 492.983 172.702 493.08 172.74C493.179 172.775 493.287 172.793 493.403 172.793C493.488 172.793 493.563 172.787 493.627 172.775C493.691 172.763 493.741 172.754 493.776 172.747L493.968 173.624C493.906 173.648 493.819 173.671 493.705 173.695C493.591 173.721 493.449 173.735 493.279 173.738C493 173.742 492.739 173.693 492.498 173.588C492.256 173.484 492.061 173.323 491.912 173.105C491.763 172.888 491.688 172.614 491.688 172.285V166.905ZM497.642 173.777C497.104 173.777 496.642 173.662 496.253 173.432C495.867 173.2 495.569 172.875 495.358 172.456C495.15 172.034 495.046 171.541 495.046 170.975C495.046 170.416 495.15 169.924 495.358 169.497C495.569 169.071 495.863 168.739 496.239 168.5C496.618 168.26 497.061 168.141 497.567 168.141C497.875 168.141 498.173 168.192 498.462 168.294C498.751 168.395 499.01 168.555 499.24 168.773C499.47 168.991 499.651 169.274 499.783 169.622C499.916 169.967 499.982 170.388 499.982 170.882V171.259H495.646V170.463H498.942C498.942 170.184 498.885 169.937 498.771 169.721C498.657 169.503 498.498 169.332 498.292 169.206C498.088 169.081 497.849 169.018 497.574 169.018C497.276 169.018 497.016 169.091 496.793 169.238C496.573 169.383 496.403 169.572 496.282 169.806C496.163 170.038 496.104 170.291 496.104 170.563V171.184C496.104 171.549 496.168 171.859 496.296 172.115C496.426 172.37 496.607 172.566 496.839 172.701C497.071 172.833 497.342 172.899 497.653 172.899C497.854 172.899 498.037 172.871 498.203 172.814C498.369 172.755 498.512 172.667 498.633 172.551C498.753 172.435 498.846 172.292 498.91 172.122L499.915 172.303C499.834 172.599 499.69 172.858 499.481 173.081C499.275 173.301 499.016 173.472 498.704 173.595C498.394 173.716 498.04 173.777 497.642 173.777Z" fill="white"/>
<path d="M482.036 195.609C481.538 194.969 480.916 193.671 479.831 192.053C479.209 191.164 477.68 189.475 477.218 188.604C476.885 188.075 476.788 187.43 476.951 186.827C477.23 185.679 478.32 184.917 479.494 185.049C480.402 185.231 481.236 185.676 481.894 186.329C482.353 186.761 482.775 187.231 483.156 187.733C483.44 188.089 483.511 188.231 483.831 188.64C484.151 189.049 484.365 189.458 484.205 188.853C484.08 187.964 483.867 186.471 483.565 185.138C483.334 184.124 483.28 183.964 483.067 183.2C482.854 182.435 482.729 181.795 482.498 180.924C482.287 180.068 482.121 179.202 482 178.329C481.776 177.212 481.939 176.052 482.463 175.04C483.084 174.456 483.995 174.301 484.774 174.649C485.557 175.227 486.141 176.035 486.445 176.96C486.911 178.098 487.222 179.294 487.369 180.515C487.654 182.293 488.205 184.889 488.223 185.422C488.223 184.764 488.098 183.378 488.223 182.755C488.346 182.107 488.797 181.568 489.414 181.333C489.943 181.171 490.503 181.134 491.049 181.227C491.6 181.342 492.089 181.659 492.418 182.115C492.83 183.153 493.059 184.253 493.094 185.369C493.141 184.392 493.308 183.425 493.591 182.489C493.888 182.07 494.322 181.768 494.818 181.635C495.406 181.528 496.008 181.528 496.596 181.635C497.078 181.797 497.499 182.1 497.805 182.507C498.181 183.449 498.409 184.445 498.48 185.458C498.48 185.707 498.605 184.764 498.996 184.142C499.199 183.539 499.709 183.09 500.333 182.964C500.957 182.838 501.601 183.055 502.022 183.533C502.443 184.011 502.577 184.677 502.374 185.28C502.374 186.435 502.374 186.382 502.374 187.164C502.374 187.947 502.374 188.64 502.374 189.298C502.309 190.338 502.166 191.372 501.947 192.391C501.638 193.293 501.207 194.148 500.667 194.933C499.804 195.893 499.091 196.978 498.551 198.151C498.418 198.734 498.358 199.331 498.374 199.929C498.372 200.481 498.444 201.031 498.587 201.564C497.86 201.641 497.127 201.641 496.4 201.564C495.707 201.458 494.854 200.071 494.623 199.644C494.508 199.415 494.274 199.271 494.018 199.271C493.762 199.271 493.528 199.415 493.414 199.644C493.023 200.32 492.151 201.547 491.547 201.618C490.356 201.76 487.903 201.618 485.965 201.618C485.965 201.618 486.285 199.84 485.556 199.2C484.827 198.56 484.08 197.813 483.529 197.315L482.036 195.609Z" fill="white"/>
<path fill-rule="evenodd" clip-rule="evenodd" d="M482.036 195.609C481.538 194.969 480.916 193.671 479.831 192.053C479.209 191.164 477.68 189.475 477.218 188.604C476.885 188.075 476.788 187.43 476.951 186.827C477.23 185.679 478.32 184.917 479.494 185.049C480.402 185.231 481.236 185.676 481.894 186.329C482.353 186.761 482.775 187.231 483.156 187.733C483.44 188.089 483.511 188.231 483.831 188.64C484.151 189.049 484.365 189.458 484.205 188.853C484.08 187.964 483.867 186.471 483.565 185.138C483.334 184.124 483.28 183.964 483.067 183.2C482.854 182.435 482.729 181.795 482.498 180.924C482.287 180.068 482.121 179.202 482 178.329C481.776 177.212 481.939 176.052 482.463 175.04C483.084 174.456 483.995 174.301 484.774 174.649C485.557 175.227 486.141 176.035 486.445 176.96C486.911 178.098 487.222 179.294 487.369 180.515C487.654 182.293 488.205 184.889 488.223 185.422C488.223 184.764 488.098 183.378 488.223 182.755C488.346 182.107 488.797 181.568 489.414 181.333C489.943 181.171 490.503 181.134 491.049 181.227C491.6 181.342 492.089 181.659 492.418 182.115C492.83 183.153 493.059 184.253 493.094 185.369C493.141 184.392 493.308 183.425 493.591 182.489C493.888 182.07 494.322 181.768 494.818 181.635C495.406 181.528 496.008 181.528 496.596 181.635C497.078 181.797 497.499 182.1 497.805 182.507C498.181 183.449 498.409 184.445 498.48 185.458C498.48 185.707 498.605 184.764 498.996 184.142C499.199 183.539 499.709 183.09 500.333 182.964C500.957 182.838 501.601 183.055 502.022 183.533C502.443 184.011 502.577 184.677 502.374 185.28C502.374 186.435 502.374 186.382 502.374 187.164C502.374 187.947 502.374 188.64 502.374 189.298C502.309 190.338 502.166 191.372 501.947 192.391C501.638 193.293 501.207 194.148 500.667 194.933C499.804 195.893 499.091 196.978 498.551 198.151C498.418 198.734 498.358 199.331 498.374 199.929C498.372 200.481 498.444 201.031 498.587 201.564C497.86 201.641 497.127 201.641 496.4 201.564C495.707 201.458 494.854 200.071 494.623 199.644C494.508 199.415 494.274 199.271 494.018 199.271C493.762 199.271 493.528 199.415 493.414 199.644C493.023 200.32 492.151 201.547 491.547 201.618C490.356 201.76 487.903 201.618 485.965 201.618C485.965 201.618 486.285 199.84 485.556 199.2C484.827 198.56 484.08 197.813 483.529 197.315L482.036 195.609Z" stroke="black" stroke-width="1.33333" stroke-linecap="round" stroke-linejoin="round"/>
<path d="M497.111 196.579V190.443C497.111 190.076 496.813 189.778 496.444 189.778C496.076 189.778 495.778 190.076 495.778 190.443V196.579C495.778 196.947 496.076 197.244 496.444 197.244C496.813 197.244 497.111 196.947 497.111 196.579Z" fill="black"/>
<path d="M493.591 196.577L493.556 190.438C493.554 190.071 493.253 189.776 492.885 189.778C492.517 189.78 492.22 190.079 492.222 190.445L492.258 196.585C492.26 196.951 492.56 197.247 492.928 197.244C493.297 197.242 493.593 196.944 493.591 196.577Z" fill="black"/>
<path d="M488.667 190.452L488.702 196.579C488.704 196.948 489.005 197.247 489.373 197.244C489.741 197.242 490.038 196.941 490.036 196.571L490 190.444C489.998 190.074 489.698 189.776 489.33 189.778C488.961 189.78 488.665 190.082 488.667 190.452Z" fill="black"/>
<rect x="268.333" y="166.667" width="60" height="13.3333" rx="6.66667" fill="#ECEDEE" stroke="black"/>
<path d="M233.026 249.001C232.831 249.197 232.831 249.513 233.026 249.709C233.222 249.904 233.538 249.904 233.733 249.709L233.026 249.001ZM238.33 245.112C238.525 244.917 238.525 244.6 238.33 244.405C238.134 244.21 237.818 244.21 237.623 244.405L238.33 245.112ZM233.733 249.709L238.33 245.112L237.623 244.405L233.026 249.001L233.733 249.709Z" fill="black"/>
<path d="M248.338 242.845C248.26 243.65 247.913 245.474 246.375 247.345C246.024 247.772 245.386 247.769 244.995 247.379L240.176 242.559L235.356 237.74C234.966 237.349 234.962 236.71 235.395 236.366C237.287 234.864 239.228 234.639 240.103 234.622C240.406 234.617 240.706 234.511 240.921 234.296L243.389 231.828C244.951 230.266 247.483 230.266 249.046 231.828L251.167 233.95C252.729 235.512 252.73 238.044 251.167 239.606L248.666 242.108C248.47 242.303 248.364 242.57 248.338 242.845Z" fill="#FFB0E0"/>
<path d="M246.375 247.345L246.761 247.663L246.761 247.663L246.375 247.345ZM248.338 242.845L248.836 242.893L248.836 242.893L248.338 242.845ZM251.167 233.95L250.813 234.303L250.813 234.303L251.167 233.95ZM249.046 231.828L248.692 232.182L248.692 232.182L249.046 231.828ZM243.389 231.828L243.742 232.182L243.742 232.182L243.389 231.828ZM240.921 234.296L241.274 234.65L241.274 234.65L240.921 234.296ZM235.395 236.366L235.706 236.758L235.706 236.758L235.395 236.366ZM240.103 234.622L240.112 235.122L240.112 235.122L240.103 234.622ZM244.995 247.379L245.349 247.025L245.349 247.025L244.995 247.379ZM240.176 242.559L239.822 242.913L239.822 242.913L240.176 242.559ZM235.356 237.74L235.002 238.093L235.002 238.093L235.356 237.74ZM246.761 247.663C248.379 245.693 248.752 243.766 248.836 242.893L247.84 242.797C247.769 243.534 247.446 245.254 245.988 247.028L246.761 247.663ZM249.019 242.461L251.521 239.96L250.814 239.252L248.312 241.754L249.019 242.461ZM251.52 233.596L249.399 231.475L248.692 232.182L250.813 234.303L251.52 233.596ZM243.035 231.475L240.567 233.943L241.274 234.65L243.742 232.182L243.035 231.475ZM235.706 236.758C237.483 235.347 239.304 235.137 240.112 235.122L240.093 234.122C239.152 234.14 237.09 234.381 235.084 235.975L235.706 236.758ZM245.349 247.025L240.529 242.206L239.822 242.913L244.642 247.732L245.349 247.025ZM240.529 242.206L235.71 237.386L235.002 238.093L239.822 242.913L240.529 242.206ZM235.084 235.975C234.387 236.528 234.429 237.52 235.002 238.093L235.71 237.386C235.502 237.178 235.538 236.891 235.706 236.758L235.084 235.975ZM240.567 233.943C240.46 234.05 240.293 234.119 240.093 234.122L240.112 235.122C240.52 235.115 240.952 234.973 241.274 234.65L240.567 233.943ZM251.521 239.96C253.278 238.202 253.278 235.353 251.52 233.596L250.813 234.303C252.18 235.67 252.181 237.886 250.814 239.252L251.521 239.96ZM249.399 231.475C247.642 229.718 244.792 229.718 243.035 231.475L243.742 232.182C245.109 230.815 247.325 230.815 248.692 232.182L249.399 231.475ZM248.836 242.893C248.853 242.709 248.922 242.559 249.019 242.461L248.312 241.754C248.019 242.047 247.875 242.431 247.84 242.797L248.836 242.893ZM245.988 247.028C245.846 247.201 245.554 247.231 245.349 247.025L244.642 247.732C245.217 248.308 246.202 248.343 246.761 247.663L245.988 247.028Z" fill="black"/>
<path d="M265.026 249.001C264.831 249.197 264.831 249.513 265.026 249.709C265.222 249.904 265.538 249.904 265.733 249.709L265.026 249.001ZM270.33 245.112C270.525 244.917 270.525 244.6 270.33 244.405C270.134 244.21 269.818 244.21 269.623 244.405L270.33 245.112ZM265.733 249.709L270.33 245.112L269.623 244.405L265.026 249.001L265.733 249.709Z" fill="black"/>
<path d="M280.338 242.845C280.26 243.65 279.913 245.474 278.375 247.345C278.024 247.772 277.386 247.769 276.995 247.379L272.176 242.559L267.356 237.74C266.966 237.349 266.962 236.71 267.395 236.366C269.287 234.864 271.228 234.639 272.103 234.622C272.406 234.617 272.706 234.511 272.921 234.296L275.389 231.828C276.951 230.266 279.483 230.266 281.046 231.828L283.167 233.95C284.729 235.512 284.73 238.044 283.167 239.606L280.666 242.108C280.47 242.303 280.364 242.57 280.338 242.845Z" fill="#FFB0E0"/>
<path d="M278.375 247.345L278.761 247.663L278.761 247.663L278.375 247.345ZM280.338 242.845L280.836 242.893L280.836 242.893L280.338 242.845ZM283.167 233.95L282.813 234.303L282.813 234.303L283.167 233.95ZM281.046 231.828L280.692 232.182L280.692 232.182L281.046 231.828ZM275.389 231.828L275.742 232.182L275.742 232.182L275.389 231.828ZM272.921 234.296L273.274 234.65L273.274 234.65L272.921 234.296ZM267.395 236.366L267.706 236.758L267.706 236.758L267.395 236.366ZM272.103 234.622L272.112 235.122L272.112 235.122L272.103 234.622ZM276.995 247.379L277.349 247.025L277.349 247.025L276.995 247.379ZM272.176 242.559L271.822 242.913L271.822 242.913L272.176 242.559ZM267.356 237.74L267.002 238.093L267.002 238.093L267.356 237.74ZM278.761 247.663C280.379 245.693 280.752 243.766 280.836 242.893L279.84 242.797C279.769 243.534 279.446 245.254 277.988 247.028L278.761 247.663ZM281.019 242.461L283.521 239.96L282.814 239.252L280.312 241.754L281.019 242.461ZM283.52 233.596L281.399 231.475L280.692 232.182L282.813 234.303L283.52 233.596ZM275.035 231.475L272.567 233.943L273.274 234.65L275.742 232.182L275.035 231.475ZM267.706 236.758C269.483 235.347 271.304 235.137 272.112 235.122L272.093 234.122C271.152 234.14 269.09 234.381 267.084 235.975L267.706 236.758ZM277.349 247.025L272.529 242.206L271.822 242.913L276.642 247.732L277.349 247.025ZM272.529 242.206L267.71 237.386L267.002 238.093L271.822 242.913L272.529 242.206ZM267.084 235.975C266.387 236.528 266.429 237.52 267.002 238.093L267.71 237.386C267.502 237.178 267.538 236.891 267.706 236.758L267.084 235.975ZM272.567 233.943C272.46 234.05 272.293 234.119 272.093 234.122L272.112 235.122C272.52 235.115 272.952 234.973 273.274 234.65L272.567 233.943ZM283.521 239.96C285.278 238.202 285.278 235.353 283.52 233.596L282.813 234.303C284.18 235.67 284.181 237.886 282.814 239.252L283.521 239.96ZM281.399 231.475C279.642 229.718 276.792 229.718 275.035 231.475L275.742 232.182C277.109 230.815 279.325 230.815 280.692 232.182L281.399 231.475ZM280.836 242.893C280.853 242.709 280.922 242.559 281.019 242.461L280.312 241.754C280.019 242.047 279.875 242.431 279.84 242.797L280.836 242.893ZM277.988 247.028C277.846 247.201 277.554 247.231 277.349 247.025L276.642 247.732C277.217 248.308 278.202 248.343 278.761 247.663L277.988 247.028Z" fill="black"/>
<path d="M297.026 249.001C296.831 249.197 296.831 249.513 297.026 249.709C297.222 249.904 297.538 249.904 297.733 249.709L297.026 249.001ZM302.33 245.112C302.525 244.917 302.525 244.6 302.33 244.405C302.134 244.21 301.818 244.21 301.623 244.405L302.33 245.112ZM297.733 249.709L302.33 245.112L301.623 244.405L297.026 249.001L297.733 249.709Z" fill="black"/>
<path d="M312.338 242.845C312.26 243.65 311.913 245.474 310.375 247.345C310.024 247.772 309.386 247.769 308.995 247.379L304.176 242.559L299.356 237.74C298.966 237.349 298.962 236.71 299.395 236.366C301.287 234.864 303.228 234.639 304.103 234.622C304.406 234.617 304.706 234.511 304.921 234.296L307.389 231.828C308.951 230.266 311.483 230.266 313.046 231.828L315.167 233.95C316.729 235.512 316.73 238.044 315.167 239.606L312.666 242.108C312.47 242.303 312.364 242.57 312.338 242.845Z" fill="#FFB0E0"/>
<path d="M310.375 247.345L310.761 247.663L310.761 247.663L310.375 247.345ZM312.338 242.845L312.836 242.893L312.836 242.893L312.338 242.845ZM315.167 233.95L314.813 234.303L314.813 234.303L315.167 233.95ZM313.046 231.828L312.692 232.182L312.692 232.182L313.046 231.828ZM307.389 231.828L307.742 232.182L307.742 232.182L307.389 231.828ZM304.921 234.296L305.274 234.65L305.274 234.65L304.921 234.296ZM299.395 236.366L299.706 236.758L299.706 236.758L299.395 236.366ZM304.103 234.622L304.112 235.122L304.112 235.122L304.103 234.622ZM308.995 247.379L309.349 247.025L309.349 247.025L308.995 247.379ZM304.176 242.559L303.822 242.913L303.822 242.913L304.176 242.559ZM299.356 237.74L299.002 238.093L299.002 238.093L299.356 237.74ZM310.761 247.663C312.379 245.693 312.752 243.766 312.836 242.893L311.84 242.797C311.769 243.534 311.446 245.254 309.988 247.028L310.761 247.663ZM313.019 242.461L315.521 239.96L314.814 239.252L312.312 241.754L313.019 242.461ZM315.52 233.596L313.399 231.475L312.692 232.182L314.813 234.303L315.52 233.596ZM307.035 231.475L304.567 233.943L305.274 234.65L307.742 232.182L307.035 231.475ZM299.706 236.758C301.483 235.347 303.304 235.137 304.112 235.122L304.093 234.122C303.152 234.14 301.09 234.381 299.084 235.975L299.706 236.758ZM309.349 247.025L304.529 242.206L303.822 242.913L308.642 247.732L309.349 247.025ZM304.529 242.206L299.71 237.386L299.002 238.093L303.822 242.913L304.529 242.206ZM299.084 235.975C298.387 236.528 298.429 237.52 299.002 238.093L299.71 237.386C299.502 237.178 299.538 236.891 299.706 236.758L299.084 235.975ZM304.567 233.943C304.46 234.05 304.293 234.119 304.093 234.122L304.112 235.122C304.52 235.115 304.952 234.973 305.274 234.65L304.567 233.943ZM315.521 239.96C317.278 238.202 317.278 235.353 315.52 233.596L314.813 234.303C316.18 235.67 316.181 237.886 314.814 239.252L315.521 239.96ZM313.399 231.475C311.642 229.718 308.792 229.718 307.035 231.475L307.742 232.182C309.109 230.815 311.325 230.815 312.692 232.182L313.399 231.475ZM312.836 242.893C312.853 242.709 312.922 242.559 313.019 242.461L312.312 241.754C312.019 242.047 311.875 242.431 311.84 242.797L312.836 242.893ZM309.988 247.028C309.846 247.201 309.554 247.231 309.349 247.025L308.642 247.732C309.217 248.308 310.202 248.343 310.761 247.663L309.988 247.028Z" fill="black"/>
<rect x="231" y="195" width="169" height="13" rx="6.5" fill="white" stroke="black"/>
<path d="M235.41 183.968V183.9C236.431 184.763 237.573 185.476 238.802 186.014L238.802 186.014C243.429 188.036 248.795 187.372 252.785 184.284C256.617 181.324 258.625 176.587 258.082 171.784C257.539 166.981 254.524 162.809 250.127 160.773L250.126 160.772C245.493 158.633 240.051 159.223 235.988 162.307C232.796 164.725 230.807 168.4 230.533 172.387C230.258 176.374 231.725 180.285 234.557 183.115L235.41 183.968Z" fill="#DC78B5" stroke="black"/>
<mask id="mask0_5217_271748" style="mask-type:alpha" maskUnits="userSpaceOnUse" x="231" y="160" width="27" height="27">
<path fill-rule="evenodd" clip-rule="evenodd" d="M234.91 182.761C236.087 183.939 237.475 184.887 239.003 185.556C243.462 187.505 248.634 186.865 252.479 183.888C256.174 181.035 258.109 176.469 257.586 171.84C257.062 167.212 254.156 163.189 249.917 161.226C245.451 159.164 240.206 159.733 236.29 162.706C233.213 165.037 231.296 168.579 231.031 172.421C230.767 176.264 232.181 180.033 234.91 182.761V182.761Z" fill="white"/>
</mask>
<g mask="url(#mask0_5217_271748)">
<path d="M228.926 180.709C230.103 181.887 231.491 182.835 233.019 183.504C237.478 185.452 242.65 184.812 246.495 181.836C250.19 178.982 252.125 174.417 251.602 169.788C251.078 165.159 248.172 161.137 243.933 159.174C239.467 157.112 234.222 157.681 230.306 160.653C227.229 162.985 225.312 166.526 225.048 170.369C224.783 174.212 226.197 177.981 228.926 180.709V180.709Z" fill="#FFB0E0"/>
</g>
<defs>
<linearGradient id="paint0_linear_5217_271748" x1="372" y1="0" x2="372" y2="276" gradientUnits="userSpaceOnUse">
<stop stop-color="white"/>
<stop offset="1" stop-color="white"/>
</linearGradient>
</defs>
</svg>
