<svg width="744" height="276" viewBox="0 0 744 276" fill="none" xmlns="http://www.w3.org/2000/svg">
<path d="M681 225.5C681 221.91 683.91 219 687.5 219H744V232H687.5C683.91 232 681 229.09 681 225.5V225.5Z" fill="#ECEDEE"/>
<path fill-rule="evenodd" clip-rule="evenodd" d="M0 0V69.9907C5.34922 75.9633 8.82703 83.5324 9.75314 91.7531C11.0162 102.965 7.38211 114.051 0 122.291V276H744V129.731C741.25 128.079 738.708 126.09 736.436 123.808C728.454 115.801 724.319 104.738 725.092 93.4585C725.865 82.1795 731.472 71.7838 740.471 64.9413C741.611 64.073 742.789 63.2745 744 62.5466V0H0ZM356.405 132.011C351.938 130.048 347.878 127.265 344.435 123.808C336.454 115.801 332.319 104.738 333.092 93.4585C333.865 82.1795 339.471 71.7838 348.471 64.9413C359.923 56.217 375.263 54.5459 388.325 60.5995C400.723 66.3612 409.223 78.1674 410.753 91.7531C412.284 105.339 406.624 118.74 395.818 127.116C384.572 135.852 369.446 137.731 356.405 132.011ZM540.436 123.808C543.878 127.265 547.938 130.048 552.405 132.011C565.446 137.731 580.572 135.852 591.818 127.116C602.624 118.74 608.284 105.339 606.753 91.7531C605.223 78.1674 596.723 66.3612 584.325 60.5995C571.263 54.5459 555.923 56.217 544.471 64.9413C535.472 71.7838 529.865 82.1795 529.092 93.4585C528.319 104.738 532.454 115.801 540.436 123.808ZM139.435 123.808C142.878 127.265 146.938 130.048 151.405 132.011C164.446 137.731 179.572 135.852 190.818 127.116C201.624 118.74 207.284 105.339 205.753 91.7531C204.223 78.1674 195.723 66.3612 183.325 60.5995C170.263 54.5459 154.923 56.217 143.471 64.9413C134.471 71.7838 128.865 82.1795 128.092 93.4585C127.319 104.738 131.454 115.801 139.435 123.808Z" fill="white"/>
<rect x="289" y="219" width="101" height="13" rx="6.5" fill="#ECEDEE" stroke="black"/>
<path d="M286 152.333V189C286 193.418 289.582 197 294 197H450C454.418 197 458 193.418 458 189V152.333M286 152.333V45C286 40.5817 289.582 37 294 37H450C454.418 37 458 40.5817 458 45V152.333M286 152.333H458" stroke="black"/>
<rect x="297" y="160" width="60" height="27" rx="8" fill="#C95FFD"/>
<path d="M311.466 177.667V170.394H315.976V171.338H312.563V173.554H315.653V174.495H312.563V177.667H311.466ZM319.444 177.777C318.932 177.777 318.486 177.659 318.105 177.425C317.724 177.191 317.428 176.863 317.217 176.441C317.006 176.02 316.901 175.528 316.901 174.964C316.901 174.398 317.006 173.903 317.217 173.48C317.428 173.056 317.724 172.727 318.105 172.492C318.486 172.258 318.932 172.141 319.444 172.141C319.955 172.141 320.401 172.258 320.783 172.492C321.164 172.727 321.46 173.056 321.67 173.48C321.881 173.903 321.986 174.398 321.986 174.964C321.986 175.528 321.881 176.02 321.67 176.441C321.46 176.863 321.164 177.191 320.783 177.425C320.401 177.659 319.955 177.777 319.444 177.777ZM319.447 176.885C319.779 176.885 320.053 176.798 320.271 176.622C320.489 176.447 320.65 176.214 320.754 175.923C320.861 175.632 320.914 175.311 320.914 174.961C320.914 174.613 320.861 174.293 320.754 174.002C320.65 173.708 320.489 173.473 320.271 173.295C320.053 173.117 319.779 173.029 319.447 173.029C319.114 173.029 318.837 173.117 318.616 173.295C318.399 173.473 318.236 173.708 318.13 174.002C318.026 174.293 317.974 174.613 317.974 174.961C317.974 175.311 318.026 175.632 318.13 175.923C318.236 176.214 318.399 176.447 318.616 176.622C318.837 176.798 319.114 176.885 319.447 176.885ZM324.54 170.394V177.667H323.478V170.394H324.54ZM327.337 170.394V177.667H326.275V170.394H327.337ZM331.37 177.777C330.858 177.777 330.412 177.659 330.031 177.425C329.65 177.191 329.354 176.863 329.143 176.441C328.932 176.02 328.827 175.528 328.827 174.964C328.827 174.398 328.932 173.903 329.143 173.48C329.354 173.056 329.65 172.727 330.031 172.492C330.412 172.258 330.858 172.141 331.37 172.141C331.881 172.141 332.327 172.258 332.708 172.492C333.09 172.727 333.385 173.056 333.596 173.48C333.807 173.903 333.912 174.398 333.912 174.964C333.912 175.528 333.807 176.02 333.596 176.441C333.385 176.863 333.09 177.191 332.708 177.425C332.327 177.659 331.881 177.777 331.37 177.777ZM331.373 176.885C331.705 176.885 331.979 176.798 332.197 176.622C332.415 176.447 332.576 176.214 332.68 175.923C332.787 175.632 332.84 175.311 332.84 174.961C332.84 174.613 332.787 174.293 332.68 174.002C332.576 173.708 332.415 173.473 332.197 173.295C331.979 173.117 331.705 173.029 331.373 173.029C331.039 173.029 330.762 173.117 330.542 173.295C330.324 173.473 330.162 173.708 330.056 174.002C329.952 174.293 329.899 174.613 329.899 174.961C329.899 175.311 329.952 175.632 330.056 175.923C330.162 176.214 330.324 176.447 330.542 176.622C330.762 176.798 331.039 176.885 331.373 176.885ZM336.421 177.667L334.815 172.212H335.913L336.982 176.218H337.035L338.107 172.212H339.205L340.27 176.2H340.323L341.385 172.212H342.482L340.881 177.667H339.798L338.69 173.728H338.608L337.5 177.667H336.421Z" fill="white"/>
<path d="M345.036 199.609C344.538 198.969 343.916 197.671 342.831 196.053C342.209 195.164 340.68 193.475 340.218 192.604C339.885 192.075 339.788 191.43 339.951 190.827C340.23 189.679 341.32 188.917 342.494 189.049C343.402 189.231 344.236 189.676 344.894 190.329C345.353 190.761 345.775 191.231 346.156 191.733C346.44 192.089 346.511 192.231 346.831 192.64C347.151 193.049 347.365 193.458 347.205 192.853C347.08 191.964 346.867 190.471 346.565 189.138C346.334 188.124 346.28 187.964 346.067 187.2C345.854 186.435 345.729 185.795 345.498 184.924C345.287 184.068 345.121 183.202 345 182.329C344.776 181.212 344.939 180.052 345.463 179.04C346.084 178.456 346.995 178.301 347.774 178.649C348.557 179.227 349.141 180.035 349.445 180.96C349.911 182.098 350.222 183.294 350.369 184.515C350.654 186.293 351.205 188.889 351.223 189.422C351.223 188.764 351.098 187.378 351.223 186.755C351.346 186.107 351.797 185.568 352.414 185.333C352.943 185.171 353.503 185.134 354.049 185.227C354.6 185.342 355.089 185.659 355.418 186.115C355.83 187.153 356.059 188.253 356.094 189.369C356.141 188.392 356.308 187.425 356.591 186.489C356.888 186.07 357.322 185.768 357.818 185.635C358.406 185.528 359.008 185.528 359.596 185.635C360.078 185.797 360.499 186.1 360.805 186.507C361.181 187.449 361.409 188.445 361.48 189.458C361.48 189.707 361.605 188.764 361.996 188.142C362.199 187.539 362.709 187.09 363.333 186.964C363.957 186.838 364.601 187.055 365.022 187.533C365.443 188.011 365.577 188.677 365.374 189.28C365.374 190.435 365.374 190.382 365.374 191.164C365.374 191.947 365.374 192.64 365.374 193.298C365.309 194.338 365.166 195.372 364.947 196.391C364.638 197.293 364.207 198.148 363.667 198.933C362.804 199.893 362.091 200.978 361.551 202.151C361.418 202.734 361.358 203.331 361.374 203.929C361.372 204.481 361.444 205.031 361.587 205.564C360.86 205.641 360.127 205.641 359.4 205.564C358.707 205.458 357.854 204.071 357.623 203.644C357.508 203.415 357.274 203.271 357.018 203.271C356.762 203.271 356.528 203.415 356.414 203.644C356.023 204.32 355.151 205.547 354.547 205.618C353.356 205.76 350.903 205.618 348.965 205.618C348.965 205.618 349.285 203.84 348.556 203.2C347.827 202.56 347.08 201.813 346.529 201.315L345.036 199.609Z" fill="white"/>
<path fill-rule="evenodd" clip-rule="evenodd" d="M345.036 199.609C344.538 198.969 343.916 197.671 342.831 196.053C342.209 195.164 340.68 193.475 340.218 192.604C339.885 192.075 339.788 191.43 339.951 190.827C340.23 189.679 341.32 188.917 342.494 189.049C343.402 189.231 344.236 189.676 344.894 190.329C345.353 190.761 345.775 191.231 346.156 191.733C346.44 192.089 346.511 192.231 346.831 192.64C347.151 193.049 347.365 193.458 347.205 192.853C347.08 191.964 346.867 190.471 346.565 189.138C346.334 188.124 346.28 187.964 346.067 187.2C345.854 186.435 345.729 185.795 345.498 184.924C345.287 184.068 345.121 183.202 345 182.329C344.776 181.212 344.939 180.052 345.463 179.04C346.084 178.456 346.995 178.301 347.774 178.649C348.557 179.227 349.141 180.035 349.445 180.96C349.911 182.098 350.222 183.294 350.369 184.515C350.654 186.293 351.205 188.889 351.223 189.422C351.223 188.764 351.098 187.378 351.223 186.755C351.346 186.107 351.797 185.568 352.414 185.333C352.943 185.171 353.503 185.134 354.049 185.227C354.6 185.342 355.089 185.659 355.418 186.115C355.83 187.153 356.059 188.253 356.094 189.369C356.141 188.392 356.308 187.425 356.591 186.489C356.888 186.07 357.322 185.768 357.818 185.635C358.406 185.528 359.008 185.528 359.596 185.635C360.078 185.797 360.499 186.1 360.805 186.507C361.181 187.449 361.409 188.445 361.48 189.458C361.48 189.707 361.605 188.764 361.996 188.142C362.199 187.539 362.709 187.09 363.333 186.964C363.957 186.838 364.601 187.055 365.022 187.533C365.443 188.011 365.577 188.677 365.374 189.28C365.374 190.435 365.374 190.382 365.374 191.164C365.374 191.947 365.374 192.64 365.374 193.298C365.309 194.338 365.166 195.372 364.947 196.391C364.638 197.293 364.207 198.148 363.667 198.933C362.804 199.893 362.091 200.978 361.551 202.151C361.418 202.734 361.358 203.331 361.374 203.929C361.372 204.481 361.444 205.031 361.587 205.564C360.86 205.641 360.127 205.641 359.4 205.564C358.707 205.458 357.854 204.071 357.623 203.644C357.508 203.415 357.274 203.271 357.018 203.271C356.762 203.271 356.528 203.415 356.414 203.644C356.023 204.32 355.151 205.547 354.547 205.618C353.356 205.76 350.903 205.618 348.965 205.618C348.965 205.618 349.285 203.84 348.556 203.2C347.827 202.56 347.08 201.813 346.529 201.315L345.036 199.609Z" stroke="black" stroke-width="1.33333" stroke-linecap="round" stroke-linejoin="round"/>
<path d="M360.111 200.579V194.443C360.111 194.076 359.813 193.778 359.444 193.778C359.076 193.778 358.778 194.076 358.778 194.443V200.579C358.778 200.947 359.076 201.244 359.444 201.244C359.813 201.244 360.111 200.947 360.111 200.579Z" fill="black"/>
<path d="M356.591 200.577L356.556 194.438C356.554 194.071 356.253 193.776 355.885 193.778C355.517 193.78 355.22 194.079 355.222 194.445L355.258 200.585C355.26 200.951 355.56 201.247 355.928 201.244C356.297 201.242 356.593 200.944 356.591 200.577Z" fill="black"/>
<path d="M351.667 194.452L351.702 200.579C351.704 200.948 352.005 201.247 352.373 201.244C352.741 201.242 353.038 200.941 353.036 200.571L353 194.444C352.998 194.074 352.698 193.776 352.33 193.778C351.961 193.78 351.665 194.082 351.667 194.452Z" fill="black"/>
<rect x="485" y="219" width="101" height="13" rx="6.5" fill="#ECEDEE" stroke="black"/>
<path d="M482 152.333V189C482 193.418 485.582 197 490 197H646C650.418 197 654 193.418 654 189V152.333M482 152.333V45C482 40.5817 485.582 37 490 37H646C650.418 37 654 40.5817 654 45V152.333M482 152.333H654" stroke="black"/>
<path d="M0 37H49C53.4183 37 57 40.5817 57 45V152.333M0 197H49C53.4183 197 57 193.418 57 189V152.333M0 152.333H57" stroke="black"/>
<path d="M681 225.5C681 221.91 683.91 219 687.5 219H744V225.5V232H687.5C683.91 232 681 229.09 681 225.5V225.5Z" fill="#ECEDEE"/>
<path d="M744 219H687.5C683.91 219 681 221.91 681 225.5V225.5C681 229.09 683.91 232 687.5 232H744" stroke="black"/>
<path d="M744 37H686C681.582 37 678 40.5817 678 45V152.333M744 197H686C681.582 197 678 193.418 678 189V152.333M678 152.333H744" stroke="black"/>
<rect x="84" y="219" width="101" height="13" rx="6.5" fill="#ECEDEE" stroke="black"/>
<path d="M81 152.333V189C81 193.418 84.5817 197 89 197H245C249.418 197 253 193.418 253 189V152.333M81 152.333V45C81 40.5817 84.5817 37 89 37H245C249.418 37 253 40.5817 253 45V152.333M81 152.333H253" stroke="black"/>
</svg>
