<svg width="744" height="276" viewBox="0 0 744 276" fill="none" xmlns="http://www.w3.org/2000/svg">
<path fill-rule="evenodd" clip-rule="evenodd" d="M0 0V37H58C62.4183 37 66 40.5817 66 45V152.333H0V276H744V152.333H678V45C678 40.5817 681.582 37 686 37H744V0H0ZM294 37H450C454.418 37 458 40.5817 458 45V152.333H286V45C286 40.5817 289.582 37 294 37ZM254 37H98C93.5817 37 90 40.5817 90 45V152.333H262V45C262 40.5817 258.418 37 254 37ZM646 37H490C485.582 37 482 40.5817 482 45V152.333H654V45C654 40.5817 650.418 37 646 37Z" fill="white"/>
<circle cx="299.333" cy="225.667" r="13.3333" fill="#E5B0FF" stroke="black"/>
<rect x="323.333" y="219" width="60" height="13.3333" rx="6.66667" fill="#ECEDEE" stroke="black"/>
<path d="M286 152.333V189C286 193.418 289.582 197 294 197H450C454.418 197 458 193.418 458 189V152.333M286 152.333V45C286 40.5817 289.582 37 294 37H450C454.418 37 458 40.5817 458 45V152.333M286 152.333H458" stroke="black"/>
<rect x="297.333" y="160.333" width="54.6667" height="26.6667" rx="8" fill="#C95FFD"/>
<path d="M314.292 170.394H315.386V175.55C315.386 176.016 315.294 176.415 315.109 176.747C314.927 177.078 314.67 177.332 314.339 177.507C314.007 177.68 313.619 177.766 313.174 177.766C312.764 177.766 312.396 177.691 312.069 177.542C311.745 177.393 311.488 177.176 311.299 176.892C311.112 176.606 311.018 176.258 311.018 175.848H312.109C312.109 176.05 312.155 176.224 312.247 176.37C312.342 176.517 312.471 176.632 312.634 176.715C312.8 176.795 312.989 176.836 313.202 176.836C313.434 176.836 313.631 176.787 313.792 176.69C313.955 176.591 314.079 176.445 314.165 176.253C314.25 176.061 314.292 175.827 314.292 175.55V170.394ZM320.66 175.404V172.212H321.725V177.667H320.681V176.722H320.625C320.499 177.013 320.298 177.256 320.021 177.45C319.746 177.642 319.404 177.738 318.995 177.738C318.644 177.738 318.334 177.661 318.064 177.507C317.797 177.35 317.586 177.12 317.432 176.814C317.281 176.509 317.205 176.131 317.205 175.681V172.212H318.267V175.554C318.267 175.925 318.37 176.221 318.576 176.441C318.781 176.662 319.049 176.772 319.378 176.772C319.577 176.772 319.775 176.722 319.971 176.622C320.17 176.523 320.335 176.373 320.465 176.171C320.597 175.97 320.662 175.715 320.66 175.404ZM323.459 177.667V172.212H324.478V173.1H324.545C324.659 172.799 324.845 172.565 325.103 172.397C325.361 172.226 325.67 172.141 326.03 172.141C326.394 172.141 326.7 172.226 326.946 172.397C327.194 172.567 327.378 172.801 327.496 173.1H327.553C327.683 172.809 327.891 172.577 328.175 172.404C328.459 172.229 328.797 172.141 329.19 172.141C329.685 172.141 330.089 172.296 330.401 172.606C330.716 172.916 330.873 173.384 330.873 174.009V177.667H329.812V174.108C329.812 173.739 329.711 173.471 329.51 173.306C329.309 173.14 329.068 173.057 328.789 173.057C328.443 173.057 328.175 173.164 327.983 173.377C327.791 173.587 327.695 173.859 327.695 174.19V177.667H326.637V174.041C326.637 173.745 326.545 173.507 326.36 173.327C326.175 173.147 325.935 173.057 325.639 173.057C325.438 173.057 325.252 173.11 325.082 173.217C324.913 173.321 324.777 173.467 324.673 173.654C324.571 173.841 324.52 174.057 324.52 174.304V177.667H323.459ZM332.603 179.712V172.212H333.64V173.096H333.729C333.791 172.983 333.879 172.851 333.995 172.702C334.111 172.553 334.272 172.423 334.478 172.311C334.684 172.198 334.956 172.141 335.295 172.141C335.735 172.141 336.128 172.252 336.474 172.475C336.82 172.697 337.091 173.018 337.287 173.437C337.486 173.856 337.586 174.36 337.586 174.95C337.586 175.539 337.487 176.045 337.291 176.466C337.094 176.885 336.824 177.208 336.481 177.436C336.138 177.661 335.746 177.773 335.306 177.773C334.974 177.773 334.703 177.717 334.492 177.606C334.284 177.495 334.121 177.365 334.002 177.216C333.884 177.066 333.793 176.934 333.729 176.818H333.665V179.712H332.603ZM333.644 174.939C333.644 175.323 333.699 175.659 333.811 175.948C333.922 176.237 334.083 176.463 334.294 176.626C334.504 176.787 334.762 176.867 335.068 176.867C335.385 176.867 335.65 176.783 335.863 176.615C336.076 176.445 336.237 176.214 336.346 175.923C336.457 175.632 336.513 175.304 336.513 174.939C336.513 174.579 336.459 174.256 336.35 173.97C336.243 173.683 336.082 173.457 335.867 173.292C335.654 173.126 335.387 173.043 335.068 173.043C334.76 173.043 334.5 173.122 334.286 173.281C334.076 173.439 333.916 173.661 333.807 173.945C333.698 174.229 333.644 174.56 333.644 174.939Z" fill="white"/>
<path d="M345.036 199.609C344.538 198.969 343.916 197.671 342.831 196.053C342.209 195.164 340.68 193.475 340.218 192.604C339.885 192.075 339.788 191.43 339.951 190.827C340.23 189.679 341.32 188.917 342.494 189.049C343.402 189.231 344.236 189.676 344.894 190.329C345.353 190.761 345.775 191.231 346.156 191.733C346.44 192.089 346.511 192.231 346.831 192.64C347.151 193.049 347.365 193.458 347.205 192.853C347.08 191.964 346.867 190.471 346.565 189.138C346.334 188.124 346.28 187.964 346.067 187.2C345.854 186.435 345.729 185.795 345.498 184.924C345.287 184.068 345.121 183.202 345 182.329C344.776 181.212 344.939 180.052 345.463 179.04C346.084 178.456 346.995 178.301 347.774 178.649C348.557 179.227 349.141 180.035 349.445 180.96C349.911 182.098 350.222 183.294 350.369 184.515C350.654 186.293 351.205 188.889 351.223 189.422C351.223 188.764 351.098 187.378 351.223 186.755C351.346 186.107 351.797 185.568 352.414 185.333C352.943 185.171 353.503 185.134 354.049 185.227C354.6 185.342 355.089 185.659 355.418 186.115C355.83 187.153 356.059 188.253 356.094 189.369C356.141 188.392 356.308 187.425 356.591 186.489C356.888 186.07 357.322 185.768 357.818 185.635C358.406 185.528 359.008 185.528 359.596 185.635C360.078 185.797 360.499 186.1 360.805 186.507C361.181 187.449 361.409 188.445 361.48 189.458C361.48 189.707 361.605 188.764 361.996 188.142C362.199 187.539 362.709 187.09 363.333 186.964C363.957 186.838 364.601 187.055 365.022 187.533C365.443 188.011 365.577 188.677 365.374 189.28C365.374 190.435 365.374 190.382 365.374 191.164C365.374 191.947 365.374 192.64 365.374 193.298C365.309 194.338 365.166 195.372 364.947 196.391C364.638 197.293 364.207 198.148 363.667 198.933C362.804 199.893 362.091 200.978 361.551 202.151C361.418 202.734 361.358 203.331 361.374 203.929C361.372 204.481 361.444 205.031 361.587 205.564C360.86 205.641 360.127 205.641 359.4 205.564C358.707 205.458 357.854 204.071 357.623 203.644C357.508 203.415 357.274 203.271 357.018 203.271C356.762 203.271 356.528 203.415 356.414 203.644C356.023 204.32 355.151 205.547 354.547 205.618C353.356 205.76 350.903 205.618 348.965 205.618C348.965 205.618 349.285 203.84 348.556 203.2C347.827 202.56 347.08 201.813 346.529 201.315L345.036 199.609Z" fill="white"/>
<path fill-rule="evenodd" clip-rule="evenodd" d="M345.036 199.609C344.538 198.969 343.916 197.671 342.831 196.053C342.209 195.164 340.68 193.475 340.218 192.604C339.885 192.075 339.788 191.43 339.951 190.827C340.23 189.679 341.32 188.917 342.494 189.049C343.402 189.231 344.236 189.676 344.894 190.329C345.353 190.761 345.775 191.231 346.156 191.733C346.44 192.089 346.511 192.231 346.831 192.64C347.151 193.049 347.365 193.458 347.205 192.853C347.08 191.964 346.867 190.471 346.565 189.138C346.334 188.124 346.28 187.964 346.067 187.2C345.854 186.435 345.729 185.795 345.498 184.924C345.287 184.068 345.121 183.202 345 182.329C344.776 181.212 344.939 180.052 345.463 179.04C346.084 178.456 346.995 178.301 347.774 178.649C348.557 179.227 349.141 180.035 349.445 180.96C349.911 182.098 350.222 183.294 350.369 184.515C350.654 186.293 351.205 188.889 351.223 189.422C351.223 188.764 351.098 187.378 351.223 186.755C351.346 186.107 351.797 185.568 352.414 185.333C352.943 185.171 353.503 185.134 354.049 185.227C354.6 185.342 355.089 185.659 355.418 186.115C355.83 187.153 356.059 188.253 356.094 189.369C356.141 188.392 356.308 187.425 356.591 186.489C356.888 186.07 357.322 185.768 357.818 185.635C358.406 185.528 359.008 185.528 359.596 185.635C360.078 185.797 360.499 186.1 360.805 186.507C361.181 187.449 361.409 188.445 361.48 189.458C361.48 189.707 361.605 188.764 361.996 188.142C362.199 187.539 362.709 187.09 363.333 186.964C363.957 186.838 364.601 187.055 365.022 187.533C365.443 188.011 365.577 188.677 365.374 189.28C365.374 190.435 365.374 190.382 365.374 191.164C365.374 191.947 365.374 192.64 365.374 193.298C365.309 194.338 365.166 195.372 364.947 196.391C364.638 197.293 364.207 198.148 363.667 198.933C362.804 199.893 362.091 200.978 361.551 202.151C361.418 202.734 361.358 203.331 361.374 203.929C361.372 204.481 361.444 205.031 361.587 205.564C360.86 205.641 360.127 205.641 359.4 205.564C358.707 205.458 357.854 204.071 357.623 203.644C357.508 203.415 357.274 203.271 357.018 203.271C356.762 203.271 356.528 203.415 356.414 203.644C356.023 204.32 355.151 205.547 354.547 205.618C353.356 205.76 350.903 205.618 348.965 205.618C348.965 205.618 349.285 203.84 348.556 203.2C347.827 202.56 347.08 201.813 346.529 201.315L345.036 199.609Z" stroke="black" stroke-width="1.33333" stroke-linecap="round" stroke-linejoin="round"/>
<path d="M360.111 200.579V194.443C360.111 194.076 359.813 193.778 359.444 193.778C359.076 193.778 358.778 194.076 358.778 194.443V200.579C358.778 200.947 359.076 201.244 359.444 201.244C359.813 201.244 360.111 200.947 360.111 200.579Z" fill="black"/>
<path d="M356.591 200.577L356.556 194.438C356.554 194.071 356.253 193.776 355.885 193.778C355.517 193.78 355.22 194.079 355.222 194.445L355.258 200.585C355.26 200.951 355.56 201.247 355.928 201.244C356.297 201.242 356.593 200.944 356.591 200.577Z" fill="black"/>
<path d="M351.667 194.452L351.702 200.579C351.704 200.948 352.005 201.247 352.373 201.244C352.741 201.242 353.038 200.941 353.036 200.571L353 194.444C352.998 194.074 352.698 193.776 352.33 193.778C351.961 193.78 351.665 194.082 351.667 194.452Z" fill="black"/>
<circle cx="495.333" cy="225.667" r="13.3333" fill="#E5B0FF" stroke="black"/>
<rect x="519.333" y="219" width="60" height="13.3333" rx="6.66667" fill="#ECEDEE" stroke="black"/>
<path d="M715 225.667C715 221.985 717.985 219 721.667 219H744V232.333H721.667C717.985 232.333 715 229.349 715 225.667V225.667Z" fill="#ECEDEE"/>
<path d="M482 152.333V189C482 193.418 485.582 197 490 197H646C650.418 197 654 193.418 654 189V152.333M482 152.333V45C482 40.5817 485.582 37 490 37H646C650.418 37 654 40.5817 654 45V152.333M482 152.333H654" stroke="black"/>
<path d="M0 37H58C62.4183 37 66 40.5817 66 45V152.333M0 197H58C62.4183 197 66 193.418 66 189V152.333M0 152.333H66" stroke="black"/>
<circle cx="691.333" cy="225.667" r="13.3333" fill="#E5B0FF" stroke="black"/>
<path d="M744 219H722C718.318 219 715.333 221.985 715.333 225.667V225.667C715.333 229.349 718.318 232.333 722 232.333H744" stroke="black"/>
<path d="M744 37H686C681.582 37 678 40.5817 678 45V152.333M744 197H686C681.582 197 678 193.418 678 189V152.333M678 152.333H744" stroke="black"/>
<circle cx="103.333" cy="225.667" r="13.3333" fill="#E5B0FF" stroke="black"/>
<rect x="127.333" y="219" width="60" height="13.3333" rx="6.66667" fill="#ECEDEE" stroke="black"/>
<path d="M90 152.333V189C90 193.418 93.5817 197 98 197H254C258.418 197 262 193.418 262 189V152.333M90 152.333V45C90 40.5817 93.5817 37 98 37H254C258.418 37 262 40.5817 262 45V152.333M90 152.333H262" stroke="black"/>
</svg>
