<?xml version="1.0" encoding="utf-8"?>
<!-- Generator: Adobe Illustrator 27.0.0, SVG Export Plug-In . SVG Version: 6.00 Build 0)  -->
<svg version="1.1" id="Layer_1" xmlns="http://www.w3.org/2000/svg" xmlns:xlink="http://www.w3.org/1999/xlink" x="0px" y="0px"
	 viewBox="0 0 2000 2000" style="enable-background:new 0 0 2000 2000;" xml:space="preserve">
<style type="text/css">
	.st0{fill:#FFFFFF;}
</style>
<path class="st0" d="M1577.3,1625H454.6c-213.7,0-387.5-173.8-387.5-387.5c0-94,34.2-184.6,96.4-254.9
	c46.9-53.1,107.3-92,174.2-113.2c-1.6-14.8-2.4-29.2-2.4-43.3c0-248.8,202.4-451.1,451.1-451.1c161.3,0,307.6,85,388,221.2
	c36.4-12.6,73.9-18.9,111.9-18.9c191.6,0,348.3,152.3,355.4,342.2c165.4,30.4,291.2,175.7,291.2,349.8
	C1933,1465.4,1773.5,1625,1577.3,1625z M786.4,500c-179.8,0-326.1,146.3-326.1,326.1c0,23.2,3.3,48.1,10.1,76.3l16.1,67l-68.2,9.5
	c-62.3,8.7-119.5,39.4-161.1,86.5c-41.9,47.5-65.1,108.6-65.1,172.1c0,144.7,117.8,262.5,262.5,262.5h1122.7
	c127.2,0,230.7-103.5,230.7-230.7c0-126.2-101.9-229-227.7-230.7c-1.5,0.1-3.3,0.2-5.1,0.2h-72.5l11.1-74.1
	c1.8-12,3.4-22.4,3.4-31.8c0-127.2-103.5-230.7-230.7-230.7c-37.7,0-75,10-110.8,29.8l-61.2,33.8l-26.8-64.6
	C1036.9,579.1,918.6,500,786.4,500z"/>
</svg>
