<svg width="22" height="22" viewBox="0 0 22 22" fill="none" xmlns="http://www.w3.org/2000/svg">
<path d="M15.5835 19.4791H6.41683C3.071 19.4791 1.146 17.5541 1.146 14.2083V7.79158C1.146 4.44575 3.071 2.52075 6.41683 2.52075H15.5835C18.9293 2.52075 20.8543 4.44575 20.8543 7.79158V14.2083C20.8543 17.5541 18.9293 19.4791 15.5835 19.4791ZM6.41683 3.89575C3.79516 3.89575 2.521 5.16992 2.521 7.79158V14.2083C2.521 16.8299 3.79516 18.1041 6.41683 18.1041H15.5835C18.2052 18.1041 19.4793 16.8299 19.4793 14.2083V7.79158C19.4793 5.16992 18.2052 3.89575 15.5835 3.89575H6.41683Z" fill="currentColor"/>
<path d="M10.9999 11.7975C10.2299 11.7975 9.45071 11.5591 8.85488 11.0733L5.98571 8.78164C5.69238 8.54331 5.63738 8.11247 5.87571 7.81914C6.11405 7.5258 6.54488 7.47081 6.83822 7.70914L9.70737 10.0008C10.404 10.56 11.5865 10.56 12.2832 10.0008L15.1524 7.70914C15.4457 7.47081 15.8857 7.51664 16.1149 7.81914C16.3532 8.11247 16.3074 8.55247 16.0049 8.78164L13.1357 11.0733C12.549 11.5591 11.7699 11.7975 10.9999 11.7975Z" fill="currentColor"/>
</svg>
