<svg width="22" height="22" viewBox="0 0 22 22" fill="none" xmlns="http://www.w3.org/2000/svg">
<path d="M11 7.10413V11.9166" stroke="currentColor" stroke-width="1.5" stroke-linecap="round" stroke-linejoin="round"/>
<path d="M11 7.10413V11.9166" stroke="currentColor" stroke-width="1.5" stroke-linecap="round" stroke-linejoin="round"/>
<path d="M19.3234 7.86507V14.135C19.3234 15.1617 18.7733 16.1151 17.8842 16.6376L12.4392 19.7817C11.55 20.2951 10.45 20.2951 9.55166 19.7817L4.10665 16.6376C3.21749 16.1242 2.66748 15.1709 2.66748 14.135V7.86507C2.66748 6.83841 3.21749 5.88503 4.10665 5.36253L9.55166 2.21837C10.4408 1.70504 11.5408 1.70504 12.4392 2.21837L17.8842 5.36253C18.7733 5.88503 19.3234 6.82924 19.3234 7.86507Z" stroke="currentColor" stroke-width="1.5" stroke-linecap="round" stroke-linejoin="round"/>
<path d="M19.3234 7.86507V14.135C19.3234 15.1617 18.7733 16.1151 17.8842 16.6376L12.4392 19.7817C11.55 20.2951 10.45 20.2951 9.55166 19.7817L4.10665 16.6376C3.21749 16.1242 2.66748 15.1709 2.66748 14.135V7.86507C2.66748 6.83841 3.21749 5.88503 4.10665 5.36253L9.55166 2.21837C10.4408 1.70504 11.5408 1.70504 12.4392 2.21837L17.8842 5.36253C18.7733 5.88503 19.3234 6.82924 19.3234 7.86507Z" stroke="currentColor" stroke-width="1.5" stroke-linecap="round" stroke-linejoin="round"/>
<path d="M11 14.85V14.9416" stroke="currentColor" stroke-width="2" stroke-linecap="round" stroke-linejoin="round"/>
<path d="M11 14.85V14.9416" stroke="currentColor" stroke-width="2" stroke-linecap="round" stroke-linejoin="round"/>
</svg>
