<svg width="64" height="64" viewBox="0 0 64 64" fill="none" xmlns="http://www.w3.org/2000/svg">
<g clip-path="url(#clip0_14_18817)">
<path d="M16 32C24.8366 32 32 24.8366 32 16C32 7.16344 24.8366 0 16 0C7.16344 0 0 7.16344 0 16C0 24.8366 7.16344 32 16 32Z" fill="currentColor"/>
<path d="M48 32C56.8366 32 64 24.8366 64 16C64 7.16344 56.8366 0 48 0C39.1634 0 32 7.16344 32 16C32 24.8366 39.1634 32 48 32Z" fill="currentColor"/>
<path d="M48 64C56.8366 64 64 56.8366 64 48C64 39.1634 56.8366 32 48 32C39.1634 32 32 39.1634 32 48C32 56.8366 39.1634 64 48 64Z" fill="currentColor"/>
<path d="M16 64C24.8366 64 32 56.8366 32 48C32 39.1634 24.8366 32 16 32C7.16344 32 0 39.1634 0 48C0 56.8366 7.16344 64 16 64Z" fill="currentColor"/>
</g>
<defs>
<clipPath id="clip0_14_18817">
<rect width="64" height="64" fill="currentColor"/>
</clipPath>
</defs>
</svg>
