<svg width="24" height="24" viewBox="0 0 24 24" fill="none" xmlns="http://www.w3.org/2000/svg">
<path d="M12 22C17.5 22 22 17.5 22 12C22 6.5 17.5 2 12 2C6.5 2 2 6.5 2 12C2 17.5 6.5 22 12 22Z" stroke="currentColor" stroke-width="1.5" stroke-linecap="round" stroke-linejoin="round"/>
<path d="M12 13.5V13.25C12 12.4631 12.3705 11.7221 13 11.25L13.2 11.1C13.7036 10.7223 14 10.1295 14 9.5V9.5C14 8.87049 13.7036 8.27771 13.2 7.9V7.9C12.4889 7.36667 11.5111 7.36667 10.8 7.9V7.9C10.2964 8.27771 10 8.87049 10 9.5V9.6" stroke="currentColor" stroke-width="1.5" stroke-linecap="round" stroke-linejoin="round"/>
<path d="M11.9946 16H12.0036" stroke="currentColor" stroke-width="2" stroke-linecap="round" stroke-linejoin="round"/>
</svg>
