<svg width="24" height="24" viewBox="0 0 24 24" fill="none" xmlns="http://www.w3.org/2000/svg">
<path fill-rule="evenodd" clip-rule="evenodd" d="M7.81 2H16.19C19.83 2 22 4.17 21.99 7.81V16.19C21.99 19.83 19.82 22 16.18 22H7.81C4.17 22 2 19.83 2 16.18V7.81C2 4.17 4.17 2 7.81 2ZM11.47 5.98L8.47 8.98C8.18 9.28 8.17 9.75 8.46 10.04C8.75 10.33 9.23 10.33 9.52 10.04L11.24 8.32V14.51C11.24 14.92 11.58 15.26 11.99 15.26C12.4 15.26 12.74 14.92 12.74 14.51V8.32L14.46 10.04C14.61 10.19 14.8 10.26 14.99 10.26C15.18 10.26 15.37 10.19 15.52 10.04C15.81 9.75 15.81 9.27 15.52 8.98L12.52 5.98C12.45 5.91 12.37 5.86 12.28 5.82C12.1 5.74 11.89 5.74 11.71 5.82C11.62 5.86 11.54 5.91 11.47 5.98ZM8.34309 16.333C7.97471 16.1436 7.52255 16.2887 7.33315 16.6571C7.14375 17.0255 7.28885 17.4776 7.65722 17.667C10.4658 19.111 13.5345 19.111 16.3431 17.667C16.7115 17.4776 16.8566 17.0255 16.6672 16.6571C16.4778 16.2887 16.0256 16.1436 15.6572 16.333C13.2791 17.5557 10.7212 17.5557 8.34309 16.333Z" fill="currentColor"/>
</svg>
