<svg width="25" height="24" viewBox="0 0 25 24" fill="none" xmlns="http://www.w3.org/2000/svg">
<path d="M9.48993 21.5001C7.82993 21.5001 6.15993 20.8701 4.88993 19.6001C2.35993 17.0601 2.35993 12.9401 4.88993 10.4101C5.17993 10.1201 5.65993 10.1201 5.94993 10.4101C6.23993 10.7001 6.23993 11.1801 5.94993 11.4701C3.99993 13.4201 3.99993 16.5901 5.94993 18.5401C7.89993 20.4901 11.0699 20.4901 13.0199 18.5401C13.9599 17.6001 14.4799 16.3401 14.4799 15.0001C14.4799 13.6701 13.9599 12.4101 13.0199 11.4601C12.7299 11.1701 12.7299 10.6901 13.0199 10.4001C13.3099 10.1101 13.7899 10.1101 14.0799 10.4001C15.3099 11.6301 15.9799 13.2601 15.9799 15.0001C15.9799 16.7401 15.2999 18.3701 14.0799 19.6001C12.8199 20.8701 11.1599 21.5001 9.48993 21.5001Z" fill="currentColor"/>
<path d="M19.5701 14.16C19.3801 14.16 19.1901 14.09 19.0401 13.94C18.7501 13.65 18.7501 13.17 19.0401 12.88C21.0901 10.83 21.0901 7.49999 19.0401 5.45999C16.9901 3.40999 13.6601 3.40999 11.6201 5.45999C10.6301 6.44999 10.0801 7.76999 10.0801 9.16999C10.0801 10.57 10.6301 11.89 11.6201 12.88C11.9101 13.17 11.9101 13.65 11.6201 13.94C11.3301 14.23 10.8501 14.23 10.5601 13.94C9.29008 12.67 8.58008 10.97 8.58008 9.16999C8.58008 7.36999 9.28008 5.66999 10.5601 4.39999C13.1901 1.76999 17.4701 1.76999 20.1101 4.39999C22.7401 7.02999 22.7401 11.32 20.1101 13.95C19.9601 14.09 19.7601 14.16 19.5701 14.16Z" fill="currentColor"/>
</svg>
