<svg width="22" height="22" viewBox="0 0 22 22" fill="none" xmlns="http://www.w3.org/2000/svg">
<path d="M3.20832 18.792C3.96915 19.5528 5.19749 19.5528 5.95832 18.792L17.875 6.87531C18.6358 6.11448 18.6358 4.88615 17.875 4.12531C17.1142 3.36448 15.8858 3.36448 15.125 4.12531L3.20832 16.042C2.44749 16.8028 2.44749 18.0311 3.20832 18.792Z" stroke="currentColor" stroke-width="1.5" stroke-linecap="round" stroke-linejoin="round"/>
<path d="M16.5092 8.24121L13.7592 5.49121" stroke="currentColor" stroke-width="1.5" stroke-linecap="round" stroke-linejoin="round"/>
<path d="M7.79163 2.23634L9.16663 1.83301L8.76329 3.20801L9.16663 4.58301L7.79163 4.17967L6.41663 4.58301L6.81996 3.20801L6.41663 1.83301L7.79163 2.23634Z" stroke="currentColor" stroke-linecap="round" stroke-linejoin="round"/>
<path d="M4.125 7.73634L5.5 7.33301L5.09667 8.70801L5.5 10.083L4.125 9.67967L2.75 10.083L3.15333 8.70801L2.75 7.33301L4.125 7.73634Z" stroke="currentColor" stroke-linecap="round" stroke-linejoin="round"/>
<path d="M17.875 12.3203L19.25 11.917L18.8467 13.292L19.25 14.667L17.875 14.2637L16.5 14.667L16.9033 13.292L16.5 11.917L17.875 12.3203Z" stroke="currentColor" stroke-linecap="round" stroke-linejoin="round"/>
</svg>
