<svg width="32" height="32" viewBox="0 0 32 32" fill="none" xmlns="http://www.w3.org/2000/svg">
<path opacity="0.4" d="M27.1999 21.7734C26.8266 22.7734 26.0399 23.5334 25.0133 23.8801C23.5733 24.3601 22.0933 24.7201 20.5999 24.9734C20.4533 25.0001 20.3066 25.0267 20.1599 25.0401C19.9199 25.0801 19.6799 25.1067 19.4399 25.1334C19.1466 25.1734 18.8399 25.2001 18.5333 25.2267C17.6933 25.2934 16.8666 25.3334 16.0266 25.3334C15.1733 25.3334 14.3199 25.2934 13.4799 25.2134C13.1199 25.1867 12.7733 25.1467 12.4266 25.0934C12.2266 25.0667 12.0266 25.0401 11.8399 25.0134C11.6933 24.9867 11.5466 24.9734 11.3999 24.9467C9.91995 24.7067 8.45328 24.3467 7.02661 23.8667C5.95994 23.5067 5.14661 22.7467 4.78661 21.7734C4.42661 20.8134 4.55994 19.6934 5.13328 18.7334L6.63995 16.2267C6.95994 15.6801 7.25328 14.6267 7.25328 13.9867V11.5067C7.25328 6.66673 11.1866 2.7334 16.0266 2.7334C20.8533 2.7334 24.7866 6.66673 24.7866 11.5067V13.9867C24.7866 14.6267 25.0799 15.6801 25.4133 16.2267L26.9199 18.7334C27.4666 19.6667 27.5733 20.7601 27.1999 21.7734Z" fill="currentColor" fill-opacity="0.5"/>
<path d="M16 14.3465C15.44 14.3465 14.9867 13.8932 14.9867 13.3332V9.19986C14.9867 8.63986 15.44 8.18652 16 8.18652C16.56 8.18652 17.0134 8.63986 17.0134 9.19986V13.3332C17 13.8932 16.5467 14.3465 16 14.3465Z" fill="currentColor" fill-opacity="0.5"/>
<path d="M19.7733 26.6803C19.2133 28.227 17.7333 29.3337 16 29.3337C14.9467 29.3337 13.9067 28.907 13.1733 28.147C12.7467 27.747 12.4267 27.2137 12.24 26.667C12.4133 26.6937 12.5867 26.707 12.7733 26.7337C13.08 26.7737 13.4 26.8137 13.72 26.8403C14.48 26.907 15.2533 26.947 16.0267 26.947C16.7867 26.947 17.5467 26.907 18.2933 26.8403C18.5733 26.8137 18.8533 26.8003 19.12 26.7603C19.3333 26.7337 19.5467 26.707 19.7733 26.6803Z" fill="currentColor" fill-opacity="0.5"/>
</svg>
