<svg width="18" height="18" viewBox="0 0 18 18" fill="none" xmlns="http://www.w3.org/2000/svg">
<path d="M11.1224 9.51001C10.8149 9.51001 10.5599 9.25501 10.5599 8.94751V6.33002H7.94238C7.63488 6.33002 7.37988 6.07502 7.37988 5.76752C7.37988 5.46002 7.63488 5.20502 7.94238 5.20502H11.1224C11.4299 5.20502 11.6849 5.46002 11.6849 5.76752V8.94751C11.6849 9.25501 11.4299 9.51001 11.1224 9.51001Z" fill="currentColor" />
<path d="M6.8774 10.5675C6.7349 10.5675 6.5924 10.515 6.4799 10.4025C6.2624 10.185 6.2624 9.825 6.4799 9.6075L10.7249 5.3625C10.9424 5.145 11.3024 5.145 11.5199 5.3625C11.7374 5.58 11.7374 5.94001 11.5199 6.15751L7.2749 10.4025C7.1699 10.515 7.0199 10.5675 6.8774 10.5675Z" fill="currentColor" />
<path d="M8.99996 13.6725C7.41746 13.6725 5.82746 13.4175 4.31996 12.915C4.02746 12.8175 3.86996 12.495 3.96746 12.2025C4.06496 11.91 4.38747 11.745 4.67997 11.85C7.46997 12.78 10.5375 12.78 13.3275 11.85C13.62 11.7525 13.9425 11.91 14.04 12.2025C14.1375 12.495 13.98 12.8175 13.6875 12.915C12.1725 13.425 10.5825 13.6725 8.99996 13.6725Z" fill="currentColor"/>
</svg>
