<svg width="24" height="24" viewBox="0 0 24 24" fill="none" xmlns="http://www.w3.org/2000/svg">
<path fill-rule="evenodd" clip-rule="evenodd" d="M7.50645 16.2285C7.79935 16.5214 7.79935 16.9962 7.50645 17.2891L2.91021 21.8854C2.61732 22.1783 2.14245 22.1783 1.84955 21.8854C1.55666 21.5925 1.55666 21.1176 1.84955 20.8247L6.44579 16.2285C6.73869 15.9356 7.21356 15.9356 7.50645 16.2285Z" fill="currentColor" stroke="white"/>
<path d="M17.3373 14.8448C17.2599 15.6504 16.9121 17.4736 15.3743 19.3453C15.0236 19.772 14.3853 19.7693 13.9948 19.3787L9.17516 14.5591L4.35554 9.73951C3.96502 9.34898 3.96192 8.70974 4.39441 8.36628C6.28615 6.86398 8.22749 6.63865 9.10209 6.62224C9.40583 6.61655 9.70544 6.51115 9.92026 6.29635L12.3882 3.82847C13.9502 2.26636 16.4829 2.26634 18.045 3.82844L20.1663 5.94973C21.7284 7.51182 21.729 10.0439 20.1669 11.606L17.6652 14.1077C17.4698 14.3031 17.3638 14.5698 17.3373 14.8448Z" fill="currentColor" stroke="white"/>
</svg>
