<svg width="24" height="24" viewBox="0 0 24 24" fill="none" xmlns="http://www.w3.org/2000/svg">
<path fill-rule="evenodd" clip-rule="evenodd" d="M7.50645 16.2285C7.79935 16.5214 7.79935 16.9962 7.50645 17.2891L2.91021 21.8854C2.61732 22.1783 2.14245 22.1783 1.84955 21.8854C1.55666 21.5925 1.55666 21.1176 1.84955 20.8247L6.44579 16.2285C6.73869 15.9356 7.21356 15.9356 7.50645 16.2285Z" fill="currentColor"/>
<path fill-rule="evenodd" clip-rule="evenodd" d="M11.8579 3.29825C13.7129 1.44325 16.7204 1.44321 18.5754 3.29822L20.6967 5.4195C22.5515 7.27434 22.5524 10.2813 20.6973 12.1364L18.1955 14.6382C18.1467 14.687 18.0972 14.7789 18.0839 14.9167C17.9967 15.8246 17.6119 17.8035 15.9538 19.8215C15.2906 20.6287 14.1325 20.5771 13.4645 19.9092L3.82526 10.2699C3.16043 9.6051 3.09918 8.43729 3.92805 7.77905C5.99177 6.14017 8.11414 5.89075 9.08808 5.87248C9.2358 5.86971 9.33709 5.81902 9.38999 5.76611L11.8579 3.29825ZM17.5147 4.35888C16.2455 3.08967 14.1877 3.08969 12.9185 4.35891L10.4506 6.8268C10.0739 7.20351 9.57596 7.36359 9.11621 7.37222C8.34094 7.38676 6.58062 7.58801 4.86088 8.95371C4.83241 8.97632 4.81705 9.00503 4.81628 9.04868C4.81541 9.09748 4.83511 9.15847 4.88592 9.20928L14.5252 18.8485C14.5757 18.8991 14.637 18.9195 14.6881 18.9187C14.735 18.918 14.7687 18.9011 14.7948 18.8693C16.2124 17.144 16.5232 15.4764 16.5908 14.7732C16.6305 14.361 16.793 13.9194 17.1349 13.5775L19.6366 11.0757C20.9057 9.80669 20.9054 7.74952 19.636 6.48016L17.5147 4.35888Z" fill="currentColor"/>
</svg>
