<svg width="22" height="22" viewBox="0 0 22 22" fill="none" xmlns="http://www.w3.org/2000/svg">
<path fill-rule="evenodd" clip-rule="evenodd" d="M2.73509 6.73072C2.07621 7.58726 1.75 8.36395 1.75 9V16C1.75 17.607 2.20538 18.6315 2.88534 19.2629C3.57535 19.9036 4.61497 20.25 6 20.25H16C17.385 20.25 18.4246 19.9036 19.1147 19.2629C19.7946 18.6315 20.25 17.607 20.25 16V9C20.25 8.36395 19.9238 7.58726 19.2649 6.73072C18.6165 5.88781 17.7046 5.04459 16.6807 4.29174C15.6591 3.54059 14.5499 2.89686 13.5249 2.44378C12.4819 1.98276 11.5953 1.75 11 1.75C10.4047 1.75 9.51808 1.98276 8.47509 2.44378C7.4501 2.89686 6.34086 3.54059 5.31929 4.29174C4.29542 5.04459 3.38349 5.88781 2.73509 6.73072ZM7.86866 1.07184C8.98192 0.579745 10.0953 0.25 11 0.25C11.9047 0.25 13.0181 0.579745 14.1313 1.07184C15.2626 1.57189 16.4659 2.27191 17.5693 3.08326C18.6704 3.89291 19.696 4.83094 20.4538 5.81615C21.2012 6.78774 21.75 7.88605 21.75 9V16C21.75 17.893 21.2054 19.3685 20.1353 20.3621C19.0754 21.3464 17.615 21.75 16 21.75H6C4.38503 21.75 2.92465 21.3464 1.86466 20.3621C0.794615 19.3685 0.25 17.893 0.25 16V9C0.25 7.88605 0.798787 6.78774 1.54616 5.81615C2.30401 4.83094 3.32958 3.89291 4.43071 3.08326C5.53414 2.27191 6.7374 1.57189 7.86866 1.07184Z" fill="currentColor" />
<path fill-rule="evenodd" clip-rule="evenodd" d="M16.586 8.53196C16.8445 8.85561 16.7917 9.32754 16.4681 9.58605L13.3372 12.0868C12.0338 13.1244 9.95628 13.1244 8.65289 12.0868L8.65104 12.0853L5.53105 9.58531C5.2078 9.3263 5.15573 8.85429 5.41474 8.53105C5.67375 8.2078 6.14576 8.15573 6.46901 8.41474L9.58802 10.914C10.3446 11.5155 11.6462 11.5154 12.4025 10.9135C12.4027 10.9135 12.4024 10.9136 12.4025 10.9135L15.532 8.41401C15.8556 8.15551 16.3275 8.20832 16.586 8.53196Z" fill="currentColor" />
<path fill-rule="evenodd" clip-rule="evenodd" d="M5.41396 15.583C5.15545 15.2594 5.20826 14.7874 5.53191 14.5289L8.66285 12.0282C9.96624 10.9905 12.0437 10.9905 13.3471 12.0282L13.349 12.0297L16.469 14.5297C16.7922 14.7887 16.8443 15.2607 16.5853 15.5839C16.3262 15.9072 15.8542 15.9593 15.531 15.7002L12.412 13.201C11.6554 12.5995 10.3538 12.5996 9.59746 13.2014C9.59735 13.2015 9.59758 13.2013 9.59746 13.2014L6.46804 15.701C6.14439 15.9595 5.67246 15.9067 5.41396 15.583Z" fill="currentColor" />
</svg>
