<svg width="24" height="24" viewBox="0 0 24 24" fill="none" xmlns="http://www.w3.org/2000/svg">
<path d="M20.6201 13.0699C20.2401 13.0699 19.9201 12.7799 19.8701 12.3999C19.6301 10.1399 18.4101 8.08986 16.5301 6.78986C16.1901 6.54986 16.1101 6.08986 16.3401 5.74986C16.5801 5.40986 17.0501 5.32986 17.3801 5.55986C19.6201 7.10986 21.0601 9.54986 21.3501 12.2399C21.3901 12.6499 21.1001 13.0199 20.6801 13.0699C20.6701 13.0699 20.6401 13.0699 20.6201 13.0699Z" fill="currentColor"/>
<path d="M3.48991 13.1198C3.45991 13.1198 3.43991 13.1198 3.40991 13.1198C2.99991 13.0698 2.69991 12.6998 2.73991 12.2898C3.00991 9.59977 4.43991 7.16977 6.64991 5.59977C6.98991 5.35977 7.45991 5.43977 7.69991 5.77977C7.93991 6.11977 7.85991 6.58977 7.51991 6.82977C5.65991 8.13977 4.45991 10.1898 4.22991 12.4498C4.19991 12.8298 3.86991 13.1198 3.48991 13.1198Z" fill="currentColor"/>
<path d="M12.06 22.61C10.58 22.61 9.16997 22.27 7.84997 21.61C7.47997 21.42 7.32997 20.97 7.51997 20.6C7.70997 20.23 8.15997 20.08 8.52997 20.27C10.69 21.36 13.29 21.38 15.47 20.33C15.84 20.15 16.29 20.31 16.47 20.68C16.65 21.05 16.49 21.5 16.12 21.68C14.84 22.3 13.48 22.61 12.06 22.61Z" fill="currentColor"/>
<path d="M12.0598 8.43988C10.1098 8.43988 8.52979 6.85988 8.52979 4.90988C8.52979 2.95988 10.1098 1.37988 12.0598 1.37988C14.0098 1.37988 15.5898 2.95988 15.5898 4.90988C15.5898 6.85988 13.9998 8.43988 12.0598 8.43988ZM12.0598 2.88988C10.9398 2.88988 10.0298 3.79988 10.0298 4.91988C10.0298 6.03988 10.9398 6.94988 12.0598 6.94988C13.1798 6.94988 14.0898 6.03988 14.0898 4.91988C14.0898 3.79988 13.1698 2.88988 12.0598 2.88988Z" fill="currentColor"/>
<path d="M4.8298 20.6699C2.8798 20.6699 1.2998 19.0899 1.2998 17.1399C1.2998 15.1999 2.8798 13.6099 4.8298 13.6099C6.7798 13.6099 8.3598 15.1899 8.3598 17.1399C8.3598 19.0799 6.7798 20.6699 4.8298 20.6699ZM4.8298 15.1099C3.7098 15.1099 2.7998 16.0199 2.7998 17.1399C2.7998 18.2599 3.7098 19.1699 4.8298 19.1699C5.9498 19.1699 6.85981 18.2599 6.85981 17.1399C6.85981 16.0199 5.9498 15.1099 4.8298 15.1099Z" fill="currentColor"/>
<path d="M19.1701 20.6699C17.2201 20.6699 15.6401 19.0899 15.6401 17.1399C15.6401 15.1999 17.2201 13.6099 19.1701 13.6099C21.1201 13.6099 22.7001 15.1899 22.7001 17.1399C22.6901 19.0799 21.1101 20.6699 19.1701 20.6699ZM19.1701 15.1099C18.0501 15.1099 17.1401 16.0199 17.1401 17.1399C17.1401 18.2599 18.0501 19.1699 19.1701 19.1699C20.2901 19.1699 21.2001 18.2599 21.2001 17.1399C21.1901 16.0199 20.2901 15.1099 19.1701 15.1099Z" fill="currentColor"/>
</svg>
