<svg width="102" height="64" viewBox="0 0 102 64" fill="none" xmlns="http://www.w3.org/2000/svg">
<g clip-path="url(#clip0_14_18822)">
<path d="M32.0328 5.09189C35.6712 5.09189 39.1985 5.80272 42.5157 7.20401C45.7229 8.55947 48.6038 10.4995 51.079 12.9731C53.5542 15.4457 55.4973 18.3237 56.8541 21.5275C58.2569 24.8413 58.9684 28.3649 58.9684 31.9995C58.9684 35.6341 58.2569 39.1577 56.8541 42.4715C55.4973 45.6753 53.5552 48.5532 51.079 51.0259C48.6038 53.4985 45.7229 55.4395 42.5157 56.795C39.1985 58.1963 35.6712 58.9071 32.0328 58.9071C28.3944 58.9071 24.8672 58.1963 21.5499 56.795C18.3428 55.4395 15.4618 53.4995 12.9866 51.0259C10.5114 48.5532 8.56839 45.6753 7.21151 42.4715C5.80877 39.1577 5.0972 35.6341 5.0972 31.9995C5.0972 28.3649 5.80877 24.8413 7.21151 21.5275C8.56839 18.3237 10.5104 15.4457 12.9866 12.9731C15.4618 10.5005 18.3428 8.55947 21.5499 7.20401C24.8672 5.80272 28.3944 5.09189 32.0328 5.09189ZM32.0328 0C14.3415 0 0 14.3265 0 31.9995C0 49.6724 14.3415 63.999 32.0328 63.999C49.7242 63.999 64.0656 49.6724 64.0656 31.9995C64.0656 14.3265 49.7242 0 32.0328 0Z" fill="currentColor"/>
<path d="M69.9672 5.09189C73.6055 5.09189 77.1328 5.80272 80.45 7.20401C83.6572 8.55947 86.5381 10.4995 89.0133 12.9731C91.4885 15.4457 93.4316 18.3237 94.7885 21.5275C96.1912 24.8413 96.9028 28.3649 96.9028 31.9995C96.9028 35.6341 96.1912 39.1577 94.7885 42.4715C93.4316 45.6753 91.4896 48.5532 89.0133 51.0259C86.5381 53.4985 83.6572 55.4395 80.45 56.795C77.1328 58.1963 73.6055 58.9071 69.9672 58.9071C66.3288 58.9071 62.8015 58.1963 59.4843 56.795C56.2771 55.4395 53.3962 53.4995 50.921 51.0259C48.4458 48.5532 46.5027 45.6753 45.1458 42.4715C43.7431 39.1577 43.0315 35.6341 43.0315 31.9995C43.0315 28.3649 43.7431 24.8413 45.1458 21.5275C46.5027 18.3237 48.4447 15.4457 50.921 12.9731C53.3962 10.5005 56.2771 8.55947 59.4843 7.20401C62.8015 5.80272 66.3288 5.09189 69.9672 5.09189ZM69.9672 0C52.2758 0 37.9343 14.3265 37.9343 31.9995C37.9343 49.6724 52.2758 63.999 69.9672 63.999C87.6585 63.999 102 49.6724 102 31.9995C102 14.3265 87.6585 0 69.9672 0Z" fill="currentColor"/>
</g>
<defs>
<clipPath id="clip0_14_18822">
<rect width="102" height="64" fill="currentColor"/>
</clipPath>
</defs>
</svg>
