<svg width="64" height="64" viewBox="0 0 64 64" fill="none" xmlns="http://www.w3.org/2000/svg">
<g clip-path="url(#clip0_14_18825)">
<path d="M62.9604 32.7799C64.2814 32.4713 64.3667 30.6255 63.0796 30.1966L59.3421 28.9513C58.9524 28.8214 58.6434 28.5211 58.5037 28.1363L57.6537 25.804L61.7906 24.4793C61.8733 24.4531 61.9528 24.4185 62.0284 24.3769C63.2168 23.7232 62.8001 21.9229 61.4451 21.857L57.5095 21.6655C57.0993 21.6457 56.7211 21.4395 56.482 21.1066L55.0341 19.0899L58.6588 16.6999C58.7312 16.6525 58.7985 16.5981 58.8601 16.5373C59.8279 15.5878 58.9408 13.9661 57.6179 14.2683L53.7765 15.1441C53.3765 15.2357 52.956 15.139 52.6356 14.8829L50.6966 13.331L53.5413 10.053C53.5977 9.98772 53.6483 9.91729 53.6912 9.84238C54.3668 8.66692 53.0746 7.34485 51.8824 7.99212L48.4199 9.87055C48.059 10.0665 47.6289 10.087 47.2507 9.92625L44.965 8.95439L46.8194 5.03041C46.8559 4.9523 46.8854 4.87099 46.9065 4.78712C47.2398 3.47337 45.638 2.54888 44.665 3.49258L41.839 6.23469C41.5441 6.52023 41.1352 6.65596 40.7282 6.60346L38.2643 6.28398L38.9899 2.00596C39.004 1.92081 39.0104 1.83438 39.0084 1.74795C38.9745 0.393223 37.1823 -0.0658222 36.501 1.10516L34.5197 4.50734C34.3133 4.86203 33.9563 5.10276 33.5499 5.16166L31.0918 5.51827L30.6348 1.20375C30.6258 1.11796 30.6078 1.03281 30.5828 0.950224C30.1842 -0.345603 28.3349 -0.303988 27.9946 1.0072L27.0056 4.81658C26.903 5.21352 26.6242 5.54196 26.2486 5.70778L23.977 6.71358L22.3713 2.68205C22.3393 2.60202 22.2995 2.52455 22.2527 2.4522C21.5188 1.31195 19.7491 1.85039 19.776 3.20448L19.8529 7.13933C19.8613 7.54908 19.6812 7.94026 19.3645 8.20147L17.4493 9.78156L14.8136 6.332C14.761 6.2635 14.7021 6.20011 14.6373 6.14249C13.6233 5.24233 12.0645 6.23725 12.4561 7.53435L13.5932 11.3028C13.7118 11.6952 13.6445 12.1203 13.4099 12.4571L11.992 14.4956L8.52371 11.8847C8.45449 11.8329 8.38077 11.7874 8.30322 11.7496C7.08344 11.1561 5.85149 12.5346 6.57836 13.678L8.69101 17.0002C8.91086 17.3465 8.96086 17.7736 8.82625 18.1609L8.01157 20.5054L3.96574 18.9253C3.88498 18.894 3.80165 18.8703 3.71641 18.8549C2.3819 18.6123 1.56722 20.2717 2.57675 21.177L5.50857 23.8065C5.81431 24.0805 5.97776 24.4787 5.95276 24.8878L5.80149 27.3649L1.47941 26.934C1.39351 26.9257 1.30634 26.925 1.22045 26.9333C-0.130081 27.0595 -0.466593 28.8764 0.749976 29.4763L4.28303 31.2184C4.65095 31.3996 4.91631 31.7395 5.00284 32.1403L5.52652 34.5655L1.24865 35.3152C1.1634 35.33 1.08008 35.353 0.999315 35.3844C-0.26725 35.8697 -0.0999555 37.7103 1.23327 37.96L5.10604 38.6854C5.50921 38.761 5.85662 39.0164 6.04827 39.3794L7.20843 41.5754L3.2908 43.4506C3.2126 43.4878 3.13889 43.5326 3.06902 43.5845C1.98065 44.3937 2.63893 46.1204 3.9901 46.0013L7.91479 45.6562C8.32373 45.6204 8.7269 45.7728 9.00893 46.0705L10.7184 47.8714L7.45264 50.7326C7.38791 50.7896 7.3283 50.8523 7.27509 50.9209C6.44567 51.9932 7.54559 53.4786 8.81472 53.0003L12.501 51.6104C12.8849 51.4657 13.3144 51.5035 13.6669 51.7141L15.7981 52.9869L13.4278 56.6208C13.3804 56.6932 13.3406 56.77 13.3079 56.85C12.7984 58.1062 14.2591 59.24 15.352 58.4372L18.5261 56.1048C18.8569 55.8615 19.2805 55.7828 19.6767 55.8903L22.0739 56.5421L20.7721 60.6818C20.7465 60.7644 20.7285 60.8489 20.7189 60.9347C20.5676 62.2817 22.2803 62.9796 23.1155 61.9123L25.5416 58.8117C25.7948 58.4884 26.1813 58.2982 26.5915 58.2957L29.0759 58.2771L28.9407 62.6147C28.9375 62.7011 28.9439 62.7875 28.9573 62.8727C29.1753 64.2101 31.0136 64.4214 31.5296 63.1678L33.0282 59.5281C33.1839 59.1491 33.505 58.8616 33.8999 58.7483L36.2869 58.0613L37.3278 62.2734C37.3483 62.3573 37.3772 62.4386 37.4137 62.5173C37.9848 63.7466 39.8116 63.454 39.9699 62.1089L40.4295 58.2003C40.4776 57.7931 40.709 57.4301 41.0583 57.2143L43.1716 55.9089L45.3118 59.685C45.3547 59.7599 45.4041 59.8309 45.4605 59.8969C46.3425 60.9264 48.0225 60.153 47.8116 58.8143L47.1988 54.9268C47.1347 54.5215 47.2597 54.1098 47.5379 53.8083L49.2198 51.9824L52.3003 55.0407C52.3619 55.1016 52.4285 55.1566 52.5003 55.2046C53.6278 55.9582 55.0367 54.7603 54.472 53.5285L52.8317 49.9503C52.6606 49.5777 52.6695 49.1468 52.8561 48.7818L53.9829 46.5698L57.7762 48.6852C57.8512 48.7274 57.9307 48.762 58.0133 48.7889C59.3023 49.2108 60.3356 47.6781 59.4587 46.6435L56.9128 43.6395C56.6474 43.3264 56.5397 42.9097 56.6199 42.5076L57.107 40.0741L61.3297 41.0888C61.4137 41.1093 61.4996 41.1208 61.5861 41.1247C62.9411 41.1836 63.5219 39.4294 62.3989 38.6694L59.1363 36.4632C58.7966 36.2333 58.58 35.8607 58.5485 35.4522L58.3607 32.9778L62.7033 32.8164C62.7899 32.8132 62.8758 32.8017 62.9597 32.7818L62.9604 32.7799ZM30.081 38.2635C29.7887 37.6194 29.0695 37.3377 28.4471 37.5413C28.3394 36.8428 27.7228 36.378 27.069 36.4062C27.153 35.7051 26.6844 35.0924 26.0473 34.9439C26.3191 34.2902 26.0332 33.5732 25.4589 33.2582C25.8967 32.7025 25.8166 31.9355 25.3493 31.4771C25.9204 31.0596 26.0499 30.2997 25.7236 29.7324C26.3864 29.4847 26.7165 28.7874 26.5556 28.1536C27.2613 28.0941 27.7677 27.5108 27.7837 26.8565C28.4785 26.9884 29.1227 26.5646 29.315 25.9397C29.9489 26.2547 30.6854 26.0197 31.0386 25.4691C31.5642 25.9429 32.3359 25.9147 32.825 25.4807C33.2025 26.0786 33.9531 26.2592 34.5421 25.9724C34.744 26.6504 35.4184 27.0268 36.0625 26.9096C36.0741 27.6171 36.6215 28.1613 37.274 28.2221C37.0945 28.9059 37.4746 29.5768 38.0861 29.8112C37.7284 30.4213 37.913 31.1704 38.4386 31.5603C37.929 32.0513 37.9047 32.8222 38.3047 33.3395C37.6803 33.675 37.4483 34.4112 37.6945 35.0182C37.0041 35.1737 36.5824 35.8191 36.6554 36.4696C35.9484 36.4324 35.3671 36.9414 35.262 37.5868C34.5909 37.3614 33.8948 37.6943 33.6191 38.2872C33.0339 37.889 32.2731 38.0215 31.8475 38.5183C31.3918 37.978 30.6239 37.9011 30.0803 38.2641L30.081 38.2635Z" fill="currentColor"/>
</g>
<defs>
<clipPath id="clip0_14_18825">
<rect width="64" height="64" fill="currentColor"/>
</clipPath>
</defs>
</svg>
