<svg width="32" height="32" viewBox="0 0 32 32" fill="none" xmlns="http://www.w3.org/2000/svg">
<path opacity="0.4" d="M24 25.1463H22.9867C21.92 25.1463 20.9067 25.5596 20.16 26.3063L17.88 28.5597C16.84 29.5863 15.1467 29.5863 14.1067 28.5597L11.8267 26.3063C11.08 25.5596 10.0533 25.1463 9 25.1463H8C5.78667 25.1463 4 23.373 4 21.1864V6.63965C4 4.45298 5.78667 2.67969 8 2.67969H24C26.2133 2.67969 28 4.45298 28 6.63965V21.1864C28 23.3597 26.2133 25.1463 24 25.1463Z" fill="currentColor" fill-opacity="0.5"/>
<path d="M16 13.8803C17.7158 13.8803 19.1067 12.4894 19.1067 10.7737C19.1067 9.05792 17.7158 7.66699 16 7.66699C14.2842 7.66699 12.8933 9.05792 12.8933 10.7737C12.8933 12.4894 14.2842 13.8803 16 13.8803Z" fill="currentColor" fill-opacity="0.5"/>
<path d="M19.5733 20.0801C20.6533 20.0801 21.28 18.8801 20.68 17.9867C19.7734 16.6401 18.0134 15.7334 16 15.7334C13.9867 15.7334 12.2267 16.6401 11.32 17.9867C10.72 18.8801 11.3467 20.0801 12.4267 20.0801H19.5733Z" fill="currentColor" fill-opacity="0.5"/>
</svg>
