<svg width="22" height="22" viewBox="0 0 22 22" fill="none" xmlns="http://www.w3.org/2000/svg">
<path d="M11.9165 8.25H6.4165" stroke="currentColor" stroke-width="1.5" stroke-linecap="round" stroke-linejoin="round"/>
<path d="M11.9165 8.25H6.4165" stroke="currentColor" stroke-width="1.5" stroke-linecap="round" stroke-linejoin="round"/>
<path d="M20.1665 10.0558V11.9442C20.1665 12.4484 19.7632 12.8608 19.2499 12.8792H17.4532C16.4632 12.8792 15.5557 12.155 15.4732 11.165C15.4182 10.5875 15.6382 10.0467 16.0232 9.67083C16.3624 9.32249 16.8299 9.12085 17.3432 9.12085H19.2499C19.7632 9.13918 20.1665 9.55164 20.1665 10.0558Z" stroke="currentColor" stroke-width="1.5" stroke-linecap="round" stroke-linejoin="round"/>
<path d="M20.1665 10.0558V11.9442C20.1665 12.4484 19.7632 12.8608 19.2499 12.8792H17.4532C16.4632 12.8792 15.5557 12.155 15.4732 11.165C15.4182 10.5875 15.6382 10.0467 16.0232 9.67083C16.3624 9.32249 16.8299 9.12085 17.3432 9.12085H19.2499C19.7632 9.13918 20.1665 9.55164 20.1665 10.0558Z" stroke="currentColor" stroke-width="1.5" stroke-linecap="round" stroke-linejoin="round"/>
<path d="M16.0235 9.67074C15.6385 10.0466 15.4185 10.5874 15.4735 11.1649C15.556 12.1549 16.4635 12.8791 17.4535 12.8791H19.2502V14.2083C19.2502 16.9583 17.4168 18.7916 14.6668 18.7916H6.41683C3.66683 18.7916 1.8335 16.9583 1.8335 14.2083V7.79159C1.8335 5.29825 3.33683 3.55658 5.67433 3.26325C5.91266 3.22658 6.16016 3.20825 6.41683 3.20825H14.6668C14.9052 3.20825 15.1343 3.21741 15.3543 3.25407C17.7193 3.52907 19.2502 5.27992 19.2502 7.79159V9.12076H17.3435C16.8301 9.12076 16.3626 9.32241 16.0235 9.67074Z" stroke="currentColor" stroke-width="1.5" stroke-linecap="round" stroke-linejoin="round"/>
<path d="M16.0235 9.67074C15.6385 10.0466 15.4185 10.5874 15.4735 11.1649C15.556 12.1549 16.4635 12.8791 17.4535 12.8791H19.2502V14.2083C19.2502 16.9583 17.4168 18.7916 14.6668 18.7916H6.41683C3.66683 18.7916 1.8335 16.9583 1.8335 14.2083V7.79159C1.8335 5.29825 3.33683 3.55658 5.67433 3.26325C5.91266 3.22658 6.16016 3.20825 6.41683 3.20825H14.6668C14.9052 3.20825 15.1343 3.21741 15.3543 3.25407C17.7193 3.52907 19.2502 5.27992 19.2502 7.79159V9.12076H17.3435C16.8301 9.12076 16.3626 9.32241 16.0235 9.67074Z" stroke="currentColor" stroke-width="1.5" stroke-linecap="round" stroke-linejoin="round"/>
</svg>
