<svg width="64" height="64" viewBox="0 0 64 64" fill="none" xmlns="http://www.w3.org/2000/svg">
<path fill-rule="evenodd" clip-rule="evenodd" d="M27.7997 32.3472C27.5847 32.0991 27.9651 31.6692 31.5206 28.1136C33.687 25.9307 35.5558 24.1446 35.6715 24.1446C35.7707 24.1446 35.903 24.2108 35.9692 24.2935C36.085 24.4919 35.0762 32.1157 34.9108 32.2811C34.8446 32.3637 33.2736 32.463 31.4049 32.5126C28.362 32.6118 27.9981 32.5953 27.7997 32.3472ZM34.3154 31.3715C34.3485 31.173 34.547 29.8666 34.7289 28.4609C34.9273 27.0718 35.0431 25.8976 35.0266 25.8645C34.9935 25.8314 33.6209 27.1544 32.0002 28.7751L29.0235 31.7519H31.6198C34.1831 31.7519 34.2328 31.7519 34.3154 31.3715Z" fill="currentColor"/>
<path fill-rule="evenodd" clip-rule="evenodd" d="M39.34 11.4654C39.9287 10.9165 40.4223 10.4564 40.7651 10.1374L42.9149 8.10327L44.7341 8.15288L46.5366 8.18596L53.7966 20.5725L52.9697 37.2423C52.5232 46.4041 52.1098 53.9451 52.0767 53.9947C52.0271 54.0278 49.5299 54.1105 46.5201 54.1767L41.0462 54.2924L40.2689 52.9364L39.4917 51.5968H28.0808L26.6751 52.9033C25.8979 53.6309 25.071 54.2428 24.8229 54.2924C24.5749 54.342 22.0943 54.3916 19.316 54.4082H14.2555L10.6007 48.1239C8.58314 44.6511 6.94593 41.757 6.97901 41.6743C7.01208 41.5916 8.40123 40.2521 10.0881 38.6811C11.7749 37.11 14.1893 34.8609 15.4627 33.6702C16.7527 32.4795 19.2829 30.1312 21.0855 28.4444C22.6033 27.0369 24.6854 25.0998 26.1595 23.7283C26.4521 23.456 26.7207 23.2061 26.9563 22.987C28.362 21.664 31.5702 18.6873 34.0674 16.372C35.8456 14.7233 37.8839 12.823 39.34 11.4654ZM44.4364 37.2092C44.8663 28.6924 45.809 9.65779 45.809 9.29397C45.809 8.94668 45.7428 8.93014 44.5191 8.93014H43.2457L41.4927 10.5343C41.2976 10.7159 40.9144 11.072 40.3792 11.5693C38.283 13.517 33.856 17.6306 29.2715 21.9121C23.4999 27.2702 16.5707 33.7033 13.8917 36.2004C11.2126 38.6976 8.86428 40.864 8.68237 41.0294C8.36816 41.3436 8.48392 41.3436 13.0317 41.3436H17.6953L19.1671 39.9379L20.6555 38.5322H27.6178C33.0586 38.5322 34.5635 38.5818 34.58 38.7307C34.58 38.8464 34.58 39.4418 34.5635 40.0702L34.547 41.1782L39.3924 41.1451L44.2379 41.0955L44.4364 37.2092ZM52.9862 20.7544L49.9434 15.5451C48.2731 12.6842 46.8508 10.2697 46.7847 10.187C46.5697 9.93893 46.5036 10.9312 45.8917 23.7312C45.5609 30.6438 45.2302 37.4407 45.1475 38.8464L45.0152 41.3767L48.1904 46.8009L51.349 52.2418L51.4648 51.2165C51.5144 50.6542 51.8782 43.5761 52.2751 35.4728L52.9862 20.7544ZM33.7036 41.6743L33.7697 40.4836L33.8193 39.2764H32.7444C32.149 39.2764 29.3873 39.3095 26.5924 39.3591L21.4989 39.4418L24.7899 45.0645L28.0643 50.6873L33.5382 50.7369L38.9956 50.7699L33.7036 41.6743ZM27.287 51.0511C27.287 50.9849 25.8152 48.3885 24.0291 45.3126C22.2266 42.2201 20.7216 39.6898 20.672 39.6898C20.6279 39.6898 20.2042 40.0694 19.6687 40.5491C19.6023 40.6086 19.5342 40.6696 19.4648 40.7317L18.3568 41.757L21.6808 47.4624C23.5165 50.6046 25.0545 53.201 25.0875 53.234C25.1702 53.3333 27.287 51.233 27.287 51.0511ZM50.9025 53.1844C50.8695 53.0521 49.3976 50.4557 47.6281 47.3963L44.4033 41.8397L42.7496 41.8728C41.84 41.9059 39.6901 41.9389 37.9868 41.9555C36.2669 41.9885 34.8943 42.0712 34.9273 42.1539C34.9604 42.2366 36.4322 44.7999 38.2018 47.8593L41.4266 53.3994L46.1894 53.4159C50.2245 53.4159 50.9521 53.3829 50.9025 53.1844ZM24.2937 53.4986L17.7449 42.2531L12.916 42.2035C10.2534 42.187 8.10356 42.2201 8.13663 42.3028C8.36816 42.8816 14.6524 53.4655 14.7847 53.5152C14.8839 53.5482 17.0669 53.5648 19.6302 53.5482L24.2937 53.4986Z" fill="currentColor"/>
</svg>
