<svg width="64" height="64" viewBox="0 0 64 64" fill="none" xmlns="http://www.w3.org/2000/svg">
<rect width="64" height="64" rx="8" fill="black"/>
<path d="M44.4803 28.4801V39.3601H40.3203V28.4801H36.4803C36.4803 31.3601 36.4803 32.6401 34.2403 34.2401L37.4403 39.3601H32.6403L28.4803 31.3601H31.0403C31.3603 31.3601 32.3203 31.0401 32.3203 29.7601C32.3203 28.7361 31.4669 28.4801 31.0403 28.4801H27.2003L25.2803 24.9601H48.6403V28.4801H44.4803Z" fill="white"/>
<path d="M22.7204 24.6401L30.0804 39.3601H26.5604C26.2404 39.3601 25.9204 39.3601 25.6004 38.7201L22.7204 32.9601L19.8404 38.7201C19.5844 39.2321 19.0937 39.3601 18.8804 39.3601H15.3604L22.7204 24.6401Z" fill="white"/>
<path d="M25.9202 56.3202V41.9202H30.0802V56.3202H25.9202Z" fill="white"/>
<path fill-rule="evenodd" clip-rule="evenodd" d="M32.6402 56.3202V41.9202H52.1602C52.4662 41.9202 52.6259 41.9202 52.7442 41.9901C52.8733 42.0665 52.9532 42.2262 53.1202 42.5602C53.3762 43.0722 54.7202 44.9068 55.3602 45.7602C56.0002 44.9068 57.3442 43.0722 57.6002 42.5602C57.9202 41.9202 58.2402 41.9202 58.8802 41.9202H62.7202C61.3335 43.9468 58.4962 48.0642 58.2402 48.3202C57.9202 48.6402 57.9202 49.2802 58.2402 49.9202C58.4962 50.4322 62.1868 55.6802 64.0002 58.2402V64.0002H62.7202L55.3602 52.4802C54.7202 53.4402 53.3762 55.4242 53.1202 55.6802C53.0344 55.7659 52.9717 55.8517 52.9134 55.9312C52.7542 56.1487 52.6287 56.3202 52.1602 56.3202H42.5602V45.4402H36.8002V47.3602H40.3202V50.8802H36.8002V56.3202H32.6402ZM46.7202 52.8002V50.8802H49.6002V47.3602H46.7202V45.4402H50.5602L53.1202 48.9602L50.5602 52.8002H46.7202Z" fill="white"/>
</svg>
