<svg width="64" height="64" viewBox="0 0 64 64" fill="none" xmlns="http://www.w3.org/2000/svg">
<rect width="64" height="64" rx="8" fill="black"/>
<path fill-rule="evenodd" clip-rule="evenodd" d="M16.5455 14.404C13.5152 15.1364 10.5354 17.3081 8.74242 20.1111C7.05051 22.7374 7 23.2424 7 37.7879V50.8687H12.8081V41.2727H20.1313C26.0404 41.2727 27.6566 41.197 28.5909 40.8939C29.197 40.6667 34.5253 37.7121 40.3838 34.3283L51.0657 28.1414L51.1414 39.5051L51.1919 50.8687H57V14L37.5051 14.0253C21.7727 14.0505 17.7071 14.101 16.5455 14.404ZM51.1919 21.6515C51.1919 25.8939 50.2323 26.9798 42.7323 31.3485C39.6768 33.1162 36.6212 34.7576 35.9141 35.0101C34.7778 35.3889 33.4899 35.4394 23.7424 35.4646H12.8081V30.2879C12.8081 24.6818 12.9091 24.1768 14.2222 22.4596C15.0556 21.3485 16.8485 20.2626 18.2121 20.0354C18.7929 19.9596 26.4444 19.8586 35.2323 19.8333L51.1919 19.8081V21.6515Z" fill="white"/>
</svg>
