<svg width="64" height="64" viewBox="0 0 64 64" fill="none" xmlns="http://www.w3.org/2000/svg">
<path d="M31.0162 18.1282C30.7622 17.9209 30.7928 17.524 31.0754 17.3581L33.8045 15.7555C34.008 15.636 34.2644 15.6557 34.4472 15.8049C34.7012 16.0121 34.6707 16.409 34.388 16.575L31.6589 18.1776C31.4554 18.2971 31.199 18.2774 31.0162 18.1282Z" fill="#1E1E1E"/>
<path opacity="0.5" d="M30.1651 9.05936C31.3005 8.40383 32.6994 8.40383 33.8348 9.05936L42.4801 14.0507C43.6156 14.7063 44.315 15.9177 44.315 17.2288V27.2116C44.315 28.5226 43.6156 29.7341 42.4801 30.3896L33.8348 35.381C32.6994 36.0365 31.3005 36.0365 30.1651 35.381L21.5198 30.3896C20.3844 29.7341 19.6849 28.5226 19.6849 27.2116V17.2288C19.6849 15.9177 20.3844 14.7063 21.5198 14.0507L30.1651 9.05936Z" fill="#D9D9D9"/>
<path d="M30.1651 9.05936C31.3005 8.40383 32.6994 8.40383 33.8348 9.05936L42.4801 14.0507C43.6156 14.7063 44.315 15.9177 44.315 17.2288V27.2116C44.315 28.5226 43.6156 29.7341 42.4801 30.3896L33.8348 35.381C32.6994 36.0365 31.3005 36.0365 30.1651 35.381L21.5198 30.3896C20.3844 29.7341 19.6849 28.5226 19.6849 27.2116V17.2288C19.6849 15.9177 20.3844 14.7063 21.5198 14.0507L30.1651 9.05936Z" fill="currentColor"/>
<path opacity="0.5" d="M30.4709 12.3996C31.4171 11.8533 32.5829 11.8533 33.529 12.3996L39.7403 15.9857C40.6865 16.532 41.2694 17.5415 41.2694 18.6341V25.8063C41.2694 26.8988 40.6865 27.9084 39.7403 28.4547L33.529 32.0407C32.5829 32.587 31.4171 32.587 30.4709 32.0407L24.2597 28.4547C23.3135 27.9084 22.7306 26.8988 22.7306 25.8063V18.6341C22.7306 17.5415 23.3135 16.532 24.2597 15.9857L30.4709 12.3996Z" fill="#D9D9D9"/>
<path d="M30.4709 12.3996C31.4171 11.8533 32.5829 11.8533 33.529 12.3996L39.7403 15.9857C40.6865 16.532 41.2694 17.5415 41.2694 18.6341V25.8063C41.2694 26.8988 40.6865 27.9084 39.7403 28.4547L33.529 32.0407C32.5829 32.587 31.4171 32.587 30.4709 32.0407L24.2597 28.4547C23.3135 27.9084 22.7306 26.8988 22.7306 25.8063V18.6341C22.7306 17.5415 23.3135 16.532 24.2597 15.9857L30.4709 12.3996Z" fill="#FFDB00"/>
<path d="M30.9857 18.0658C30.8064 17.9057 30.8342 17.6177 31.0408 17.4949L33.9299 15.7784C34.0633 15.6991 34.2326 15.7155 34.3483 15.8188C34.5275 15.9788 34.4997 16.2669 34.2931 16.3896L31.404 18.1062C31.2707 18.1854 31.1014 18.1691 30.9857 18.0658Z" fill="#291700"/>
<path d="M38.1161 19.1641V27.6483L37.6956 27.8944V19.3957C37.6956 18.9662 37.4703 18.5681 37.102 18.347L34.0259 16.5003L34.4464 16.2569L37.5254 18.1171C37.892 18.3386 38.1161 18.7358 38.1161 19.1641Z" fill="#FF50C1"/>
<path d="M37.2752 19.6916V28.1406L37.6957 27.8945V19.3958C37.6957 18.9662 37.4704 18.5681 37.102 18.347L34.026 16.5003L33.6055 16.7438L36.6945 18.6507C37.0555 18.8735 37.2752 19.2674 37.2752 19.6916Z" fill="#F348FD"/>
<path d="M36.8164 19.9121V28.4091L37.2751 28.1406V19.6916C37.2751 19.2674 37.0554 18.8735 36.6945 18.6507L33.6054 16.7437L33.2231 16.9651L36.2472 18.8784C36.6016 19.1026 36.8164 19.4927 36.8164 19.9121Z" fill="#00A1FF"/>
<path d="M36.4184 20.1385V28.6422L36.8166 28.4091V19.9121C36.8166 19.4927 36.6018 19.1026 36.2474 18.8783L33.2233 16.965L32.8411 17.1863L35.8529 19.1072C36.2052 19.3319 36.4184 19.7208 36.4184 20.1385Z" fill="#00E140"/>
<path d="M35.9756 20.3599V28.9014L36.4183 28.6422V20.1386C36.4183 19.7208 36.2051 19.3319 35.8529 19.1073L32.841 17.1864L32.4587 17.4037L35.4205 19.3353C35.7668 19.5611 35.9756 19.9465 35.9756 20.3599Z" fill="#FFF400"/>
<path d="M35.5169 20.582V29.1699L35.9756 28.9014V20.3599C35.9756 19.9465 35.7668 19.5611 35.4206 19.3353L32.4588 17.4037L32.0696 17.633L34.9712 19.5636C35.3121 19.7903 35.5169 20.1726 35.5169 20.582Z" fill="#FFBB02"/>
<path d="M34.5731 19.9601L31.5413 17.9388L32.0695 17.633L34.9711 19.5636C35.312 19.7903 35.5168 20.1726 35.5168 20.582V29.1699L34.9816 29.4832V20.7234C34.9816 20.4167 34.8283 20.1302 34.5731 19.9601Z" fill="#FF0100"/>
<ellipse cx="0.734282" cy="0.534023" rx="0.734282" ry="0.534023" transform="matrix(0.999229 0.0392598 -0.38655 0.922268 35.5127 14.5207)" fill="#FFC100"/>
<ellipse cx="0.734282" cy="0.534023" rx="0.734282" ry="0.534023" transform="matrix(0.999229 0.0392598 -0.38655 0.922268 28.7432 18.3976)" fill="#FFC100"/>
<ellipse cx="0.594982" cy="0.439806" rx="0.594982" ry="0.439806" transform="matrix(0.999229 0.0392598 -0.38655 0.922268 28.9761 17.2805)" fill="#291700"/>
<ellipse cx="0.594982" cy="0.439806" rx="0.594982" ry="0.439806" transform="matrix(0.999229 0.0392598 -0.38655 0.922268 33.4863 14.6514)" fill="#291700"/>
<path d="M20.2364 36.859C19.9825 36.6518 20.013 36.2549 20.2956 36.089L23.0247 34.4864C23.2282 34.3669 23.4846 34.3866 23.6675 34.5358C23.9214 34.743 23.8909 35.1399 23.6082 35.3059L20.8791 36.9085C20.6756 37.028 20.4193 37.0083 20.2364 36.859Z" fill="#1E1E1E"/>
<path opacity="0.5" d="M19.3853 27.7903C20.5207 27.1347 21.9196 27.1347 23.055 27.7903L31.7004 32.7816C32.8358 33.4372 33.5352 34.6486 33.5352 35.9597V45.9425C33.5352 47.2535 32.8358 48.465 31.7004 49.1205L23.055 54.1119C21.9196 54.7674 20.5207 54.7674 19.3853 54.1119L10.74 49.1205C9.60459 48.465 8.90514 47.2535 8.90514 45.9425V35.9597C8.90514 34.6486 9.60459 33.4372 10.74 32.7816L19.3853 27.7903Z" fill="#D9D9D9"/>
<path d="M19.3853 27.7903C20.5207 27.1347 21.9196 27.1347 23.055 27.7903L31.7004 32.7816C32.8358 33.4372 33.5352 34.6486 33.5352 35.9597V45.9425C33.5352 47.2535 32.8358 48.465 31.7004 49.1205L23.055 54.1119C21.9196 54.7674 20.5207 54.7674 19.3853 54.1119L10.74 49.1205C9.60459 48.465 8.90514 47.2535 8.90514 45.9425V35.9597C8.90514 34.6486 9.60459 33.4372 10.74 32.7816L19.3853 27.7903Z" fill="currentColor"/>
<path opacity="0.5" d="M19.6912 31.1305C20.6373 30.5842 21.8031 30.5842 22.7493 31.1305L28.9605 34.7166C29.9067 35.2629 30.4896 36.2724 30.4896 37.365V44.5372C30.4896 45.6297 29.9067 46.6393 28.9605 47.1856L22.7493 50.7716C21.8031 51.3179 20.6373 51.3179 19.6912 50.7716L13.4799 47.1856C12.5337 46.6393 11.9508 45.6297 11.9508 44.5372V37.365C11.9508 36.2724 12.5337 35.2629 13.4799 34.7166L19.6912 31.1305Z" fill="#D9D9D9"/>
<path d="M19.6912 31.1305C20.6373 30.5842 21.8031 30.5842 22.7493 31.1305L28.9605 34.7166C29.9067 35.2629 30.4896 36.2724 30.4896 37.365V44.5372C30.4896 45.6297 29.9067 46.6393 28.9605 47.1856L22.7493 50.7716C21.8031 51.3179 20.6373 51.3179 19.6912 50.7716L13.4799 47.1856C12.5337 46.6393 11.9508 45.6297 11.9508 44.5372V37.365C11.9508 36.2724 12.5337 35.2629 13.4799 34.7166L19.6912 31.1305Z" fill="#FF7D01"/>
<ellipse cx="0.734282" cy="0.534023" rx="0.734282" ry="0.534023" transform="matrix(0.999229 0.0392598 -0.38655 0.922268 24.7329 33.2516)" fill="#FF4901"/>
<ellipse cx="0.734282" cy="0.534023" rx="0.734282" ry="0.534023" transform="matrix(0.999229 0.0392598 -0.38655 0.922268 17.9634 37.1284)" fill="#FF4901"/>
<ellipse cx="0.594982" cy="0.439806" rx="0.594982" ry="0.439806" transform="matrix(0.999229 0.0392598 -0.38655 0.922268 18.1963 36.0114)" fill="#291700"/>
<ellipse cx="0.594982" cy="0.439806" rx="0.594982" ry="0.439806" transform="matrix(0.999229 0.0392598 -0.38655 0.922268 22.7065 33.3823)" fill="#291700"/>
<path d="M41.796 36.859C41.542 36.6518 41.5726 36.2549 41.8552 36.089L44.5843 34.4864C44.7878 34.3669 45.0442 34.3866 45.227 34.5358C45.481 34.743 45.4504 35.1399 45.1678 35.3059L42.4387 36.9085C42.2352 37.028 41.9788 37.0083 41.796 36.859Z" fill="#1E1E1E"/>
<path opacity="0.5" d="M40.9449 27.7903C42.0803 27.1347 43.4792 27.1347 44.6146 27.7903L53.2599 32.7816C54.3953 33.4372 55.0948 34.6486 55.0948 35.9597V45.9425C55.0948 47.2535 54.3953 48.465 53.2599 49.1205L44.6146 54.1119C43.4792 54.7674 42.0803 54.7674 40.9449 54.1119L32.2996 49.1205C31.1642 48.465 30.4647 47.2535 30.4647 45.9425V35.9597C30.4647 34.6486 31.1642 33.4372 32.2996 32.7816L40.9449 27.7903Z" fill="#D9D9D9"/>
<path d="M40.9449 27.7903C42.0803 27.1347 43.4792 27.1347 44.6146 27.7903L53.2599 32.7816C54.3953 33.4372 55.0948 34.6486 55.0948 35.9597V45.9425C55.0948 47.2535 54.3953 48.465 53.2599 49.1205L44.6146 54.1119C43.4792 54.7674 42.0803 54.7674 40.9449 54.1119L32.2996 49.1205C31.1642 48.465 30.4647 47.2535 30.4647 45.9425V35.9597C30.4647 34.6486 31.1642 33.4372 32.2996 32.7816L40.9449 27.7903Z" fill="currentColor"/>
<path opacity="0.5" d="M41.2507 31.1305C42.1969 30.5842 43.3627 30.5842 44.3088 31.1305L50.5201 34.7166C51.4663 35.2629 52.0492 36.2724 52.0492 37.365V44.5372C52.0492 45.6297 51.4663 46.6393 50.5201 47.1856L44.3088 50.7716C43.3627 51.3179 42.1969 51.3179 41.2507 50.7716L35.0394 47.1856C34.0933 46.6393 33.5104 45.6297 33.5104 44.5372V37.365C33.5104 36.2724 34.0933 35.2629 35.0394 34.7166L41.2507 31.1305Z" fill="#D9D9D9"/>
<path d="M41.2507 31.1305C42.1969 30.5842 43.3627 30.5842 44.3088 31.1305L50.5201 34.7166C51.4663 35.2629 52.0492 36.2724 52.0492 37.365V44.5372C52.0492 45.6297 51.4663 46.6393 50.5201 47.1856L44.3088 50.7716C43.3627 51.3179 42.1969 51.3179 41.2507 50.7716L35.0394 47.1856C34.0933 46.6393 33.5104 45.6297 33.5104 44.5372V37.365C33.5104 36.2724 34.0933 35.2629 35.0394 34.7166L41.2507 31.1305Z" fill="#00BFFE"/>
<ellipse cx="0.734282" cy="0.534023" rx="0.734282" ry="0.534023" transform="matrix(0.999229 0.0392598 -0.38655 0.922268 46.2925 33.2516)" fill="#0A98FF"/>
<ellipse cx="0.734282" cy="0.534023" rx="0.734282" ry="0.534023" transform="matrix(0.999229 0.0392598 -0.38655 0.922268 39.5229 37.1284)" fill="#0A98FF"/>
<ellipse cx="0.594982" cy="0.439806" rx="0.594982" ry="0.439806" transform="matrix(0.999229 0.0392598 -0.38655 0.922268 39.7559 36.0114)" fill="#291700"/>
<ellipse cx="0.594982" cy="0.439806" rx="0.594982" ry="0.439806" transform="matrix(0.999229 0.0392598 -0.38655 0.922268 44.2661 33.3823)" fill="#291700"/>
<path fill-rule="evenodd" clip-rule="evenodd" d="M41.5103 36.3969C41.5512 36.2582 41.7341 36.1797 41.919 36.2214C41.9193 36.2214 41.9196 36.2215 41.9199 36.2216L41.8456 36.4731C41.9199 36.2216 41.9198 36.2216 41.9196 36.2215L41.9195 36.2215L41.919 36.2214C41.9189 36.2214 41.919 36.2214 41.919 36.2214C41.9191 36.2214 41.9194 36.2215 41.9196 36.2215L41.926 36.2229C41.9324 36.2242 41.9432 36.2264 41.9579 36.2292C41.9874 36.2347 42.0324 36.2425 42.09 36.2506C42.2056 36.2669 42.3695 36.2839 42.5588 36.2866C42.9411 36.292 43.4006 36.2386 43.7844 36.0236C44.1682 35.8087 44.3663 35.4938 44.4672 35.2178C44.5172 35.0812 44.5415 34.9587 44.5533 34.8711C44.5592 34.8274 44.5618 34.7929 44.563 34.7702C44.5637 34.7589 44.5639 34.7505 44.564 34.7455L44.5641 34.7405C44.5641 34.7406 44.5641 34.7407 44.5641 34.7408L44.9075 34.7584C45.2509 34.776 45.2509 34.7761 45.2509 34.7762L45.2509 34.777L45.2509 34.7783L45.2509 34.7819C45.2509 34.7848 45.2509 34.7886 45.2508 34.7933C45.2506 34.8027 45.2502 34.8156 45.2494 34.8317C45.2476 34.8639 45.244 34.9089 45.2367 34.964C45.2219 35.0738 45.1918 35.2252 45.1298 35.3946C45.007 35.7308 44.7517 36.1566 44.2169 36.4561C43.6821 36.7556 43.0642 36.8188 42.5986 36.8122C42.3639 36.8089 42.1613 36.7878 42.0164 36.7674C41.9437 36.7572 41.8849 36.7471 41.8432 36.7393C41.8223 36.7353 41.8056 36.732 41.7935 36.7295C41.7875 36.7282 41.7826 36.7271 41.7789 36.7263L41.7742 36.7253L41.7726 36.7249L41.7719 36.7248L41.7716 36.7247C41.7715 36.7247 41.7714 36.7247 41.8456 36.4731L41.7714 36.7247C41.5862 36.6826 41.4693 36.5358 41.5103 36.3969ZM44.5641 34.74C44.5628 34.5956 44.715 34.4864 44.9043 34.4961C45.094 34.5059 45.2492 34.6312 45.2509 34.776L44.9075 34.7584M44.5641 34.74C44.5641 34.7402 44.5641 34.7403 44.5641 34.7405L44.5641 34.74ZM41.919 36.2214C41.9189 36.2214 41.919 36.2214 41.919 36.2214V36.2214Z" fill="#291700"/>
<path fill-rule="evenodd" clip-rule="evenodd" d="M19.8909 36.3969C19.9319 36.2582 20.1147 36.1797 20.2996 36.2214C20.2999 36.2214 20.3002 36.2215 20.3005 36.2216L20.2262 36.4731C20.3005 36.2216 20.3004 36.2216 20.3003 36.2215L20.3001 36.2215L20.2996 36.2214C20.2996 36.2214 20.2996 36.2214 20.2996 36.2214C20.2997 36.2214 20.3 36.2215 20.3003 36.2215L20.3066 36.2229C20.313 36.2242 20.3238 36.2264 20.3385 36.2292C20.368 36.2347 20.413 36.2425 20.4706 36.2506C20.5862 36.2669 20.7501 36.2839 20.9394 36.2866C21.3217 36.292 21.7812 36.2386 22.165 36.0236C22.5488 35.8087 22.747 35.4938 22.8478 35.2178C22.8978 35.0812 22.9221 34.9587 22.9339 34.8711C22.9398 34.8274 22.9424 34.7929 22.9437 34.7702C22.9443 34.7589 22.9445 34.7505 22.9446 34.7455L22.9447 34.7405C22.9447 34.7406 22.9447 34.7407 22.9447 34.7408L23.2881 34.7584C23.6315 34.776 23.6315 34.7761 23.6315 34.7762L23.6315 34.777L23.6316 34.7783L23.6316 34.7819C23.6315 34.7848 23.6315 34.7886 23.6314 34.7933C23.6312 34.8027 23.6308 34.8156 23.63 34.8317C23.6282 34.8639 23.6247 34.9089 23.6173 34.964C23.6025 35.0738 23.5724 35.2252 23.5105 35.3946C23.3876 35.7308 23.1323 36.1566 22.5975 36.4561C22.0628 36.7556 21.4448 36.8188 20.9792 36.8122C20.7446 36.8089 20.5419 36.7878 20.397 36.7674C20.3243 36.7572 20.2655 36.7471 20.2238 36.7393C20.2029 36.7353 20.1862 36.732 20.1741 36.7295C20.1681 36.7282 20.1632 36.7271 20.1595 36.7263L20.1548 36.7253L20.1532 36.7249L20.1525 36.7248L20.1522 36.7247C20.1521 36.7247 20.152 36.7247 20.2262 36.4731L20.152 36.7247C19.9668 36.6826 19.8499 36.5358 19.8909 36.3969ZM22.9447 34.74C22.9434 34.5956 23.0956 34.4864 23.2849 34.4961C23.4746 34.5059 23.6298 34.6312 23.6315 34.776L23.2881 34.7584M22.9447 34.74C22.9447 34.7402 22.9447 34.7403 22.9447 34.7405L22.9447 34.74ZM20.2996 36.2214C20.2996 36.2214 20.2996 36.2214 20.2996 36.2214V36.2214Z" fill="#291700"/>
</svg>
