<svg width="32" height="32" viewBox="0 0 32 32" fill="none" xmlns="http://www.w3.org/2000/svg">
<path fill-rule="evenodd" clip-rule="evenodd" d="M25.761 5.14838C23.8688 4.2631 21.8457 3.61971 19.7305 3.25336C19.4707 3.72301 19.1673 4.35469 18.958 4.8572C16.7095 4.51906 14.4818 4.51906 12.2746 4.8572C12.0654 4.35469 11.7551 3.72301 11.493 3.25336C9.37551 3.61971 7.35002 4.26546 5.45788 5.15307C1.64142 10.9202 0.606837 16.5442 1.12413 22.0883C3.65541 23.9785 6.10852 25.1268 8.52024 25.8783C9.1157 25.0587 9.64678 24.1876 10.1043 23.2694C9.23295 22.9383 8.39839 22.5297 7.60983 22.0554C7.81903 21.9004 8.02366 21.7384 8.22136 21.5716C12.7048 23.6686 17.5498 23.8109 22.0357 21.9984C24.8036 17.577 29.7857 20.0028 30.2288 21.1099C30.2369 20.9254 30.2337 20.5774 30.2308 20.269C30.2291 20.0788 30.2275 19.9037 30.2288 19.7913C30.2908 14.3214 28.6689 9.49087 25.761 5.14838ZM10.7595 18.6787C9.31573 18.6787 8.13169 17.3308 8.13169 15.6894C8.13169 14.0481 9.29045 12.6979 10.7595 12.6979C12.2287 12.6979 13.4127 14.0457 13.3874 15.6894C13.3897 17.3308 12.2287 18.6787 10.7595 18.6787ZM20.4708 18.6787C19.027 18.6787 17.843 17.3308 17.843 15.6894C17.843 14.0481 19.0017 12.6979 20.4708 12.6979C21.9399 12.6979 23.124 14.0457 23.0987 15.6894C23.0987 17.3308 21.9399 18.6787 20.4708 18.6787Z" fill="#5865F2"/>
<path d="M31.0774 24.7734C31.0774 22.2316 29.0061 20.1603 26.4643 20.1603C23.9225 20.1603 21.8512 22.2316 21.8512 24.7734C21.8512 26.1112 22.4278 27.3152 23.3412 28.1594C23.3412 28.1641 23.3412 28.1641 23.3366 28.1687C23.3827 28.2148 23.4381 28.2517 23.4842 28.2932C23.5119 28.3163 23.535 28.3394 23.5627 28.3578C23.6457 28.427 23.738 28.4916 23.8256 28.5562C23.8579 28.5792 23.8856 28.5977 23.9179 28.6208C24.0055 28.6807 24.0978 28.7361 24.1946 28.7868C24.2269 28.8053 24.2638 28.8283 24.2961 28.8468C24.3884 28.8975 24.4853 28.9437 24.5868 28.9852C24.6237 29.0036 24.6606 29.0221 24.6975 29.0359C24.799 29.0775 24.9005 29.1144 25.0019 29.1466C25.0388 29.1605 25.0757 29.1743 25.1127 29.1836C25.2234 29.2158 25.3341 29.2435 25.4448 29.2712C25.4771 29.2804 25.5094 29.2897 25.5463 29.2943C25.6755 29.3219 25.8046 29.3404 25.9384 29.3542C25.9569 29.3542 25.9753 29.3589 25.9938 29.3635C26.1506 29.3773 26.3074 29.3865 26.4643 29.3865C26.6211 29.3865 26.778 29.3773 26.9302 29.3635C26.9487 29.3635 26.9671 29.3589 26.9856 29.3542C27.1194 29.3404 27.2485 29.3219 27.3777 29.2943C27.41 29.2897 27.4423 29.2758 27.4792 29.2712C27.5899 29.2435 27.7052 29.2205 27.8113 29.1836C27.8482 29.1697 27.8851 29.1559 27.922 29.1466C28.0235 29.1097 28.1296 29.0775 28.2265 29.0359C28.2634 29.0221 28.3003 29.0036 28.3372 28.9852C28.4341 28.9437 28.531 28.8975 28.6278 28.8468C28.6647 28.8283 28.697 28.8053 28.7293 28.7868C28.8216 28.7315 28.9138 28.6807 29.0061 28.6208C29.0384 28.6023 29.0661 28.5792 29.0984 28.5562C29.1906 28.4916 29.2783 28.427 29.3613 28.3578C29.389 28.3347 29.4121 28.3117 29.4397 28.2932C29.4905 28.2517 29.5412 28.2102 29.5874 28.1687C29.5874 28.1641 29.5874 28.1641 29.5827 28.1594C30.5007 27.3152 31.0774 26.1112 31.0774 24.7734ZM28.7432 27.0661C27.493 26.2266 25.4448 26.2266 24.1854 27.0661C23.9824 27.1999 23.8164 27.3568 23.678 27.5275C22.9768 26.817 22.5432 25.8437 22.5432 24.7734C22.5432 22.6099 24.3007 20.8523 26.4643 20.8523C28.6278 20.8523 30.3854 22.6099 30.3854 24.7734C30.3854 25.8437 29.9518 26.817 29.2506 27.5275C29.1168 27.3568 28.9461 27.1999 28.7432 27.0661Z" fill="#5865F2"/>
<path d="M26.4643 22.4346C25.5094 22.4346 24.7344 23.2096 24.7344 24.1645C24.7344 25.101 25.4679 25.8622 26.4412 25.8898C26.4551 25.8898 26.4735 25.8898 26.4827 25.8898C26.492 25.8898 26.5058 25.8898 26.515 25.8898C26.5196 25.8898 26.5243 25.8898 26.5243 25.8898C27.4561 25.8575 28.1896 25.101 28.1942 24.1645C28.1942 23.2096 27.4192 22.4346 26.4643 22.4346Z" fill="#5865F2"/>
</svg>
