<svg width="24" height="24" viewBox="0 0 24 24" fill="none" xmlns="http://www.w3.org/2000/svg">
<path fill-rule="evenodd" clip-rule="evenodd" d="M20.3303 4.55593C18.7767 3.82906 17.1156 3.3008 15.3789 3C15.1656 3.38561 14.9164 3.90427 14.7446 4.31685C12.8985 4.03922 11.0693 4.03922 9.25716 4.31685C9.08539 3.90427 8.83055 3.38561 8.61536 3C6.87681 3.3008 5.21376 3.831 3.66019 4.55978C0.526643 9.29499 -0.322811 13.9126 0.101917 18.4646C2.18025 20.0166 4.19441 20.9595 6.17457 21.5764C6.66349 20.9035 7.09953 20.1882 7.47518 19.4344C6.75975 19.1626 6.07453 18.8271 5.42707 18.4376C5.59884 18.3104 5.76686 18.1773 5.92918 18.0404C9.1859 19.5637 12.675 19.8307 15.9867 18.8415C17.5 14 23.402 15.6651 23.8 18.4646C24.2984 13.1876 23.0467 8.61246 20.3303 4.55593ZM5.85559 13.2108C5.85559 14.5584 6.82776 15.6651 8.01321 15.6651C9.21946 15.6651 10.1727 14.5584 10.1708 13.2108C10.1916 11.8611 9.21946 10.7545 8.01321 10.7545C6.807 10.7545 5.85559 11.8631 5.85559 13.2108ZM13.8292 13.2108C13.8292 14.5584 14.8013 15.6651 15.9868 15.6651C17.193 15.6651 18.1444 14.5584 18.1444 13.2108C18.1652 11.8611 17.193 10.7545 15.9868 10.7545C14.7805 10.7545 13.8292 11.8631 13.8292 13.2108Z" fill="currentColor"/>
<path d="M18.75 19.56C18.75 18.87 19.31 18.31 20 18.31C20.69 18.31 21.25 18.87 21.25 19.56C21.2467 20.2367 20.7167 20.7833 20.0433 20.8067H19.9833C19.28 20.7867 18.75 20.2367 18.75 19.56Z" fill="currentColor"/>
<path fill-rule="evenodd" clip-rule="evenodd" d="M23.3333 20C23.3333 18.1633 21.8366 16.6667 20 16.6667C18.1633 16.6667 16.6666 18.1633 16.6666 20C16.6666 20.9667 17.0833 21.8367 17.7433 22.4467C17.7433 22.4481 17.7433 22.4489 17.743 22.4496C17.7427 22.4506 17.7419 22.4514 17.74 22.4533C17.7593 22.4727 17.7809 22.4898 17.8022 22.5066C17.8175 22.5187 17.8327 22.5308 17.8466 22.5433C17.8507 22.5467 17.8547 22.5501 17.8585 22.5535C17.8607 22.5554 17.8628 22.5573 17.865 22.5592C17.8776 22.5703 17.8897 22.5809 17.9033 22.59C17.9496 22.6286 17.9998 22.6651 18.0495 22.7013L18.0933 22.7333C18.105 22.7417 18.1158 22.7492 18.1266 22.7567C18.1375 22.7642 18.1483 22.7717 18.16 22.78C18.2233 22.8233 18.29 22.8633 18.36 22.9C18.3716 22.9067 18.3841 22.9142 18.3966 22.9216C18.4091 22.9292 18.4216 22.9367 18.4333 22.9433C18.5 22.98 18.57 23.0133 18.6433 23.0433C18.6699 23.0566 18.6966 23.07 18.7233 23.08C18.7966 23.11 18.87 23.1367 18.9433 23.16C18.97 23.17 18.9966 23.18 19.0233 23.1867C19.1033 23.21 19.1833 23.23 19.2633 23.25C19.2866 23.2567 19.31 23.2633 19.3366 23.2667C19.43 23.2867 19.5233 23.3 19.62 23.31C19.6333 23.31 19.6466 23.3133 19.6599 23.3167C19.7733 23.3267 19.8866 23.3333 20 23.3333C20.1133 23.3333 20.2266 23.3267 20.3366 23.3167C20.35 23.3167 20.3633 23.3133 20.3766 23.31C20.4733 23.3 20.5666 23.2867 20.66 23.2667C20.6709 23.2651 20.6818 23.2621 20.693 23.259C20.7058 23.2554 20.7191 23.2518 20.7333 23.25C20.7543 23.2447 20.7755 23.2397 20.7968 23.2347C20.8566 23.2206 20.9168 23.2063 20.9733 23.1867C21 23.1767 21.0266 23.1667 21.0533 23.16C21.0777 23.1511 21.1025 23.1426 21.1273 23.1341C21.1769 23.1171 21.2266 23.1 21.2733 23.08C21.2999 23.07 21.3266 23.0567 21.3532 23.0433C21.4232 23.0133 21.4933 22.98 21.5633 22.9433C21.5798 22.9351 21.595 22.9255 21.6098 22.9163C21.6189 22.9106 21.6277 22.9051 21.6366 22.9C21.6475 22.8935 21.6584 22.887 21.6692 22.8806C21.6806 22.874 21.6919 22.8674 21.7033 22.8608C21.7477 22.8348 21.7922 22.8089 21.8366 22.78C21.853 22.7706 21.8677 22.7597 21.8831 22.7482C21.8896 22.7433 21.8963 22.7383 21.9033 22.7333C21.97 22.6867 22.0333 22.64 22.0933 22.59C22.0997 22.5847 22.1057 22.5794 22.1116 22.5742C22.1243 22.563 22.1363 22.5524 22.15 22.5433C22.1866 22.5133 22.2233 22.4833 22.2566 22.4533C22.2566 22.45 22.2566 22.45 22.2533 22.4467C22.9166 21.8367 23.3333 20.9667 23.3333 20ZM21.6466 21.6567C20.7433 21.05 19.2633 21.05 18.3533 21.6567C18.2066 21.7533 18.0866 21.8667 17.9866 21.99C17.48 21.4767 17.1666 20.7733 17.1666 20C17.1666 18.4367 18.4366 17.1667 20 17.1667C21.5633 17.1667 22.8333 18.4367 22.8333 20C22.8333 20.7733 22.52 21.4767 22.0133 21.99C21.9166 21.8667 21.7933 21.7533 21.6466 21.6567Z" fill="currentColor"/>
</svg>
