<svg width="32" height="32" viewBox="0 0 32 32" fill="none" xmlns="http://www.w3.org/2000/svg">
<path d="M32.0005 16C32.0005 7.16344 24.8371 0 16.0005 0C7.16393 0 0.000488281 7.16344 0.000488281 16C0.000488281 23.9861 5.85145 30.6053 13.5005 31.8056V20.625H9.438V16H13.5005V12.475C13.5005 8.465 15.8892 6.25001 19.5439 6.25001C21.2945 6.25001 23.1255 6.5625 23.1255 6.5625V10.5H21.1079C19.1203 10.5 18.5005 11.7334 18.5005 12.9987V16H22.938L22.2286 20.625H18.5005V31.8056C26.1495 30.6053 32.0005 23.9861 32.0005 16Z" fill="url(#paint0_linear_3451_31214)"/>
<defs>
<linearGradient id="paint0_linear_3451_31214" x1="16.0005" y1="0" x2="16.0005" y2="31.8056" gradientUnits="userSpaceOnUse">
<stop stop-color="#19AEFF"/>
<stop offset="1" stop-color="#0062E0"/>
</linearGradient>
</defs>
</svg>
