<svg width="64" height="64" viewBox="0 0 64 64" fill="none" xmlns="http://www.w3.org/2000/svg">
<path d="M27.6722 11.2606C19.2968 12.8287 12.7601 17.2412 10.4195 23.9901C10.2154 24.5173 10.0951 25.4358 9.76205 26.0222C9.39719 26.6647 8.86094 26.9645 8.50691 27.3371C6.9744 29.0122 6.7516 30.6382 7.21491 34.4161C7.53567 37.0534 7.71387 37.5167 8.74742 38.5859C10.0305 39.9046 11.1353 40.3679 13.7726 40.7243C14.5161 40.8426 15.0217 40.7851 15.3803 40.8448C15.5596 41.2034 15.7895 42.0664 16.2768 43.116C17.5599 45.8247 20.6324 49.1983 23.2698 50.7664C25.8665 52.3544 29.0364 53.2823 32.235 53.2767C35.1385 53.2716 38.0657 52.4725 40.6094 51.1668C44.0308 49.4204 47.9868 44.5734 49.163 40.653C49.5292 39.4525 49.6875 38.8127 49.807 38.4541C50.1059 38.3943 50.8397 38.4263 51.4208 38.3346C53.274 38.0138 55.1861 36.8752 56.0771 35.7347C57.1106 34.4161 57.3245 33.0261 57.0394 29.5334C56.7899 26.504 56.7302 26.0123 55.1264 24.4085C54.7273 24.0094 53.9461 23.9162 53.5127 23.3321C52.9785 22.6121 52.8279 21.8393 52.5131 21.2293C50.4104 17.0951 44.9218 12.9357 39.3977 11.6526C35.9762 10.8329 30.7728 10.6547 27.6722 11.2606ZM38.3997 13.5415C43.3893 14.8246 47.8443 17.9861 49.6263 21.1937L50.446 22.6193C50.446 22.6193 49.03 22.735 48.5519 22.8545C48.0737 22.974 46.9177 23.3321 46.9177 23.3321L44.4941 20.7051C41.4291 17.7114 38.471 16.2145 34.515 15.6443C27.4227 14.6107 20.5442 18.2712 16.7664 24.6507C16.6648 24.8285 16.5159 25.0659 16.5159 25.0659C16.1573 25.0659 15.4998 25.0659 14.4838 25.0659L12.7505 25.0428L13.5872 22.974C15.7256 18.7329 21.3996 14.6107 26.9237 13.4346C30.3451 12.6862 35.2278 12.7218 38.3997 13.5415ZM34.8358 18.7219C40.5381 19.9337 45.1713 24.5795 46.7038 30.3888C48.6284 37.8018 45.0644 45.7139 38.4354 48.8502C36.1901 49.9194 35.6921 50.1687 32.235 50.1687C28.9205 50.1687 28.3137 49.8837 26.4604 49.0284C24.1082 47.9235 21.9548 46.5229 19.5463 42.7558C18.1207 40.3679 17.301 37.2316 17.301 34.3091C17.301 26.9317 21.8629 20.7534 28.8126 18.8645C31.1292 18.2586 32.4479 18.223 34.8358 18.7219Z" fill="currentColor"/>
<path d="M23.3597 25.8625C21.4708 26.3614 20.9006 26.6822 20.2947 27.6445C19.3324 29.0701 18.7266 31.6718 18.7266 34.4873C18.7266 36.9108 19.1542 37.4811 22.0767 38.9423C24.0725 39.9402 25.4625 40.0471 29.4185 39.4412C31.5925 39.1205 32.733 39.1205 35.6198 39.5838C38.97 40.154 39.2194 40.1184 41.0727 39.4769C45.2426 38.0157 46.0979 36.5901 45.4921 32.2064C44.6367 26.1832 42.6409 25.221 31.3787 25.2566C27.2445 25.2566 25.0348 25.4348 23.3597 25.8625Z" fill="#E81623"/>
<path d="M38.3996 43.2547C36.582 44.6803 33.9447 45.5357 31.3073 45.5357C29.8104 45.5357 29.4897 45.6426 29.6322 46.0703C29.8104 46.4623 30.452 46.6049 32.4121 46.6049C34.5862 46.6049 35.3702 46.4267 37.1166 45.5357C39.4688 44.3952 41.037 42.9696 40.6449 42.3637C40.3242 41.7935 40.1103 41.9004 38.3996 43.2547Z" fill="currentColor"/>
</svg>
