<svg width="24" height="24" viewBox="0 0 24 24" fill="none" xmlns="http://www.w3.org/2000/svg">
<path d="M14.9098 12C14.9098 10.3933 13.6073 9.09092 12.0007 9.09092C10.394 9.09092 9.09161 10.3933 9.09161 12C9.09161 13.6066 10.394 14.9091 12.0007 14.9091C13.6073 14.9091 14.9098 13.6066 14.9098 12Z" fill="currentColor"/>
<path fill-rule="evenodd" clip-rule="evenodd" d="M11.7098 4.84538C11.5334 4.8453 11.3698 4.84522 11.2178 4.84546V4.84328C9.59125 4.8451 9.27925 4.85601 8.47416 4.89237C7.62325 4.93146 7.16125 5.07328 6.85361 5.19328C6.44634 5.35183 6.15543 5.54092 5.84998 5.84637C5.54452 6.15183 5.35507 6.44274 5.19689 6.85001C5.07743 7.15764 4.93525 7.61946 4.89634 8.47037C4.85452 9.39037 4.84616 9.66528 4.84616 11.9958C4.84616 14.3264 4.85452 14.6027 4.89634 15.5227C4.93507 16.3736 5.07743 16.8355 5.19689 17.1427C5.35543 17.5502 5.54452 17.8404 5.84998 18.1458C6.15543 18.4513 6.44634 18.6404 6.85361 18.7986C7.16143 18.918 7.62325 19.0602 8.47416 19.0995C9.39416 19.1413 9.67034 19.1504 12.0007 19.1504C14.3309 19.1504 14.6073 19.1413 15.5273 19.0995C16.3782 19.0606 16.8403 18.9187 17.1476 18.7987C17.5551 18.6406 17.8451 18.4515 18.1505 18.146C18.456 17.8407 18.6454 17.5507 18.8036 17.1435C18.9231 16.8362 19.0653 16.3744 19.1042 15.5235C19.146 14.6035 19.1551 14.3271 19.1551 11.998C19.1551 9.66892 19.146 9.39255 19.1042 8.47255C19.0654 7.62164 18.9231 7.15983 18.8036 6.85255C18.6451 6.44528 18.456 6.15437 18.1505 5.84892C17.8453 5.54346 17.5549 5.35437 17.1476 5.19619C16.84 5.07674 16.3782 4.93455 15.5273 4.89564C14.6071 4.85383 14.3309 4.84546 12.0007 4.84546C11.9 4.84546 11.8031 4.84542 11.7098 4.84538ZM15.612 7.34146C15.612 6.7631 16.0811 6.29455 16.6593 6.29455C17.2374 6.29455 17.7065 6.76328 17.7065 7.34146C17.7065 7.91964 17.2374 8.38874 16.6593 8.38874C16.0811 8.38874 15.612 7.91964 15.612 7.34146ZM7.51889 12C7.51889 9.52498 9.52551 7.51829 12.0005 7.51819C14.4756 7.51819 16.4818 9.52492 16.4818 12C16.4818 14.4751 14.4758 16.4809 12.0007 16.4809C9.52561 16.4809 7.51889 14.4751 7.51889 12Z" fill="currentColor"/>
<path fill-rule="evenodd" clip-rule="evenodd" d="M5.34742 0.210187C5.62797 0.186915 7.07124 0.181824 12.0061 0.181824H15.8534C18.626 0.186641 18.7838 0.209491 19.3105 0.285767L19.3411 0.290187C20.4807 0.454551 21.4371 0.909097 22.2191 1.65601C22.6572 2.07764 22.9591 2.49001 23.2309 3.04219C23.5622 3.71673 23.7249 4.35492 23.7994 5.30401C23.8154 5.50764 23.8227 8.74837 23.8227 11.9913C23.8227 15.2336 23.816 18.4804 23.8 18.684C23.7263 19.618 23.5636 20.2616 23.2427 20.9235C22.6045 22.2398 21.4318 23.1998 20.0154 23.5653C19.5018 23.698 19.0372 23.7604 18.2372 23.798C17.9518 23.8126 14.9663 23.8162 11.9809 23.8162C8.99542 23.8162 6.01179 23.8071 5.71906 23.7944C5.02815 23.7616 4.48997 23.6926 4.00269 23.5671C2.59542 23.2035 1.40087 22.2289 0.77542 20.9307C0.448147 20.2526 0.293602 19.6326 0.211784 18.6471C0.188147 18.3671 0.182693 16.9253 0.182693 11.9944C0.182693 11.3902 0.182452 10.842 0.182234 10.3436C0.181851 9.47161 0.181536 8.75231 0.182693 8.15346C0.18734 5.37776 0.209914 5.22203 0.286697 4.69231C0.288013 4.68323 0.289345 4.67405 0.290693 4.66473C0.455238 3.52619 0.909784 2.56837 1.65978 1.78982C2.0716 1.36291 2.48888 1.05837 3.01797 0.795642C3.70451 0.453824 4.33469 0.294369 5.34742 0.210187ZM8.40216 3.32546C9.33307 3.2831 9.63052 3.27274 12.0007 3.27274H11.998C14.3689 3.27274 14.6653 3.2831 15.5962 3.32546C16.5252 3.36801 17.1598 3.5151 17.7162 3.73092C18.2907 3.95364 18.7762 4.25183 19.2616 4.73728C19.7471 5.22237 20.0452 5.70928 20.2689 6.28328C20.4834 6.83819 20.6307 7.47237 20.6743 8.40146C20.7162 9.33237 20.7271 9.62983 20.7271 12C20.7271 14.3702 20.7162 14.6669 20.6743 15.5978C20.6307 16.5266 20.4834 17.1609 20.2689 17.716C20.0452 18.2898 19.7471 18.7767 19.2616 19.2618C18.7767 19.7473 18.2905 20.0462 17.7167 20.2691C17.1614 20.4849 16.5265 20.632 15.5974 20.6746C14.6665 20.7169 14.37 20.7273 11.9996 20.7273C9.62961 20.7273 9.33234 20.7169 8.40143 20.6746C7.47252 20.632 6.83816 20.4849 6.28289 20.2691C5.70925 20.0462 5.22234 19.7473 4.73743 19.2618C4.25216 18.7767 3.95398 18.2898 3.73089 17.7158C3.51525 17.1609 3.36816 16.5267 3.32543 15.5976C3.28325 14.6667 3.27271 14.3702 3.27271 12C3.27271 9.62983 3.28361 9.33219 3.32525 8.40128C3.36707 7.47255 3.51434 6.83819 3.73071 6.2831C3.95434 5.70928 4.25252 5.22237 4.73798 4.73728C5.22307 4.25201 5.70998 3.95383 6.28398 3.73092C6.83889 3.5151 7.47307 3.36801 8.40216 3.32546Z" fill="currentColor"/>
</svg>
