<svg width="24" height="24" viewBox="0 0 24 24" fill="none" xmlns="http://www.w3.org/2000/svg">
<path d="M12.0059 0.181885C7.07099 0.181885 5.62772 0.186976 5.34718 0.210248C4.33445 0.29443 3.70427 0.453885 3.01772 0.795703C2.48863 1.05843 2.07136 1.36298 1.65954 1.78988C0.90954 2.56843 0.454994 3.52625 0.290449 4.66479C0.210449 5.21752 0.187176 5.33025 0.182449 8.15352C0.180631 9.09461 0.182449 10.3332 0.182449 11.9944C0.182449 16.9253 0.187903 18.3672 0.21154 18.6472C0.293358 19.6326 0.447903 20.2526 0.775176 20.9308C1.40063 22.229 2.59518 23.2035 4.00245 23.5672C4.48972 23.6926 5.0279 23.7617 5.71881 23.7944C6.01154 23.8072 8.99518 23.8162 11.9806 23.8162C14.9661 23.8162 17.9515 23.8126 18.237 23.7981C19.037 23.7604 19.5015 23.6981 20.0152 23.5653C21.4315 23.1999 22.6043 22.2399 23.2425 20.9235C23.5634 20.2617 23.7261 19.6181 23.7997 18.6841C23.8157 18.4804 23.8225 15.2337 23.8225 11.9913C23.8225 8.74843 23.8152 5.5077 23.7992 5.30407C23.7246 4.35498 23.5619 3.71679 23.2306 3.04225C22.9588 2.49007 22.657 2.0777 22.2188 1.65607C21.4368 0.909158 20.4805 0.454612 19.3408 0.290248C18.7886 0.21043 18.6786 0.186794 15.8532 0.181885H12.0059Z" fill="url(#paint0_radial_1356_82523)"/>
<path d="M12.0059 0.181885C7.07099 0.181885 5.62772 0.186976 5.34718 0.210248C4.33445 0.29443 3.70427 0.453885 3.01772 0.795703C2.48863 1.05843 2.07136 1.36298 1.65954 1.78988C0.90954 2.56843 0.454994 3.52625 0.290449 4.66479C0.210449 5.21752 0.187176 5.33025 0.182449 8.15352C0.180631 9.09461 0.182449 10.3332 0.182449 11.9944C0.182449 16.9253 0.187903 18.3672 0.21154 18.6472C0.293358 19.6326 0.447903 20.2526 0.775176 20.9308C1.40063 22.229 2.59518 23.2035 4.00245 23.5672C4.48972 23.6926 5.0279 23.7617 5.71881 23.7944C6.01154 23.8072 8.99518 23.8162 11.9806 23.8162C14.9661 23.8162 17.9515 23.8126 18.237 23.7981C19.037 23.7604 19.5015 23.6981 20.0152 23.5653C21.4315 23.1999 22.6043 22.2399 23.2425 20.9235C23.5634 20.2617 23.7261 19.6181 23.7997 18.6841C23.8157 18.4804 23.8225 15.2337 23.8225 11.9913C23.8225 8.74843 23.8152 5.5077 23.7992 5.30407C23.7246 4.35498 23.5619 3.71679 23.2306 3.04225C22.9588 2.49007 22.657 2.0777 22.2188 1.65607C21.4368 0.909158 20.4805 0.454612 19.3408 0.290248C18.7886 0.21043 18.6786 0.186794 15.8532 0.181885H12.0059Z" fill="url(#paint1_radial_1356_82523)"/>
<path d="M12.0014 3.27271C9.63126 3.27271 9.3338 3.28307 8.40289 3.32543C7.4738 3.36798 6.83962 3.51507 6.28471 3.73089C5.71071 3.9538 5.2238 4.25198 4.73871 4.73725C4.25326 5.22234 3.95507 5.70925 3.73144 6.28307C3.51507 6.83816 3.3678 7.47252 3.32598 8.40125C3.28435 9.33216 3.27344 9.6298 3.27344 12C3.27344 14.3702 3.28398 14.6667 3.32616 15.5976C3.36889 16.5267 3.51598 17.1609 3.73162 17.7158C3.95471 18.2898 4.25289 18.7767 4.73816 19.2618C5.22307 19.7473 5.70998 20.0462 6.28362 20.2691C6.83889 20.4849 7.47326 20.632 8.40216 20.6745C9.33307 20.7169 9.63035 20.7273 12.0003 20.7273C14.3707 20.7273 14.6673 20.7169 15.5982 20.6745C16.5273 20.632 17.1622 20.4849 17.7174 20.2691C18.2913 20.0462 18.7774 19.7473 19.2623 19.2618C19.7478 18.7767 20.046 18.2898 20.2696 17.716C20.4842 17.1609 20.6314 16.5265 20.6751 15.5978C20.7169 14.6669 20.7278 14.3702 20.7278 12C20.7278 9.6298 20.7169 9.33234 20.6751 8.40143C20.6314 7.47234 20.4842 6.83816 20.2696 6.28325C20.046 5.70925 19.7478 5.22234 19.2623 4.73725C18.7769 4.2518 18.2914 3.95361 17.7169 3.73089C17.1605 3.51507 16.526 3.36798 15.5969 3.32543C14.666 3.28307 14.3696 3.27271 11.9987 3.27271H12.0014ZM11.2185 4.84543C11.4509 4.84507 11.7102 4.84543 12.0014 4.84543C14.3316 4.84543 14.6078 4.8538 15.528 4.89561C16.3789 4.93452 16.8407 5.07671 17.1483 5.19616C17.5556 5.35434 17.846 5.54343 18.1513 5.84889C18.4567 6.15434 18.6458 6.44525 18.8043 6.85252C18.9238 7.1598 19.0662 7.62161 19.1049 8.47252C19.1467 9.39252 19.1558 9.66889 19.1558 11.998C19.1558 14.3271 19.1467 14.6034 19.1049 15.5234C19.066 16.3743 18.9238 16.8362 18.8043 17.1434C18.6462 17.5507 18.4567 17.8407 18.1513 18.146C17.8458 18.4514 17.5558 18.6405 17.1483 18.7987C16.8411 18.9187 16.3789 19.0605 15.528 19.0994C14.608 19.1413 14.3316 19.1503 12.0014 19.1503C9.67107 19.1503 9.39489 19.1413 8.47489 19.0994C7.62398 19.0602 7.16216 18.918 6.85435 18.7985C6.44707 18.6403 6.15616 18.4513 5.85071 18.1458C5.54526 17.8403 5.35616 17.5502 5.19762 17.1427C5.07816 16.8354 4.9358 16.3736 4.89707 15.5227C4.85526 14.6027 4.84689 14.3263 4.84689 11.9958C4.84689 9.66525 4.85526 9.39034 4.89707 8.47034C4.93598 7.61943 5.07816 7.15761 5.19762 6.84998C5.3558 6.4427 5.54526 6.1518 5.85071 5.84634C6.15616 5.54089 6.44707 5.3518 6.85435 5.19325C7.16198 5.07325 7.62398 4.93143 8.47489 4.89234C9.27998 4.85598 9.59198 4.84507 11.2185 4.84325V4.84543ZM16.66 6.29452C16.0818 6.29452 15.6127 6.76307 15.6127 7.34143C15.6127 7.91961 16.0818 8.38871 16.66 8.38871C17.2382 8.38871 17.7073 7.91961 17.7073 7.34143C17.7073 6.76325 17.2382 6.29416 16.66 6.29416V6.29452ZM12.0014 7.51816C9.52635 7.51816 7.51962 9.52489 7.51962 12C7.51962 14.4751 9.52635 16.4809 12.0014 16.4809C14.4765 16.4809 16.4825 14.4751 16.4825 12C16.4825 9.52489 14.4763 7.51816 12.0013 7.51816H12.0014ZM12.0014 9.09089C13.608 9.09089 14.9105 10.3933 14.9105 12C14.9105 13.6065 13.608 14.9091 12.0014 14.9091C10.3947 14.9091 9.09235 13.6065 9.09235 12C9.09235 10.3933 10.3947 9.09089 12.0014 9.09089Z" fill="white"/>
<defs>
<radialGradient id="paint0_radial_1356_82523" cx="0" cy="0" r="1" gradientUnits="userSpaceOnUse" gradientTransform="translate(6.46126 25.6366) rotate(-90) scale(23.4234 21.7915)">
<stop stop-color="#FFDD55"/>
<stop offset="0.1" stop-color="#FFDD55"/>
<stop offset="0.5" stop-color="#FF543E"/>
<stop offset="1" stop-color="#C837AB"/>
</radialGradient>
<radialGradient id="paint1_radial_1356_82523" cx="0" cy="0" r="1" gradientUnits="userSpaceOnUse" gradientTransform="translate(-3.77832 1.88446) rotate(78.6776) scale(10.4705 43.1706)">
<stop stop-color="#3771C8"/>
<stop offset="0.128" stop-color="#3771C8"/>
<stop offset="1" stop-color="#6600FF" stop-opacity="0"/>
</radialGradient>
</defs>
</svg>
