<svg width="64" height="64" viewBox="0 0 64 64" fill="none" xmlns="http://www.w3.org/2000/svg">
<path d="M39.3579 56.7594L33.8802 55.0248C33.5151 54.9335 33.6977 54.1118 33.9716 53.3815C34.2455 52.6511 34.9758 50.1862 35.1584 48.6342C35.3409 47.0822 34.9758 42.191 35.8887 40.9654C42.5532 32.0185 42.3706 22.7978 44.0139 16.4984C44.2911 15.436 44.8965 14.1552 45.2921 13.4857C45.8398 12.8467 46.2963 12.6641 46.8441 12.6641C47.3918 12.6641 48.3048 12.8467 50.1307 14.6725C52.3218 16.8636 53.326 22.8891 53.326 23.802C53.326 24.8975 52.7782 26.8147 52.9608 27.5451C53.2575 28.7319 55.3345 31.8359 55.8823 32.8402C56.1975 33.4181 56.2474 34.4835 55.6997 34.94C55.1519 35.3964 53.5999 37.2223 53.326 38.2266C53.0521 39.2308 53.4803 42.5174 51.5914 44.7998C49.4003 47.4473 43.3749 45.9866 42.8271 46.8996C42.2793 47.8125 41.6403 52.0121 39.3579 56.7594Z" fill="#F0F8FA" stroke="#4CB96F" stroke-width="0.730358"/>
<path d="M24.6381 56.7599L30.1156 55.0289C30.4808 54.9378 30.2981 54.1178 30.0243 53.389C29.7504 52.6601 29.0201 50.2003 28.8376 48.6515C28.655 47.1027 29.0201 42.2217 28.1072 40.9986C21.4429 32.0703 21.6254 22.8686 19.9822 16.5823C19.705 15.5221 19.0997 14.2439 18.7041 13.5758C18.1563 12.9381 17.6999 12.7559 17.1521 12.7559C16.6044 12.7559 15.6914 12.9381 13.8656 14.7602C11.6746 16.9467 10.6703 22.9597 10.6703 23.8708C10.6703 24.964 11.2181 26.8772 11.0355 27.6061C10.7388 28.7905 8.6619 31.8881 8.11414 32.8902C7.79891 33.467 7.74897 34.5301 8.29673 34.9856C8.84448 35.4412 10.3965 37.2633 10.6703 38.2654C10.9442 39.2676 10.5161 42.5474 12.4049 44.8251C14.5959 47.4671 20.6212 46.0094 21.169 46.9205C21.7167 47.8315 22.3557 52.0224 24.6381 56.7599Z" fill="#F0F8FA" stroke="#4CB96F" stroke-width="0.730358"/>
<path d="M30.249 54.934H33.7483C33.5732 54.6828 33.7396 53.9997 33.9712 53.3819C34.2451 52.6516 34.9754 50.1866 35.158 48.6346C35.2135 48.1626 35.2184 47.3818 35.2239 46.4891C35.2366 44.4466 35.253 41.8187 35.8883 40.9659C40.8759 34.2702 42.0286 27.421 42.9817 21.7579C43.3022 19.8539 43.6001 18.0839 44.0135 16.4989C44.2907 15.4365 44.8961 14.1557 45.2917 13.4862C45.3342 13.4365 45.3762 13.3897 45.4177 13.3454C43.0944 9.01031 37.9844 6 32.0541 6C26.0624 6 20.908 9.07297 18.6191 13.4805C18.647 13.5111 18.675 13.5428 18.7033 13.5758C19.0989 14.2439 19.7043 15.522 19.9814 16.5822C20.3949 18.164 20.6928 19.9302 21.0132 21.8303C21.9663 27.4818 23.119 34.3167 28.1065 40.9986C28.7418 41.8497 28.7581 44.4721 28.7709 46.5104C28.7764 47.4012 28.7813 48.1804 28.8368 48.6514C29.0194 50.2002 29.7497 52.6601 30.0235 53.3889C30.254 54.0023 30.4199 54.6803 30.249 54.934Z" fill="#4CB96F"/>
</svg>
