<svg width="190" height="40" viewBox="0 0 190 40" fill="none" xmlns="http://www.w3.org/2000/svg">
<path fill-rule="evenodd" clip-rule="evenodd" d="M30.5069 11.7451L21.7404 0.599881C21.1113 -0.199962 19.8887 -0.19996 19.2596 0.599883L10.4931 11.7451C9.84943 12.5634 9.5 13.5704 9.5 14.6071V25.3929C9.5 26.4296 9.84943 27.4366 10.4931 28.2549L19.2596 39.4001C19.8887 40.2 21.1113 40.2 21.7404 39.4001L30.5069 28.2549C31.1506 27.4366 31.5 26.4296 31.5 25.3929L31.5 14.6071C31.5 13.5704 31.1506 12.5634 30.5069 11.7451ZM20.5 16C18.2909 16 16.5 17.7909 16.5 20C16.5 22.2091 18.2909 24 20.5 24C22.7091 24 24.5 22.2091 24.5 20C24.5 17.7909 22.7091 16 20.5 16Z" fill="url(#paint0_linear_3509_451261)"/>
<g filter="url(#filter0_f_3509_451261)">
<path d="M14.5 20C14.5 16.6863 17.1863 14 20.5 14C23.8137 14 26.5 16.6863 26.5 20C26.5 23.3137 23.8137 26 20.5 26C17.1863 26 14.5 23.3137 14.5 20Z" fill="white"/>
</g>
<path d="M175.904 16.7998C171.936 16.7998 168.704 19.9678 168.704 24.0318C168.704 28.0958 171.552 31.3598 175.904 31.3598C179.072 31.3598 181.792 29.2478 182.752 26.3358H178.208C177.728 26.9438 177.088 27.4878 175.904 27.4878C174.272 27.4878 173.152 26.4638 172.896 25.0238H183.008C183.424 20.3518 180.416 16.7998 175.904 16.7998ZM173.056 22.4958C173.472 21.5358 174.496 20.6398 175.904 20.6398C177.44 20.6398 178.24 21.6638 178.656 22.4958H173.056Z" fill="white"/>
<path d="M161.391 27.8078C160.655 27.8078 159.855 27.3918 159.695 26.7518H155.535C155.535 28.3518 156.687 31.3598 161.071 31.3598C164.079 31.3598 166.703 29.7278 166.703 26.7198C166.703 24.6718 165.615 23.3918 163.215 22.5598C160.847 21.7598 159.759 21.4398 159.759 20.7998C159.759 20.4158 160.111 20.1278 160.751 20.1278C161.679 20.1278 162.479 20.6718 162.479 21.5038H166.639C166.319 18.9118 164.623 16.7998 160.687 16.7998C158.159 16.7998 155.439 18.2718 155.439 21.1198C155.439 23.6798 158.095 25.1518 160.143 25.6958C161.679 26.1118 162.447 26.4318 162.447 27.0398C162.447 27.5838 161.967 27.8078 161.391 27.8078Z" fill="white"/>
<path d="M140.352 25.3602C140.352 29.1682 142.464 31.2802 145.696 31.2802C147.744 31.2802 148.8 30.2242 149.28 29.5202V30.8002H153.44V17.2002H149.28V24.8162C149.28 26.3522 148.352 27.3442 146.88 27.3442C145.376 27.3442 144.512 26.3522 144.512 24.8162V17.2002H140.352V25.3602Z" fill="white"/>
<path d="M131.152 16.7998C127.184 16.7998 123.952 19.9678 123.952 24.0318C123.952 28.0958 127.184 31.3598 131.152 31.3598C135.12 31.3598 138.352 28.0958 138.352 24.0318C138.352 19.9678 135.12 16.7998 131.152 16.7998ZM131.152 27.0078C129.552 27.0078 128.272 25.7278 128.272 24.0318C128.272 22.3998 129.552 21.1198 131.152 21.1198C132.752 21.1198 134.032 22.3998 134.032 24.0318C134.032 25.7278 132.752 27.0078 131.152 27.0078Z" fill="white"/>
<path d="M113.024 30.8V23.12C113.024 21.648 113.952 20.336 115.424 20.336C116.928 20.336 117.792 21.328 117.792 22.864V30.8H121.952V22.288C121.952 18.512 119.36 16.72 116.608 16.72C114.784 16.72 113.664 17.68 113.024 18.384V10H108.864V30.8H113.024Z" fill="white"/>
<path d="M102.824 21.36V24.464C102.824 25.872 103.368 26.64 104.584 26.64H105.864V30.8H103.272C100.52 30.8 98.664 28.976 98.664 26.384V21.36H96.104V17.2C98.632 17.2 99.688 15.76 100.168 13.04H104.328C104.072 14.8 103.72 15.92 102.632 17.2H105.864V21.36H102.824Z" fill="white"/>
<path d="M85.1761 30.8V23.12C85.1761 21.648 86.1041 20.336 87.5761 20.336C89.0801 20.336 89.9441 21.328 89.9441 22.864V30.8H94.1041V22.288C94.1041 18.512 91.5121 16.72 88.7601 16.72C86.9361 16.72 85.8161 17.68 85.1761 18.384V10H81.0161V30.8H85.1761Z" fill="white"/>
<path d="M69.732 17C65.732 17 62.5 20.168 62.5 23.976C62.5 27.88 65.732 31.112 69.7 31.112C73.668 31.112 76.9 27.88 76.9 23.976C76.9 22.984 76.676 22.024 76.26 21.16H78.98V17H69.732ZM69.7 26.792C68.1 26.792 66.82 25.512 66.82 23.976C66.82 22.6 68.1 21.32 69.7 21.32C71.3 21.32 72.58 22.6 72.58 23.976C72.58 25.512 71.3 26.792 69.7 26.792ZM69.732 33.992C68.228 33.992 66.98 32.84 66.852 31.272H62.532C62.66 35.208 65.86 37.992 69.732 37.992C73.604 37.992 76.804 35.208 76.932 31.272H72.612C72.484 32.84 71.236 33.992 69.732 33.992Z" fill="white"/>
<path d="M54.16 26.32H46.48V10H42V30.8H54.16V26.32Z" fill="white"/>
<path d="M57.976 15.664C59.416 15.664 60.536 14.512 60.536 13.072C60.536 11.696 59.352 10.48 57.976 10.48C56.44 10.48 55.352 11.696 55.352 13.072C55.352 14.512 56.44 15.664 57.976 15.664ZM60.44 17.2H55V21.36H56.28V30.8H60.44V17.2Z" fill="white"/>
<defs>
<filter id="filter0_f_3509_451261" x="10.1229" y="9.6229" width="20.7542" height="20.7542" filterUnits="userSpaceOnUse" color-interpolation-filters="sRGB">
<feFlood flood-opacity="0" result="BackgroundImageFix"/>
<feBlend mode="normal" in="SourceGraphic" in2="BackgroundImageFix" result="shape"/>
<feGaussianBlur stdDeviation="2.18855" result="effect1_foregroundBlur_3509_451261"/>
</filter>
<linearGradient id="paint0_linear_3509_451261" x1="31.7106" y1="40" x2="-11.528" y2="31.0771" gradientUnits="userSpaceOnUse">
<stop stop-color="#5E02F3"/>
<stop offset="1" stop-color="#A13BF7"/>
</linearGradient>
</defs>
</svg>
