<svg width="189" height="40" viewBox="0 0 189 40" fill="none" xmlns="http://www.w3.org/2000/svg">
<path fill-rule="evenodd" clip-rule="evenodd" d="M30.0069 11.7451L21.2404 0.599881C20.6113 -0.199962 19.3887 -0.19996 18.7596 0.599883L9.99305 11.7451C9.34943 12.5634 9 13.5704 9 14.6071V25.3929C9 26.4296 9.34943 27.4366 9.99306 28.2549L18.7596 39.4001C19.3887 40.2 20.6113 40.2 21.2404 39.4001L30.0069 28.2549C30.6506 27.4366 31 26.4296 31 25.3929L31 14.6071C31 13.5704 30.6506 12.5634 30.0069 11.7451ZM20 16C17.7909 16 16 17.7909 16 20C16 22.2091 17.7909 24 20 24C22.2091 24 24 22.2091 24 20C24 17.7909 22.2091 16 20 16Z" fill="url(#paint0_linear_86_67108)"/>
<g filter="url(#filter0_f_86_67108)">
<path d="M14 20C14 16.6863 16.6863 14 20 14C23.3137 14 26 16.6863 26 20C26 23.3137 23.3137 26 20 26C16.6863 26 14 23.3137 14 20Z" fill="white"/>
</g>
<path d="M175.404 16.7998C171.436 16.7998 168.204 19.9678 168.204 24.0318C168.204 28.0958 171.052 31.3598 175.404 31.3598C178.572 31.3598 181.292 29.2478 182.252 26.3358H177.708C177.228 26.9438 176.588 27.4878 175.404 27.4878C173.772 27.4878 172.652 26.4638 172.396 25.0238H182.508C182.924 20.3518 179.916 16.7998 175.404 16.7998ZM172.556 22.4958C172.972 21.5358 173.996 20.6398 175.404 20.6398C176.94 20.6398 177.74 21.6638 178.156 22.4958H172.556Z" fill="currentColor"/>
<path d="M160.891 27.8078C160.155 27.8078 159.355 27.3918 159.195 26.7518H155.035C155.035 28.3518 156.187 31.3598 160.571 31.3598C163.579 31.3598 166.203 29.7278 166.203 26.7198C166.203 24.6718 165.115 23.3918 162.715 22.5598C160.347 21.7598 159.259 21.4398 159.259 20.7998C159.259 20.4158 159.611 20.1278 160.251 20.1278C161.179 20.1278 161.979 20.6718 161.979 21.5038H166.139C165.819 18.9118 164.123 16.7998 160.187 16.7998C157.659 16.7998 154.939 18.2718 154.939 21.1198C154.939 23.6798 157.595 25.1518 159.643 25.6958C161.179 26.1118 161.947 26.4318 161.947 27.0398C161.947 27.5838 161.467 27.8078 160.891 27.8078Z" fill="currentColor"/>
<path d="M139.852 25.3602C139.852 29.1682 141.964 31.2802 145.196 31.2802C147.244 31.2802 148.3 30.2242 148.78 29.5202V30.8002H152.94V17.2002H148.78V24.8162C148.78 26.3522 147.852 27.3442 146.38 27.3442C144.876 27.3442 144.012 26.3522 144.012 24.8162V17.2002H139.852V25.3602Z" fill="currentColor"/>
<path d="M130.652 16.7998C126.684 16.7998 123.452 19.9678 123.452 24.0318C123.452 28.0958 126.684 31.3598 130.652 31.3598C134.62 31.3598 137.852 28.0958 137.852 24.0318C137.852 19.9678 134.62 16.7998 130.652 16.7998ZM130.652 27.0078C129.052 27.0078 127.772 25.7278 127.772 24.0318C127.772 22.3998 129.052 21.1198 130.652 21.1198C132.252 21.1198 133.532 22.3998 133.532 24.0318C133.532 25.7278 132.252 27.0078 130.652 27.0078Z" fill="currentColor"/>
<path d="M112.524 30.8V23.12C112.524 21.648 113.452 20.336 114.924 20.336C116.428 20.336 117.292 21.328 117.292 22.864V30.8H121.452V22.288C121.452 18.512 118.86 16.72 116.108 16.72C114.284 16.72 113.164 17.68 112.524 18.384V10H108.364V30.8H112.524Z" fill="currentColor"/>
<path d="M102.324 21.36V24.464C102.324 25.872 102.868 26.64 104.084 26.64H105.364V30.8H102.772C100.02 30.8 98.164 28.976 98.164 26.384V21.36H95.604V17.2C98.132 17.2 99.188 15.76 99.668 13.04H103.828C103.572 14.8 103.22 15.92 102.132 17.2H105.364V21.36H102.324Z" fill="currentColor"/>
<path d="M84.6761 30.8V23.12C84.6761 21.648 85.6041 20.336 87.0761 20.336C88.5801 20.336 89.4441 21.328 89.4441 22.864V30.8H93.6041V22.288C93.6041 18.512 91.0121 16.72 88.2601 16.72C86.4361 16.72 85.3161 17.68 84.6761 18.384V10H80.5161V30.8H84.6761Z" fill="currentColor"/>
<path d="M69.2681 17.2002C65.2681 17.2002 62.0361 20.3682 62.0361 24.1762C62.0361 28.0802 65.2681 31.3122 69.2361 31.3122C73.2041 31.3122 76.4361 28.0802 76.4361 24.1762C76.4361 23.1842 76.2121 22.2242 75.7961 21.3602H78.5161V17.2002H69.2681ZM69.2361 26.9922C67.6361 26.9922 66.3561 25.7122 66.3561 24.1762C66.3561 22.8002 67.6361 21.5202 69.2361 21.5202C70.8361 21.5202 72.1161 22.8002 72.1161 24.1762C72.1161 25.7122 70.8361 26.9922 69.2361 26.9922ZM69.2681 34.1922C67.7641 34.1922 66.5161 33.0402 66.3881 31.4722H62.0681C62.1961 35.4082 65.3961 38.1922 69.2681 38.1922C73.1401 38.1922 76.3401 35.4082 76.4681 31.4722H72.1481C72.0201 33.0402 70.7721 34.1922 69.2681 34.1922Z" fill="currentColor"/>
<path d="M53.66 26.32H45.98V10H41.5V30.8H53.66V26.32Z" fill="currentColor"/>
<path d="M57.476 15.6645C58.916 15.6645 60.036 14.5125 60.036 13.0725C60.036 11.6965 58.852 10.4805 57.476 10.4805C55.94 10.4805 54.852 11.6965 54.852 13.0725C54.852 14.5125 55.94 15.6645 57.476 15.6645ZM59.94 17.2005H54.5V21.3605H55.78V30.8005H59.94V17.2005Z" fill="currentColor"/>
<defs>
<filter id="filter0_f_86_67108" x="9.6229" y="9.6229" width="20.7542" height="20.7542" filterUnits="userSpaceOnUse" color-interpolation-filters="sRGB">
<feFlood flood-opacity="0" result="BackgroundImageFix"/>
<feBlend mode="normal" in="SourceGraphic" in2="BackgroundImageFix" result="shape"/>
<feGaussianBlur stdDeviation="2.18855" result="effect1_foregroundBlur_86_67108"/>
</filter>
<linearGradient id="paint0_linear_86_67108" x1="31.2106" y1="40" x2="-12.028" y2="31.0771" gradientUnits="userSpaceOnUse">
<stop stop-color="#5E02F3"/>
<stop offset="1" stop-color="#A13BF7"/>
</linearGradient>
</defs>
</svg>
