<svg width="295" height="63" viewBox="0 0 295 63" fill="none" xmlns="http://www.w3.org/2000/svg">
<path d="M273.083 26.2219C266.933 26.2219 261.924 31.1667 261.924 37.51C261.924 43.8532 266.338 48.9479 273.083 48.9479C277.992 48.9479 282.208 45.6513 283.696 41.1062H276.653C275.909 42.0552 274.918 42.9043 273.083 42.9043C270.553 42.9043 268.817 41.3059 268.421 39.0583H284.093C284.737 31.7661 280.075 26.2219 273.083 26.2219ZM268.669 35.1125C269.313 33.6141 270.9 32.2156 273.083 32.2156C275.463 32.2156 276.703 33.8139 277.348 35.1125H268.669Z" fill="currentColor"/>
<path d="M250.591 43.4037C249.451 43.4037 248.211 42.7544 247.963 41.7555H241.516C241.516 44.2528 243.301 48.9479 250.096 48.9479C254.757 48.9479 258.824 46.4006 258.824 41.7055C258.824 38.5089 257.138 36.511 253.418 35.2124C249.748 33.9637 248.062 33.4643 248.062 32.4653C248.062 31.8659 248.608 31.4164 249.6 31.4164C251.038 31.4164 252.278 32.2655 252.278 33.5641H258.725C258.229 29.5184 255.601 26.2219 249.5 26.2219C245.582 26.2219 241.367 28.5195 241.367 32.9648C241.367 36.9605 245.483 39.2581 248.657 40.1072C251.038 40.7565 252.228 41.256 252.228 42.205C252.228 43.0541 251.484 43.4037 250.591 43.4037Z" fill="currentColor"/>
<path d="M217.983 39.5834C217.983 45.5271 221.256 48.8236 226.265 48.8236C229.439 48.8236 231.076 47.1754 231.82 46.0766V48.0744H238.267V26.8469H231.82V38.7343C231.82 41.1318 230.382 42.6802 228.1 42.6802C225.769 42.6802 224.43 41.1318 224.43 38.7343V26.8469H217.983V39.5834Z" fill="currentColor"/>
<path d="M203.725 26.2219C197.575 26.2219 192.566 31.1667 192.566 37.51C192.566 43.8532 197.575 48.9479 203.725 48.9479C209.875 48.9479 214.884 43.8532 214.884 37.51C214.884 31.1667 209.875 26.2219 203.725 26.2219ZM203.725 42.155C201.245 42.155 199.262 40.1572 199.262 37.51C199.262 34.9627 201.245 32.9648 203.725 32.9648C206.205 32.9648 208.189 34.9627 208.189 37.51C208.189 40.1572 206.205 42.155 203.725 42.155Z" fill="currentColor"/>
<path d="M175.63 48.074V36.0867C175.63 33.7891 177.068 31.7413 179.349 31.7413C181.68 31.7413 183.019 33.2897 183.019 35.6871V48.074H189.467V34.7881C189.467 28.8943 185.45 26.0973 181.184 26.0973C178.358 26.0973 176.622 27.5957 175.63 28.6945V15.6084H169.183V48.074H175.63Z" fill="currentColor"/>
<path d="M159.822 33.3398V38.1846C159.822 40.3823 160.665 41.581 162.55 41.581H164.534V48.0742H160.516C156.251 48.0742 153.375 45.2272 153.375 41.1815V33.3398H149.407V26.8466C153.325 26.8466 154.962 24.599 155.706 20.3535H162.153C161.756 23.1006 161.211 24.8488 159.524 26.8466H164.534V33.3398H159.822Z" fill="currentColor"/>
<path d="M132.471 48.074V36.0867C132.471 33.7891 133.909 31.7413 136.191 31.7413C138.522 31.7413 139.861 33.2897 139.861 35.6871V48.074H146.308V34.7881C146.308 28.8943 142.291 26.0973 138.026 26.0973C135.199 26.0973 133.463 27.5957 132.471 28.6945V15.6084H126.024V48.074H132.471Z" fill="currentColor"/>
<path d="M108.591 26.8469C102.392 26.8469 97.3831 31.7917 97.3831 37.7354C97.3831 43.8289 102.392 48.8736 108.542 48.8736C114.692 48.8736 119.701 43.8289 119.701 37.7354C119.701 36.187 119.353 34.6886 118.709 33.34H122.924V26.8469H108.591ZM108.542 42.1307C106.062 42.1307 104.078 40.1329 104.078 37.7354C104.078 35.5877 106.062 33.5898 108.542 33.5898C111.022 33.5898 113.005 35.5877 113.005 37.7354C113.005 40.1329 111.022 42.1307 108.542 42.1307ZM108.591 53.3688C106.26 53.3688 104.326 51.5707 104.128 49.1233H97.4327C97.631 55.2668 102.59 59.6122 108.591 59.6122C114.592 59.6122 119.552 55.2668 119.75 49.1233H113.055C112.857 51.5707 110.922 53.3688 108.591 53.3688Z" fill="currentColor"/>
<path d="M84.4015 41.0814H72.4989V15.6084H65.5557V48.074H84.4015V41.0814Z" fill="currentColor"/>
<path d="M90.3156 24.4491C92.5474 24.4491 94.2832 22.651 94.2832 20.4034C94.2832 18.2557 92.4482 16.3577 90.3156 16.3577C87.9351 16.3577 86.2489 18.2557 86.2489 20.4034C86.2489 22.651 87.9351 24.4491 90.3156 24.4491ZM94.1344 26.8466H85.7034V33.3397H87.6871V48.0741H94.1344V26.8466Z" fill="currentColor"/>
<path fill-rule="evenodd" clip-rule="evenodd" d="M46.8362 18.3323L33.153 0.936322C32.171 -0.312109 30.2628 -0.312106 29.2808 0.936325L15.5976 18.3323C14.593 19.6095 14.0476 21.1814 14.0476 22.7994V39.6345C14.0476 41.2525 14.593 42.8243 15.5976 44.1015L29.2808 61.4975C30.2628 62.746 32.171 62.746 33.153 61.4975L46.8362 44.1015C47.8408 42.8243 48.3862 41.2525 48.3862 39.6345L48.3862 22.7994C48.3862 21.1814 47.8408 19.6095 46.8362 18.3323ZM31.2169 24.9735C27.7688 24.9735 24.9735 27.7688 24.9735 31.2169C24.9735 34.6651 27.7688 37.4603 31.2169 37.4603C34.665 37.4603 37.4603 34.6651 37.4603 31.2169C37.4603 27.7688 34.665 24.9735 31.2169 24.9735Z" fill="currentColor"/>
</svg>
