<svg width="175" height="119" viewBox="0 0 175 119" fill="none" xmlns="http://www.w3.org/2000/svg">
<path d="M12.6667 78.5392C19.0833 78.5392 24.3333 73.2302 24.3333 66.7415C24.3333 60.2527 19.0833 54.9437 12.6667 54.9437C6.25 54.9437 1 60.2527 1 66.7415C1 73.2302 6.25 78.5392 12.6667 78.5392Z" stroke="white" stroke-width="1.5" stroke-linecap="round" stroke-linejoin="round"/>
<path d="M8 66.7416H17.3333" stroke="white" stroke-width="1.5" stroke-linecap="square" stroke-linejoin="round"/>
<path d="M12.6641 71.4605V62.0223" stroke="white" stroke-width="1.5" stroke-linecap="square" stroke-linejoin="round"/>
<path d="M78.658 53.6477C76.5262 53.7144 73.263 54.056 70.5409 54.5058C66.1955 55.2306 60.8087 56.7636 56.9716 58.3714C55.3727 59.0463 52.0685 60.7041 50.7813 61.4873C48.9939 62.562 46.8704 64.0865 45.2224 65.4778C43.8859 66.5942 41.1392 69.4184 40.1472 70.6847C37.2119 74.417 35.5147 78.2993 34.8178 82.8314C34.6128 84.1644 34.6128 87.4468 34.8178 88.8714C35.6213 94.4532 38.1138 99.3352 42.5331 103.976C48.174 109.907 55.6433 113.865 66.1545 116.489C70.0244 117.455 73.5172 117.988 77.7151 118.247C79.937 118.388 84.7662 118.297 86.98 118.08C92.4733 117.53 97.2452 116.505 102.517 114.714C104.632 113.998 104.649 113.998 107.232 114.889C112.29 116.622 116.857 117.555 122.564 118.03C124.712 118.213 130.107 118.288 132.075 118.163C142.766 117.497 152.769 114.381 160.296 109.349C164.092 106.808 167.658 103.426 170.052 100.093C174.234 94.2533 175.628 87.3468 174.004 80.5237C173.349 77.7828 172.233 75.2418 170.52 72.6259C167.019 67.269 162.272 63.2201 155.745 60.0293C148.186 56.3387 140.766 54.2976 132.772 53.7144C130.902 53.5728 126.229 53.5561 124.45 53.6727C118.595 54.0726 112.684 55.2473 106.945 57.1385C105.78 57.5217 105.731 57.53 104.69 57.53L103.624 57.5383L101.943 56.9885C93.9246 54.3725 87.0292 53.3811 78.658 53.6477ZM126.376 63.0035V69.7517H123.966H121.555L120.096 68.352C119.292 67.5856 118.177 66.5192 117.612 65.9777C117.046 65.4445 116.57 64.9696 116.554 64.9197C116.496 64.7447 118.218 61.9788 119.063 60.9041C120.908 58.5631 122.769 57.2384 125.319 56.472C125.696 56.3553 126.089 56.2637 126.196 56.2637L126.376 56.2554V63.0035ZM83.9463 56.6053C86.2995 57.2218 88.3246 58.763 90.3744 61.4956C91.8174 63.4201 92.8587 65.4612 94.3099 69.2268L94.4821 69.6683H88.5378H82.5935V62.9952V56.322L82.9461 56.3803C83.1346 56.4137 83.5856 56.5136 83.9463 56.6053ZM129.721 56.6386C133.19 57.6466 136.322 60.9707 138.56 65.9944C138.945 66.8608 139.987 69.5767 139.987 69.71C139.987 69.735 137.338 69.7433 134.108 69.735L128.221 69.71L128.196 63.0202L128.18 56.3303L128.606 56.3887C128.844 56.422 129.344 56.5303 129.721 56.6386ZM80.8717 63.0868L80.8635 69.7517H75.0012H69.1307L69.1881 69.3934C69.4751 67.6689 70.4917 65.2446 71.7298 63.3451C73.2466 60.9957 75.485 58.7463 77.4363 57.58C78.4612 56.9718 79.9288 56.4386 80.6093 56.4303L80.8717 56.422V63.0868ZM135.387 57.3884C136.617 57.7799 138.298 58.4714 139.528 59.0962C144.045 61.3956 147.563 64.5031 150.49 68.7519L151.146 69.71L147.677 69.76C145.767 69.785 144.111 69.835 143.996 69.8683C143.881 69.9016 143.496 69.8933 143.151 69.8433C141.823 69.6517 141.553 69.3268 140.807 66.9941C140.634 66.4526 140.183 65.4029 139.79 64.6114C138.478 61.9621 137.158 60.046 135.477 58.3381C134.461 57.2967 134.272 57.0885 134.379 57.0885C134.411 57.0885 134.87 57.2218 135.387 57.3884ZM119.604 57.5633C119.481 57.7383 118.768 58.688 118.021 59.6711C117.275 60.6542 116.267 61.9955 115.783 62.6453C115.291 63.3034 114.873 63.8366 114.865 63.8366C114.848 63.8366 112.463 62.3703 111.339 61.6705L111.11 61.5289L111.38 61.3123C112.504 60.4459 115.103 58.9963 116.792 58.2881C117.735 57.8966 119.522 57.2717 119.727 57.2634C119.792 57.2551 119.751 57.3717 119.604 57.5633ZM73.6566 58.1465C71.0903 60.9041 69.1225 64.2782 67.6303 68.4603C67.2941 69.3851 67.1711 69.61 66.8842 69.735C66.7366 69.81 65.4329 69.835 62.2927 69.835H57.9062L58.2916 69.2685C59.0541 68.1688 59.5133 67.5356 59.874 67.0857C63.5882 62.4953 67.6549 59.6044 72.9187 57.8299C73.7058 57.5633 74.3699 57.3467 74.3781 57.3384C74.3945 57.3384 74.0665 57.705 73.6566 58.1465ZM90.1284 57.6383C92.5881 58.4131 95.0068 59.5878 97.196 61.0457C100.164 63.0368 102.788 65.6861 105.157 69.0935L105.543 69.6434L105.165 69.7017C104.96 69.7267 102.952 69.7517 100.705 69.7517H96.6138L96.3761 69.5184C96.2121 69.3601 95.9907 68.9019 95.63 67.9188C94.0721 63.745 92.3093 60.7791 89.8578 58.1965C89.4151 57.7216 89.0789 57.3384 89.1199 57.3384C89.1527 57.3384 89.6119 57.4717 90.1284 57.6383ZM68.3272 57.63C68.3272 57.655 67.6549 58.1215 66.835 58.6797C64.736 60.1043 63.334 61.1207 62.4239 61.8871C60.3987 63.595 58.2014 66.186 56.742 68.602C56.3566 69.2351 55.9877 69.6267 55.6597 69.7517C55.4465 69.835 45.3207 69.9266 44.7222 69.8516L44.2795 69.7933L45.0502 69.0852C50.2484 64.2948 55.9959 61.1374 63.7767 58.7963C64.3015 58.638 67.8681 57.6883 68.3108 57.5967C68.319 57.5883 68.3272 57.605 68.3272 57.63ZM96.6548 57.9549C105.559 60.1793 111.831 63.2701 117.521 68.2604C118.128 68.7936 118.759 69.3684 118.907 69.535L119.194 69.835L115.955 69.8266C114.184 69.8183 111.61 69.7933 110.249 69.76C107.904 69.71 107.765 69.7017 107.543 69.535C107.42 69.4351 107.01 68.9019 106.641 68.3354C104.452 65.0196 101.935 62.3787 98.8194 60.121C97.9011 59.4545 96.3187 58.4464 95.671 58.1049C95.343 57.9382 94.9576 57.5883 95.1052 57.5883C95.1462 57.5883 95.8431 57.755 96.6548 57.9549ZM113.75 57.6633C113.75 57.7383 112.249 58.763 110.569 59.8377L109.478 60.5375L108.888 60.3376C108.142 60.096 106.912 59.4961 107.002 59.4212C107.035 59.3878 108.215 59.0463 109.609 58.6714C111.011 58.2881 112.463 57.8966 112.848 57.7883C113.627 57.5717 113.75 57.555 113.75 57.6633ZM142.151 57.8466C148.415 58.9213 158.336 63.72 162.821 67.8355C163.477 68.427 164.502 69.5684 164.502 69.6933C164.502 69.7267 162.058 69.7433 159.074 69.735L153.638 69.71L153.294 69.5267C153.023 69.3768 152.81 69.1268 152.285 68.3187C149.596 64.2365 146.005 60.8041 141.963 58.4631C141.528 58.2132 141.085 57.9299 140.971 57.8383L140.766 57.6716H140.962C141.069 57.6716 141.602 57.7466 142.151 57.8466ZM165.986 71.4512C166.511 71.5928 166.789 71.8761 167.798 73.2924C169.962 76.3249 171.282 79.5823 171.84 83.2563C171.914 83.7395 171.963 84.3227 171.946 84.5476L171.922 84.9558H170.225C169.282 84.9558 166.01 84.9475 162.944 84.9308L157.369 84.9142V84.3893C157.369 84.1061 157.311 83.3646 157.246 82.7314C156.868 79.0824 155.885 75.4084 154.425 72.226C154.237 71.8178 154.089 71.4679 154.089 71.4595C154.089 71.3845 155.352 71.3679 160.287 71.3512C164.535 71.3429 165.633 71.3596 165.986 71.4512ZM140.003 71.5095C140.544 71.6595 140.716 71.8844 140.938 72.7092C141.881 76.2415 142.389 79.7489 142.569 83.9311L142.61 84.9975H135.395H128.18L128.196 78.2743L128.221 71.5512L128.426 71.4928C128.77 71.3929 139.659 71.4095 140.003 71.5095ZM151.949 71.6261C152.343 71.8594 152.457 72.051 153.056 73.3757C154.515 76.6414 155.401 80.1571 155.639 83.6228C155.688 84.2893 155.68 84.7642 155.639 84.8475C155.565 84.9891 155.212 84.9975 150.071 84.9975H144.595L144.545 84.7642C144.488 84.4643 143.881 80.0988 143.266 75.5001C142.996 73.459 142.75 71.7095 142.733 71.6012L142.684 71.4095L147.177 71.4345C151.498 71.4595 151.678 71.4679 151.949 71.6261ZM54.8234 71.6345C54.9218 71.6678 54.889 71.8094 54.6184 72.4009C53.0442 75.8417 51.9702 80.2155 51.716 84.181C51.6668 84.9891 51.6504 85.0725 51.4864 85.1141C51.1666 85.1974 37.1873 85.1724 37.1299 85.0891C37.0561 84.9558 37.2447 83.2146 37.4743 82.04C37.7284 80.6903 38.4008 78.5909 38.9911 77.3329C39.5076 76.2249 40.9179 73.7756 41.4672 73.0341C42.0903 72.1843 42.7463 71.7928 43.7301 71.6678C44.3451 71.5928 54.643 71.5595 54.8234 71.6345ZM66.3266 71.8094C66.2856 72.026 64.9656 81.7234 64.6704 84.0144L64.5311 85.0641L63.7849 85.1224C63.375 85.1474 60.8989 85.1641 58.2834 85.1474L53.528 85.1224L53.5362 83.7478C53.5608 80.6987 54.1757 78.241 56.1025 73.5506C56.66 72.1843 56.8814 71.8011 57.2175 71.6678C57.3077 71.6261 59.4067 71.5928 61.8746 71.5928L66.3758 71.5845L66.3266 71.8094ZM74.788 71.6595L80.8717 71.6678V78.3743V85.0808H73.6894H66.5152L66.5644 83.8478C66.7366 79.5406 67.1793 76.2999 68.0976 72.7092C68.3928 71.5428 68.3682 71.5928 68.5568 71.6261C68.6306 71.6428 71.4346 71.6595 74.788 71.6595ZM116.406 76.8414C116.521 76.8997 116.652 77.0497 116.701 77.1913C116.8 77.4912 116.816 84.9641 116.718 85.0308C116.677 85.0558 116.234 85.0475 115.734 85.0225L114.807 84.9725L114.832 81.0236L114.857 77.0663L115.053 76.908C115.275 76.7247 116.07 76.6831 116.406 76.8414ZM120.711 76.8414C121.211 77.0163 121.211 77.0163 121.211 81.2485V85.0808H120.981C120.85 85.0808 120.407 85.0558 119.989 85.0225L119.227 84.9725L119.268 81.1319C119.284 79.0158 119.333 77.2246 119.366 77.1413C119.506 76.7997 120.17 76.6498 120.711 76.8414ZM92.293 77.0746C92.5717 77.2496 92.5799 77.2663 92.7931 78.3993C92.9981 79.5156 93.9082 84.9225 93.9082 85.0308C93.9082 85.0641 93.4982 85.0725 92.9899 85.0641L92.0716 85.0391L91.8994 84.106C91.6452 82.7231 91.5714 82.7314 91.3337 84.1644L91.1861 85.0808H90.2432H89.3003L89.3495 84.8475C89.3741 84.7225 89.5791 83.4229 89.8086 81.9566C90.3416 78.5243 90.522 77.5412 90.6286 77.3246C90.6777 77.2329 90.8417 77.083 90.9811 76.9913C91.3091 76.7831 91.883 76.8164 92.293 77.0746ZM103.591 76.9913C103.788 77.1496 103.788 77.158 103.845 79.6823C103.878 81.0652 103.927 82.2816 103.944 82.3732C103.96 82.4648 103.985 82.6731 103.993 82.8314C103.993 83.0397 104.018 83.0897 104.067 82.998C104.108 82.9314 104.608 81.6317 105.174 80.1238C105.748 78.6076 106.248 77.2913 106.289 77.1829C106.33 77.083 106.469 76.958 106.592 76.908C106.912 76.7831 107.838 76.8497 107.937 77.008C108.109 77.2913 107.994 77.7994 107.363 79.4823C105.215 85.1974 105.346 84.8892 104.895 85.0808C104.723 85.1558 104.419 85.1724 103.927 85.1391C103.534 85.1058 102.911 85.0808 102.534 85.0808H101.853L101.878 81.1152L101.902 77.1496L102.099 76.9913C102.37 76.7664 103.321 76.7664 103.591 76.9913ZM171.963 86.8886C171.963 87.0219 171.905 87.6051 171.84 88.2049C171.455 91.4957 170.2 94.8614 168.265 97.7773C167.347 99.1603 166.781 99.8517 166.388 100.077L166.019 100.285H160.14C156.909 100.285 154.237 100.26 154.204 100.227C154.171 100.193 154.302 99.8184 154.491 99.4019C156.098 95.8945 157.147 91.6373 157.336 87.8384C157.369 87.2302 157.434 86.7637 157.483 86.7303C157.533 86.697 160.812 86.672 164.764 86.6637H171.963V86.8886ZM121.022 87.0136C121.154 87.2635 121.17 87.5718 121.17 90.3293C121.17 93.7534 121.137 93.9783 120.571 94.5532C120.006 95.128 119.727 95.203 118.013 95.203C116.546 95.203 116.48 95.1947 116.037 94.9864C115.554 94.7531 115.25 94.4282 115.004 93.8617C114.873 93.5701 114.857 93.1869 114.832 90.2544C114.816 87.8384 114.832 86.9553 114.898 86.9136C114.955 86.8803 115.152 86.8553 115.332 86.8636C115.521 86.872 115.923 86.8886 116.234 86.897L116.783 86.9136V89.9295C116.783 92.7787 116.792 92.9703 116.947 93.2202C117.161 93.5785 117.505 93.7451 118.03 93.7451C118.579 93.7451 118.956 93.5201 119.137 93.0953C119.251 92.8287 119.268 92.3871 119.26 89.8961L119.251 86.9969L119.637 86.8803C119.85 86.8136 120.219 86.7553 120.448 86.7553C120.85 86.747 120.891 86.7637 121.022 87.0136ZM155.598 86.797C155.729 86.847 155.729 86.8803 155.557 88.9131C155.327 91.6373 154.663 94.4449 153.54 97.3607C153.023 98.727 152.712 99.3019 152.318 99.6518C151.629 100.268 151.121 100.327 146.497 100.327C143.111 100.327 142.774 100.318 142.774 100.193C142.774 100.118 142.922 98.9436 143.102 97.5857C144.234 89.1797 144.504 87.1885 144.537 87.0219C144.562 86.9219 144.66 86.8303 144.767 86.8053C145.045 86.747 155.45 86.7387 155.598 86.797ZM105.469 86.9553C105.592 87.0219 105.772 87.1969 105.862 87.3468C106.198 87.905 108.437 94.4949 108.404 94.8114C108.388 94.9947 108.306 95.0614 107.961 95.1863C107.617 95.3113 107.478 95.328 107.215 95.253C106.592 95.078 106.559 95.0031 105.264 91.0125C104.411 88.3882 104.034 87.3302 103.952 87.3302C103.845 87.3302 103.829 87.8134 103.829 90.8459C103.829 93.0286 103.796 94.4865 103.739 94.6782C103.681 94.8948 103.583 95.0364 103.419 95.1197C103.14 95.2697 102.607 95.2863 102.329 95.153C101.902 94.9531 101.902 95.0031 101.878 90.7626L101.853 86.8303H103.542C104.87 86.8303 105.28 86.8553 105.469 86.9553ZM142.438 89.9295C141.93 94.9947 141.807 95.8445 141.208 98.2855C140.856 99.6934 140.692 100.068 140.356 100.227C140.167 100.318 137.593 100.343 129.721 100.327H128.262V93.5785V86.8303H135.502H142.742L142.438 89.9295ZM90.9155 87.1802C90.8581 87.5384 90.0874 93.2285 90.0136 93.87C89.8824 94.9781 89.6037 95.2197 88.5132 95.1697C88.136 95.153 87.8409 94.8364 87.8409 94.4449C87.8409 94.17 88.9478 87.2635 89.0297 87.0136C89.0543 86.9386 89.3331 86.9136 90.0136 86.9136H90.9647L90.9155 87.1802ZM94.2689 87.1386C94.4493 88.03 95.4004 93.8201 95.4414 94.2949C95.4824 94.8281 95.4742 94.9031 95.3102 95.0697C95.1708 95.2113 95.0396 95.2447 94.6051 95.2447C93.982 95.2447 93.654 95.103 93.5146 94.7781C93.4244 94.5948 92.5881 89.063 92.3913 87.3885L92.3339 86.9136H93.2768H94.2197L94.2689 87.1386ZM51.6832 87.0719C51.6832 87.4051 51.8718 89.4796 51.9784 90.246C52.3965 93.3868 53.3886 96.8109 54.7004 99.6601L55.0284 100.368L49.5186 100.393C45.9111 100.41 43.8203 100.385 43.4432 100.327C42.8118 100.227 42.3527 99.9934 41.9509 99.5601C41.6968 99.2935 40.5325 97.5357 39.9258 96.5193C39.4584 95.7279 38.6139 93.8867 38.286 92.9286C37.7039 91.2458 37.1709 88.6131 37.1709 87.4301V86.9969H44.4271C48.42 86.9969 51.6832 87.0302 51.6832 87.0719ZM64.5557 87.0719C64.5557 87.1136 64.9574 90.1044 65.4575 93.7201C65.9495 97.3274 66.3594 100.335 66.3594 100.385C66.3594 100.468 65.4493 100.493 62.0795 100.493C59.7182 100.493 57.6439 100.452 57.4717 100.41C57.0208 100.31 56.7912 100.11 56.4386 99.5102C55.0284 97.1441 53.487 91.0042 53.487 87.7634V86.9969H59.0213C62.3419 86.9969 64.5557 87.0302 64.5557 87.0719ZM80.8717 93.6951V100.385L75.9769 100.418C73.2794 100.443 70.5491 100.435 69.9096 100.41C68.3928 100.352 68.4502 100.41 68.0074 98.6604C67.1711 95.353 66.6792 91.8956 66.5562 88.5048L66.4988 86.9969H73.6812H80.8717V93.6951ZM151.137 102.068C151.137 102.201 150.334 103.384 149.481 104.492C145.71 109.399 140.987 112.64 135.084 114.356L134.649 114.481L135.592 113.465C136.994 111.948 137.855 110.799 138.88 109.074C139.88 107.4 141.126 104.625 141.577 103.076C141.733 102.534 141.823 102.409 142.2 102.168C142.487 101.993 142.537 101.993 146.816 101.993C149.194 101.993 151.137 102.026 151.137 102.068ZM164.772 102.043C164.822 102.093 164.075 102.834 163.149 103.634C161.288 105.25 158.557 107.191 156.385 108.449C152.49 110.699 147.866 112.515 142.733 113.815C141.085 114.231 140.823 114.281 140.93 114.173C140.979 114.131 141.495 113.765 142.077 113.365C145.685 110.882 146.767 110.024 148.473 108.283C149.76 106.966 151.014 105.392 152.17 103.642C152.646 102.926 153.122 102.284 153.228 102.209C153.359 102.126 153.679 102.076 154.228 102.051C155.737 102.001 164.723 101.993 164.772 102.043ZM87.5375 102.293C87.6769 102.368 88.6608 103.259 89.7185 104.276C90.7679 105.292 91.8092 106.275 92.0306 106.475C92.252 106.675 92.4323 106.883 92.4323 106.941C92.4323 107.108 91.8994 108.174 91.4075 108.999C89.9398 111.449 87.8491 113.556 85.7911 114.648C84.9794 115.081 83.9217 115.431 83.192 115.514L82.7575 115.564V108.816V102.076L85.0122 102.118C86.898 102.151 87.3161 102.184 87.5375 102.293ZM101.123 102.251C101.599 102.409 101.837 102.634 102.32 103.392C105.026 107.625 108.773 111.174 113.299 113.781C113.668 113.998 113.938 114.239 113.881 114.306C113.832 114.348 110.495 113.498 109.355 113.156C106.002 112.14 103.649 111.224 100.918 109.874C97.9421 108.399 95.3594 106.717 92.9653 104.709C92.2766 104.126 90.235 102.234 90.2268 102.159C90.2186 102.134 92.6045 102.126 95.5234 102.134C99.2457 102.151 100.918 102.184 101.123 102.251ZM112.643 102.334C112.799 102.476 112.93 102.626 112.93 102.676C112.93 102.901 114.275 106.158 114.939 107.533C116.029 109.774 117.029 111.232 119.104 113.598C119.547 114.098 119.899 114.514 119.899 114.531C119.899 114.564 119.62 114.481 118.751 114.214C118.546 114.148 117.866 113.898 117.234 113.656C111.979 111.648 107.576 108.116 104.206 103.209C103.862 102.709 103.599 102.284 103.616 102.259C103.755 102.126 104.641 102.093 108.273 102.084L112.348 102.076L112.643 102.334ZM126.376 108.783V115.489H126.163C125.491 115.489 123.753 114.889 122.892 114.348C120.096 112.615 117.825 109.732 115.988 105.617C115.529 104.592 114.57 102.243 114.57 102.143C114.57 102.109 117.226 102.076 120.473 102.076H126.376V108.783ZM139.864 102.426C139.831 102.626 139.675 103.176 139.519 103.651C138.068 108.108 134.879 112.532 131.779 114.373C130.755 114.981 129.312 115.489 128.598 115.489H128.344V108.783V102.076H134.133H139.921L139.864 102.426ZM54.52 102.251C55.7745 102.484 56.6846 103.226 57.8407 104.967C60.038 108.266 62.8585 110.899 66.6464 113.19C68.1304 114.089 68.5076 114.331 68.4666 114.373C68.4502 114.398 67.6713 114.231 66.753 113.998C57.3815 111.682 50.6255 108.199 44.837 102.701L44.3451 102.234L47.6247 102.276C49.4285 102.293 51.2896 102.284 51.7652 102.251C53.1016 102.151 53.9871 102.151 54.52 102.251ZM66.1463 102.234C66.9334 102.284 66.958 102.293 67.1793 102.559C67.3105 102.718 67.5319 103.167 67.6713 103.559C69.3439 108.091 71.5166 111.632 74.0173 113.881C74.5093 114.331 74.5667 114.406 74.4847 114.556L74.3945 114.731L73.7632 114.514C67.9828 112.598 63.6374 109.599 59.9396 104.967C59.2509 104.101 57.9964 102.343 57.9964 102.234C57.9964 102.151 64.9246 102.151 66.1463 102.234ZM80.8717 108.908V115.564L80.4454 115.514C79.2975 115.381 77.6413 114.714 76.4606 113.89C76.1163 113.648 75.3292 112.948 74.7224 112.323C73.1236 110.699 72.0086 109.033 70.7787 106.45C70.2048 105.242 69.3275 103.043 69.1881 102.468L69.1307 102.243H75.0012H80.8717V108.908ZM96.0891 109.207C97.0976 109.832 97.9093 110.374 97.8847 110.407C97.8601 110.449 97.3763 110.79 96.7942 111.182C95.2282 112.248 93.7688 113.023 92.0224 113.74C91.0959 114.114 89.3905 114.681 89.3413 114.623C89.3003 114.589 94.1377 108.074 94.2115 108.074C94.2279 108.074 95.0724 108.583 96.0891 109.207ZM100.763 111.782C101.459 112.132 101.96 112.54 101.779 112.607C101.714 112.632 100.271 113.031 98.5816 113.49C96.8926 113.956 95.4578 114.348 95.4086 114.364C95.3512 114.381 95.302 114.356 95.302 114.298C95.302 114.198 96.7696 113.19 98.5816 112.04C99.6393 111.365 99.8934 111.332 100.763 111.782Z" fill="white"/>
<path d="M167.697 17.8381C163.778 17.8381 160.586 21.2019 160.586 25.5171C160.586 29.8322 163.399 33.2979 167.697 33.2979C170.826 33.2979 173.513 31.0554 174.461 27.9634H169.973C169.499 28.609 168.867 29.1866 167.697 29.1866C166.085 29.1866 164.979 28.0993 164.726 26.5704H174.714C175.125 21.6096 172.154 17.8381 167.697 17.8381ZM164.884 23.8861C165.295 22.8668 166.307 21.9154 167.697 21.9154C169.214 21.9154 170.004 23.0027 170.415 23.8861H164.884Z" fill="white"/>
<path d="M153.363 29.5264C152.636 29.5264 151.846 29.0847 151.688 28.4051H147.579C147.579 30.104 148.717 33.2979 153.047 33.2979C156.018 33.2979 158.61 31.5651 158.61 28.3712C158.61 26.1966 157.535 24.8375 155.165 23.9541C152.826 23.1047 151.751 22.7649 151.751 22.0853C151.751 21.6776 152.099 21.3718 152.731 21.3718C153.648 21.3718 154.438 21.9494 154.438 22.8328H158.546C158.23 20.0807 156.555 17.8381 152.668 17.8381C150.171 17.8381 147.484 19.4011 147.484 22.4251C147.484 25.1433 150.108 26.7063 152.13 27.2839C153.648 27.7256 154.406 28.0654 154.406 28.7109C154.406 29.2886 153.932 29.5264 153.363 29.5264Z" fill="white"/>
<path d="M132.586 26.9275C132.586 30.9708 134.672 33.2133 137.864 33.2133C139.887 33.2133 140.93 32.092 141.404 31.3445V32.7036H145.513V18.2632H141.404V26.3498C141.404 27.9808 140.487 29.0341 139.034 29.0341C137.548 29.0341 136.695 27.9808 136.695 26.3498V18.2632H132.586V26.9275Z" fill="white"/>
<path d="M123.498 17.8381C119.579 17.8381 116.387 21.2019 116.387 25.5171C116.387 29.8322 119.579 33.2979 123.498 33.2979C127.417 33.2979 130.609 29.8322 130.609 25.5171C130.609 21.2019 127.417 17.8381 123.498 17.8381ZM123.498 28.677C121.918 28.677 120.654 27.3179 120.654 25.5171C120.654 23.7842 121.918 22.4251 123.498 22.4251C125.078 22.4251 126.343 23.7842 126.343 25.5171C126.343 27.3179 125.078 28.677 123.498 28.677Z" fill="white"/>
<path d="M105.593 32.7033V24.5487C105.593 22.9857 106.51 21.5927 107.964 21.5927C109.449 21.5927 110.302 22.646 110.302 24.2769V32.7033H114.411V23.6653C114.411 19.6559 111.851 17.7532 109.133 17.7532C107.331 17.7532 106.225 18.7725 105.593 19.52V10.6179H101.484V32.7033H105.593Z" fill="white"/>
<path d="M95.5201 22.6801V25.9759C95.5201 27.4709 96.0574 28.2864 97.2584 28.2864H98.5226V32.7035H95.9625C93.2444 32.7035 91.4113 30.7668 91.4113 28.0146V22.6801H88.8828V18.263C91.3797 18.263 92.4227 16.734 92.8968 13.8459H97.0055C96.7527 15.7147 96.405 16.9039 95.3304 18.263H98.5226V22.6801H95.5201Z" fill="white"/>
<path d="M78.0853 32.7033V24.5487C78.0853 22.9857 79.0019 21.5927 80.4558 21.5927C81.9413 21.5927 82.7946 22.646 82.7946 24.2769V32.7033H86.9034V23.6653C86.9034 19.6559 84.3433 17.7532 81.6252 17.7532C79.8237 17.7532 78.7175 18.7725 78.0853 19.52V10.6179H73.9766V32.7033H78.0853Z" fill="white"/>
<path d="M62.8695 18.2632C58.9188 18.2632 55.7266 21.627 55.7266 25.6703C55.7266 29.8155 58.9188 33.2473 62.8379 33.2473C66.757 33.2473 69.9492 29.8155 69.9492 25.6703C69.9492 24.617 69.728 23.5977 69.3171 22.6803H72.0036V18.2632H62.8695ZM62.8379 28.6603C61.2576 28.6603 59.9934 27.3012 59.9934 25.6703C59.9934 24.2093 61.2576 22.8502 62.8379 22.8502C64.4182 22.8502 65.6824 24.2093 65.6824 25.6703C65.6824 27.3012 64.4182 28.6603 62.8379 28.6603ZM62.8695 36.3053C61.384 36.3053 60.1514 35.0821 60.025 33.4172H55.7582C55.8846 37.5964 59.0452 40.5524 62.8695 40.5524C66.6938 40.5524 69.8544 37.5964 69.9808 33.4172H65.714C65.5876 35.0821 64.355 36.3053 62.8695 36.3053Z" fill="white"/>
<path d="M47.4556 27.9465H39.8701V10.6179H35.4453V32.7033H47.4556V27.9465Z" fill="white"/>
<path d="M51.2206 16.6319C52.6429 16.6319 53.7491 15.4087 53.7491 13.8797C53.7491 12.4187 52.5797 11.1276 51.2206 11.1276C49.7035 11.1276 48.6289 12.4187 48.6289 13.8797C48.6289 15.4087 49.7035 16.6319 51.2206 16.6319ZM53.6543 18.2628H48.2812V22.6799H49.5455V32.7033H53.6543V18.2628Z" fill="white"/>
<path fill-rule="evenodd" clip-rule="evenodd" d="M23.513 12.4709L14.7928 0.636952C14.167 -0.212319 12.9509 -0.212317 12.3251 0.636954L3.60499 12.4709C2.96477 13.3398 2.61719 14.4091 2.61719 15.5097V26.9622C2.61719 28.0629 2.96477 29.1321 3.60499 30.001L12.3251 41.835C12.9509 42.6842 14.167 42.6842 14.7928 41.835L23.513 30.001C24.1532 29.1321 24.5008 28.0629 24.5008 26.9622L24.5008 15.5097C24.5008 14.4091 24.1532 13.3398 23.513 12.4709ZM13.559 16.9888C11.3615 16.9888 9.58015 18.8903 9.58015 21.236C9.58015 23.5816 11.3615 25.4831 13.559 25.4831C15.7564 25.4831 17.5378 23.5816 17.5378 21.236C17.5378 18.8903 15.7564 16.9888 13.559 16.9888Z" fill="white"/>
</svg>
