<svg width="147" height="29" viewBox="0 0 147 29" fill="none" xmlns="http://www.w3.org/2000/svg">
<path d="M12.4 16.52H4.72V0.199999H0.24V21H12.4V16.52ZM16.7248 5.864C18.1648 5.864 19.2848 4.712 19.2848 3.272C19.2848 1.896 18.1008 0.679998 16.7248 0.679998C15.1888 0.679998 14.1008 1.896 14.1008 3.272C14.1008 4.712 15.1888 5.864 16.7248 5.864ZM19.1888 7.4H13.7488V11.56H15.0288V21H19.1888V7.4ZM29.2873 7.368C25.2873 7.368 22.0553 10.536 22.0553 14.344C22.0553 18.248 25.2873 21.48 29.2552 21.48C33.2233 21.48 36.4553 18.248 36.4553 14.344C36.4553 13.352 36.2313 12.392 35.8153 11.528H38.5353V7.368H29.2873ZM29.2552 17.16C27.6553 17.16 26.3753 15.88 26.3753 14.344C26.3753 12.968 27.6553 11.688 29.2552 11.688C30.8553 11.688 32.1353 12.968 32.1353 14.344C32.1353 15.88 30.8553 17.16 29.2552 17.16ZM29.2873 24.36C27.7833 24.36 26.5353 23.208 26.4073 21.64H22.0872C22.2153 25.576 25.4153 28.36 29.2873 28.36C33.1593 28.36 36.3593 25.576 36.4873 21.64H32.1673C32.0393 23.208 30.7913 24.36 29.2873 24.36ZM45.74 21V13.32C45.74 11.848 46.668 10.536 48.14 10.536C49.644 10.536 50.508 11.528 50.508 13.064V21H54.668V12.488C54.668 8.712 52.076 6.92 49.324 6.92C47.5 6.92 46.38 7.88 45.74 8.584V0.199999H41.58V21H45.74ZM63.7143 11.56V14.664C63.7143 16.072 64.2583 16.84 65.4743 16.84H66.7543V21H64.1623C61.4103 21 59.5543 19.176 59.5543 16.584V11.56H56.9943V7.4C59.5223 7.4 60.5783 5.96 61.0583 3.24H65.2183C64.9623 5 64.6103 6.12 63.5223 7.4H66.7543V11.56H63.7143ZM74.0838 21V13.32C74.0838 11.848 75.0118 10.536 76.4838 10.536C77.9878 10.536 78.8518 11.528 78.8518 13.064V21H83.0118V12.488C83.0118 8.712 80.4198 6.92 77.6678 6.92C75.8438 6.92 74.7238 7.88 74.0838 8.584V0.199999H69.9238V21H74.0838ZM92.6302 6.92C88.6623 6.92 85.4303 10.088 85.4303 14.152C85.4303 18.216 88.6623 21.48 92.6302 21.48C96.5983 21.48 99.8303 18.216 99.8303 14.152C99.8303 10.088 96.5983 6.92 92.6302 6.92ZM92.6302 17.128C91.0303 17.128 89.7503 15.848 89.7503 14.152C89.7503 12.52 91.0303 11.24 92.6302 11.24C94.2303 11.24 95.5103 12.52 95.5103 14.152C95.5103 15.848 94.2303 17.128 92.6302 17.128ZM102.124 15.56C102.124 19.368 104.236 21.48 107.468 21.48C109.516 21.48 110.572 20.424 111.052 19.72V21H115.212V7.4H111.052V15.016C111.052 16.552 110.124 17.544 108.652 17.544C107.148 17.544 106.284 16.552 106.284 15.016V7.4H102.124V15.56ZM124.041 17.928C123.305 17.928 122.505 17.512 122.345 16.872H118.185C118.185 18.472 119.337 21.48 123.721 21.48C126.729 21.48 129.353 19.848 129.353 16.84C129.353 14.792 128.265 13.512 125.865 12.68C123.497 11.88 122.409 11.56 122.409 10.92C122.409 10.536 122.761 10.248 123.401 10.248C124.329 10.248 125.129 10.792 125.129 11.624H129.289C128.969 9.032 127.273 6.92 123.337 6.92C120.809 6.92 118.089 8.392 118.089 11.24C118.089 13.8 120.745 15.272 122.793 15.816C124.329 16.232 125.097 16.552 125.097 17.16C125.097 17.704 124.617 17.928 124.041 17.928ZM138.693 6.92C134.725 6.92 131.493 10.088 131.493 14.152C131.493 18.216 134.341 21.48 138.693 21.48C141.861 21.48 144.581 19.368 145.541 16.456H140.997C140.517 17.064 139.877 17.608 138.693 17.608C137.061 17.608 135.941 16.584 135.685 15.144H145.797C146.213 10.472 143.205 6.92 138.693 6.92ZM135.845 12.616C136.261 11.656 137.285 10.76 138.693 10.76C140.229 10.76 141.029 11.784 141.445 12.616H135.845Z" fill="currentColor"/>
</svg>
