<svg width="24" height="24" viewBox="0 0 24 24" fill="none" xmlns="http://www.w3.org/2000/svg">
<path fill-rule="evenodd" clip-rule="evenodd" d="M18.0046 7.04707L12.7446 0.359929C12.3672 -0.119977 11.6336 -0.119976 11.2561 0.35993L5.99622 7.04708C5.61005 7.53803 5.40039 8.14226 5.40039 8.76423V15.2358C5.40039 15.8577 5.61005 16.462 5.99622 16.9529L11.2561 23.6401C11.6336 24.12 12.3672 24.12 12.7446 23.6401L18.0046 16.9529C18.3907 16.462 18.6004 15.8577 18.6004 15.2358L18.6004 8.76423C18.6004 8.14226 18.3907 7.53803 18.0046 7.04707ZM12.0004 9.6C10.6749 9.6 9.60039 10.6745 9.60039 12C9.60039 13.3255 10.6749 14.4 12.0004 14.4C13.3259 14.4 14.4004 13.3255 14.4004 12C14.4004 10.6745 13.3259 9.6 12.0004 9.6Z" fill="url(#paint0_linear_3078_83356)"/>
<g filter="url(#filter0_f_3078_83356)">
<path d="M8.40039 12.0004C8.40039 10.0122 10.0122 8.40039 12.0004 8.40039C13.9886 8.40039 15.6004 10.0122 15.6004 12.0004C15.6004 13.9886 13.9886 15.6004 12.0004 15.6004C10.0122 15.6004 8.40039 13.9886 8.40039 12.0004Z" fill="white"/>
</g>
<defs>
<filter id="filter0_f_3078_83356" x="4.02329" y="4.02329" width="15.9544" height="15.9534" filterUnits="userSpaceOnUse" color-interpolation-filters="sRGB">
<feFlood flood-opacity="0" result="BackgroundImageFix"/>
<feBlend mode="normal" in="SourceGraphic" in2="BackgroundImageFix" result="shape"/>
<feGaussianBlur stdDeviation="2.18855" result="effect1_foregroundBlur_3078_83356"/>
</filter>
<linearGradient id="paint0_linear_3078_83356" x1="18.7268" y1="24" x2="-7.21644" y2="18.6463" gradientUnits="userSpaceOnUse">
<stop stop-color="#5E02F3"/>
<stop offset="1" stop-color="#A13BF7"/>
</linearGradient>
</defs>
</svg>
