<svg width="24" height="24" viewBox="0 0 24 24" fill="none" xmlns="http://www.w3.org/2000/svg">
<g clip-path="url(#clip0_1356_82527)">
<path d="M2.70898 9.29032C2.70898 4.15942 6.8684 0 11.9993 0C17.1303 0 21.2897 4.15942 21.2897 9.29032V22.5883C21.2897 23.368 20.6576 24 19.8778 24H4.12076C3.34106 24 2.70898 23.368 2.70898 22.5883V9.29032Z" fill="url(#paint0_linear_1356_82527)"/>
<path fill-rule="evenodd" clip-rule="evenodd" d="M20.1858 22.8468V9.3174C20.1858 4.78293 16.5207 1.10702 11.9993 1.10702C7.47802 1.10702 3.81278 4.78293 3.81278 9.3174V22.8468C3.81278 22.8724 3.83338 22.893 3.85878 22.893H20.1399C20.1653 22.893 20.1858 22.8724 20.1858 22.8468ZM11.9993 0C6.8684 0 2.70898 4.17154 2.70898 9.3174V22.8468C2.70898 23.4837 3.22376 24 3.85878 24H20.1399C20.7749 24 21.2897 23.4837 21.2897 22.8468V9.3174C21.2897 4.17154 17.1303 0 11.9993 0Z" fill="#116EF7"/>
</g>
<defs>
<linearGradient id="paint0_linear_1356_82527" x1="5.10055" y1="1.38377" x2="21.3572" y2="27.1715" gradientUnits="userSpaceOnUse">
<stop offset="0.265625" stop-color="white"/>
<stop offset="0.734375" stop-color="#116EF7"/>
</linearGradient>
<clipPath id="clip0_1356_82527">
<rect width="24" height="24" fill="white"/>
</clipPath>
</defs>
</svg>
