<svg width="64" height="64" viewBox="0 0 64 64" fill="none" xmlns="http://www.w3.org/2000/svg">
<path d="M29.2498 7.13739C24.7623 7.6624 20.3248 9.46239 16.6873 12.2374C15.5623 13.0874 13.3248 15.3124 12.4373 16.4374C7.08729 23.2749 5.58729 32.0874 8.38729 40.1999C9.57479 43.6499 11.4498 46.6874 14.0498 49.3624C16.2748 51.6374 18.3748 53.1624 21.1373 54.4999C28.8748 58.2249 37.8123 57.7624 45.1873 53.2499C47.2123 52.0124 49.7748 49.7499 51.3748 47.8124C53.1498 45.6374 54.8123 42.5874 55.7373 39.8124C58.2873 32.1124 56.8998 23.5374 52.0123 16.9999C51.1498 15.8499 48.9873 13.5874 47.8123 12.6249C44.1873 9.64989 39.3748 7.64989 34.5998 7.13739C33.1998 6.9749 30.6123 6.98739 29.2498 7.13739ZM19.6248 38.3374V40.4249L19.9748 40.0999C20.4248 39.6499 20.8748 39.4999 21.6998 39.4999C22.6498 39.4999 23.3248 39.8624 23.6373 40.5374C23.8248 40.9749 23.8748 41.3624 23.8748 42.7749V44.4999H24.3123H24.7498V45.1874V45.8749H22.9998H21.2498V45.1874V44.4999H21.6873H22.1248V43.3999C22.1248 41.3749 21.8998 40.8749 20.9873 40.8749C19.9123 40.8749 19.6248 41.3749 19.6248 43.2499V44.4999H20.0623H20.4998V45.1874V45.8749H18.7498H16.9998V45.1874V44.4999H17.4373H17.8748V41.0624V37.6249H17.4373H16.9998V36.9374V36.2499H18.3123H19.6248V38.3374ZM35.7498 38.4499V40.6499L36.0748 40.2499C36.5498 39.6999 37.0123 39.4999 37.8373 39.4999C39.6873 39.5124 40.5873 40.6499 40.4748 42.8374C40.4123 44.0749 40.1748 44.6749 39.4748 45.3374C38.9498 45.8499 38.5248 45.9999 37.6748 45.9999C36.8498 45.9999 36.2623 45.7749 35.8998 45.3249L35.6373 44.9874L35.5498 45.4249L35.4748 45.8749H34.6373H33.8123L33.8498 41.7499L33.8998 37.6249H33.5123C33.1248 37.6249 33.1248 37.6249 33.1248 36.9374V36.2499H34.4373H35.7498V38.4499ZM45.9498 39.7999C46.4623 40.0124 46.4623 40.0249 46.5373 40.7874C46.5748 41.2124 46.5873 41.5749 46.5748 41.5874C46.5623 41.6124 46.2748 41.6624 45.9498 41.6999C45.2998 41.7999 45.1248 41.6749 45.1248 41.1749C45.1248 40.8874 44.8373 40.7499 44.1873 40.7499C43.4248 40.7499 42.9373 41.4499 43.4998 41.7499C43.6248 41.8249 44.1748 41.9624 44.7123 42.0749C46.4123 42.4249 46.9498 42.9124 46.9248 44.0999C46.9123 44.7624 46.5998 45.2124 45.8623 45.6249C45.0498 46.0749 43.3623 46.1374 42.1248 45.7624L41.2248 45.4874L41.2873 45.0874C41.3248 44.8624 41.3998 44.4499 41.4373 44.1499C41.4998 43.7374 41.5748 43.6249 41.7123 43.6749C41.8123 43.7124 42.1123 43.7499 42.3873 43.7499C42.8623 43.7499 42.8748 43.7624 42.8748 44.1874C42.8748 44.5749 42.9123 44.6249 43.3123 44.6999C44.1998 44.8624 45.1248 44.4999 45.1248 43.9874C45.1248 43.6874 44.8373 43.5499 43.8748 43.3874C41.9748 43.0499 41.3748 42.5749 41.3748 41.3749C41.3748 40.4624 41.7373 39.9624 42.5998 39.6874C43.3748 39.4499 45.2498 39.4999 45.9498 39.7999ZM27.7498 41.6124C27.7498 43.6624 27.8623 44.2874 28.2498 44.4999C28.6373 44.7124 29.3248 44.6374 29.6623 44.3624C30.1248 44.0124 30.2748 43.3749 30.2248 42.0624L30.1873 40.9374L29.7248 40.8999L29.2498 40.8624V40.2374V39.6249H30.6248H31.9998V42.0624V44.4999H32.4373H32.8748V45.1874V45.8749H31.5623H30.2498V45.4124V44.9499L29.8498 45.3374C29.6248 45.5624 29.2748 45.7999 29.0873 45.8624C28.1748 46.2124 26.7623 45.8499 26.2873 45.1499C26.0998 44.8749 26.0498 44.4749 25.9998 42.8749L25.9373 40.9374L25.5373 40.8999C25.1373 40.8624 25.1248 40.8499 25.1248 40.2374V39.6249H26.4373H27.7498V41.6124Z" fill="black"/>
<path d="M34.1625 16.4625C33.475 14.9875 31.925 13.8 30.325 13.5C29.575 13.3625 29.3875 13.3625 28.5375 13.5C26.7375 13.8 25.0625 15.275 24.55 16.975C24.4125 17.475 24.3625 17.5125 24.075 17.45C23.9 17.4125 23.2625 17.3375 22.675 17.3C21.6875 17.225 21.575 17.2375 21.325 17.4875C21.1375 17.675 21.0625 17.9 21.0625 18.2875C21.0625 19.425 22.2875 20.6375 24.4625 21.6625L25.5375 22.175L24.7875 22.6125C22.3625 24.05 20.975 27.1875 21.575 29.875C21.775 30.7875 21.7625 30.7625 22.15 30.6C22.8 30.325 24.1875 30.1875 24.1875 30.1875C24.1875 30.1875 25.2125 30.3375 26.0625 30.75C26.7875 31.0875 27.0625 31.1875 28.0625 31.1875C28.925 31.1875 29.2125 31.1375 29.75 30.925C30.525 30.6125 31.5625 30 32.0625 29.4375C33.75 31.3625 36.75 31.375 39.125 30.3125C39.125 30.3125 41.05 30.35 41.775 30.625C42.1625 30.7625 42.4875 30.8625 42.5 30.85C42.625 30.7 43.025 29.8 43.2875 29.075C43.75 27.7625 43.825 25.325 43.45 23.95C43.3 23.425 43.0375 22.7 42.8625 22.35C42.5125 21.65 41.5 20.5 41.2375 20.5C41.15 20.5 40.85 20.8375 40.575 21.2375C39.675 22.5625 38.725 23.1125 36.85 23.4C35.8125 23.5625 34.1625 23.4125 32.9625 23.0625L32.3 22.8625L32.925 22.3C33.35 21.9125 33.7125 21.425 34.025 20.775C34.4875 19.8625 34.625 19.7625 34.625 18.5C34.625 17.325 34.4625 17.1125 34.1625 16.4625Z" fill="#FFCB00"/>
<path d="M24.4625 21.6623L25.5375 22.1748C25.7969 20.4998 25.2375 18.0436 24.55 16.9748C24.4125 17.4748 24.3625 17.5123 24.075 17.4498C23.9 17.4123 23.2625 17.3373 22.675 17.2998C21.6875 17.2248 21.575 17.2373 21.325 17.4873C21.1375 17.6748 21.0625 17.8998 21.0625 18.2873C21.0625 19.4248 22.2875 20.6373 24.4625 21.6623Z" fill="#FF8A00"/>
<path d="M26.7999 16.8124C26.0499 17.1999 25.7874 18.0999 26.2374 18.8249C26.8624 19.8499 28.3999 19.6124 28.7374 18.4249C29.0499 17.3249 27.8124 16.2999 26.7999 16.8124ZM28.1999 17.5624C28.2874 17.7874 28.0374 18.1249 27.7874 18.1249C27.5749 18.1249 27.4499 17.8249 27.5499 17.5624C27.6374 17.3124 28.1124 17.3249 28.1999 17.5624Z" fill="black"/>
<path d="M27.7874 18.1249C28.0374 18.1249 28.2874 17.7874 28.1999 17.5624C28.1124 17.3249 27.6374 17.3124 27.5499 17.5624C27.4499 17.8249 27.5749 18.1249 27.7874 18.1249Z" fill="white"/>
<path d="M19.625 40.4249V38.3374V36.2499H18.3125H17V36.9374V37.6249H17.4375H17.875V41.0624V44.4999H17.4375H17V45.1874V45.8749H18.75H20.5V45.1874V44.4999H20.0625H19.625V43.2499C19.625 41.3749 19.9125 40.8749 20.9875 40.8749C21.9 40.8749 22.125 41.3749 22.125 43.3999V44.4999H21.6875H21.25V45.1874V45.8749H23H24.75V45.1874V44.4999H24.3125H23.875V42.7749C23.875 41.3624 23.825 40.9749 23.6375 40.5374C23.325 39.8624 22.65 39.4999 21.7 39.4999C20.875 39.4999 20.425 39.6499 19.975 40.0999L19.625 40.4249Z" fill="white"/>
<path d="M35.75 40.6499V38.4499V36.2499H34.4375H33.125V36.9374C33.125 37.6249 33.125 37.6249 33.5125 37.6249H33.9L33.85 41.7499L33.8125 45.8749H34.6375H35.475L35.55 45.4249L35.6375 44.9874L35.9 45.3249C36.2625 45.7749 36.85 45.9999 37.675 45.9999C38.525 45.9999 38.95 45.8499 39.475 45.3374C40.175 44.6749 40.4125 44.0749 40.475 42.8374C40.5875 40.6499 39.6875 39.5124 37.8375 39.4999C37.0125 39.4999 36.55 39.6999 36.075 40.2499L35.75 40.6499Z" fill="white"/>
<path d="M46.5369 40.7817C46.4625 40.0248 46.4612 40.0119 45.95 39.7999C45.25 39.4999 43.375 39.4499 42.6 39.6874C41.7375 39.9624 41.375 40.4624 41.375 41.3749C41.375 42.5749 41.975 43.0499 43.875 43.3874C44.8375 43.5499 45.125 43.6874 45.125 43.9874C45.125 44.4999 44.2 44.8624 43.3125 44.6999C42.9125 44.6249 42.875 44.5749 42.875 44.1874C42.875 43.7624 42.8625 43.7499 42.3875 43.7499C42.1125 43.7499 41.8125 43.7124 41.7125 43.6749C41.575 43.6249 41.5 43.7374 41.4375 44.1499C41.4 44.4499 41.325 44.8624 41.2875 45.0874L41.225 45.4874L42.125 45.7624C43.3625 46.1374 45.05 46.0749 45.8625 45.6249C46.6 45.2124 46.9125 44.7624 46.925 44.0999C46.95 42.9124 46.4125 42.4249 44.7125 42.0749C44.175 41.9624 43.625 41.8249 43.5 41.7499C42.9375 41.4499 43.425 40.7499 44.1875 40.7499C44.8375 40.7499 45.125 40.8874 45.125 41.1749C45.125 41.6749 45.3 41.7999 45.95 41.6999C46.275 41.6624 46.5625 41.6124 46.575 41.5874C46.5875 41.5749 46.575 41.2124 46.5375 40.7874L46.5369 40.7817Z" fill="white"/>
<path d="M28.25 44.4999C27.8625 44.2874 27.75 43.6624 27.75 41.6124V39.6249H26.4375H25.125V40.2374C25.125 40.8499 25.1375 40.8624 25.5375 40.8999L25.9375 40.9374L26 42.8749C26.05 44.4749 26.1 44.8749 26.2875 45.1499C26.7625 45.8499 28.175 46.2124 29.0875 45.8624C29.275 45.7999 29.625 45.5624 29.85 45.3374L30.25 44.9499V45.4124V45.8749H31.5625H32.875V45.1874V44.4999H32.4375H32V42.0624V39.6249H30.625H29.25V40.2374V40.8624L29.725 40.8999L30.1875 40.9374L30.225 42.0624C30.275 43.3749 30.125 44.0124 29.6625 44.3624C29.325 44.6374 28.6375 44.7124 28.25 44.4999Z" fill="white"/>
<path d="M36.475 41.1C36 41.3875 35.75 41.975 35.75 42.75C35.75 43.8875 36.325 44.625 37.1875 44.625C37.6625 44.625 38.225 44.3 38.4375 43.875C38.7125 43.3375 38.6875 42.0375 38.375 41.525C37.975 40.875 37.1375 40.6875 36.475 41.1Z" fill="black"/>
<path d="M47.5 30.8125V28.8125C46.875 29.9375 45.4375 30.9375 43.6875 30.9375C41.5 30.9375 40.375 29.75 39.75 28.8125C39.125 29.75 38.125 30.9375 35.875 30.9375C33.625 30.9375 32.75 29.875 32 28.8125C31.25 29.875 30.375 30.9375 28 30.9375C25.625 30.9375 24.5625 29.5 24.1875 28.8125C23.7917 29.5208 22.4625 30.9375 20.3125 30.9375C18.1625 30.9375 16.875 29.5208 16.5 28.8125V30.625C16.875 31.625 18.125 32.75 20.3125 32.875C22.5 33 23.8125 31.5 24.1875 30.625C24.625 31.5 25.8125 32.875 28 32.875C30.1875 32.875 31.8125 31.375 32 30.625C32.25 31.375 33.5625 32.875 35.875 32.875C38.1875 32.875 39.375 31.375 39.75 30.625C40.1458 31.375 41.4875 32.875 43.6875 32.875C45.8875 32.875 47.1458 31.5 47.5 30.8125Z" fill="#2F80ED"/>
</svg>
