<svg width="64" height="64" viewBox="0 0 64 64" fill="none" xmlns="http://www.w3.org/2000/svg">
<path d="M35.844 7.01542C32.5646 7.13327 28.1238 7.92101 23.9533 9.12432C23.4471 9.27008 22.8322 9.44376 22.5838 9.50888C21.2174 9.87794 20.3447 10.2036 19.2609 10.7432C17.7921 11.4782 16.6431 12.3001 15.4785 13.4507C14.6525 14.2694 14.0873 14.9548 13.4072 15.972C12.8389 16.8218 12.488 17.439 11.8731 18.6547C11.2676 19.8518 11.0937 20.2364 10.6123 21.4304C9.60616 23.9238 8.86707 26.4111 8.43852 28.7309C7.73669 32.5455 7.87643 35.5848 8.86396 37.9139C8.93228 38.0752 9.14656 38.5218 9.3422 38.9064C10.6713 41.5425 12.8979 44.4577 15.8916 47.4939C17.643 49.2679 18.2889 49.8261 21.4068 52.2762C22.8322 53.3957 24.1644 54.4471 24.3694 54.6146C26.6798 56.4723 29.5617 57.3189 32.1174 56.8909C34.4651 56.4971 37.5457 54.6239 40.4089 51.8544C41.7319 50.5735 43.3187 49.2059 44.3528 48.4522C44.9646 48.0087 45.682 47.5746 46.6509 47.0628C48.2315 46.2286 49.0979 45.6952 49.6352 45.2238C50.4457 44.5136 51.4456 43.149 52.3058 41.5735C52.4301 41.344 52.6412 41.0153 52.7717 40.8447C53.6474 39.7003 54.2995 38.3698 54.6287 37.0611C54.8802 36.0686 54.9734 35.2902 54.9952 34.0931C55.0138 33.0945 54.9796 32.4525 54.8771 31.7268C54.7436 30.8088 54.6132 30.3436 54.1287 29.1248C53.7406 28.1385 53.6008 27.7261 53.4424 27.0903C53.2126 26.1661 53.0729 25.2295 52.9238 23.6013C52.7717 21.9235 52.6661 21.2009 52.4083 20.0348C52.1288 18.757 51.722 17.3769 51.4084 16.645C49.4644 12.0644 46.5173 9.40965 41.5269 7.73803C41.176 7.62018 40.7008 7.47441 40.471 7.41549C39.2382 7.09295 37.5892 6.95029 35.844 7.01542ZM42.2536 13.6181C43.0237 13.7639 43.9088 14.1981 44.741 14.837C46.4987 16.186 47.5483 18.5834 47.7657 21.7498C47.8092 22.3763 47.8092 23.5269 47.7657 24.051C47.6943 24.8635 47.7347 25.335 47.9241 26.0545C48.1446 26.8856 48.5421 27.692 49.1041 28.4394C49.2315 28.61 49.5979 29.0131 49.9178 29.3388C50.2376 29.6613 50.5668 30.018 50.6507 30.1296C51.1413 30.7809 51.5046 31.5283 51.632 32.1579C51.6941 32.4587 51.6941 33.0293 51.632 33.293C51.5357 33.7116 51.2252 34.2047 50.8711 34.5056C50.6786 34.6699 50.2469 34.9553 50.0202 35.07C49.4706 35.3429 48.5514 35.6189 47.8154 35.7306C47.3527 35.8019 45.9366 35.8112 45.4708 35.7492C42.9616 35.405 40.5456 34.4591 37.6451 32.6789C36.6855 32.0896 35.6452 31.3856 35.4993 31.2244C35.3191 31.0197 35.1856 30.7685 35.08 30.4242C34.9962 30.1544 34.9931 30.1234 34.9931 29.4163C34.99 28.5975 35.0303 28.2874 35.2539 27.4159C35.4371 26.6933 35.844 25.4993 35.9775 25.2853C36.0769 25.1303 36.2477 24.6403 36.3098 24.3301C36.3967 23.9207 36.4029 23.3718 36.3253 23.0121C36.0769 21.8367 35.2322 20.8876 33.7633 20.1433C32.636 19.5727 31.6237 19.3029 30.2852 19.2098C29.2014 19.1385 28.1518 19.2501 26.0618 19.6626C24.4967 19.9728 24.1831 20.0193 23.5589 20.041C22.9657 20.0596 22.708 20.0348 22.1645 19.8952C21.5559 19.7433 21.2484 19.5324 21.2484 19.2688C21.2484 19.154 21.2671 19.123 21.3975 18.9958C21.6677 18.7353 22.0869 18.5896 22.7204 18.5306C23.3104 18.4748 23.8135 18.3446 25.8445 17.715C27.2916 17.2653 28.1238 17.0606 29.0275 16.9273C29.3598 16.8776 29.6672 16.8714 31.869 16.8683C34.6701 16.8683 34.6204 16.8714 35.2353 16.6202C35.8936 16.3504 36.3843 16.0651 37.6296 15.2153C39.1295 14.1919 39.7785 13.8507 40.5766 13.6616C41.1201 13.5313 41.7132 13.5158 42.2536 13.6181Z" fill="currentColor"/>
</svg>
