<svg width="64" height="64" viewBox="0 0 64 64" fill="none" xmlns="http://www.w3.org/2000/svg">
<path fill-rule="evenodd" clip-rule="evenodd" d="M20.4286 47.5C25.0367 47.5 29.1729 45.4704 32 42.2526C34.8271 45.4704 38.9633 47.5 43.5714 47.5C52.0924 47.5 59 40.5604 59 32C59 23.4396 52.0924 16.5 43.5714 16.5C38.9633 16.5 34.8271 18.5296 32 21.7474C29.1729 18.5296 25.0367 16.5 20.4286 16.5C11.9076 16.5 5 23.4396 5 32C5 40.5604 11.9076 47.5 20.4286 47.5ZM20.4286 40.2667C24.1598 40.2667 27.3109 37.7718 28.3193 34.3519C28.318 34.343 28.3166 34.334 28.3153 34.325H35.6847C35.6834 34.334 35.682 34.343 35.6807 34.3519C36.6891 37.7718 39.8402 40.2667 43.5714 40.2667C48.1159 40.2667 51.8 36.5656 51.8 32C51.8 27.4344 48.1159 23.7333 43.5714 23.7333C39.8402 23.7333 36.6891 26.2282 35.6807 29.6481C35.682 29.657 35.6834 29.666 35.6847 29.675H28.3153C28.3166 29.666 28.318 29.657 28.3193 29.6481C27.3109 26.2282 24.1598 23.7333 20.4286 23.7333C15.8841 23.7333 12.2 27.4344 12.2 32C12.2 36.5656 15.8841 40.2667 20.4286 40.2667Z" fill="currentColor"/>
</svg>
