<svg width="64" height="64" viewBox="0 0 64 64" fill="none" xmlns="http://www.w3.org/2000/svg">
<path fill-rule="evenodd" clip-rule="evenodd" d="M54.6021 32.2726C53.0899 22.5044 46.6561 16.2306 39.9278 13.5435C36.4481 12.1519 32.4206 11.3263 27.883 11.9416C17.4584 13.3469 11.5347 20.6859 9.68693 28.0779C8.7251 31.9243 8.73973 36.7325 10.9166 41.3131C14.7073 49.3122 23.1452 53.4959 31.6408 51.5064C36.6446 50.3325 39.8318 47.4827 41.8917 43.8182C44.214 39.6911 45.0972 32.2552 40.5468 27.1206C36.7544 22.8308 27.8922 20.4445 22.6277 26.3499C20.7123 28.4948 19.1233 32.5624 20.8549 36.5222C22.3397 39.9197 26.2602 41.9622 29.686 40.6904C32.1939 39.767 33.3898 37.751 32.6062 34.8399C32.2936 34.797 32.2963 35.767 32.0074 36.2616C31.713 36.7618 31.1662 37.3167 30.5445 37.612C26.9441 39.372 24.2232 36.3339 24.3118 32.8943C24.3713 30.124 26.6926 27.6207 30.0782 27.2596C33.5672 26.8792 36.9025 28.9108 38.38 31.9782C41.1411 37.7437 37.8524 44.5908 31.7907 46.7348C25.1923 49.0662 18.753 45.698 15.7486 40.5944C12.9299 35.8146 13.441 30.9643 14.9157 27.1014C16.9838 21.6843 22.4824 16.5698 30.6515 16.4171C38.4476 16.2662 46.9989 20.9007 49.5598 31.1096C50.4275 34.5574 50.3635 37.0882 49.8643 39.949C48.9765 45.047 46.6433 49.7062 41.8872 53.495C37.1923 57.2253 29.9009 59.0694 24.1866 58.2118C18.849 57.4164 13.9082 55.0566 10.1532 51.2532C5.99322 47.0548 3.03459 40.9026 2.76579 34.2383C2.54087 28.7599 4.00373 23.2303 6.6707 18.733C9.20145 14.4614 14.1322 9.88175 19.6965 7.53752L22.934 6.41021C35.9224 3.60244 46.7512 7.28975 54.0161 16.1291C58.0051 20.9986 60.8952 27.7588 61.3029 34.2676C61.3422 34.9542 56.7315 36.7206 54.6049 32.2735" fill="#79D7EA"/>
</svg>
