<svg width="64" height="64" viewBox="0 0 64 64" fill="none" xmlns="http://www.w3.org/2000/svg">
<rect width="64" height="64" rx="8" fill="black"/>
<path fill-rule="evenodd" clip-rule="evenodd" d="M60.1601 30.3998V32.6398H54.4001C54.0801 32.6398 53.3121 32.7678 52.8001 33.2798L46.7201 39.3598C46.4001 39.6798 46.0801 40.3198 46.0801 40.9598V46.7198H43.8401V40.9598C43.8401 40.6398 43.5201 39.6798 43.2001 39.3598L37.1201 33.2798C36.8001 32.9598 35.8401 32.6398 35.2001 32.6398H29.4401C28.9281 32.6398 28.2113 33.459 27.7812 33.9505C27.6737 34.0734 27.5841 34.1758 27.5201 34.2398C27.2001 34.5598 27.2001 35.1998 27.2001 35.5198C27.2001 35.8398 27.2001 36.7998 27.5201 37.1198L32.0001 41.5998L30.4001 43.1998L25.9201 38.7198C25.6001 38.3998 24.9601 38.0798 24.3201 38.0798C23.6801 38.0798 22.4001 39.0398 22.0801 39.3598C21.7601 39.6798 21.4401 40.3198 21.4401 40.9598V46.7198H19.2001V40.9598C19.2001 40.6398 19.2001 39.6798 18.8801 39.3598C18.5601 39.0398 17.6001 38.0798 16.9601 38.0798C16.3201 38.0798 15.3601 38.0798 14.7201 38.7198C14.2081 39.2318 11.7335 41.9198 10.5601 43.1998L8.96012 41.5998C10.2401 40.2132 12.8641 37.3758 13.1201 37.1198C13.4401 36.7998 13.7601 35.8398 13.7601 35.1998C13.7601 34.5598 13.1201 33.5998 12.8001 33.2798C12.4801 32.9598 11.8401 32.6398 11.5201 32.6398H5.12012V30.3998H11.5201C11.8401 30.3998 12.4801 30.0798 12.8001 29.7598C13.1201 29.4398 13.7601 28.7998 13.7601 27.8398C13.7601 26.8798 13.4401 26.2398 13.1201 25.9198L8.96012 21.7598L10.5601 20.1598L14.7201 24.3198C15.0401 24.6398 16.6401 25.2798 17.6001 24.6398C18.5601 23.9998 19.2001 23.0398 19.2001 22.3998V16.3198H21.4401V22.3998C21.4401 23.0398 22.7201 24.6398 24.3201 24.6398C25.5235 24.6398 25.8218 24.6398 26.0319 24.5037C26.1011 24.4588 26.1608 24.3992 26.2401 24.3198L30.4001 20.1598L32.0001 21.7598L27.8401 25.9198C27.5201 26.2398 27.2001 26.8798 27.2001 27.5198C27.2001 28.1598 27.5201 29.1198 28.1601 29.7598C28.5281 30.1279 28.6845 30.2843 28.8727 30.3507C29.0118 30.3998 29.1681 30.3998 29.4401 30.3998H35.2001C35.8401 30.3998 36.8001 30.0798 37.1201 29.7598L42.8801 23.9998C43.2001 23.6798 43.8401 23.0398 43.8401 21.7598V16.3198H46.0801V21.7598C46.0801 22.3998 46.4001 23.3598 47.0401 23.9998L52.4801 29.4398C52.8001 29.7598 53.4401 30.3998 54.4001 30.3998H60.1601ZM44.9561 25.2798L38.7202 31.6798L44.9561 38.0798L51.5202 31.6798L44.9561 25.2798ZM17.8605 25.5335L22.8479 25.5335L26.3745 29.0602V34.0476L22.8479 37.5742L17.8605 37.5742L14.3339 34.0476V29.0602L17.8605 25.5335Z" fill="white"/>
</svg>
