<svg width="64" height="64" viewBox="0 0 64 64" fill="none" xmlns="http://www.w3.org/2000/svg">
<path d="M19.4995 44.4998H38.2495L46.5015 36.2073H27.7515L19.4995 44.4998Z" fill="#FFCF1E"/>
<path d="M19.5 7V44.5L7.6 56.4C7.6 56.4 7 55.85 7 55C7 54 7 32 7 32V19.5L19.5 7Z" fill="#FFCF1E"/>
<path d="M19.5001 44.5002H57.0001L44.5001 57.0002H32.0001C32.0001 57.0002 9.89453 57.0002 9 57.0002C8.10547 57.0002 7.5957 56.4046 7.5957 56.4046L19.5001 44.5002Z" fill="#F79326"/>
<path fill-rule="evenodd" clip-rule="evenodd" d="M36.9995 7H19.4995V44.5L27.7515 36.2074H46.5015L38.2495 44.5H56.9995V27C56.9995 15.9543 48.0452 7 36.9995 7ZM37.127 17.3718C31.9762 17.3718 27.8008 21.5473 27.8008 26.698V36.1585H46.4531V26.698C46.4531 21.5473 42.2777 17.3718 37.127 17.3718Z" fill="#FF4D1D"/>
</svg>
