<svg width="24" height="24" viewBox="0 0 24 24" fill="none" xmlns="http://www.w3.org/2000/svg">
<path d="M12 24C18.6274 24 24 18.6274 24 12C24 5.37258 18.6274 0 12 0C5.37258 0 0 5.37258 0 12C0 18.6274 5.37258 24 12 24Z" fill="#FF4500"/>
<path d="M20.0043 11.9993C20.0043 11.0255 19.2169 10.2523 18.2573 10.2523C17.7849 10.2523 17.3551 10.4383 17.0401 10.7391C15.8374 9.87992 14.1905 9.32152 12.3575 9.24998L13.1594 5.49813L15.7656 6.05653C15.7944 6.71529 16.3384 7.24513 17.0116 7.24513C17.6989 7.24513 18.2573 6.68673 18.2573 5.99914C18.2573 5.31182 17.6989 4.75342 17.0116 4.75342C16.5247 4.75342 16.095 5.03982 15.8945 5.45516L12.9877 4.83937C12.9018 4.82495 12.8158 4.83937 12.7585 4.88234C12.6869 4.92532 12.6439 4.99685 12.6298 5.0828L11.7417 9.26413C9.88023 9.32152 8.20477 9.87992 6.9876 10.7536C6.6598 10.4405 6.22375 10.266 5.77044 10.2667C4.79671 10.2667 4.02344 11.0541 4.02344 12.0137C4.02344 12.7296 4.45291 13.3309 5.05456 13.6032C5.02573 13.7748 5.01158 13.9467 5.01158 14.133C5.01158 16.825 8.14765 19.0161 12.014 19.0161C15.8804 19.0161 19.0164 16.8394 19.0164 14.133C19.0164 13.9612 19.002 13.7748 18.9735 13.6032C19.5748 13.3309 20.0043 12.7152 20.0043 11.9993ZM8.00431 13.245C8.00431 12.5577 8.56271 11.9993 9.2503 11.9993C9.93762 11.9993 10.496 12.5577 10.496 13.245C10.496 13.9323 9.93762 14.491 9.2503 14.491C8.56271 14.5051 8.00431 13.9323 8.00431 13.245ZM14.9782 16.553C14.1189 17.4122 12.4865 17.4696 12.014 17.4696C11.5271 17.4696 9.89465 17.3978 9.04957 16.553C8.92092 16.424 8.92092 16.2236 9.04957 16.0947C9.1785 15.966 9.37896 15.966 9.50788 16.0947C10.0521 16.6389 11.1978 16.825 12.014 16.825C12.8303 16.825 13.99 16.6389 14.5199 16.0947C14.6488 15.966 14.8492 15.966 14.9782 16.0947C15.0927 16.2236 15.0927 16.424 14.9782 16.553ZM14.7489 14.5051C14.0616 14.5051 13.5032 13.9467 13.5032 13.2594C13.5032 12.5721 14.0616 12.0137 14.7489 12.0137C15.4365 12.0137 15.9949 12.5721 15.9949 13.2594C15.9949 13.9323 15.4365 14.5051 14.7489 14.5051Z" fill="white"/>
</svg>
