<svg width="32" height="32" viewBox="0 0 32 32" fill="none" xmlns="http://www.w3.org/2000/svg">
<path d="M16 32C24.8366 32 32 24.8366 32 16C32 7.16344 24.8366 0 16 0C7.16344 0 0 7.16344 0 16C0 24.8366 7.16344 32 16 32Z" fill="currentColor"/>
<path d="M26.6724 15.9992C26.6724 14.7008 25.6225 13.6698 24.3431 13.6698C23.7132 13.6698 23.1402 13.9179 22.7202 14.319C21.1165 13.1733 18.9207 12.4288 16.4767 12.3334L17.5458 7.33096L21.0208 8.0755C21.0592 8.95385 21.7846 9.6603 22.6821 9.6603C23.5986 9.6603 24.3431 8.91576 24.3431 7.99898C24.3431 7.08255 23.5986 6.33801 22.6821 6.33801C22.033 6.33801 21.46 6.71989 21.1927 7.27366L17.317 6.45261C17.2024 6.43339 17.0878 6.45261 17.0113 6.50991C16.9159 6.56721 16.8586 6.66259 16.8397 6.77719L15.6557 12.3523C13.1737 12.4288 10.9397 13.1733 9.31681 14.3382C8.87974 13.9207 8.29834 13.6882 7.69393 13.689C6.39562 13.689 5.36459 14.7389 5.36459 16.0184C5.36459 16.9729 5.93723 17.7747 6.73942 18.1377C6.70098 18.3666 6.68212 18.5958 6.68212 18.8442C6.68212 22.4334 10.8635 25.3549 16.0187 25.3549C21.1738 25.3549 25.3553 22.4526 25.3553 18.8442C25.3553 18.615 25.336 18.3666 25.298 18.1377C26.0998 17.7747 26.6724 16.9537 26.6724 15.9992ZM10.6724 17.6601C10.6724 16.7437 11.417 15.9992 12.3337 15.9992C13.2502 15.9992 13.9947 16.7437 13.9947 17.6601C13.9947 18.5766 13.2502 19.3214 12.3337 19.3214C11.417 19.3403 10.6724 18.5766 10.6724 17.6601ZM19.9709 22.0707C18.8253 23.2164 16.6486 23.2929 16.0187 23.2929C15.3695 23.2929 13.1929 23.1971 12.0661 22.0707C11.8946 21.8988 11.8946 21.6316 12.0661 21.4597C12.238 21.2881 12.5053 21.2881 12.6772 21.4597C13.4029 22.1853 14.9304 22.4334 16.0187 22.4334C17.107 22.4334 18.6534 22.1853 19.3598 21.4597C19.5317 21.2881 19.799 21.2881 19.9709 21.4597C20.1236 21.6316 20.1236 21.8988 19.9709 22.0707ZM19.6652 19.3403C18.7488 19.3403 18.0042 18.5958 18.0042 17.6793C18.0042 16.7629 18.7488 16.0184 19.6652 16.0184C20.582 16.0184 21.3265 16.7629 21.3265 17.6793C21.3265 18.5766 20.582 19.3403 19.6652 19.3403Z" fill="white"/>
</svg>
