<svg width="64" height="64" viewBox="0 0 64 64" fill="none" xmlns="http://www.w3.org/2000/svg">
<path d="M40.8161 40.7504C44.1841 40.7504 46.9144 37.9697 46.9144 34.5396C46.9144 31.1095 44.1841 28.3288 40.8161 28.3288C37.4482 28.3288 34.7179 31.1095 34.7179 34.5396C34.7179 37.9697 37.4482 40.7504 40.8161 40.7504Z" fill="#2CBE9B"/>
<path d="M31.4342 38.8364C31.4342 42.2665 28.7039 45.0472 25.3359 45.0472C21.968 45.0472 19.2377 42.2665 19.2377 38.8364C19.2377 35.4062 21.968 32.6256 25.3359 32.6256C28.7039 32.6256 31.4342 35.4062 31.4342 38.8364Z" fill="#2CBE9B"/>
<path d="M29.4796 29.1882C32.8476 29.1882 35.5779 26.4075 35.5779 22.9774C35.5779 19.5472 32.8476 16.7666 29.4796 16.7666C26.1117 16.7666 23.3814 19.5472 23.3814 22.9774C23.3814 26.4075 26.1117 29.1882 29.4796 29.1882Z" fill="#2CBE9B"/>
<path fill-rule="evenodd" clip-rule="evenodd" d="M31.786 7.00152C13.2567 7.19698 0.982022 27.8995 10.6403 44.1505C5.04751 47.9768 6.22025 57 11.9667 57H36.3597C44.178 57 57 46.7659 57 33.2896C57 20.399 47.579 6.83492 31.786 7.00152ZM31.3956 11.6899C15.1722 11.8609 6.18116 31.1022 16.3841 45.2816C11.3021 48.2893 10.364 52.3517 14.1558 52.3517H32.0988C44.6508 51.7267 51.4541 42.391 51.8932 33.537C52.4169 22.9774 45.0124 11.5464 31.3956 11.6899Z" fill="#2CBE9B"/>
</svg>
