<svg width="64" height="64" viewBox="0 0 64 64" fill="none" xmlns="http://www.w3.org/2000/svg">
<path d="M7 32V57H32H57V32V7H32H7V32ZM56.5968 32V56.5968H32H7.40323L7.36866 32.1152C7.35714 18.6475 7.36866 7.56451 7.40323 7.48387C7.43779 7.36866 12.4263 7.34562 32.023 7.36866L56.5968 7.40322V32Z" fill="currentColor"/>
<path d="M17.2305 11.9885C15.8825 12.4954 15.1798 13.2557 15.0876 14.3157C15.0185 15.1221 15.1106 15.4332 15.5139 15.9055C15.9747 16.4239 16.8733 16.8617 18.1867 17.1843C19.4194 17.4839 19.9609 17.7258 20.1337 18.0599C20.2835 18.3479 20.1337 18.682 19.7535 18.8779C19.3848 19.0852 18.2904 19.0507 17.8641 18.8318C17.4724 18.6244 17.0231 18.1175 17.0231 17.8756C17.0231 17.7488 16.7812 17.7143 15.9747 17.7143H14.9148L14.9839 18.1866C15.1222 19.2696 16.1706 20.318 17.4263 20.6521C18.6014 20.9516 20.2604 20.8018 20.9747 20.3295C21.8272 19.765 22.2305 19.0737 22.2305 18.1751C22.2305 17.4493 22.0461 17 21.5507 16.5507C21.0784 16.1014 20.6867 15.9286 18.9816 15.4216C18.1521 15.1682 17.3918 14.9032 17.2996 14.8226C17.0116 14.5806 17.1498 14.1313 17.5991 13.9009C18.4056 13.4631 19.5 13.7051 19.8457 14.3848L20.03 14.7304L21.0323 14.6958L22.0346 14.6613L21.9885 14.3157C21.8964 13.4977 21.1821 12.6221 20.2604 12.1613C19.6037 11.8387 17.8987 11.7465 17.2305 11.9885Z" fill="currentColor"/>
<path d="M28.8894 16.3318V20.7097H29.9263H30.9631V16.3318V11.954H29.9263H28.8894V16.3318Z" fill="currentColor"/>
<path d="M37.9907 16.3318V20.7097H39.0276H40.0645L40.0875 18.5093L40.1221 16.2973L41.1474 18.5093L42.1728 20.7097H43.3363H44.4999L44.7764 20.0991C44.9262 19.7765 45.3525 18.8664 45.7327 18.083C46.1013 17.2996 46.4009 16.6083 46.4009 16.5507C46.4009 16.4931 46.4585 16.447 46.5161 16.447C46.5852 16.447 46.6313 17.2305 46.6313 18.5784V20.7097H47.6681H48.705V16.3318V11.9424L47.5414 11.977L46.3663 12.0116L44.9377 15.0646C44.1543 16.7466 43.4631 18.1636 43.4055 18.2212C43.3479 18.2788 42.9677 17.6222 42.4838 16.6083C42.0345 15.6636 41.3433 14.2351 40.9631 13.4171L40.2488 11.954H39.1198H37.9907V16.3318Z" fill="currentColor"/>
<path d="M15.0645 29.9263C15.0645 32.5415 15.1566 33.3479 15.5483 34.1083C17.046 37.0691 21.5045 37.0231 22.9446 34.0392C23.3709 33.1406 23.4861 32.1843 23.4516 29.6959L23.417 27.4493L22.4147 27.4148L21.4239 27.3802L21.3778 30.0069C21.3433 32.4954 21.3317 32.6682 21.0668 33.1867C20.3294 34.6959 18.3479 34.8226 17.5068 33.4055L17.1958 32.8641L17.1612 30.1221L17.1267 27.3917H16.0898H15.0645V29.9263Z" fill="currentColor"/>
<path d="M28.3135 31.7696V36.1475H31.5969H34.8803V35.2258V34.3041H32.6338C30.9172 34.3041 30.3872 34.2696 30.3872 34.1544C30.3872 34.0852 30.3757 32.5415 30.3526 30.7327L30.3296 27.4493L29.3273 27.4147L28.3135 27.3802V31.7696Z" fill="currentColor"/>
<path d="M42.9908 27.4723C42.9332 27.5299 42.8064 27.7488 42.7143 27.9677C42.6336 28.1866 42.3687 28.8088 42.1267 29.3502C41.4355 30.9286 39.2581 36.0668 39.2581 36.1129C39.2581 36.1359 39.7419 36.1475 40.341 36.1475H41.4124L41.712 35.4562L42.0115 34.765H44.1313H46.2511L46.5276 35.4562L46.8041 36.1475H47.864C48.6475 36.1475 48.9355 36.1129 48.9355 35.9977C48.9355 35.9286 48.7972 35.5714 48.6359 35.2258C48.4746 34.8802 48.1866 34.2235 48.0138 33.7857C47.8295 33.3364 47.1382 31.735 46.4816 30.2143L45.2834 27.4493L44.2005 27.4147C43.6014 27.4032 43.0599 27.4263 42.9908 27.4723ZM44.5691 30.7903C45.1567 32.1613 45.4677 33.0138 45.3986 33.0829C45.2949 33.1866 42.8525 33.1636 42.7949 33.0599C42.7258 32.9332 44.0276 29.9263 44.1313 29.9608C44.1889 29.9723 44.3848 30.3525 44.5691 30.7903Z" fill="currentColor"/>
<path d="M18.5554 42.8755C16.0324 43.4861 14.5808 45.6866 15.0647 48.152C15.2375 49.0622 15.4909 49.546 16.1591 50.2949C17.8412 52.1613 21.1246 52.2649 22.9448 50.5023C23.8204 49.6382 23.8204 49.6036 22.8872 49.0507L22.0808 48.5668L21.5278 49.0852C19.3273 51.1359 15.9978 48.6359 17.3688 45.9516C17.7951 45.1106 18.613 44.6497 19.696 44.6497C20.4909 44.6497 21.2628 44.9838 21.7236 45.5368L22.0347 45.917L22.8757 45.4447C23.325 45.1797 23.7052 44.9147 23.7052 44.8456C23.7052 44.5921 22.4725 43.5207 21.8504 43.2442C20.7213 42.7258 19.673 42.6106 18.5554 42.8755Z" fill="currentColor"/>
<path d="M27.9678 47.2649V51.5852H29.0046H30.0415V50.5483V49.5L30.871 49.5345L31.7005 49.5691L32.2765 50.5714L32.8641 51.5737L34.1659 51.5852C35.3756 51.5852 35.4563 51.5737 35.341 51.3778C35.2834 51.2741 34.8917 50.6981 34.477 50.099L33.7281 49.0276L34.0507 48.7857C34.5 48.4285 34.6268 48.2672 34.9724 47.5529C35.7788 45.8594 34.9493 43.705 33.2558 43.1175C32.8986 42.9907 32.1844 42.9447 30.3756 42.9447H27.9678V47.2649ZM32.4148 44.9723C33.0945 45.2949 33.348 46.1474 32.9793 46.8617C32.7028 47.3917 32.265 47.5529 31.0784 47.5529H30.0415V46.2511C30.0415 45.5253 30.0761 44.9032 30.1222 44.8686C30.2834 44.7073 32.0231 44.788 32.4148 44.9723Z" fill="currentColor"/>
<path d="M42.8871 43.3134C42.6567 43.8203 39.6037 50.9977 39.477 51.3318L39.3733 51.5968L40.4908 51.5622L41.5968 51.5277L41.8272 50.9171L42.0576 50.318L44.2466 50.341L46.424 50.3756L46.6774 50.9747L46.9194 51.5853H48.0369H49.1544L48.7973 50.8019C48.6014 50.3756 48.2558 49.5576 48.0138 48.9931C47.4608 47.6798 46.1475 44.6037 45.7327 43.6705L45.4217 42.9562L44.235 42.9447H43.0599L42.8871 43.3134ZM44.8802 46.7581C45.7673 48.8088 45.8479 48.5899 44.212 48.5899C43.1291 48.5899 42.818 48.5553 42.8641 48.4401C42.8986 48.371 43.1406 47.8065 43.4055 47.2074C44.1083 45.5599 44.212 45.3295 44.2696 45.3871C44.2926 45.4102 44.5691 46.0323 44.8802 46.7581Z" fill="currentColor"/>
</svg>
