<svg width="64" height="64" viewBox="0 0 64 64" fill="none" xmlns="http://www.w3.org/2000/svg">
<path d="M31.5295 34.7615L31.1538 58.3056L54.197 46.5336L54.6979 23.1147L31.5295 34.7615Z" fill="currentColor"/>
<path d="M29.7763 35.3877L29.1501 58.9318L9.73877 45.0308L9.98924 23.1147L29.7763 35.3877Z" fill="currentColor"/>
<path d="M24.8916 30.7542L30.1514 33.6346L35.9122 30.7542L30.6524 27.8738L24.8916 30.7542Z" fill="currentColor"/>
<path d="M19.8828 27.6236L24.266 30.2535L29.9016 27.3731L25.2508 24.9937L19.8828 27.6236Z" fill="currentColor"/>
<path d="M26.2698 24.7427L30.9034 27.1222L36.4138 24.367L31.7801 22.3633L26.2698 24.7427Z" fill="currentColor"/>
<path d="M14.6223 24.6175L19.0055 27.2474L24.5158 24.7427L20.0074 22.3633L14.6223 24.6175Z" fill="currentColor"/>
<path d="M21.0095 22.1129L25.518 24.4923L30.903 22.1129L26.3946 19.9839L21.0095 22.1129Z" fill="currentColor"/>
<path d="M10.114 21.9491L14.2198 24.2419L19.3814 22.0583L15.1583 19.9839L10.114 21.9491Z" fill="currentColor"/>
<path d="M16.2505 19.7335L20.4815 21.7372L25.7683 19.7335L21.5103 17.7297L16.2505 19.7335Z" fill="currentColor"/>
<path d="M21.6355 15.9767L25.8665 17.9804L31.1533 15.9767L26.8953 13.9729L21.6355 15.9767Z" fill="currentColor"/>
<path d="M30.9033 10.8417L34.3829 12.9706L38.9183 10.7164L35.4118 8.96313L30.9033 10.8417Z" fill="currentColor"/>
<path d="M29.7759 17.4791L34.4095 19.4828L39.4189 16.9781L35.161 15.2249L29.7759 17.4791Z" fill="currentColor"/>
<path d="M32.1553 21.4869L36.4133 23.8663L41.8123 21.2791L37.6686 19.2708L32.1553 21.4869Z" fill="currentColor"/>
<path d="M40.421 15.1001L44.3065 17.3914L49.0623 14.8496L45.5557 12.9711L40.421 15.1001Z" fill="currentColor"/>
<path d="M40.1707 7.71134L44.1806 9.9301L49.1876 7.33568L45.0548 5.33193L40.1707 7.71134Z" fill="currentColor"/>
<path d="M37.1644 30.2532L31.7793 27.4981L37.1644 24.8682L42.9252 27.4981L37.1644 30.2532Z" fill="currentColor"/>
<path d="M43.8018 27.1222L38.041 24.5622L42.6747 22.238L48.686 24.868L43.8018 27.1222Z" fill="currentColor"/>
<path d="M49.4375 24.3673L43.6768 21.8073L48.3104 19.4832L54.6974 21.8073L49.4375 24.3673Z" fill="currentColor"/>
</svg>
