<svg width="64" height="64" viewBox="0 0 64 64" fill="none" xmlns="http://www.w3.org/2000/svg">
<path d="M27.8855 10C27.1197 10 26.6698 10.8551 27.1065 11.48L31.2211 17.367C31.5983 17.9068 32.4018 17.9068 32.779 17.367L36.8935 11.48C37.3302 10.8551 36.8801 10 36.1145 10H27.8855Z" fill="currentColor"/>
<path d="M10.4 39.9982C12.0264 44.4155 14.9848 48.2265 18.8717 50.9113C22.7584 53.5961 27.3844 55.0237 32.1181 54.9997C36.8518 54.9755 41.4626 53.5006 45.3215 50.7764C49.1806 48.0521 52.0993 44.211 53.68 39.7774C55.2606 35.3438 55.4259 30.5336 54.1535 26.0031C52.8809 21.4727 50.2325 17.4427 46.5696 14.4632C45.151 13.3092 43.0596 13.5164 41.8981 14.926C40.7369 16.3356 40.9453 18.4138 42.364 19.5678C44.9695 21.6871 46.8534 24.5538 47.7586 27.7765C48.6637 30.9992 48.5463 34.4209 47.4219 37.5747C46.2975 40.7285 44.2211 43.4609 41.4762 45.3987C38.7311 47.3365 35.4514 48.3857 32.0841 48.4029C28.7168 48.4201 25.4261 47.4044 22.6614 45.4946C19.8963 43.5849 17.792 40.874 16.6351 37.7318C15.4782 34.5896 15.3252 31.1692 16.197 27.9375C17.069 24.7057 18.9231 21.82 21.5066 19.6741C22.9133 18.5057 23.1004 16.4256 21.9245 15.0279C20.7487 13.6303 18.6552 13.4444 17.2485 14.6128C13.6165 17.6294 11.0099 21.6862 9.78427 26.2294C8.55864 30.7726 8.77376 35.5808 10.4 39.9982Z" fill="currentColor"/>
</svg>
