<svg width="64" height="64" viewBox="0 0 64 64" fill="none" xmlns="http://www.w3.org/2000/svg">
<path d="M21.8878 3.84009L18.1756 6.65596L48.2584 16.7227C49.8243 17.2467 50.8798 18.7131 50.8798 20.3643V53.082L54.8478 50.112V20.38C54.8478 17.0759 52.7346 14.1422 49.6007 13.0955L21.8878 3.84009Z" fill="currentColor"/>
<path d="M12.6721 10.752L8.95996 13.568L38.33 23.3188C39.9003 23.8401 40.9601 25.3086 40.9601 26.9632V60.6339L44.9281 57.6638V26.9858C44.9281 23.6751 42.8064 20.737 39.6637 19.6956L12.6721 10.752Z" fill="currentColor"/>
<path d="M12.9281 20.8639L12.9281 44.1022C12.9281 45.7568 13.9879 47.2253 15.5582 47.7466L34.89 54.1647L34.8898 58.2173L14.2245 51.3698C11.0818 50.3285 8.96013 47.3904 8.96013 44.0796L8.96013 19.5135L12.9281 20.8639Z" fill="currentColor"/>
<path d="M34.98 42.2229L27.59 39.7695C26.0197 39.2482 24.9598 37.7796 24.9599 36.125L24.96 24.8894L20.9918 23.552V36.1025C20.9918 39.4132 23.1135 42.3513 26.2562 43.3927L34.9797 46.2832L34.98 42.2229Z" fill="currentColor"/>
</svg>
