<svg width="64" height="64" viewBox="0 0 64 64" fill="none" xmlns="http://www.w3.org/2000/svg">
<path d="M7.0804 12.0715C7.29499 12.2056 10.0579 13.4529 13.2231 14.7136L18.9366 17.0205H32.0536H45.1437L50.8304 14.7136C53.9688 13.4529 56.7317 12.2056 56.9463 12.0715C57.1877 11.9374 46.619 12.0715 31.9999 12.0715C16.4688 12.0715 6.81216 11.9105 7.0804 12.0715Z" fill="currentColor"/>
<path d="M7.34883 19.2202C7.40247 19.2738 10.0312 20.1858 13.1696 21.1515L18.8563 22.9219H32.0269H45.1975L50.8842 21.1515C53.9958 20.1858 56.5978 19.2738 56.6514 19.2202C56.7051 19.1665 45.6267 19.2202 32.0001 19.2202C18.3735 19.2202 7.29518 19.1665 7.34883 19.2202Z" fill="currentColor"/>
<path d="M12.1502 27.4283L17.1126 28.3939H32H46.8873L51.8498 27.4283L56.8122 26.4626H32H7.18774L12.1502 27.4283Z" fill="currentColor"/>
<path d="M11.882 32.5785C14.1621 32.8467 49.8381 32.8467 52.1181 32.5785C53.0838 32.4712 44.0172 32.3907 32.0001 32.3907C19.9829 32.3907 10.9164 32.4712 11.882 32.5785Z" fill="currentColor"/>
<path d="M12.8475 37.5678C10.031 38.0506 7.61682 38.6408 7.4827 38.6944C7.32175 38.7481 18.3464 38.6944 31.9999 38.6944C46.2434 38.6944 56.4097 38.8285 55.8733 38.6944C55.3636 38.5871 52.8153 37.8629 50.2402 37.4069L45.546 36.629H31.7316H17.9172L12.8475 37.5678Z" fill="currentColor"/>
<path d="M12.7135 44.0591L7 45.8563H19.5C26.367 45.8832 37.633 45.8832 44.5 45.8563H57L51.1255 44.0323L45.2511 42.2619H31.8391H18.4539L12.7135 44.0591Z" fill="currentColor"/>
<path d="M13.1697 50.3629L7.10742 52.9112H19.5538C26.3939 52.938 37.6064 52.938 44.4465 52.9112H56.8928L50.6965 50.336L44.4733 47.8951H31.866H19.2587L13.1697 50.3629Z" fill="currentColor"/>
</svg>
