<svg width="64" height="64" viewBox="0 0 64 64" fill="none" xmlns="http://www.w3.org/2000/svg">
<path d="M24.3698 34.6693C26.396 35.3854 28.9037 36.2044 31.2708 36.6875C40.8411 38.6406 40.9714 41.4401 40.2552 43.7188C39.782 45.2244 38.3672 47.2995 33.8099 47.2995C30.3594 47.2995 24.9478 45.8982 24.9478 40.9022H12C12 45.6068 16.5573 57 33.3097 57C48.1328 57 52.625 48.4062 52.625 43.4014C52.625 36.4271 50.6719 31.2839 35.0913 27.4089C27.1693 25.2292 25.5036 24.631 25.5036 21.089C25.5036 18.0555 29.2526 17.026 32.7682 17.026C36.2839 17.026 40.0424 19.1745 40.0424 23.2001H52.3646C51.388 12.1432 42.7371 7 33.1589 7C21.6942 7 13.1719 12.4118 13.1719 21.6484C13.1719 30.6328 20.1952 33.4606 24.3698 34.6693Z" fill="#1FC900"/>
</svg>
