<svg width="32" height="32" viewBox="0 0 32 32" fill="none" xmlns="http://www.w3.org/2000/svg">
<path d="M15.9995 32C24.8361 32 31.9995 24.8366 31.9995 16C31.9995 7.16344 24.8361 0 15.9995 0C7.16296 0 -0.000488281 7.16344 -0.000488281 16C-0.000488281 24.8366 7.16296 32 15.9995 32Z" fill="url(#paint0_linear_3451_31205)"/>
<path d="M6.65851 15.8612L17.4331 11.4219C18.4967 10.9595 22.1036 9.4797 22.1036 9.4797C22.1036 9.4797 23.7683 8.8323 23.6296 10.4046C23.5834 11.052 23.2134 13.3178 22.8435 15.7687L21.6874 23.0288C21.6874 23.0288 21.5949 24.0924 20.8088 24.2774C20.0227 24.4624 18.7279 23.63 18.4967 23.445C18.3117 23.3063 15.0284 21.2254 13.8261 20.208C13.5024 19.9306 13.1325 19.3757 13.8724 18.7283C15.5371 17.2022 17.5256 15.3063 18.7279 14.104C19.2828 13.5491 19.8377 12.2543 17.5256 13.8265L11.0053 18.2196C11.0053 18.2196 10.2654 18.682 8.87816 18.2658C7.49088 17.8496 5.87238 17.2947 5.87238 17.2947C5.87238 17.2947 4.76255 16.6011 6.65851 15.8612Z" fill="white"/>
<defs>
<linearGradient id="paint0_linear_3451_31205" x1="21.3341" y1="5.33457" x2="13.3341" y2="24" gradientUnits="userSpaceOnUse">
<stop stop-color="#37AEE2"/>
<stop offset="1" stop-color="#1E96C8"/>
</linearGradient>
</defs>
</svg>
