<svg width="32" height="32" viewBox="0 0 32 32" fill="none" xmlns="http://www.w3.org/2000/svg">
<path d="M16 32C24.8366 32 32 24.8366 32 16C32 7.16344 24.8366 0 16 0C7.16344 0 0 7.16344 0 16C0 24.8366 7.16344 32 16 32Z" fill="currentColor"/>
<path d="M6.65907 15.8613L17.4336 11.422C18.4972 10.9596 22.1042 9.47982 22.1042 9.47982C22.1042 9.47982 23.7689 8.83242 23.6302 10.4047C23.5839 11.0521 23.214 13.318 22.844 15.7688L21.688 23.029C21.688 23.029 21.5955 24.0925 20.8094 24.2775C20.0232 24.4625 18.7284 23.6301 18.4972 23.4451C18.3123 23.3064 15.029 21.2255 13.8267 20.2081C13.503 19.9307 13.1331 19.3758 13.8729 18.7284C15.5377 17.2024 17.5261 15.3064 18.7284 14.1041C19.2833 13.5492 19.8383 12.2544 17.5261 13.8266L11.0059 18.2197C11.0059 18.2197 10.266 18.6821 8.87872 18.2659C7.49144 17.8498 5.87294 17.2948 5.87294 17.2948C5.87294 17.2948 4.76312 16.6012 6.65907 15.8613Z" fill="white"/>
</svg>
