<svg width="64" height="64" viewBox="0 0 64 64" fill="none" xmlns="http://www.w3.org/2000/svg">
<path d="M32 57C45.8071 57 57 45.8071 57 32C57 18.1929 45.8071 7 32 7C18.1929 7 7 18.1929 7 32C7 45.8071 18.1929 57 32 57Z" fill="url(#paint0_linear_463_531)"/>
<path d="M55.5 32C55.5 44.9787 44.9787 55.5 32 55.5C19.0213 55.5 8.5 44.9787 8.5 32C8.5 19.0213 19.0213 8.5 32 8.5C44.9787 8.5 55.5 19.0213 55.5 32Z" stroke="#DEBD77" stroke-width="3"/>
<path d="M53 32C53 43.598 43.598 53 32 53C20.402 53 11 43.598 11 32C11 20.402 20.402 11 32 11C43.598 11 53 20.402 53 32Z" stroke="#C29E44" stroke-width="2"/>
<path d="M44 23.5086C42.9358 21.8296 42.1466 21.1197 39.3337 19.0913L39.3659 37.882L24.7089 19.7978C24.5421 19.6006 24.3937 19.444 24.2706 19.3358C24.1716 19.2468 24.0681 19.178 23.9668 19.133C23.8587 19.0845 23.7344 19.0518 23.5964 19.0338C23.4238 19.0113 23.2018 19 22.9406 19H20V42.7884C20.1864 43.3282 23.4146 45.4929 24.725 46L24.6537 26.8431L39.2221 45.1255C39.4901 45.4602 39.7617 45.689 40.0286 45.8051C40.3093 45.9268 40.6682 45.9876 41.0985 45.9876H44V23.5086Z" fill="white"/>
<defs>
<linearGradient id="paint0_linear_463_531" x1="32" y1="7" x2="32" y2="57" gradientUnits="userSpaceOnUse">
<stop stop-color="#D9B44B"/>
<stop offset="1" stop-color="#C98A32"/>
</linearGradient>
</defs>
</svg>
