<svg width="25" height="24" viewBox="0 0 25 24" fill="none" xmlns="http://www.w3.org/2000/svg">
<path d="M7.5505 21.7438C16.6109 21.7438 21.5656 14.2377 21.5656 7.72866C21.5656 7.51549 21.5613 7.30328 21.5517 7.09195C22.5157 6.3944 23.3478 5.53067 24.0088 4.54126C23.1262 4.93361 22.1764 5.1977 21.1801 5.31678C22.197 4.7069 22.9778 3.74229 23.3461 2.5923C22.3792 3.16595 21.3213 3.57031 20.2183 3.78797C19.3194 2.83053 18.0398 2.23169 16.6227 2.23169C13.9025 2.23169 11.6966 4.43765 11.6966 7.15681C11.6966 7.54336 11.7399 7.91936 11.8244 8.27997C7.73048 8.07396 4.10029 6.11389 1.67076 3.13346C1.23319 3.88512 1.00302 4.73948 1.00376 5.60923C1.00376 7.31818 1.87339 8.82685 3.19578 9.70944C2.41358 9.68558 1.64853 9.4743 0.964931 9.09336C0.964206 9.11406 0.964206 9.1342 0.964206 9.15628C0.964206 11.5418 2.66212 13.5336 4.91601 13.9849C4.4927 14.1002 4.05588 14.1585 3.61714 14.1583C3.30643 14.158 2.99644 14.1283 2.69136 14.0694C3.31849 16.0266 5.13692 17.4508 7.29285 17.4906C5.60694 18.812 3.48316 19.5991 1.17496 19.5991C0.777858 19.5991 0.385586 19.5765 0 19.5309C2.18002 20.9282 4.76858 21.7436 7.55074 21.7436" fill="#1DA1F2"/>
</svg>
