<svg width="33" height="27" viewBox="0 0 33 27" fill="none" xmlns="http://www.w3.org/2000/svg">
<path d="M10.0673 26.9917C22.1478 26.9917 28.7542 16.9836 28.7542 8.30488C28.7542 8.02065 28.7484 7.7377 28.7356 7.45594C30.021 6.52587 31.1303 5.37423 32.0117 4.05501C30.8349 4.57814 29.5685 4.93027 28.2402 5.08904C29.596 4.27586 30.6371 2.98972 31.1282 1.4564C29.8389 2.22126 28.4284 2.76041 26.9577 3.05063C25.7592 1.77404 24.053 0.975586 22.1636 0.975586C18.5367 0.975586 15.5955 3.91686 15.5955 7.54241C15.5955 8.05781 15.6532 8.55914 15.7659 9.03996C10.3073 8.76528 5.46705 6.15185 2.22768 2.17794C1.64425 3.18016 1.33736 4.3193 1.33835 5.47897C1.33835 7.75757 2.49785 9.76913 4.26105 10.9459C3.2181 10.9141 2.19803 10.6324 1.28657 10.1245C1.28561 10.1521 1.28561 10.1789 1.28561 10.2084C1.28561 13.3891 3.54949 16.0447 6.55469 16.6465C5.99026 16.8002 5.40784 16.878 4.82285 16.8777C4.40857 16.8774 3.99526 16.8377 3.58849 16.7592C4.42465 19.3688 6.84923 21.2677 9.7238 21.3208C7.47592 23.0827 4.64421 24.1321 1.56662 24.1321C1.03714 24.1321 0.514114 24.102 0 24.0412C2.90669 25.9043 6.35811 26.9914 10.0677 26.9914" fill="currentColor"/>
</svg>
