<svg width="64" height="64" viewBox="0 0 64 64" fill="none" xmlns="http://www.w3.org/2000/svg">
<path d="M56.7672 38.4174C54.792 29.0043 49.9956 20.5584 42.895 14.0235C40.238 11.5464 37.5577 10.9566 33.4195 11.0038C32.244 11.0038 31.0683 10.9802 29.8927 11.051C26.8362 11.2397 23.5444 11.8059 21.0286 14.1179C13.9515 20.6528 9.17857 29.0514 7.22705 38.441C6.09843 43.8671 9.2726 49.246 14.6333 50.9446C25.543 54.4361 38.3336 54.4361 49.2668 51.0625C54.698 49.3404 57.9193 43.9143 56.7672 38.4174ZM14.939 49.9537C10.0955 48.4203 7.22704 43.5604 8.23802 38.6533C10.1661 29.4997 14.8215 21.2662 21.7575 14.8964C23.2152 13.5517 24.9551 12.726 26.742 12.4193C25.9191 12.8675 25.1198 13.4101 24.3909 14.0707C17.2902 20.6056 12.5172 29.0279 10.5422 38.441C9.50774 43.3717 12.0234 48.2551 16.4673 50.4019C15.95 50.2604 15.4327 50.1189 14.939 49.9537ZM18.3483 49.8829C13.5283 48.373 10.6833 43.5368 11.6943 38.6769C13.5988 29.5233 18.2777 21.3134 25.1902 14.9436C26.6245 13.6225 28.3409 12.7967 30.1279 12.4901C29.3755 12.9147 28.6701 13.4337 28.0118 14.0471C20.9111 20.6056 16.1145 29.0279 14.1632 38.441C13.152 43.3008 15.5502 48.1136 19.853 50.3312C19.3593 50.1897 18.8655 50.048 18.3718 49.8829H18.3483ZM22.0162 49.8122C17.4783 47.6653 14.3982 43.5132 15.4093 38.6769C17.3137 29.5233 21.922 21.337 28.8112 14.9672C29.305 14.5189 29.6811 14.1415 30.2219 13.8112C31.3505 13.0562 32.6907 13.0327 33.7487 13.6461C34.3836 14.0235 34.7127 14.3302 35.23 14.802C42.1426 21.1718 46.6334 29.4761 48.5379 38.6533C49.5725 43.5604 46.6804 48.3967 41.8369 49.9301C36.4761 52.3365 27.33 52.3365 21.9926 49.8122H22.0162ZM43.6708 50.3312C48.0911 48.1843 50.5834 43.3244 49.5725 38.441C47.5973 29.0514 42.8244 20.6292 35.7473 14.1179C35.0888 13.5045 34.3601 12.9855 33.6076 12.5608C33.6547 12.5608 33.7252 12.5608 33.7722 12.5372C35.4416 12.8911 37.0404 13.6932 38.3807 14.9436C45.2932 21.3134 49.9486 29.5233 51.8766 38.6769C52.8876 43.5368 50.0426 48.373 45.2226 49.8829C44.7054 50.048 44.1881 50.1897 43.6708 50.3312ZM48.867 49.8122C48.3733 49.9774 47.8795 50.1189 47.3858 50.2604C51.665 48.0428 54.0631 43.2537 53.0522 38.441C51.0772 29.0514 46.3043 20.6056 39.2036 14.0707C38.5452 13.4573 37.8398 12.9619 37.1109 12.5372C38.8979 12.8439 40.5908 13.6696 42.025 14.9908C48.9141 21.3605 53.5694 29.5469 55.4975 38.7004C56.5084 43.5368 53.6636 48.326 48.8905 49.8358L48.867 49.8122Z" fill="url(#paint0_linear_1220_21311)"/>
<defs>
<linearGradient id="paint0_linear_1220_21311" x1="7.06246" y1="30.8917" x2="58.508" y2="33.6801" gradientUnits="userSpaceOnUse">
<stop stop-color="#73EAFF"/>
<stop offset="0.2" stop-color="#00B2E2"/>
<stop offset="0.6" stop-color="#415FFB"/>
<stop offset="1" stop-color="#C961D9"/>
</linearGradient>
</defs>
</svg>
