<svg width="80" height="80" viewBox="0 0 80 80" fill="none" xmlns="http://www.w3.org/2000/svg">
<g clip-path="url(#clip0_14_18887)">
<path d="M54.309 33.992H58.2403C60.063 33.992 60.9017 33.3847 61.9476 32.4737L69.5735 25.3901C69.7427 25.2102 69.8355 24.9702 69.8355 24.7191C69.8355 24.1848 69.4154 23.7518 68.8968 23.7518H53.6869C51.6003 23.7518 49.9084 25.4951 49.9084 27.6451H61.2017L54.3108 33.992H54.309Z" fill="currentColor"/>
<path d="M26.8328 36.3897L20.773 48.0585H21.6917C23.7892 48.0585 25.7212 46.8794 26.7272 44.9806L28.39 41.8482L34.1495 52.7279C34.9955 54.3266 36.6219 55.3221 38.39 55.3221H39.78L29.92 36.3897C29.6143 35.8049 29.0231 35.4393 28.3772 35.4393C27.7314 35.4393 27.1384 35.8049 26.8346 36.3916L26.8328 36.3897Z" fill="currentColor"/>
<path d="M13.1524 35.9005H8.75L17.7696 52.7017C18.6373 54.3173 20.2891 55.3221 22.0829 55.3221H23.4345L13.1524 35.9005Z" fill="currentColor"/>
<path d="M43.351 35.9005H47.7534L42.9855 44.9544C41.9812 46.8588 40.0457 48.0454 37.9425 48.0454H37.0349L43.351 35.9005Z" fill="currentColor"/>
<path d="M59.0759 35.7431H54.3277L54.7444 36.6653C55.5285 38.4011 57.2184 39.5108 59.0759 39.5108C67.6571 39.5108 67.6062 43.8128 67.6062 45.9403C67.6062 50.1936 64.7699 52.3605 59.0759 52.3605C53.3819 52.3605 51.619 50.1636 50.9023 48.4521C50.5511 47.618 49.7506 47.0819 48.8685 47.0819H46.4598C46.8036 50.9003 49.0976 56.1375 59.0759 56.1375C70.5077 56.1375 71.7429 49.6594 71.7429 45.9384C71.7429 41.9702 70.5077 35.7412 59.0759 35.7412V35.7431Z" fill="currentColor"/>
</g>
<defs>
<clipPath id="clip0_14_18887">
<rect width="63.75" height="32.5" fill="currentColor" transform="translate(8.75 23.75)"/>
</clipPath>
</defs>
</svg>
