<svg width="64" height="64" viewBox="0 0 64 64" fill="none" xmlns="http://www.w3.org/2000/svg">
<g clip-path="url(#clip0_925_21219)">
<path d="M21.4867 29.356L16.6592 38.0559H17.3911C19.0621 38.0559 20.6012 37.1768 21.4027 35.7611L22.7273 33.4257L27.3157 41.5372C27.9896 42.7294 29.2852 43.4715 30.6939 43.4715H31.8012L23.9462 29.356C23.7027 28.92 23.2317 28.6475 22.7171 28.6475C22.2026 28.6475 21.7302 28.92 21.4882 29.3574L21.4867 29.356Z" fill="currentColor"/>
<path d="M10.5221 29.1416H7L14.2159 41.5379C14.9102 42.7301 16.2317 43.4715 17.6667 43.4715H18.7481L10.5221 29.1416Z" fill="currentColor"/>
<path d="M34.7898 29.1416H38.3283L34.4958 35.7723C33.6886 37.167 32.1329 38.0361 30.4425 38.0361H29.7129L34.7898 29.1416Z" fill="currentColor"/>
<path d="M47.315 28.8959H43.4417L43.7815 29.5774C44.4212 30.86 45.7998 31.6799 47.315 31.6799C54.3149 31.6799 54.2734 34.8587 54.2734 36.4308C54.2734 39.5734 51.9598 41.1747 47.315 41.1747C42.67 41.1747 41.2321 39.5513 40.6474 38.2868C40.361 37.6704 39.7081 37.2743 38.9883 37.2743H37.0234C37.304 40.0956 39.1752 43.9656 47.315 43.9656C56.6403 43.9656 57.6479 39.1787 57.6479 36.4294C57.6479 33.4971 56.6403 28.8945 47.315 28.8945V28.8959Z" fill="currentColor"/>
<path d="M43.4112 27.412H46.553C48.0098 27.412 48.68 26.9724 49.5159 26.313L55.6103 21.1858C55.7455 21.0556 55.8196 20.8819 55.8196 20.7001C55.8196 20.3134 55.4838 20 55.0695 20H42.914C41.2465 20 39.8945 21.2618 39.8945 22.818H48.9199L43.4127 27.412H43.4112Z" fill="url(#paint0_linear_925_21219)"/>
</g>
<defs>
<linearGradient id="paint0_linear_925_21219" x1="55.8317" y1="20" x2="44.4131" y2="29.3545" gradientUnits="userSpaceOnUse">
<stop stop-color="#38FDEE"/>
<stop offset="0.390625" stop-color="#00C2FF"/>
<stop offset="1" stop-color="#D663FF"/>
</linearGradient>
<clipPath id="clip0_925_21219">
<rect width="51" height="24" fill="white" transform="translate(7 20)"/>
</clipPath>
</defs>
</svg>
