<svg width="24" height="24" viewBox="0 0 24 24" fill="none" xmlns="http://www.w3.org/2000/svg">
<rect width="24" height="24" rx="6.4" fill="#5697F5"/>
<path d="M17.0472 8.86102C14.3781 6.24685 10.0493 6.24685 7.38019 8.86102L7.05923 9.17354C6.92408 9.30446 6.92408 9.51562 7.05923 9.64654L8.15726 10.7235C8.22484 10.7868 8.33042 10.7868 8.39799 10.7235L8.84143 10.2885C10.7039 8.46404 13.7235 8.46404 15.5859 10.2885L16.0589 10.753C16.1265 10.8164 16.2321 10.8164 16.2996 10.753L17.4019 9.68033C17.537 9.54941 17.537 9.33825 17.4019 9.20733L17.0472 8.86102ZM5.1081 11.0867L4.12831 12.0453C3.99317 12.1763 3.99317 12.3874 4.12831 12.5183L8.54158 16.8387C8.67672 16.9696 8.89211 16.9696 9.02303 16.8387L12.1524 13.7726C12.1862 13.7388 12.2411 13.7388 12.2749 13.7726L15.4043 16.8387C15.5395 16.9696 15.7548 16.9696 15.8858 16.8387L20.299 12.5183C20.4342 12.3874 20.4342 12.1763 20.299 12.0453L19.3192 11.0867C19.1841 10.9557 18.9687 10.9557 18.8378 11.0867L15.7084 14.1527C15.6746 14.1865 15.6197 14.1865 15.5859 14.1527L12.4565 11.0867C12.3214 10.9557 12.106 10.9557 11.9751 11.0867L8.84565 14.1527C8.81186 14.1865 8.75696 14.1865 8.72318 14.1527L5.59377 11.0867C5.45862 10.9557 5.24324 10.9557 5.1081 11.0867Z" fill="white"/>
</svg>
