<svg width="64" height="64" viewBox="0 0 64 64" fill="none" xmlns="http://www.w3.org/2000/svg">
<path d="M29.8697 7.62854C29.6886 8.14572 29.6886 8.4819 29.8697 8.79221C30.206 9.36111 30.2577 12.4642 29.9214 12.2315C29.7921 12.1539 29.611 12.3091 29.5593 12.5418C29.4817 12.8263 29.4299 12.7487 29.4041 12.2832C29.4041 11.8953 29.2747 11.585 29.1454 11.585C28.8349 11.585 28.6021 15.0243 28.8867 15.3346C29.2488 15.6966 29.1712 16.2397 28.7315 16.2397C28.5245 16.2397 28.3434 16.4466 28.3175 16.6793C28.2917 17.4292 27.8778 16.2655 27.8519 15.3863C27.826 14.533 27.7484 14.533 26.7395 15.2312C25.9893 15.7742 25.9635 15.8518 26.0411 17.6361C26.1187 19.3169 26.0411 19.6014 25.2909 20.8944C24.6441 21.9805 24.4889 22.4976 24.5924 23.0924C24.6959 23.5062 24.7735 24.1785 24.7993 24.5664C24.8511 25.1353 24.9287 25.187 25.3167 25.006C25.8341 24.7215 26.2739 24.9026 26.2739 25.4197C26.2739 25.6266 26.4808 25.9111 26.7395 26.0404C27.1534 26.299 27.1534 26.299 26.7395 26.3248C26.1187 26.3248 26.1445 27.1523 26.7913 27.5661C27.231 27.8247 27.3087 28.1608 27.3087 29.6607C27.3087 31.0054 27.4121 31.4708 27.6967 31.6001C27.9554 31.6777 28.0847 32.0915 28.0847 32.8155C28.0847 33.643 28.0071 33.8499 27.6967 33.7206C27.4121 33.6172 27.3087 33.7464 27.3087 34.1861C27.3087 34.9101 28.1106 35.7118 28.2658 35.1687C28.3434 35.0136 28.4986 34.936 28.628 35.0136C28.7832 35.0911 29.1712 35.0911 29.5075 35.0136C30.1025 34.8584 30.1025 34.8067 30.1284 31.5743C30.1543 29.7641 30.2319 28.2384 30.2836 28.1608C30.3612 28.1091 30.413 29.4538 30.413 31.1864C30.413 32.9189 30.4906 34.3412 30.5682 34.3412C30.6716 34.3412 31.2408 34.0309 31.8616 33.6171L32.9999 32.9189L33.0257 29.5572C33.0516 27.3851 33.1292 26.5058 33.2586 27.1006C33.3879 27.7471 33.4655 27.3592 33.4914 25.6008C33.5172 23.7389 33.5949 23.2217 33.8794 23.2217C34.0864 23.2217 34.1898 23.0407 34.1381 22.7562C34.0864 22.5235 34.1122 20.7651 34.2157 18.8773C34.3451 16.8086 34.3451 15.3605 34.1898 15.2829C34.0605 15.1795 34.0346 15.257 34.1381 15.4122C34.4485 15.9035 33.9829 15.7742 33.3362 15.1536L32.7412 14.6106V15.6708C32.7412 17.1448 32.3531 18.0498 31.7064 18.0498C30.9303 18.0498 31.0338 19.0325 31.8358 19.3945C32.4049 19.6531 32.4825 19.8341 32.4307 20.6099C32.379 21.1012 32.2238 21.5408 32.0686 21.5926C31.9134 21.6443 31.8358 21.4116 31.9134 20.9461C31.991 20.3513 31.8616 20.0669 31.3184 19.6531C30.7234 19.1877 30.6458 19.0066 30.8527 18.386C31.0079 17.9464 31.3184 17.6361 31.6288 17.5844C32.1462 17.5068 32.586 16.6793 32.2755 16.3948C32.1979 16.3173 31.8875 16.2397 31.5771 16.2397C31.0855 16.2397 30.9821 16.0587 30.8269 15.0502C30.5682 13.0331 30.6458 11.0937 31.0597 10.292C31.3442 9.77486 31.3442 9.51627 31.1373 9.46455C30.9821 9.41283 30.8269 8.84393 30.8269 8.2233C30.801 6.90448 30.2836 6.56831 29.8697 7.62854ZM30.0767 14.352C29.9732 14.7916 29.9732 14.7916 29.7662 14.352C29.6627 14.1192 29.6627 13.7055 29.7662 13.4469C29.9732 13.0331 29.9732 13.0331 30.0767 13.4469C30.1543 13.7055 30.1543 14.1192 30.0767 14.352ZM29.6369 15.3346C29.999 15.8259 29.999 15.8259 29.5851 15.4898C29.3264 15.3088 29.1195 15.0243 29.1195 14.8691C29.1195 14.714 29.1454 14.6623 29.1971 14.714C29.223 14.7657 29.4299 15.0502 29.6369 15.3346ZM31.2925 19.9376C31.9392 20.403 31.4477 21.6701 30.594 21.6701C29.4817 21.6701 29.0419 20.7651 29.7921 20.0151C30.2836 19.5238 30.6975 19.498 31.2925 19.9376ZM26.8171 23.2217C27.1276 23.2217 27.3087 23.4027 27.3087 23.7389C27.3087 24.4371 26.6361 24.3854 25.8859 23.6096C25.1098 22.8597 25.0839 22.5235 25.7048 21.6701L26.1445 21.0237L26.2222 22.1098C26.2998 23.0148 26.4032 23.2217 26.8171 23.2217Z" fill="currentColor"/>
<path d="M38.6911 13.7831C38.6911 13.9899 38.898 14.2744 39.1567 14.4037C39.3895 14.5588 39.4413 14.6881 39.2861 14.6881C39.105 14.6881 38.9498 14.8691 38.9498 15.076C38.9498 15.2829 39.105 15.4639 39.2861 15.4639C39.493 15.4639 39.493 15.5415 39.2343 15.6966C39.0274 15.8259 38.9498 16.1104 39.0274 16.3173C39.105 16.55 39.0532 16.7569 38.898 16.8086C38.7169 16.8862 38.6911 17.0672 38.7945 17.2482C38.9756 17.5327 39.0532 17.5327 39.2343 17.2482C39.3895 16.9896 39.4671 16.9638 39.4671 17.1965C39.4671 17.3775 39.4413 17.5844 39.4154 17.6102C39.3637 17.662 39.493 17.8947 39.7 18.1274C39.9587 18.4636 40.1656 18.4895 40.5278 18.2826C40.9158 18.0757 41.0193 18.1274 41.0193 18.5153C41.0193 18.7739 40.8899 19.1101 40.7606 19.2394C40.4502 19.5497 40.9934 20.8944 41.4591 20.8944C41.6402 20.8944 41.873 21.1788 41.9506 21.5667C42.0799 22.0322 41.9765 22.3166 41.6402 22.5752C41.2521 22.8597 41.2004 22.989 41.4849 23.2476C41.6402 23.4286 41.7954 23.8423 41.7954 24.1526C41.7954 24.4888 42.0799 25.0577 42.4421 25.4456C42.9595 26.0145 43.063 26.299 42.9336 27.0747C42.8043 27.8764 42.9077 28.1867 43.4769 28.859C44.1495 29.6607 44.0977 29.9193 43.3993 29.4538C43.1923 29.3504 43.063 29.1435 43.0888 29.0142C43.1147 28.9108 42.9336 28.7297 42.7008 28.6522C42.468 28.5746 42.2869 28.4194 42.2869 28.316C42.3645 27.8505 41.5108 26.3248 41.0452 26.0145C40.7347 25.8335 40.5019 25.4973 40.5019 25.2646C40.5019 25.0319 40.1656 24.6957 39.7258 24.5147C39.3119 24.3337 38.9498 24.0492 38.9498 23.8682C38.9498 23.4027 38.2513 23.1958 38.0702 23.6096C37.915 24.0751 38.7169 24.9801 39.1826 24.825C39.4671 24.7215 39.5189 24.8767 39.3895 25.4973C39.2085 26.3765 39.7258 26.9972 40.7606 27.1523C41.2521 27.204 41.4332 27.4109 41.4849 28.0057C41.5367 28.4194 41.7436 28.9625 41.9247 29.1693C42.1058 29.3762 42.3128 29.79 42.3386 30.0744C42.3904 30.3589 42.856 30.7985 43.4251 31.0571C44.4599 31.5743 44.6151 31.8587 43.9684 32.1173C43.4769 32.2983 40.7606 31.0571 40.7606 30.6433C40.7606 30.4882 40.5537 30.152 40.3208 29.8675C40.0621 29.5831 40.0104 29.4279 40.1915 29.5314C40.5537 29.7383 40.6313 29.2728 40.2691 29.0659C40.1397 28.9883 40.088 28.678 40.1656 28.4194C40.3208 27.8505 39.9328 27.5402 39.3637 27.7729C39.0532 27.9022 39.0274 28.0315 39.2861 28.5746C39.5189 29.1176 39.493 29.2728 39.105 29.4797C38.6652 29.7124 38.6652 29.7641 39.1826 30.2296C39.4671 30.514 39.9069 31.0829 40.1139 31.4967C40.3467 31.9363 40.683 32.2725 40.8641 32.2725C41.071 32.2725 41.5884 32.5569 42.0023 32.9189C42.4421 33.281 42.9077 33.5654 43.0888 33.5654C43.5803 33.5654 43.1147 36.1514 42.468 36.9789C41.8212 37.8322 41.5108 37.8581 40.8899 37.1857C40.5795 36.8237 40.476 36.4617 40.5795 35.8928C40.7089 35.298 40.6313 35.0653 40.2432 34.8584C39.9587 34.7032 39.5706 34.5998 39.3637 34.6515C39.1826 34.7032 38.7687 34.4446 38.4583 34.0826C38.0185 33.5396 37.8891 33.4879 37.6563 33.824C37.4752 34.1085 37.527 34.3154 37.9409 34.6515C38.2513 34.9101 38.4324 35.2721 38.3548 35.479C38.1737 35.9445 38.6393 36.41 39.105 36.2289C39.5448 36.0738 39.5706 36.4617 39.1567 36.8754C38.6911 37.3409 38.1737 37.2375 38.1737 36.6944C38.1737 36.1255 37.5011 35.7635 37.32 36.2289C37.1648 36.6685 37.3976 37.2116 37.6822 37.0306C37.8115 36.953 37.915 37.134 37.915 37.4185C37.915 37.8322 38.0443 37.9098 38.6911 37.8322C39.105 37.7805 39.5706 37.6771 39.7258 37.5736C39.8552 37.496 40.0621 37.5995 40.1397 37.8322C40.2432 38.065 40.6571 38.427 41.071 38.6339C41.666 38.9442 41.8212 39.1769 41.7178 39.5907C41.1745 41.8404 40.9676 42.3059 40.3726 42.7972C39.8293 43.2627 39.3895 43.392 38.2254 43.3661C37.0096 43.3661 35.1211 42.9524 35.9489 42.9006C36.1042 42.8748 35.9748 42.6938 35.6903 42.461C35.4316 42.2542 35.3281 42.1249 35.4833 42.2024C35.6385 42.28 35.7679 42.1766 35.7679 41.9956C35.7679 41.7628 35.4833 41.6594 34.9142 41.7111C34.3451 41.737 33.9829 41.6335 33.8535 41.3491C33.7501 41.1164 33.5949 39.4355 33.5172 37.5736C33.362 33.7206 33.2327 33.5137 31.4218 34.7032C30.4906 35.3239 30.413 35.479 30.3612 36.6168L30.3353 37.8322L30.2319 36.7203C30.1801 36.1255 30.0508 35.6342 29.9732 35.6342C29.8956 35.6342 29.4299 35.8669 28.9643 36.1772C28.4728 36.4617 28.0847 36.591 28.0847 36.4358C28.0847 35.9962 27.7743 36.0996 26.9465 36.7461C26.3515 37.2375 26.1445 37.6512 26.0152 38.7114C25.86 39.9527 25.8859 40.1078 26.3774 40.2889C27.1276 40.5474 27.3604 40.082 26.8948 39.2286C26.5585 38.5563 26.6361 37.7029 27.0241 37.7029C27.1017 37.7029 27.3345 38.0391 27.5156 38.4528C27.8002 39.0993 27.8002 39.3321 27.438 40.0561C27.2052 40.4957 27.05 41.0905 27.1276 41.3491C27.2052 41.6335 27.1534 41.8404 27.0241 41.8404C26.8948 41.8404 26.7913 41.737 26.7913 41.6077C26.7913 41.2198 24.9028 41.4267 24.7735 41.8404C24.5665 42.4093 24.1009 42.7972 23.7387 42.6679C23.5835 42.6162 23.4283 42.6938 23.4283 42.8489C23.4283 43.0041 23.1955 43.1334 22.9109 43.1334C22.6263 43.1334 22.3935 43.0558 22.3935 42.9265C22.3935 42.6421 23.1955 41.5042 23.687 41.1164C24.0233 40.8578 23.9974 40.8319 23.5576 40.9871C23.092 41.1422 23.092 41.1164 23.6352 40.2113C23.9457 39.6941 24.1009 39.2545 23.9715 39.2545C23.7128 39.2545 23.0403 40.0303 22.7557 40.6767C22.5746 41.0646 22.5229 40.8836 22.4453 39.8492C22.3677 38.6339 22.29 38.4528 21.7209 38.3235C21.3588 38.2201 20.5568 38.2201 19.9101 38.2977C18.9271 38.4011 18.7718 38.3494 18.7718 37.9098C18.7718 37.6512 19.0305 37.315 19.3668 37.1857C19.8066 37.0047 19.8325 36.953 19.4962 36.953C19.2375 36.9271 19.0305 36.7978 19.0305 36.6427C19.0305 36.5134 18.9012 36.4617 18.746 36.5651C18.5132 36.6944 18.4873 36.5393 18.6425 35.9962C18.9271 34.8843 18.9271 34.7291 18.6425 34.6515C18.5132 34.6257 18.2803 34.9877 18.1769 35.4273C18.0475 35.8928 17.7888 36.41 17.6077 36.5651C17.4008 36.7203 17.168 37.315 17.0645 37.8839C16.9351 38.789 16.8317 38.9183 16.3401 38.789C16.0556 38.7373 15.6158 38.5046 15.383 38.2977C15.0467 38.0132 14.9173 38.0132 14.7104 38.2718C14.1154 39.0476 14.1671 39.2028 15.2795 39.7717C16.3143 40.3147 16.3919 40.3923 15.978 40.7026C15.7452 40.8836 15.383 41.0646 15.2278 41.0646C15.0467 41.0646 14.8915 41.1939 14.8915 41.3491C14.8915 41.5301 15.1502 41.5818 15.5382 41.5301C16.1073 41.4008 16.1849 41.4784 16.0297 41.9439C15.9521 42.2283 15.6158 42.7196 15.3054 43.0041C14.9691 43.2885 14.6328 43.7281 14.5552 43.9867C14.4517 44.2195 14.2189 44.4263 14.0119 44.4263C13.7791 44.4263 13.7015 44.6074 13.7791 44.9694C13.9084 45.4349 14.0895 45.4866 15.2536 45.409L16.573 45.3314L17.5043 48.0725C18.0216 49.5982 18.5132 51.2015 18.5908 51.6411C18.6942 52.0807 18.8753 52.4427 19.0047 52.4427C19.1599 52.4427 20.1429 52.029 21.2035 51.5118L23.1696 50.555V46.6244L23.8681 47.7881C24.2302 48.4345 24.8252 49.262 25.1615 49.6241C25.4978 50.012 25.8082 50.4774 25.8341 50.6584C25.9376 51.2532 28.7573 55.3648 29.7404 56.2958C30.8269 57.356 31.3184 57.2267 31.7064 55.8562C31.8358 55.2873 32.1462 54.6925 32.3531 54.5115C32.5601 54.3305 32.7412 53.9167 32.7412 53.6064C32.7412 53.2961 32.8964 52.8823 33.1033 52.7272C33.3103 52.5462 33.569 52.0807 33.6466 51.667C33.7242 51.2791 34.0346 50.736 34.3192 50.4774C34.5779 50.2447 34.8107 49.8827 34.8107 49.7016C34.8107 49.3138 36.2594 48.0466 36.6992 48.0466C36.8802 48.0466 38.0702 49.081 39.3378 50.374C41.7695 52.8306 42.0541 52.9341 43.1923 51.9514C43.7356 51.4859 44.7444 49.5982 44.4599 49.5982C44.3564 49.5982 44.4082 49.4689 44.5892 49.2879C44.7703 49.1069 44.8997 48.3052 44.8997 47.4519V45.9262L45.6757 46.1072C46.5294 46.2882 46.5553 46.2882 46.219 45.3831C46.0379 44.8918 45.6499 44.6591 44.6668 44.4263C43.9425 44.2453 43.4251 44.0126 43.5027 43.8833C43.5803 43.754 43.4769 43.6506 43.244 43.6506C42.9595 43.6506 42.9336 43.4954 43.0888 42.9265C43.7614 40.7802 44.1236 39.3838 44.1236 38.8925C44.1495 38.2201 44.9514 37.2116 45.4429 37.2375C46.3483 37.2892 46.6588 37.1599 46.607 36.7203C46.5553 36.4617 46.2707 36.2548 45.8827 36.2031C44.8997 36.0738 44.7703 35.0136 45.6499 34.1861C46.012 33.8499 46.4259 33.5654 46.5812 33.5654C46.9175 33.5654 48.2627 31.8846 48.78 30.8761C48.987 30.4365 49.4268 29.971 49.7631 29.8158C50.3581 29.5572 50.4357 28.7297 49.8407 28.859C49.6078 28.9108 49.5561 28.7815 49.6337 28.5229C49.7372 28.316 49.6596 28.135 49.5044 28.135C49.3492 28.135 49.2974 27.8505 49.4009 27.3592C49.5044 26.7127 49.4526 26.5834 49.0387 26.5834C48.3403 26.5834 48.1074 27.1265 48.6507 27.5402C48.9352 27.7212 48.987 27.8764 48.8318 27.8764C48.6507 27.8764 48.5213 28.0057 48.5213 28.1608C48.5213 28.2901 48.6507 28.3418 48.78 28.2643C48.9352 28.1867 49.0387 28.2901 49.0387 28.497C49.0387 28.7039 48.9094 28.9625 48.7542 29.0401C48.5989 29.1435 48.5472 29.3762 48.6248 29.5572C48.6766 29.7383 48.5731 29.971 48.3661 30.0486C48.1592 30.1261 48.004 30.3589 48.004 30.5916C48.004 30.7985 47.8746 30.9795 47.7194 30.9795C47.5642 30.9795 47.5124 30.7726 47.5901 30.514C47.6418 30.2813 47.7711 29.4279 47.8746 28.6263C48.004 27.4109 47.9522 27.1523 47.5901 26.9972C47.3572 26.9196 47.0209 26.9713 46.814 27.1265C46.5553 27.3333 46.4777 27.1523 46.4001 26.1697C46.3225 25.0319 45.7016 24.1268 45.2877 24.5664C45.0031 24.8508 45.417 25.8076 45.831 25.8076C46.0379 25.8076 46.1673 25.9111 46.0896 26.0145C46.012 26.1438 45.8827 26.7903 45.8051 27.4626C45.624 28.6522 45.6499 28.678 46.2449 28.6004C46.814 28.5229 46.8398 28.5746 46.7622 30.0744C46.6846 31.5225 46.3742 32.1432 45.8827 31.8587C45.7792 31.7811 45.6757 31.3932 45.6757 30.9795C45.6757 30.2296 44.7962 28.2643 44.3564 27.9798C44.2271 27.9022 44.1236 27.3592 44.1236 26.7386C44.1236 25.7301 43.451 24.5147 42.8819 24.5147C42.7784 24.5147 42.7008 23.713 42.6749 22.7304C42.649 21.5926 42.5197 20.7651 42.261 20.403C42.0282 20.0927 41.8988 19.6273 41.9765 19.3428C42.0541 19.0842 41.9765 18.7998 41.8212 18.7222C41.666 18.6187 41.5367 18.3084 41.5367 18.024C41.5367 17.7137 41.3556 17.5327 40.9934 17.5327C40.6313 17.5327 40.3467 17.2482 40.088 16.6276C39.8811 16.1104 39.7258 15.5673 39.7517 15.3863C39.7776 15.2053 39.7258 14.7657 39.6224 14.3778C39.4154 13.6279 38.6911 13.1624 38.6911 13.7831ZM28.0847 37.1857C28.0847 37.315 28.033 37.4443 27.9813 37.4443C27.9036 37.4443 27.7743 37.315 27.6967 37.1857C27.6191 37.0306 27.6708 36.9271 27.8002 36.9271C27.9554 36.9271 28.0847 37.0306 28.0847 37.1857ZM20.919 38.9183C20.5827 38.97 20.0653 38.97 19.7549 38.9183C19.4186 38.8666 19.6773 38.8149 20.324 38.8149C20.9707 38.8149 21.2294 38.8666 20.919 38.9183ZM31.5512 41.3749C31.4736 41.5042 31.2925 41.5301 31.1632 41.4267C31.0338 41.3491 30.7493 41.4008 30.5423 41.5818C30.2836 41.7887 30.1543 41.7887 29.999 41.556C29.8956 41.3749 29.9214 41.3232 30.1025 41.4267C30.2577 41.5042 30.4388 41.4784 30.5423 41.3491C30.6199 41.2198 30.9045 41.1164 31.189 41.1422C31.4477 41.1681 31.6029 41.2715 31.5512 41.3749ZM17.8664 42.9006C17.8664 43.5213 17.7371 43.8057 17.4267 43.8574C17.1421 43.9092 16.961 43.7799 16.961 43.5213C16.961 43.2885 16.8575 43.1851 16.7023 43.2627C16.573 43.3403 16.6506 43.0558 16.9093 42.6421C17.4525 41.6335 17.8664 41.7628 17.8664 42.9006ZM32.9999 42.099C33.5172 42.2542 33.5431 42.3059 33.1292 42.3059C32.8447 42.3059 32.379 42.2283 32.0944 42.099C31.4477 41.8146 32.1203 41.8146 32.9999 42.099ZM28.7315 42.3576C29.4299 42.5386 29.4299 42.5645 28.8608 42.5645C28.4986 42.5645 27.9295 42.461 27.5673 42.3576C27.05 42.2024 27.0241 42.1507 27.438 42.1507C27.7226 42.1507 28.3176 42.2542 28.7315 42.3576Z" fill="currentColor"/>
<path d="M42.1058 14.5588C41.6402 15.1019 42.1317 15.9811 42.8043 15.8001C43.5027 15.6191 43.6838 14.7398 43.0888 14.4295C42.4938 14.1192 42.5197 14.1192 42.1058 14.5588Z" fill="currentColor"/>
<path d="M40.5019 16.0845C40.5019 16.5759 41.2004 16.8086 41.3556 16.369C41.5367 15.9811 41.3297 15.7225 40.8382 15.7225C40.6571 15.7225 40.5019 15.8777 40.5019 16.0845Z" fill="currentColor"/>
<path d="M16.5212 16.1621C16.2625 16.2397 16.1849 17.9981 16.1849 23.6872C16.1849 30.7468 16.2108 31.1605 16.7282 32.1432C17.4784 33.5913 17.6853 33.7464 18.0475 33.2293C18.2286 32.9965 18.6684 32.7638 19.0305 32.7379C19.522 32.6862 19.6773 32.7896 19.8066 33.3586C19.936 34.0568 19.936 34.0309 20.4275 32.9707C20.6862 32.3759 20.9966 31.6777 21.1259 31.445C21.2553 31.1864 21.3588 27.6695 21.3588 23.6096V16.2397H19.4444C18.3838 16.2397 17.3749 16.188 17.168 16.1363C16.9869 16.0587 16.6764 16.0845 16.5212 16.1621ZM17.1421 18.6963C17.1421 18.9032 17.0386 19.0842 16.9351 19.0842C16.8317 19.0842 16.7023 18.9032 16.5988 18.6963C16.5212 18.4636 16.5988 18.3084 16.8058 18.3084C16.9869 18.3084 17.1421 18.4894 17.1421 18.6963ZM18.5132 18.6963C18.5132 18.9291 18.3579 19.0066 18.1251 18.9291C17.9182 18.8256 17.8147 18.6705 17.8923 18.5412C18.0992 18.1791 18.5132 18.2826 18.5132 18.6963ZM16.961 19.9893C16.961 20.1962 16.8575 20.3772 16.7023 20.3772C16.573 20.3772 16.4436 20.1962 16.4436 19.9893C16.4436 19.7824 16.573 19.6014 16.7023 19.6014C16.8575 19.6014 16.961 19.7824 16.961 19.9893ZM18.5132 20.1444C18.5132 20.2737 18.4097 20.3772 18.2545 20.3772C18.1251 20.3772 17.9958 20.1962 17.9958 19.9634C17.9958 19.7566 18.1251 19.6531 18.2545 19.7307C18.4097 19.8083 18.5132 19.9893 18.5132 20.1444ZM17.168 20.9202C17.1162 21.0754 16.961 21.1788 16.8317 21.1788C16.7023 21.1788 16.5471 21.0754 16.4954 20.9202C16.4436 20.7651 16.5988 20.6358 16.8317 20.6358C17.0645 20.6358 17.2197 20.7651 17.168 20.9202ZM18.5132 22.1615C18.5132 22.2908 18.3321 22.4459 18.1251 22.5494C17.8923 22.6269 17.7371 22.5494 17.7371 22.3166C17.7371 22.1098 17.9182 21.9287 18.1251 21.9287C18.3321 21.9287 18.5132 22.0322 18.5132 22.1615ZM17.2197 22.6011C17.2197 22.6528 17.0386 22.7045 16.8317 22.7045C16.6247 22.7045 16.4436 22.6011 16.4436 22.4459C16.4436 22.3166 16.6247 22.2649 16.8317 22.3425C17.0386 22.4459 17.2197 22.5494 17.2197 22.6011ZM19.2116 25.8594C19.1599 26.48 19.1081 25.9886 19.1081 24.7733C19.1081 23.5579 19.1599 23.0665 19.2116 23.6613C19.2634 24.2819 19.2634 25.2646 19.2116 25.8594ZM17.2197 23.351C17.2197 23.5579 17.0386 23.7389 16.8317 23.7389C16.6247 23.7389 16.4436 23.5579 16.4436 23.351C16.4436 23.1441 16.6247 22.9631 16.8317 22.9631C17.0386 22.9631 17.2197 23.1441 17.2197 23.351ZM18.5132 23.351C18.5132 23.5579 18.3321 23.7389 18.1251 23.7389C17.8923 23.7389 17.8147 23.5837 17.8923 23.351C17.9958 23.1441 18.151 22.9631 18.2803 22.9631C18.4097 22.9631 18.5132 23.1441 18.5132 23.351ZM18.3838 24.5147C18.4614 24.644 18.4097 24.7733 18.2803 24.7733C18.1251 24.7733 17.9958 24.644 17.9958 24.5147C17.9958 24.3595 18.0475 24.2561 18.0992 24.2561C18.1769 24.2561 18.3062 24.3595 18.3838 24.5147ZM17.1421 24.9284C17.0645 25.006 16.8317 25.0319 16.6506 24.9543C16.4436 24.8767 16.5212 24.7991 16.8058 24.7991C17.0904 24.7733 17.2456 24.8508 17.1421 24.9284ZM18.4355 25.6783C18.4355 25.8852 18.2803 26.0662 18.0992 26.0662C17.8923 26.0662 17.8147 25.9111 17.8923 25.6783C17.9958 25.4715 18.1251 25.2904 18.2286 25.2904C18.3321 25.2904 18.4355 25.4715 18.4355 25.6783ZM17.0645 26.8679C16.9869 26.9972 16.8058 27.0489 16.6764 26.9454C16.5471 26.8679 16.4954 26.6869 16.5988 26.5576C16.6764 26.4283 16.8575 26.3765 16.9869 26.48C17.1162 26.5576 17.168 26.7386 17.0645 26.8679ZM18.5132 26.7127C18.5132 26.9196 18.3579 27.1006 18.1769 27.1006C17.9699 27.1006 17.8147 26.9196 17.8147 26.7127C17.8147 26.5058 17.9699 26.3248 18.1769 26.3248C18.3579 26.3248 18.5132 26.5058 18.5132 26.7127ZM17.2197 27.954C17.2197 28.1608 17.0386 28.316 16.8317 28.316C16.4178 28.316 16.3401 28.0833 16.6247 27.7988C16.9093 27.5143 17.2197 27.5919 17.2197 27.954ZM18.2545 27.9798C18.2545 28.0574 18.151 28.1867 17.9958 28.2643C17.8664 28.3418 17.7371 28.2901 17.7371 28.1608C17.7371 28.0057 17.8664 27.8764 17.9958 27.8764C18.151 27.8764 18.2545 27.9281 18.2545 27.9798ZM17.0645 28.8849C17.1421 29.0142 17.0386 29.1693 16.8317 29.2728C16.5988 29.3504 16.4436 29.2728 16.4436 29.04C16.4436 28.6263 16.8575 28.5229 17.0645 28.8849ZM18.5132 29.1693C18.5132 29.2986 18.3321 29.3504 18.1251 29.2728C17.9182 29.1693 17.7371 29.0659 17.7371 29.0142C17.7371 28.9625 17.9182 28.9108 18.1251 28.9108C18.3321 28.9108 18.5132 29.0142 18.5132 29.1693Z" fill="currentColor"/>
<path d="M34.6296 17.5327C34.6296 18.4636 34.6814 18.8256 34.7331 18.3602C34.7848 17.9205 34.7848 17.1448 34.7331 16.6793C34.6814 16.2397 34.6296 16.6017 34.6296 17.5327Z" fill="currentColor"/>
<path d="M44.1236 22.3425C44.1236 22.5752 44.2529 22.7045 44.434 22.6528C44.8997 22.4976 44.9773 21.9287 44.5375 21.9287C44.3047 21.9287 44.1236 22.1098 44.1236 22.3425Z" fill="currentColor"/>
<path d="M37.1907 26.4024C36.9578 26.6869 36.932 26.842 37.1389 26.9713C37.527 27.204 37.7339 26.9972 37.6046 26.4283C37.527 26.0404 37.5011 26.0145 37.1907 26.4024Z" fill="currentColor"/>
<path d="M14.0895 27.3333C13.8567 28.1608 13.8567 28.5229 14.1154 29.1435C14.5293 30.152 14.788 30.152 14.995 29.1435C15.2536 27.8247 15.176 26.9196 14.788 26.6093C14.4776 26.3507 14.3482 26.4541 14.0895 27.3333Z" fill="currentColor"/>
<path d="M22.6522 27.9798C22.6522 28.4711 22.7557 28.9366 22.885 29.0142C23.1696 29.1952 23.4283 28.2901 23.2472 27.6178C23.0144 26.7903 22.6522 27.023 22.6522 27.9798Z" fill="currentColor"/>
<path d="M33.2844 30.152C33.2586 31.264 33.3103 32.3759 33.4138 32.6086C33.569 33.0482 33.6207 33.0482 34.0605 32.6345C34.3451 32.4018 34.552 31.9363 34.552 31.626C34.552 31.2898 34.759 30.9536 35.0177 30.8502C35.4057 30.695 35.4316 30.6433 35.0435 30.3847C34.8107 30.2037 34.5003 29.6348 34.3192 29.0918C33.7759 27.4626 33.3362 27.8764 33.2844 30.152ZM34.0088 30.7209C34.0088 31.2122 33.9053 31.8587 33.7759 32.1432C33.6207 32.5052 33.5431 32.0397 33.5431 30.7209C33.5431 29.4021 33.6207 28.9366 33.7759 29.2986C33.9053 29.5831 34.0088 30.2296 34.0088 30.7209Z" fill="currentColor"/>
<path d="M21.7727 29.6607C21.5916 29.9451 21.8503 30.7209 22.1348 30.7209C22.2383 30.7209 22.2642 30.4365 22.1866 30.0744C22.0572 29.3762 21.9796 29.2986 21.7727 29.6607Z" fill="currentColor"/>
<path d="M47.3572 34.8843C47.2538 35.0394 47.2537 35.2204 47.3314 35.298C47.5383 35.5049 48.2626 35.1687 48.2626 34.8584C48.2626 34.5222 47.5642 34.5222 47.3572 34.8843Z" fill="currentColor"/>
<path d="M38.1737 38.7373C37.8633 38.9183 37.8633 39.0476 38.0961 39.2803C38.3548 39.5389 38.4583 39.5131 38.5876 39.151C38.7946 38.5821 38.6393 38.4528 38.1737 38.7373Z" fill="currentColor"/>
</svg>
