<svg width="64" height="64" viewBox="0 0 64 64" fill="none" xmlns="http://www.w3.org/2000/svg">
<path d="M32.0002 58.6666C46.6668 58.6666 58.6668 46.6666 58.6668 31.9999C58.6668 17.3333 46.6668 5.33325 32.0002 5.33325C17.3335 5.33325 5.3335 17.3333 5.3335 31.9999C5.3335 46.6666 17.3335 58.6666 32.0002 58.6666Z" stroke="currentColor" stroke-width="2" stroke-miterlimit="10"/>
<path d="M46.0603 18.6924C44.7346 17.3667 42.8603 16.8486 41.047 17.3058L26.1136 21.0391C23.5993 21.6639 21.6641 23.6143 21.0393 26.1134L17.306 41.062C16.8489 42.8753 17.367 44.7496 18.6927 46.0753C19.6984 47.0658 21.0241 47.6143 22.3955 47.6143C22.8222 47.6143 23.2641 47.5686 23.6908 47.4467L38.6393 43.7134C41.1384 43.0886 43.0889 41.1534 43.7136 38.6391L47.447 23.6905C47.9041 21.8772 47.386 20.0029 46.0603 18.6924ZM32.3765 38.2886C29.1155 38.2886 26.4641 35.6372 26.4641 32.3762C26.4641 29.1153 29.1155 26.4639 32.3765 26.4639C35.6374 26.4639 38.2889 29.1153 38.2889 32.3762C38.2889 35.6372 35.6374 38.2886 32.3765 38.2886Z" fill="currentColor"/>
</svg>
